<?xml version="1.0" encoding="UTF-8"?>
<svg id="Layer_1" data-name="Layer 1" xmlns="http://www.w3.org/2000/svg" viewBox="0 0 24 24">
  <defs>
    <style>
      .cls-1 {
        fill: #fff;
      }

      .cls-2 {
        stroke: #c10074;
        stroke-miterlimit: 10;
        stroke-width: 2px;
      }

      .cls-2, .cls-3 {
        fill: none;
      }

      .cls-3 {
        opacity: .5;
      }

      .cls-4 {
        fill: #c10074;
      }

      .cls-5 {
        fill: #eb0a8c;
      }
    </style>
  </defs>
  <g>
    <circle class="cls-5" cx="8" cy="8" r="6.5"/>
    <path class="cls-4" d="m8,2c3.31,0,6,2.69,6,6s-2.69,6-6,6-6-2.69-6-6,2.69-6,6-6m0-1c-3.87,0-7,3.13-7,7s3.13,7,7,7,7-3.13,7-7S11.87,1,8,1h0Z"/>
  </g>
  <g class="cls-3">
    <ellipse class="cls-1" cx="5.06" cy="4.94" rx="2.5" ry="1.5" transform="translate(-2.01 5.03) rotate(-45)"/>
  </g>
  <g>
    <path d="m11.49,20.68c0-.31.04-.63.12-.95.08-.32.12-.66.12-1.01s-.07-.57-.2-.7-.38-.2-.72-.2h-.29v-1.74h.29c.34,0,.58-.07.72-.2s.2-.37.2-.7-.04-.69-.12-1.01c-.08-.32-.12-.64-.12-.95,0-1.37.88-2.05,2.63-2.05.14,0,.3,0,.49.01.19,0,.34.02.45.02v1.68c-.06,0-.14-.01-.22-.01h-.34c-.35,0-.61.07-.77.21-.16.14-.25.36-.25.67,0,.25.04.53.12.86s.12.65.12.99-.09.61-.26.85c-.17.24-.42.41-.74.52.66.2,1,.65,1,1.36,0,.34-.04.67-.12.99s-.12.61-.12.86c0,.3.08.53.25.67.16.14.42.21.77.21h.34c.08,0,.16,0,.23-.01v1.68c-.11,0-.26.02-.45.02-.19,0-.35.01-.49.01-1.75,0-2.63-.68-2.63-2.05Z"/>
    <path d="m22.07,13.2c0,.31-.04.63-.12.95-.08.32-.12.66-.12,1.01s.07.57.2.7.38.2.72.2h.29v1.74h-.29c-.34,0-.58.07-.72.2s-.2.37-.2.7c0,.35.04.69.12,1.01.08.32.12.64.12.95,0,1.37-.88,2.05-2.63,2.05-.14,0-.3,0-.49-.01s-.34-.02-.45-.02v-1.68c.06,0,.14.01.22.01h.34c.35,0,.61-.07.77-.21.16-.14.25-.36.25-.67,0-.25-.04-.53-.12-.86-.08-.32-.12-.65-.12-.99s.09-.61.26-.85.42-.41.74-.52c-.66-.2-1-.65-1-1.36,0-.34.04-.67.12-.99.08-.32.12-.61.12-.86,0-.3-.08-.53-.25-.67-.16-.14-.42-.21-.77-.21h-.34c-.08,0-.16,0-.23.01v-1.68c.11,0,.26-.02.45-.02s.35-.01.49-.01c1.75,0,2.63.68,2.63,2.05Z"/>
  </g>
  <path class="cls-2" d="m9,19s-4,0-6-2,2-6,2-6"/>
  <polyline class="cls-2" points="4.5 16 9 19 4.5 22"/>
</svg>