<?xml version="1.0" encoding="UTF-8"?>
<svg id="Layer_1" data-name="Layer 1" xmlns="http://www.w3.org/2000/svg" version="1.1" viewBox="0 0 24 24">
  <defs>
    <style>
      .cls-1 {
        fill: #ed1c24;
      }

      .cls-1, .cls-2 {
        stroke-width: 0px;
      }

      .cls-2 {
        fill: #fff;
      }

      .cls-3 {
        stroke: #ed1c24;
      }

      .cls-3, .cls-4 {
        stroke-width: .71px;
      }

      .cls-3, .cls-4, .cls-5 {
        fill: none;
        stroke-miterlimit: 10;
      }

      .cls-4, .cls-5 {
        stroke: #000;
      }

      .cls-5 {
        stroke-width: .28px;
      }
    </style>
  </defs>
  <polygon class="cls-2" points="4 5 4 18 19 22 19 2 4 5"/>
  <g>
    <line class="cls-4" x1="3" y1="4" x2="5" y2="6"/>
    <line class="cls-4" x1="5" y1="4" x2="3" y2="6"/>
  </g>
  <g>
    <line class="cls-4" x1="18" y1="1" x2="20" y2="3"/>
    <line class="cls-4" x1="20" y1="1" x2="18" y2="3"/>
  </g>
  <g>
    <line class="cls-4" x1="3" y1="17" x2="5" y2="19"/>
    <line class="cls-4" x1="5" y1="17" x2="3" y2="19"/>
  </g>
  <g>
    <line class="cls-3" x1="18" y1="21" x2="20" y2="23"/>
    <line class="cls-3" x1="20" y1="21" x2="18" y2="23"/>
  </g>
  <g>
    <line class="cls-5" x1="10" y1="11" x2="12" y2="13"/>
    <line class="cls-5" x1="12" y1="11" x2="10" y2="13"/>
  </g>
  <polygon class="cls-1" points="0 3.63 0 4.02 18.9 22.1 19.1 21.9 0 3.63"/>
  <polygon class="cls-1" points="0 8.25 0 8.6 18.92 22.12 19.08 21.88 0 8.25"/>
  <polygon class="cls-1" points="0 11.61 0 11.93 18.93 22.12 19.07 21.88 0 11.61"/>
  <polygon class="cls-1" points="0 14.25 0 14.55 18.95 22.13 19.05 21.87 0 14.25"/>
</svg>