<?xml version="1.0" encoding="utf-8"?>
    <!-- Generator: Grasshopper 1.0.0, Redback Plugin. SVG Version: 6.00 Build 0) Made by Andrew Butler at Cox Architecture -->
    <!DOCTYPE svg PUBLIC "-//W3C//DTD SVG 1.1//EN" "http://www.w3.org/Graphics/SVG/1.1/DTD/svg11.dtd">
    <svg version="1.1" xmlns="http://www.w3.org/2000/svg" xmlns:xlink="http://www.w3.org/1999/xlink" x="0px" y="0px"
    width="24mm" height="24mm" viewBox="0 0 24 24" xml:space="preserve">
    <style type="text/css">
    .fill-white{fill:white;}
.fill-red{fill:#ed1c24;}
    </style>
    <path d=" M5.13,15.75 L5.41,17.10 L5.53,17.56 L5.69,18.02 L5.95,18.57 L6.27,19.08 L6.48,19.36 L6.71,19.63 L7.18,20.08 L7.50,20.33 L7.85,20.56 L8.20,20.77 L8.57,20.96 L9.18,21.22 L9.81,21.42 L10.44,21.59 L11.08,21.70 L11.70,21.78 L12.34,21.81 L12.96,21.80 L13.58,21.74 L14.19,21.61 L14.51,21.51 L14.82,21.40 L15.11,21.27 L15.41,21.11 L15.69,20.93 L15.97,20.73 L16.22,20.51 L16.45,20.28 L16.65,20.05 L17.03,19.54 L17.33,19.01 L17.57,18.45 L17.74,17.87 L17.85,17.28 L17.88,16.90 L17.88,16.52 L17.85,16.13 L17.76,15.65 L17.51,14.50 L17.38,13.99 L17.20,13.50 L16.95,13.04 L16.65,12.62 L17.01,12.23 L17.33,11.84 L17.62,11.44 L17.89,11.02 L18.14,10.59 L18.38,10.11 L18.58,9.61 L18.76,9.08 L18.90,8.53 L18.99,7.97 L19.01,7.39 L18.97,6.82 L18.90,6.43 L18.66,5.33 L18.51,4.76 L18.35,4.35 L18.21,4.08 L18.05,3.83 L17.87,3.59 L17.66,3.37 L17.45,3.18 L17.23,3.00 L16.99,2.83 L16.74,2.69 L16.23,2.46 L15.70,2.31 L15.39,2.25 L15.08,2.21 L14.46,2.19 L13.92,2.22 L13.38,2.31 L12.85,2.44 L12.33,2.61 L11.90,2.79 L11.47,2.99 L10.98,3.27 L10.51,3.57 L10.06,3.91 L9.62,4.27 L9.21,4.65 L8.82,5.06 L8.45,5.49 L8.12,5.94 L7.74,6.50 L7.48,6.97 L7.24,7.46 L7.05,7.95 L6.90,8.45 L6.78,9.00 L6.72,9.45 L6.71,9.91 L6.75,10.45 L6.46,10.62 L6.20,10.82 L5.93,11.11 L5.70,11.42 L5.52,11.74 L5.37,12.08 L5.25,12.44 L5.16,12.81 L5.08,13.21 L5.02,13.62 L4.99,14.09 L4.99,14.55 L5.02,15.07Z" z-index="0" class="fill-white"/>
<path d=" M42.77,17.05 L43.09,16.73 L43.30,16.46 L43.48,16.17 L43.63,15.83 L43.70,15.64 L43.77,15.26 L43.78,15.06 L43.77,14.86 L43.72,14.66 L43.65,14.47 L43.55,14.29 L43.41,14.13 L43.26,14.00 L43.09,13.89 L42.92,13.82 L42.73,13.76 L42.52,13.73 L42.30,13.72 L41.93,13.76 L41.57,13.87 L41.27,14.00 L40.94,14.20 L40.63,14.44 L40.35,14.72 L40.11,15.02 L39.98,15.22 L39.80,15.55 L39.68,15.89 L39.64,16.08 L39.62,16.40 L39.63,16.58 L39.44,16.71 L39.27,16.92 L39.15,17.15 L39.08,17.40 L39.03,17.68 L39.02,18.01 L39.06,18.36 L39.17,18.74 L39.25,18.93 L39.36,19.11 L39.52,19.30 L39.68,19.45 L39.91,19.62 L40.16,19.76 L40.59,19.92 L41.03,20.02 L41.47,20.06 L41.90,20.03 L42.22,19.95 L42.43,19.87 L42.63,19.75 L42.81,19.60 L42.96,19.44 L43.09,19.27 L43.20,19.08 L43.28,18.89 L43.34,18.69 L43.38,18.48 L43.39,18.22 L43.37,18.02 L43.32,17.82 L43.21,17.56 L43.11,17.40 L42.99,17.25Z" />
<path d=" M55.99,17.98 L55.90,18.21 L55.48,18.74 L54.99,19.30 L54.55,19.72 L54.29,19.93 L54.01,20.12 L53.72,20.30 L53.42,20.44 L53.12,20.56 L52.80,20.65 L52.53,20.69 L52.26,20.70 L52.05,20.68 L51.84,20.65 L51.58,20.57 L51.24,20.39 L51.18,20.47 L51.06,20.59 L50.89,20.69 L50.70,20.74 L50.51,20.75 L50.34,20.72 L50.10,20.65 L49.85,20.56 L49.84,20.78 L49.79,21.01 L49.61,21.76 L49.57,21.89 L49.45,22.19 L49.31,22.47 L49.07,22.81 L48.83,23.09 L48.56,23.34 L48.29,23.55 L47.99,23.73 L47.69,23.88 L47.37,23.99 L47.02,24.08 L46.67,24.13 L46.37,24.15 L46.07,24.13 L45.79,24.08 L45.55,24.01 L45.34,23.92 L45.15,23.80 L44.98,23.66 L44.82,23.51 L44.69,23.33 L44.57,23.14 L44.48,22.94 L44.41,22.73 L44.35,22.51 L44.32,22.28 L44.30,21.86 L44.33,21.54 L43.89,21.61 L43.37,21.76 L42.82,21.96 L40.56,22.96 L40.11,23.13 L39.65,23.26 L39.20,23.36 L38.77,23.41 L38.37,23.42 L37.96,23.39 L37.60,23.31 L37.30,23.20 L37.01,23.04 L36.76,22.82 L36.58,22.57 L36.44,22.30 L36.36,22.02 L36.31,21.75 L36.31,21.37 L36.36,21.10 L36.54,20.33 L36.61,20.13 L36.69,19.99 L36.84,19.83 L37.03,19.72 L37.21,19.68 L37.34,19.68 L37.58,19.73 L37.85,19.86 L38.20,19.94 L38.48,19.97 L38.96,19.95 L39.16,19.94 L38.97,19.59 L38.89,19.36 L38.85,19.15 L38.82,18.72 L38.85,18.36 L38.90,18.15 L39.08,17.40 L39.19,17.06 L39.27,16.93 L39.36,16.80 L39.49,16.67 L39.66,15.97 L39.80,15.55 L39.98,15.22 L40.11,15.02 L40.35,14.72 L40.72,14.36 L40.56,14.23 L40.42,14.07 L40.29,13.89 L40.19,13.69 L40.12,13.48 L40.08,13.27 L40.08,13.05 L40.12,12.78 L40.31,12.00 L40.38,11.79 L40.47,11.59 L40.64,11.35 L40.79,11.22 L40.99,11.13 L41.08,11.11 L41.34,11.12 L41.54,11.19 L41.82,11.37 L42.12,11.52 L42.43,11.62 L42.95,11.70 L43.51,11.75 L44.71,11.79 L45.10,11.79 L45.36,11.50 L45.63,11.28 L45.84,11.17 L46.08,11.09 L46.33,11.06 L46.58,11.06 L46.81,11.09 L47.04,11.16 L47.21,11.24 L47.38,11.35 L47.55,11.49 L47.75,11.75 L47.83,11.94 L48.47,12.10 L48.86,12.26 L49.16,12.45 L49.33,12.62 L49.48,12.85 L49.55,13.03 L49.61,13.29 L49.61,13.49 L49.57,13.74 L49.44,14.30 L49.63,14.39 L49.82,14.50 L50.06,13.83 L50.33,13.18 L50.68,12.45 L50.96,11.96 L51.12,11.73 L51.30,11.53 L51.49,11.37 L51.70,11.24 L51.94,11.14 L52.23,11.09 L52.55,11.09 L52.72,11.12 L52.89,11.16 L53.08,11.25 L53.36,11.43 L53.60,11.67 L53.70,11.81 L53.80,12.02 L53.83,12.20 L53.84,12.34 L53.81,12.49 L53.62,13.26 L53.55,13.47 L53.41,13.65 L53.15,13.94 L52.79,14.47 L53.23,14.25 L53.58,14.13 L53.96,14.08 L54.16,14.08 L54.41,14.12 L54.63,14.20 L54.84,14.32 L55.03,14.48 L55.19,14.67 L55.31,14.88 L55.38,15.13 L55.40,15.38 L55.38,15.62 L55.34,15.80 L55.22,16.27 L55.48,16.23 L55.69,16.25 L55.86,16.32 L56.00,16.43 L56.12,16.58 L56.17,16.70 L56.22,16.92 L56.20,17.16 L56.19,17.19Z" z-index="0" class="fill-white"/>
<path d=" M13.57,6.12 L13.65,6.20 L13.70,6.35 L13.73,6.56 L13.72,6.84 L13.67,7.17 L13.58,7.52 L13.45,7.90 L13.26,8.28 L13.01,8.67 L12.71,9.06 L12.06,9.83 L11.93,10.02 L11.82,10.21 L11.74,10.39 L11.70,10.57 L11.70,10.74 L11.74,10.90 L11.83,11.04 L11.97,11.17 L12.14,11.26 L12.35,11.33 L12.59,11.36 L12.87,11.36 L13.17,11.30 L13.50,11.21 L13.84,11.06 L14.19,10.87 L14.55,10.62 L14.90,10.32 L15.26,9.98 L15.60,9.58 L15.92,9.15 L16.22,8.69 L16.48,8.20 L16.70,7.70 L16.87,7.19 L16.98,6.69 L17.03,6.22 L17.01,5.77 L16.92,5.36 L16.77,4.99 L16.55,4.67 L16.28,4.40 L15.95,4.19 L15.57,4.03 L15.16,3.93 L14.72,3.88 L14.26,3.90 L13.78,3.96 L13.29,4.08 L12.80,4.25 L12.31,4.47 L11.83,4.74 L11.36,5.05 L10.91,5.40 L10.48,5.78 L10.08,6.20 L9.71,6.64 L9.38,7.09 L9.09,7.56 L8.85,8.03 L8.66,8.49 L8.52,8.94 L8.44,9.39 L8.41,9.81 L8.43,10.21 L8.50,10.58 L8.62,10.93 L8.79,11.24 L9.00,11.53 L9.25,11.78 L9.54,12.01 L9.85,12.21 L10.18,12.39 L10.53,12.54 L11.91,13.07 L12.51,13.33 L13.01,13.60 L13.41,13.88 L13.69,14.16 L13.78,14.30 L13.85,14.44 L13.89,14.57 L13.91,14.70 L13.90,14.82 L13.86,14.93 L13.80,15.03 L13.71,15.11 L13.60,15.19 L13.47,15.25 L13.32,15.29 L13.15,15.32 L12.75,15.33 L12.29,15.27 L11.77,15.13 L11.23,14.94 L10.68,14.71 L10.15,14.45 L9.68,14.17 L9.26,13.89 L8.92,13.58 L8.66,13.26 L8.48,12.93 L8.22,12.32 L8.10,12.10 L8.03,12.01 L7.95,11.95 L7.87,11.92 L7.78,11.90 L7.60,11.93 L7.41,12.03 L7.23,12.20 L7.07,12.45 L6.92,12.78 L6.81,13.21 L6.72,13.73 L6.68,14.32 L6.71,14.95 L6.76,15.28 L6.83,15.60 L6.94,15.92 L7.06,16.24 L7.23,16.54 L7.42,16.83 L7.65,17.11 L7.91,17.37 L8.21,17.62 L8.55,17.84 L8.91,18.04 L9.31,18.21 L9.72,18.37 L10.16,18.49 L10.60,18.60 L11.05,18.68 L11.49,18.74 L11.92,18.77 L12.34,18.77 L12.74,18.75 L13.13,18.70 L13.49,18.62 L13.83,18.51 L14.15,18.36 L14.45,18.18 L14.72,17.97 L14.97,17.73 L15.19,17.46 L15.38,17.17 L15.55,16.85 L15.68,16.53 L15.79,16.19 L15.86,15.86 L15.89,15.53 L15.89,15.20 L15.86,14.89 L15.79,14.59 L15.69,14.31 L15.57,14.04 L15.41,13.79 L15.23,13.55 L15.02,13.34 L14.80,13.14 L14.55,12.96 L14.02,12.65 L13.46,12.39 L12.32,11.98 L11.81,11.77 L11.58,11.65 L11.38,11.51 L11.21,11.35 L11.08,11.17 L10.97,10.97 L10.90,10.75 L10.86,10.51 L10.85,10.25 L10.87,9.98 L10.91,9.70 L11.04,9.12 L11.23,8.56 L11.46,8.03 L11.71,7.56 L11.97,7.15 L12.23,6.81 L12.49,6.55 L12.71,6.36 L12.91,6.23 L13.19,6.09 L13.39,6.07 L13.48,6.08Z" z-index="1" class="fill-red"/>
<path d=" M42.00,15.08 L42.04,15.16 L42.05,15.33 L42.00,15.57 L41.89,15.83 L41.70,16.10 L41.47,16.37 L41.39,16.50 L41.35,16.63 L41.36,16.74 L41.44,16.83 L41.57,16.89 L41.75,16.90 L41.97,16.85 L42.21,16.73 L42.46,16.54 L42.70,16.28 L42.91,15.97 L43.08,15.63 L43.18,15.28 L43.19,15.12 L43.19,14.96 L43.16,14.82 L43.10,14.69 L43.03,14.58 L42.93,14.49 L42.82,14.42 L42.69,14.36 L42.55,14.33 L42.40,14.31 L42.07,14.34 L41.73,14.44 L41.39,14.61 L41.07,14.83 L40.79,15.11 L40.54,15.42 L40.36,15.74 L40.25,16.06 L40.21,16.36 L40.24,16.63 L40.34,16.86 L40.50,17.05 L40.71,17.19 L40.94,17.31 L41.42,17.49 L41.80,17.68 L41.94,17.77 L42.04,17.87 L42.09,17.97 L42.11,18.06 L42.10,18.14 L42.04,18.20 L41.96,18.25 L41.85,18.27 L41.71,18.28 L41.55,18.25 L41.18,18.14 L40.81,17.97 L40.50,17.77 L40.39,17.67 L40.30,17.56 L40.10,17.15 L40.05,17.11 L39.99,17.09 L39.93,17.10 L39.86,17.13 L39.80,17.19 L39.74,17.28 L39.65,17.54 L39.61,17.92 L39.62,18.14 L39.66,18.37 L39.74,18.59 L39.86,18.80 L40.04,18.98 L40.26,19.14 L40.52,19.27 L40.81,19.37 L41.12,19.44 L41.42,19.47 L41.71,19.46 L41.97,19.41 L42.20,19.33 L42.39,19.19 L42.56,19.01 L42.68,18.80 L42.76,18.57 L42.80,18.34 L42.79,18.12 L42.73,17.92 L42.63,17.74 L42.50,17.59 L42.34,17.45 L42.15,17.35 L41.38,17.04 L41.24,16.95 L41.13,16.83 L41.07,16.69 L41.05,16.51 L41.07,16.32 L41.12,16.12 L41.26,15.75 L41.44,15.44 L41.62,15.23 L41.77,15.12 L41.86,15.07 L41.93,15.07Z" z-index="1" class="fill-red"/>
<path d=" M52.20,17.55 L52.46,17.54 L52.77,17.49 L53.12,17.40 L53.46,17.26 L53.80,17.05 L54.09,16.78 L54.34,16.47 L54.55,16.15 L54.69,15.88 L54.78,15.62 L54.81,15.38 L54.78,15.15 L54.68,14.97 L54.53,14.82 L54.33,14.71 L54.09,14.67 L53.88,14.68 L53.66,14.72 L53.43,14.80 L53.19,14.92 L52.96,15.06 L52.72,15.22 L52.49,15.41 L52.28,15.62 L52.06,15.86 L51.86,16.11 L51.68,16.37 L51.52,16.65 L51.39,16.92 L51.29,17.20 L51.23,17.47 L51.19,17.74 L51.19,17.94 L51.21,18.13 L51.25,18.31 L51.31,18.48 L51.38,18.64 L51.47,18.78 L51.58,18.91 L51.70,19.02 L51.82,19.10 L51.96,19.17 L52.26,19.26 L52.58,19.27 L52.92,19.23 L53.14,19.17 L53.35,19.09 L53.77,18.87 L54.18,18.60 L54.55,18.28 L54.85,17.98 L55.58,17.11 L55.63,17.00 L55.62,16.91 L55.57,16.83 L55.47,16.82 L55.36,16.85 L55.20,17.03 L54.88,17.33 L54.41,17.67 L53.88,17.97 L53.63,18.08 L53.38,18.16 L53.06,18.22 L52.91,18.21 L52.78,18.19 L52.69,18.15 L52.61,18.09 L52.54,18.01 L52.48,17.91 L52.43,17.70 L52.41,17.43 L52.44,17.14 L52.50,16.83 L52.62,16.50 L52.78,16.19 L52.94,15.91 L53.11,15.68 L53.27,15.50 L53.35,15.45 L53.43,15.43 L53.49,15.44 L53.55,15.48 L53.60,15.54 L53.63,15.61 L53.63,15.70 L53.62,15.80 L53.53,16.02 L53.38,16.25 L53.20,16.49 L52.97,16.71 L52.74,16.90 L52.51,17.05 L52.30,17.15 L52.02,17.25 L51.96,17.29 L51.92,17.39 L51.94,17.48 L51.98,17.51 L52.03,17.54Z" z-index="1" class="fill-red"/>
<path d=" M50.69,19.31 L50.45,19.24 L50.19,19.14 L49.94,18.98 L49.84,18.88 L49.75,18.76 L49.67,18.57 L49.63,18.33 L49.61,18.07 L49.62,17.78 L49.68,17.33 L49.78,16.84 L50.03,15.85 L50.30,14.93 L50.62,14.03 L51.00,13.14 L51.38,12.40 L51.56,12.12 L51.75,11.91 L51.93,11.78 L52.15,11.70 L52.28,11.67 L52.42,11.67 L52.57,11.68 L52.71,11.73 L52.86,11.80 L53.00,11.89 L53.11,12.00 L53.19,12.11 L53.25,12.23 L53.24,12.34 L53.18,12.42 L53.08,12.53 L52.78,12.89 L52.44,13.41 L52.05,14.15 L51.69,14.91 L51.42,15.56 L51.19,16.20 L50.99,16.88 L50.85,17.54 L50.78,18.01 L50.77,18.44 L50.81,18.75 L50.89,18.98 L50.97,19.10 L50.97,19.16 L50.94,19.24 L50.86,19.31 L50.79,19.33Z" z-index="1" class="fill-red"/>
<path d=" M46.52,20.90 L46.31,20.81 L46.20,20.73 L46.10,20.64 L46.04,20.54 L46.01,20.43 L46.01,20.20 L46.07,19.99 L46.18,19.81 L46.27,19.71 L46.39,19.63 L46.54,19.55 L46.70,19.49 L46.96,19.43 L47.23,19.39 L47.78,19.35 L48.16,19.35 L48.50,19.39 L48.81,19.50 L48.95,19.58 L49.07,19.69 L49.15,19.82 L49.20,19.97 L49.26,20.30 L49.26,20.62 L49.24,20.78 L49.19,20.95 L49.07,21.21 L48.91,21.48 L48.70,21.75 L48.45,22.00 L48.18,22.22 L47.88,22.40 L47.56,22.54 L47.23,22.65 L46.93,22.70 L46.63,22.73 L46.34,22.72 L46.08,22.67 L45.89,22.60 L45.73,22.51 L45.59,22.40 L45.46,22.27 L45.35,22.12 L45.25,21.94 L45.18,21.75 L45.13,21.55 L45.10,21.33 L45.09,21.12 L45.13,20.69 L45.19,20.40 L45.27,20.19 L45.33,20.10 L45.25,20.08 L44.82,20.09 L44.17,20.17 L43.69,20.28 L43.21,20.43 L42.73,20.61 L40.50,21.60 L39.82,21.83 L39.48,21.92 L39.15,21.97 L38.86,22.00 L38.57,22.00 L38.30,21.98 L38.04,21.94 L37.85,21.88 L37.68,21.80 L37.53,21.71 L37.40,21.59 L37.30,21.46 L37.22,21.32 L37.16,21.17 L37.12,21.00 L37.10,20.68 L37.13,20.42 L37.17,20.33 L37.22,20.28 L37.28,20.26 L37.33,20.27 L37.55,20.38 L37.90,20.49 L38.13,20.53 L38.39,20.55 L38.83,20.55 L39.31,20.51 L39.81,20.44 L40.31,20.34 L42.17,19.85 L42.99,19.66 L43.79,19.52 L44.42,19.45 L44.96,19.41 L45.25,19.42 L45.50,19.46 L45.69,19.51 L45.83,19.59 L45.89,19.65 L45.91,19.73 L45.88,19.93 L45.74,20.43 L45.70,20.67 L45.73,20.90 L45.82,21.11 L45.88,21.20 L45.97,21.28 L46.08,21.34 L46.20,21.39 L46.45,21.44 L46.72,21.47 L47.02,21.46 L47.32,21.40 L47.61,21.31 L47.87,21.18 L48.10,21.03 L48.31,20.86 L48.55,20.59 L48.70,20.35 L48.74,20.23 L48.74,20.14 L48.69,20.08 L48.59,20.04 L48.34,20.03 L48.01,20.05 L47.65,20.10 L47.31,20.19 L47.13,20.26 L46.98,20.34 L46.79,20.50 L46.74,20.59 L46.66,20.84 L46.61,20.91Z" z-index="1" class="fill-red"/>
<path d=" M47.74,17.40 L47.64,17.76 L47.50,18.10 L47.32,18.43 L47.11,18.79 L46.91,19.03 L46.63,19.22 L46.61,19.27 L46.61,19.32 L46.63,19.38 L46.67,19.42 L46.74,19.46 L46.83,19.48 L46.98,19.48 L47.15,19.46 L47.32,19.41 L47.49,19.34 L47.73,19.20 L47.95,19.00 L48.17,18.76 L48.38,18.47 L48.60,18.11 L48.81,17.73 L49.16,16.95 L49.41,16.25 L49.59,15.62 L49.63,15.41 L49.63,15.24 L49.60,15.11 L49.54,15.02 L49.38,14.92 L49.16,14.83 L48.93,14.78 L48.70,14.81 L48.59,14.86 L48.50,14.91 L48.45,14.98 L48.41,15.06 L48.32,15.58 L48.26,15.77 L48.17,15.98 L47.91,16.42 L47.57,16.93 L47.19,17.45 L47.00,17.68 L46.83,17.83 L46.69,17.91 L46.57,17.91 L46.49,17.84 L46.45,17.71 L46.43,17.55 L46.44,17.35 L46.53,16.92 L46.69,16.42 L46.91,15.95 L47.20,15.49 L47.24,15.37 L47.25,15.26 L47.21,15.15 L47.08,14.97 L46.88,14.81 L46.67,14.71 L46.46,14.66 L46.37,14.67 L46.29,14.69 L46.24,14.74 L45.87,15.41 L45.57,15.92 L45.45,16.18 L45.34,16.45 L45.14,17.15 L45.06,17.54 L45.00,17.93 L45.01,18.31 L45.04,18.48 L45.10,18.64 L45.18,18.78 L45.29,18.89 L45.41,18.99 L45.55,19.06 L45.83,19.15 L46.10,19.16 L46.34,19.11 L46.55,19.00 L46.72,18.84 L46.90,18.64 L47.29,18.12 L47.52,17.78 L47.70,17.47Z" z-index="1" class="fill-red"/>
<path d=" M40.99,11.87 L41.06,11.76 L41.16,11.69 L41.22,11.70 L41.78,12.01 L42.15,12.15 L42.52,12.23 L42.89,12.29 L43.46,12.34 L44.05,12.36 L46.57,12.38 L47.26,12.44 L47.99,12.57 L48.29,12.66 L48.58,12.77 L48.70,12.84 L48.81,12.93 L48.90,13.03 L48.97,13.16 L49.01,13.28 L49.03,13.42 L49.01,13.55 L48.97,13.68 L48.89,13.81 L48.77,13.90 L48.63,13.96 L48.47,13.97 L48.39,13.95 L48.34,13.72 L48.29,13.63 L48.12,13.49 L47.86,13.35 L47.60,13.24 L47.06,13.10 L46.43,13.00 L45.80,12.95 L45.16,12.96 L44.53,13.02 L43.01,13.29 L42.49,13.34 L42.20,13.34 L41.90,13.32 L41.62,13.25 L41.36,13.12 L41.21,13.01 L41.08,12.87 L40.97,12.72 L40.90,12.55 L40.87,12.38 L40.87,12.21 L40.91,12.04Z" z-index="1" class="fill-red"/>
<path d=" M43.54,16.76 L43.92,15.69 L44.35,14.63 L44.99,13.17 L45.32,12.52 L45.52,12.21 L45.75,11.94 L45.99,11.76 L46.17,11.68 L46.37,11.64 L46.58,11.65 L46.78,11.70 L46.93,11.76 L47.06,11.84 L47.17,11.94 L47.25,12.06 L47.29,12.16 L47.30,12.30 L47.27,12.37 L46.98,12.61 L46.77,12.84 L46.58,13.10 L45.95,14.15 L45.57,14.92 L45.17,15.84 L44.63,17.21 L44.49,17.64 L44.41,18.08 L44.39,18.29 L44.39,18.50 L44.43,18.72 L44.52,18.97 L44.55,19.09 L44.53,19.25 L44.50,19.28 L44.41,19.33 L44.30,19.35 L44.16,19.34 L44.01,19.30 L43.86,19.23 L43.71,19.14 L43.58,19.01 L43.47,18.88 L43.33,18.61 L43.26,18.34 L43.24,18.07 L43.26,17.80 L43.37,17.27Z" z-index="1" class="fill-red"/>
    </svg>