<?xml version="1.0" encoding="UTF-8"?>
<svg id="Layer_1" data-name="Layer 1" xmlns="http://www.w3.org/2000/svg" xmlns:xlink="http://www.w3.org/1999/xlink" viewBox="0 0 24 24">
  <defs>
    <style>
      .cls-1 {
        fill: #fff;
      }

      .cls-2 {
        stroke: #fff;
        stroke-miterlimit: 10;
        stroke-width: .75px;
      }

      .cls-2, .cls-3, .cls-4 {
        fill: none;
      }

      .cls-5 {
        opacity: .2;
      }

      .cls-6 {
        opacity: .1;
      }

      .cls-4 {
        clip-path: url(#clippath);
      }

      .cls-7 {
        fill: #ed1c24;
      }
    </style>
    <clipPath id="clippath">
      <path class="cls-3" d="m22.1,6.02c.47-1.28-.04-2.56-1.1-3.54-1.06-.98-2.36-1.39-3.6-.83l-.61.57L7.87,11.86l-.53.57-2.53,2.74-2.79,7.39c-.1.28.18.54.45.41l7.15-3.36,1.26-1.37,1.26-1.37.3-.33,9.13-9.88.52-.64Z"/>
    </clipPath>
  </defs>
  <g class="cls-4">
    <rect class="cls-7" width="24" height="24"/>
    <ellipse class="cls-1" cx="2" cy="22.5" rx="7" ry="6.5"/>
    <circle class="cls-7" cx="-1" cy="29" r="10"/>
    <circle class="cls-7" cx="-2" cy="28" r="10"/>
    <path class="cls-5" d="m1,17s5,0,5-1S20,1,20,1l-9-3L-1,13"/>
    <polyline class="cls-6" points="10 22 8 18 27 -1 28 12 17 20"/>
    <line class="cls-2" x1="18" y1="4" x2="13" y2="9"/>
  </g>
</svg>