<?xml version="1.0" encoding="UTF-8"?>
<svg id="Layer_1" data-name="Layer 1" xmlns="http://www.w3.org/2000/svg" xmlns:xlink="http://www.w3.org/1999/xlink" viewBox="0 0 24 24">
  <defs>
    <style>
      .cls-1 {
        fill: #9e0f11;
      }

      .cls-1, .cls-2, .cls-3, .cls-4, .cls-5 {
        stroke-width: 0px;
      }

      .cls-2 {
        fill: none;
      }

      .cls-3 {
        fill: #ed1c24;
      }

      .cls-6 {
        clip-path: url(#clippath-1);
      }

      .cls-7 {
        clip-path: url(#clippath);
      }

      .cls-4 {
        fill: #fff;
      }

      .cls-5 {
        fill: #c41a1e;
      }
    </style>
    <clipPath id="clippath">
      <polygon class="cls-2" points="23.18 4.27 16.39 19.73 8.15 13.78 23.18 4.27"/>
    </clipPath>
    <clipPath id="clippath-1">
      <polygon class="cls-2" points="6.49 12.36 .82 9.34 23.18 4.27 6.49 12.36"/>
    </clipPath>
  </defs>
  <g class="cls-7">
    <rect class="cls-3" width="24" height="24"/>
    <path class="cls-4" d="M20.94,12.62l-10.25,7.38,8.62,3.19c.12-.62,1.62-10.56,1.62-10.56Z"/>
  </g>
  <polygon class="cls-5" points="8.15 13.78 6.51 17.61 6.49 12.36 23.18 4.27 8.15 13.78"/>
  <g class="cls-6">
    <rect class="cls-3" width="24" height="24"/>
    <path class="cls-4" d="M10.62,4.27L2.69,12.71S-3.69,7.59-3.19,7.34s9.67-3.06,9.67-3.06h4.14Z"/>
  </g>
  <polygon class="cls-1" points="6.51 17.61 10.09 15.18 8.15 13.78 6.51 17.61"/>
</svg>