<?xml version="1.0" encoding="UTF-8"?>
<svg id="Layer_1" data-name="Layer 1" xmlns="http://www.w3.org/2000/svg" viewBox="0 0 21.5 21.5">
  <defs>
    <style>
      .cls-1 {
        fill: #ed1c24;
      }
    </style>
  </defs>
  <path class="cls-1" d="m19.48,11.76c2.69-2.69,2.69-7.05,0-9.75s-7.05-2.69-9.75,0c-2.02,2.02-2.52,4.98-1.51,7.47L0,17.71v3.79h3.79l1.34-1.35-1.35-1.35,1.08-1.08,1.35,1.35,1.08-1.08-1.89-1.89,1.08-1.08,1.89,1.89,1.08-1.08-1.35-1.35,1.08-1.08,1.35,1.35,1.47-1.47c2.49,1.01,5.45.51,7.47-1.51Zm-2.22-7.56c.93.93.93,2.45,0,3.38s-2.45.93-3.38,0-.93-2.45,0-3.38,2.45-.93,3.38,0Z"/>
</svg>