<svg version="1.1" baseProfile="full" width="24" height="24" xmlns="http://www.w3.org/2000/svg">
  <defs />
  <g fill="none" stroke="none">
    <path d="M 18.223253 20.018229 L 20.04054 4.8675833 L 9.314818 4.8536897 L 3.9596267 13.807231 L 18.223253 20.018229" fill="#22B8CF" stroke="#0B7285" stroke-width="1" stroke-linecap="round" stroke-linejoin="round" />
    <path d="M 21.54054 4.8675833 A 1.5 1.5 0 0 1 18.54054 4.8675833 A 1.5 1.5 0 0 1 21.54054 4.8675838" fill="#66D9E8" stroke="#0B7285" stroke-width="1" stroke-linecap="round" stroke-linejoin="round" />
    <path d="M 5.4596267 13.807231 A 1.5 1.5 0 0 1 2.4596267 13.807231 A 1.5 1.5 0 0 1 5.4596267 13.807231" fill="#66D9E8" stroke="#0B7285" stroke-width="1" stroke-linecap="round" stroke-linejoin="round" />
    <path d="M 10.814818 4.8536897 A 1.5 1.5 0 0 1 7.8148184 4.8536897 A 1.5 1.5 0 0 1 10.814818 4.85369" fill="#66D9E8" stroke="#0B7285" stroke-width="1" stroke-linecap="round" stroke-linejoin="round" />
    <path d="M 19.723253 20.018229 A 1.5 1.5 0 0 1 16.723253 20.018229 A 1.5 1.5 0 0 1 19.723253 20.018229" fill="#66D9E8" stroke="#0B7285" stroke-width="1" stroke-linecap="round" stroke-linejoin="round" />
    <path d="M 11.961414 9.358904 L 9.813976 2" stroke="#A61E4D" stroke-width="1" stroke-linecap="round" stroke-linejoin="round" />
    <path d="M 11.961414 9.358904 L 2 10.93552" stroke="#A61E4D" stroke-width="1" stroke-linecap="round" stroke-linejoin="round" />
    <path d="M 11.961414 9.358904 L 2 3.084634" stroke="#A61E4D" stroke-width="1" stroke-linecap="round" stroke-linejoin="round" />
    <path d="M 11.961414 9.358904 L 2 20.980612" stroke="#A61E4D" stroke-width="1" stroke-linecap="round" stroke-linejoin="round" />
    <path d="M 11.69352 4.2095313 L 10.887695 5.679452" stroke="#A61E4D" stroke-width="1" stroke-linecap="round" stroke-linejoin="round" />
    <path d="M 5.309334 15.298329 L 6.980707 15.169758" stroke="#A61E4D" stroke-width="1" stroke-linecap="round" stroke-linejoin="round" />
    <path d="M 7.1092787 16.841131 L 6.980707 15.169758" stroke="#A61E4D" stroke-width="1" stroke-linecap="round" stroke-linejoin="round" />
    <path d="M 5.6246505 9.161753 L 6.980707 10.147212" stroke="#A61E4D" stroke-width="1" stroke-linecap="round" stroke-linejoin="round" />
    <path d="M 5.995248 11.503269 L 6.980707 10.147212" stroke="#A61E4D" stroke-width="1" stroke-linecap="round" stroke-linejoin="round" />
    <path d="M 6.609468 4.5870824 L 6.980707 6.2217693" stroke="#A61E4D" stroke-width="1" stroke-linecap="round" stroke-linejoin="round" />
    <path d="M 9.417774 4.8736277 L 10.887695 5.679452" stroke="#A61E4D" stroke-width="1" stroke-linecap="round" stroke-linejoin="round" />
    <path d="M 5.34602 6.5930085 L 6.980707 6.2217693" stroke="#A61E4D" stroke-width="1" stroke-linecap="round" stroke-linejoin="round" />
    <path d="M 13.461414 9.358904 A 1.5 1.5 0 0 1 10.461414 9.358904 A 1.5 1.5 0 0 1 13.461414 9.358904" fill="#E64980" stroke="#A61E4D" stroke-width="1" stroke-linecap="round" stroke-linejoin="round" />
  </g>
</svg>