<svg version="1.1" baseProfile="full" width="24" height="24" xmlns="http://www.w3.org/2000/svg">
  <defs />
  <g fill="none" stroke="none">
    <path d="M 19.5 12.5 L 5.5 2.5" stroke="#A61E4D" stroke-width="1" stroke-linecap="round" stroke-linejoin="round" />
    <path d="M 19.5 12.5 L 2.5 4.5" stroke="#A61E4D" stroke-width="1" stroke-linecap="round" stroke-linejoin="round" />
    <path d="M 19.5 12.5 L 2.5 7.5" stroke="#A61E4D" stroke-width="1" stroke-linecap="round" stroke-linejoin="round" />
    <path d="M 19.5 12.5 L 2.5 12.5" stroke="#A61E4D" stroke-width="1" stroke-linecap="round" stroke-linejoin="round" />
    <path d="M 11.310164 5.421214 L 11.54266 6.816186 L 10.147689 7.0486813" stroke="#A61E4D" stroke-width="1" stroke-linecap="round" stroke-linejoin="round" />
    <path d="M 8.815706 6.3669033 L 9.294727 7.697519 L 7.964112 8.17654" stroke="#A61E4D" stroke-width="1" stroke-linecap="round" stroke-linejoin="round" />
    <path d="M 6.5632577 7.65272 L 7.2404566 8.894252 L 5.9989247 9.571451" stroke="#A61E4D" stroke-width="1" stroke-linecap="round" stroke-linejoin="round" />
    <path d="M 4.221196 11.5 L 5.221196 12.5 L 4.221196 13.5" stroke="#A61E4D" stroke-width="1" stroke-linecap="round" stroke-linejoin="round" />
    <path d="M 21 12.5 A 1.5 1.5 0 0 1 18 12.5 A 1.5 1.5 0 0 1 21 12.5" fill="#E64980" stroke="#A61E4D" stroke-width="1" stroke-linecap="round" stroke-linejoin="round" />
    <path d="M 2.5 20 L 2.5 20.5 A 1 1 0 0 0 3.5 21.5 L 4.5 21.5 A 1 1 0 0 0 5.5 20.5 L 5.5 19.5 A 1 1 0 0 0 4.5 18.5 L 3.5 18.5 A 1 1 0 0 1 2.5 17.5 L 2.5 16.5 A 1 1 0 0 1 3.5 15.5 L 4.5 15.5 A 1 1 0 0 1 5.5 16.5 L 5.5 17" stroke="#D66000" stroke-width="1" stroke-linecap="butt" stroke-linejoin="round" />
    <path d="M 8.5 21.5 A 1 1 0 0 1 7.5 20.5 L 7.5 18.5 A 1 1 0 0 1 8.5 17.5 L 9.5 17.5 A 1 1 0 0 1 10.5 18.5 L 10.5 20.5 A 1 1 0 0 1 9.5 21.5 L 8.5 21.5" stroke="#D66000" stroke-width="1" stroke-linecap="butt" stroke-linejoin="round" />
    <path d="M 12.5 15 L 12.5 20.5 A 1 1 0 0 0 13.5 21.5 L 14 21.5" stroke="#D66000" stroke-width="1" stroke-linecap="butt" stroke-linejoin="round" />
    <path d="M 16.5 21.5 A 1 1 0 0 1 15.5 20.5 L 15.5 18.5 A 1 1 0 0 1 16.5 17.5 L 17 17.5 A 1.5 1.5 0 0 1 18.5 19 L 18.5 20 A 1.5 1.5 0 0 1 17 21.5 L 16.5 21.5" stroke="#D66000" stroke-width="1" stroke-linecap="butt" stroke-linejoin="round" />
    <path d="M 18.5 22 L 18.5 17" stroke="#D66000" stroke-width="1" stroke-linecap="butt" stroke-linejoin="round" />
    <path d="M 20.5 22 L 20.5 17" stroke="#D66000" stroke-width="1" stroke-linecap="butt" stroke-linejoin="round" />
    <path d="M 23 17.5 L 22.5 17.5 A 2.0833337 2.0833337 0 0 0 20.5 19" stroke="#D66000" stroke-width="1" stroke-linecap="butt" stroke-linejoin="round" />
  </g>
</svg>