<?xml version="1.0" encoding="UTF-8"?>
<svg id="Layer_1" data-name="Layer 1" xmlns="http://www.w3.org/2000/svg" viewBox="0 0 24 24">
  <defs>
    <style>
      .cls-1 {
        fill: #000;
      }

      .cls-1, .cls-2, .cls-3, .cls-4 {
        stroke-width: 0px;
      }

      .cls-2 {
        fill: #c10074;
      }

      .cls-5 {
        opacity: .5;
      }

      .cls-3 {
        fill: #eb0a8c;
      }

      .cls-4 {
        fill: #fff;
      }

      .cls-6 {
        fill: none;
        stroke: #c10074;
        stroke-miterlimit: 10;
        stroke-width: 2px;
      }
    </style>
  </defs>
  <g>
    <circle class="cls-3" cx="8" cy="8" r="6.5"/>
    <path class="cls-2" d="M8,2c3.31,0,6,2.69,6,6s-2.69,6-6,6-6-2.69-6-6,2.69-6,6-6M8,1c-3.87,0-7,3.13-7,7s3.13,7,7,7,7-3.13,7-7S11.87,1,8,1h0Z"/>
  </g>
  <rect class="cls-1" x="10" y="11" width="13" height="12"/>
  <g class="cls-5">
    <ellipse class="cls-4" cx="5.06" cy="4.94" rx="2.5" ry="1.5" transform="translate(-2.01 5.03) rotate(-45)"/>
  </g>
  <path class="cls-6" d="M9,19s-4,0-6-2,2-6,2-6"/>
  <polyline class="cls-6" points="4.5 16 9 19 4.5 22"/>
  <rect class="cls-4" x="11" y="11" width="1" height="12"/>
  <rect class="cls-4" x="14" y="11" width="1" height="12"/>
  <rect class="cls-4" x="16" y="11" width="2" height="12"/>
  <rect class="cls-4" x="20" y="11" width="2" height="12"/>
</svg>