<?xml version="1.0" encoding="UTF-8"?>
<svg id="Layer_2" data-name="Layer 2" xmlns="http://www.w3.org/2000/svg" viewBox="0 0 24 24">
  <defs>
    <style>
      .cls-1 {
        fill: #ed1c24;
      }

      .cls-1, .cls-2, .cls-3 {
        stroke-width: 0px;
      }

      .cls-2 {
        fill: #fff;
      }

      .cls-3 {
        fill: #c41a1e;
      }
    </style>
  </defs>
  <rect class="cls-3" x="3.11" y="3.53" width="20.89" height="15.66" rx="2.5" ry="2.5"/>
  <path class="cls-2" d="M21.49,4.55c.82,0,1.49.67,1.49,1.49v3.08c-.3-.23-.65-.38-1.02-.45v-2.58c0-.28-.23-.51-.51-.51h-10.12l-.48-1.02h10.64Z"/>
  <path class="cls-2" d="M20.94,8.62h-6.71c-.58,0-2.1-1.33-2.35-1.86l-.08-.16h9.13v2.02Z"/>
  <path class="cls-1" d="M2.5,22.51c-1.38,0-2.5-1.12-2.5-2.5V3.99C0,2.61,1.12,1.49,2.5,1.49h6.22c1.38,0,2.78,1.09,3.13,2.42l.33,1.27c.35,1.33,1.75,2.42,3.13,2.42h6.2c1.38,0,2.5,1.12,2.5,2.5v9.91c0,1.38-1.12,2.5-2.5,2.5H2.5Z"/>
</svg>