<?xml version="1.0" encoding="UTF-8"?>
<svg id="Layer_1" data-name="Layer 1" xmlns="http://www.w3.org/2000/svg" viewBox="0 0 24 24">
  <defs>
    <style>
      .cls-1 {
        fill: none;
      }

      .cls-2 {
        fill: #ed1c24;
      }
    </style>
  </defs>
  <path class="cls-1" d="m6.63,4.32c.88.37,2.7.56,4.22.49-.79-.81-2.13-2.02-3.44-2.5-.15-.05-.29-.08-.41-.08-.48,0-.8.35-.94.7-.28.73.13,1.2.57,1.39Z"/>
  <path class="cls-1" d="m17.37,4.32c.44-.18.86-.66.57-1.39-.18-.45-.64-.89-1.35-.62-1.31.48-2.65,1.69-3.44,2.5,1.52.07,3.34-.12,4.22-.49Z"/>
  <path class="cls-2" d="m6.21,5.21c.89.37,2.47.59,3.97.59.64,0,1.27-.04,1.82-.13.55.08,1.18.13,1.82.13,1.5,0,3.07-.22,3.97-.59,1.28-.54,1.56-1.82,1.18-2.81-.38-.98-1.45-1.73-2.75-1.26-1.75.64-3.45,2.31-4.21,3.14-.77-.83-2.46-2.5-4.21-3.14-1.3-.47-2.37.28-2.75,1.26-.39.99-.11,2.27,1.18,2.81Zm10.38-3.03c.72-.26,1.17.17,1.35.62.28.73-.13,1.2-.57,1.39-.88.37-2.7.56-4.22.49.79-.81,2.13-2.02,3.44-2.5Zm-10.53.62c.14-.36.46-.7.94-.7.13,0,.26.02.41.08,1.31.48,2.65,1.69,3.44,2.5-1.52.07-3.34-.12-4.22-.49-.44-.18-.86-.66-.57-1.39Z"/>
  <rect x="3" y="12.06" width="7.82" height="10.94"/>
  <rect x="13.18" y="12.06" width="7.82" height="10.94"/>
  <rect x="2" y="7" width="20" height="3.87"/>
  <rect class="cls-2" x="11" y="12" width="2" height="11"/>
</svg>