<svg version="1.1" baseProfile="full" width="24" height="24" xmlns="http://www.w3.org/2000/svg">
  <defs />
  <g fill="none" stroke="none">
    <path d="M 21.760178 11.683025 A 9.803982 9.803982 0 0 0 18.895067 5.1049333 L 15.638995 8.361005 L 15.780446 8.50812 A 5.199188 5.199188 0 0 1 17.15495 11.770504 A 1.0000007 1.0000007 0 0 0 18.153631 12.719172 L 20.76083 12.719172 A 1.0000005 1.0000005 0 0 0 21.760178 11.683026" fill="#A61E4D" />
    <path d="M 6.7702723 11.770504 A 4.9136033 4.9136033 0 0 1 8.144775 8.50812 L 8.297268 8.349996 L 5.0509763 5.084175 L 4.876615 5.2619524 A 9.80397 9.80397 0 0 0 2.1650457 11.683027 A 1 1 0 0 0 3.164391 12.719172 L 5.7715907 12.719172 A 0.99999994 0.99999994 0 0 0 6.7702723 11.770503" fill="#FFDEEB" />
    <path d="M 2.5 20 L 2.5 20.5 A 1 1 0 0 0 3.5 21.5 L 4.5 21.5 A 1 1 0 0 0 5.5 20.5 L 5.5 19.5 A 1 1 0 0 0 4.5 18.5 L 3.5 18.5 A 1 1 0 0 1 2.5 17.5 L 2.5 16.5 A 1 1 0 0 1 3.5 15.5 L 4.5 15.5 A 1 1 0 0 1 5.5 16.5 L 5.5 17" stroke="#D66000" stroke-width="1" stroke-linecap="butt" stroke-linejoin="round" />
    <path d="M 8.5 21.5 A 1 1 0 0 1 7.5 20.5 L 7.5 18.5 A 1 1 0 0 1 8.5 17.5 L 9.5 17.5 A 1 1 0 0 1 10.5 18.5 L 10.5 20.5 A 1 1 0 0 1 9.5 21.5 L 8.5 21.5" stroke="#D66000" stroke-width="1" stroke-linecap="butt" stroke-linejoin="round" />
    <path d="M 12.5 15 L 12.5 20.5 A 1 1 0 0 0 13.5 21.5 L 14 21.5" stroke="#D66000" stroke-width="1" stroke-linecap="butt" stroke-linejoin="round" />
    <path d="M 16.5 21.5 A 1 1 0 0 1 15.5 20.5 L 15.5 18.5 A 1 1 0 0 1 16.5 17.5 L 17 17.5 A 1.5 1.5 0 0 1 18.5 19 L 18.5 20 A 1.5 1.5 0 0 1 17 21.5 L 16.5 21.5" stroke="#D66000" stroke-width="1" stroke-linecap="butt" stroke-linejoin="round" />
    <path d="M 18.5 22 L 18.5 17" stroke="#D66000" stroke-width="1" stroke-linecap="butt" stroke-linejoin="round" />
    <path d="M 20.5 22 L 20.5 17" stroke="#D66000" stroke-width="1" stroke-linecap="butt" stroke-linejoin="round" />
    <path d="M 23 17.5 L 22.5 17.5 A 2.0833337 2.0833337 0 0 0 20.5 19" stroke="#D66000" stroke-width="1" stroke-linecap="butt" stroke-linejoin="round" />
    <path d="M 11.962611 6.838196 A 5.199189 5.199189 0 0 1 15.638994 8.361004 L 18.895067 5.1049337 A 9.803957 9.803957 0 0 0 11.962608 2.2334166 L 11.962611 6.838196" fill="#E64980" />
    <path d="M 11.962611 2.2334166 A 9.803972 9.803972 0 0 0 5.050976 5.084176 L 8.297268 8.349996 A 5.199193 5.199193 0 0 1 11.962611 6.838196 L 11.962611 2.2334168" fill="#FAA2C1" />
    <path d="M 6.7702723 11.770504 A 4.9136033 4.9136033 0 0 1 8.144775 8.50812 L 8.297268 8.349996 A 5.199193 5.199193 0 0 1 11.962611 6.838196 A 4.9648933 4.9648933 0 0 1 15.638994 8.361004 L 15.780446 8.50812 A 5.199188 5.199188 0 0 1 17.15495 11.770504 A 1.0000007 1.0000007 0 0 0 18.153631 12.719172 L 20.76083 12.719172 A 1.0000005 1.0000005 0 0 0 21.760178 11.683026 A 9.803974 9.803974 0 0 0 11.96261 2.2334185 A 9.511881 9.511881 0 0 0 5.050978 5.084173 L 4.876615 5.2619524 A 9.80397 9.80397 0 0 0 2.1650457 11.683027 A 1 1 0 0 0 3.164391 12.719172 L 5.7715907 12.719172 A 0.99999994 0.99999994 0 0 0 6.7702723 11.770503" stroke="#A61E4D" stroke-width="1" stroke-linecap="round" stroke-linejoin="round" />
    <path d="M 14.079186 13.1047735 L 16.545925 8.213341 A 0.5652798 0.5652798 0 0 0 15.786658 7.454074 L 10.8952265 9.920814 A 2.3704853 2.3704853 0 0 0 10.286427 13.713576 A 2.3704853 2.3704853 0 0 0 14.079187 13.1047735" fill="#12B886" />
    <path d="M 10.286426 13.713574 A 2.3704865 2.3704865 0 0 0 14.079187 13.104774 L 16.545925 8.213341 A 0.565279 0.565279 0 0 0 16.440907 7.559093 L 10.286425 13.713575" fill="#63E6BE" />
    <path d="M 14.079186 13.1047735 L 16.545925 8.213341 A 0.5652798 0.5652798 0 0 0 15.786658 7.454074 L 10.8952265 9.920814 A 2.3704853 2.3704853 0 0 0 10.286427 13.713576 A 2.3704853 2.3704853 0 0 0 14.079187 13.1047735" stroke="#087F5B" stroke-width="1" stroke-linecap="round" stroke-linejoin="round" />
  </g>
</svg>