<?xml version="1.0" encoding="utf-8"?>
    <!-- Generator: Grasshopper 1.0.0, Redback Plugin. SVG Version: 6.00 Build 0) Made by Andrew Butler at Cox Architecture -->
    <!DOCTYPE svg PUBLIC "-//W3C//DTD SVG 1.1//EN" "http://www.w3.org/Graphics/SVG/1.1/DTD/svg11.dtd">
    <svg version="1.1" xmlns="http://www.w3.org/2000/svg" xmlns:xlink="http://www.w3.org/1999/xlink" x="0px" y="0px"
    width="24mm" height="24mm" viewBox="0 0 24 24" xml:space="preserve">
    <style type="text/css">
    .fill-white{fill:white;}
    </style>
    <path d=" M9.48,9.48 L9.73,10.20 L10.02,10.91 L10.52,10.95 L11.02,11.02 L10.95,10.52 L10.91,10.02 L10.20,9.73Z" fill="#0d5b06"/>
<path d=" M9.05,7.90 L8.04,7.14 L7.06,6.34 L6.12,5.51 L5.21,4.64 L4.64,5.21 L5.51,6.12 L6.34,7.06 L7.14,8.04 L7.90,9.05 L8.70,9.25 L9.48,9.48 L9.25,8.70Z" fill="#5c9e20"/>
<path d=" M8.77,1.34 L8.69,2.05 L8.64,2.76 L8.61,3.47 L8.61,4.18 L8.63,4.89 L8.68,5.60 L8.76,6.31 L8.87,7.02 L8.99,7.64 L9.13,8.26 L9.30,8.88 L9.48,9.48 L10.20,9.73 L10.91,10.02 L10.88,9.22 L10.92,8.42 L11.02,7.63 L10.67,7.03 L10.36,6.41 L10.11,5.82 L9.90,5.22 L9.73,4.60 L9.61,3.98 L9.53,3.34 L9.50,2.71 L9.51,2.07 L9.57,1.44Z" fill="#19aca4"/>
<path d=" M10.02,10.91 L9.73,10.20 L9.48,9.48 L8.88,9.30 L8.26,9.13 L7.64,8.99 L7.02,8.87 L6.31,8.76 L5.61,8.68 L4.90,8.63 L4.18,8.61 L3.47,8.61 L2.76,8.64 L1.34,8.77 L1.43,9.56 L2.07,9.51 L2.71,9.50 L3.34,9.53 L3.98,9.61 L4.60,9.73 L5.22,9.90 L5.82,10.11 L6.41,10.36 L7.03,10.67 L7.63,11.02 L8.42,10.92 L9.22,10.88Z" fill="#c18a16"/>
<path d=" M16.83,13.99 L16.06,13.17 L15.35,12.31 L14.98,11.82 L14.64,11.32 L14.33,10.80 L14.04,10.26 L13.79,9.71 L13.57,9.14 L13.39,8.56 L13.26,7.97 L13.18,7.36 L13.14,6.76 L13.16,6.15 L13.23,5.55 L13.35,4.95 L13.52,4.37 L13.74,3.80 L14.01,3.25 L14.32,2.73 L14.67,2.23 L15.05,1.76 L15.46,1.32 L14.89,0.75 L14.37,1.30 L13.86,1.87 L13.38,2.46 L12.93,3.07 L12.52,3.70 L12.14,4.36 L11.81,5.04 L11.52,5.74 L11.29,6.46 L11.10,7.20 L10.97,7.95 L10.90,8.70 L10.88,9.28 L10.90,9.87 L10.94,10.45 L11.02,11.02 L11.71,11.16 L12.44,11.37 L13.16,11.62 L13.85,11.92 L14.52,12.27 L15.13,12.65 L15.72,13.06 L16.28,13.51 L16.82,13.99 L16.36,13.55 L16.88,14.04Z" fill="#2707fe"/>
<path d=" M13.61,16.42 L13.84,16.66 L13.40,16.16 L12.99,15.64 L12.62,15.09 L12.27,14.52 L11.92,13.85 L11.62,13.16 L11.37,12.44 L11.16,11.71 L11.02,11.02 L10.45,10.94 L9.87,10.90 L9.28,10.88 L8.70,10.90 L7.95,10.97 L7.20,11.10 L6.46,11.29 L5.74,11.52 L5.04,11.81 L4.36,12.14 L3.70,12.52 L3.07,12.93 L2.46,13.39 L1.87,13.86 L1.30,14.37 L0.75,14.89 L1.32,15.46 L1.76,15.05 L2.23,14.67 L2.73,14.32 L3.25,14.01 L3.80,13.75 L4.37,13.53 L4.95,13.35 L5.55,13.23 L6.15,13.16 L6.76,13.15 L7.36,13.18 L7.97,13.26 L8.56,13.39 L9.14,13.57 L9.71,13.79 L10.26,14.04 L10.80,14.33 L11.32,14.65 L11.82,14.99 L12.31,15.35 L13.18,16.07 L14.01,16.85 L14.01,16.84 L13.98,16.81Z" fill="#d70102"/>
<path d=" M16.88,14.04 L16.36,13.55 L16.82,13.99 L16.28,13.51 L15.72,13.06 L15.13,12.65 L14.52,12.27 L13.85,11.92 L13.16,11.62 L12.44,11.37 L11.71,11.16 L11.02,11.02 L11.16,11.71 L11.37,12.44 L11.62,13.16 L11.92,13.85 L12.27,14.52 L12.62,15.09 L12.99,15.64 L13.40,16.16 L13.84,16.66 L13.61,16.42 L13.98,16.81 L14.01,16.84 L14.01,16.85 L14.04,16.88 L12.64,18.29 L19.00,19.00 L18.29,12.63Z" fill="#000000"/>
<path d=" M22.07,13.20 L22.04,13.67 L21.95,14.15 L21.86,14.65 L21.83,15.17 L21.85,15.40 L21.88,15.60 L21.95,15.75 L22.04,15.87 L22.16,15.96 L22.32,16.02 L22.52,16.06 L22.76,16.07 L23.05,16.07 L23.05,17.81 L22.76,17.81 L22.52,17.82 L22.32,17.86 L22.16,17.92 L22.04,18.01 L21.95,18.12 L21.88,18.28 L21.85,18.48 L21.83,18.71 L21.86,19.23 L21.95,19.72 L22.04,20.20 L22.07,20.68 L22.06,20.92 L22.03,21.16 L21.98,21.37 L21.91,21.57 L21.82,21.76 L21.70,21.93 L21.57,22.08 L21.41,22.21 L21.24,22.33 L21.05,22.44 L20.83,22.53 L20.59,22.60 L20.06,22.70 L19.44,22.73 L18.96,22.72 L18.51,22.69 L18.51,21.01 L18.73,21.02 L19.07,21.02 L19.32,21.01 L19.53,20.97 L19.70,20.91 L19.85,20.81 L19.95,20.69 L20.03,20.54 L20.08,20.36 L20.09,20.15 L20.06,19.75 L19.97,19.29 L19.88,18.80 L19.85,18.30 L19.87,18.06 L19.92,17.84 L20.00,17.64 L20.11,17.45 L20.25,17.28 L20.42,17.14 L20.62,17.02 L20.85,16.93 L20.61,16.84 L20.41,16.73 L20.24,16.60 L20.10,16.44 L19.99,16.26 L19.91,16.06 L19.87,15.83 L19.85,15.58 L19.88,15.08 L19.97,14.59 L20.06,14.13 L20.09,13.73 L20.08,13.52 L20.03,13.33 L19.95,13.18 L19.85,13.06 L19.70,12.97 L19.53,12.90 L19.32,12.87 L19.07,12.85 L18.74,12.85 L18.51,12.86 L18.51,11.18 L18.96,11.16 L19.44,11.15 L20.06,11.18 L20.59,11.28 L20.83,11.35 L21.05,11.44 L21.24,11.54 L21.41,11.66 L21.57,11.80 L21.70,11.95 L21.82,12.12 L21.91,12.30 L21.98,12.50 L22.03,12.72 L22.06,12.95Z" class="fill-white"/>
<path d=" M11.49,20.68 L11.52,20.20 L11.61,19.72 L11.70,19.23 L11.73,18.71 L11.72,18.47 L11.68,18.28 L11.61,18.12 L11.52,18.01 L11.40,17.92 L11.24,17.86 L11.04,17.82 L10.80,17.81 L10.52,17.81 L10.52,16.07 L10.80,16.07 L11.04,16.06 L11.24,16.02 L11.40,15.96 L11.52,15.87 L11.61,15.75 L11.68,15.60 L11.72,15.40 L11.73,15.17 L11.70,14.65 L11.61,14.15 L11.52,13.67 L11.49,13.20 L11.50,12.95 L11.53,12.72 L11.58,12.50 L11.65,12.30 L11.74,12.12 L11.86,11.95 L11.99,11.80 L12.14,11.66 L12.32,11.54 L12.51,11.44 L12.73,11.35 L12.97,11.28 L13.50,11.18 L14.12,11.15 L14.60,11.16 L15.05,11.18 L15.05,12.86 L14.83,12.85 L14.49,12.85 L14.24,12.87 L14.03,12.90 L13.85,12.97 L13.71,13.06 L13.61,13.18 L13.53,13.33 L13.48,13.52 L13.47,13.73 L13.50,14.13 L13.59,14.59 L13.68,15.08 L13.71,15.58 L13.69,15.81 L13.64,16.04 L13.56,16.24 L13.45,16.43 L13.31,16.60 L13.14,16.74 L12.94,16.85 L12.71,16.94 L12.95,17.03 L13.15,17.14 L13.32,17.28 L13.46,17.43 L13.57,17.61 L13.65,17.82 L13.69,18.05 L13.71,18.30 L13.68,18.80 L13.59,19.29 L13.50,19.75 L13.47,20.15 L13.48,20.36 L13.53,20.54 L13.61,20.69 L13.71,20.81 L13.85,20.91 L14.03,20.97 L14.24,21.01 L14.49,21.02 L14.82,21.02 L15.05,21.01 L15.05,22.69 L14.60,22.72 L14.12,22.73 L13.50,22.70 L12.97,22.60 L12.73,22.53 L12.51,22.44 L12.32,22.34 L12.14,22.21 L11.99,22.08 L11.86,21.93 L11.74,21.76 L11.65,21.57 L11.58,21.37 L11.53,21.16 L11.50,20.92Z" class="fill-white"/>
    </svg>