<svg version="1.1" baseProfile="full" width="24" height="24" xmlns="http://www.w3.org/2000/svg">
  <defs />
  <g fill="none" stroke="none">
    <path d="M 5.5 21 L 5.5 14.5 L 7.5 14.5 A 1 1 0 0 1 8.5 15.5 L 8.5 16.5 A 1 1 0 0 1 7.5 17.5 L 5.5 17.5" stroke="#D66000" stroke-width="1" stroke-linecap="butt" stroke-linejoin="round" />
    <path d="M 7.5 17.5 A 1 1 0 0 1 8.5 18.5 L 8.5 21" stroke="#D66000" stroke-width="1" stroke-linecap="butt" stroke-linejoin="round" />
    <path d="M 11.5 20.5 A 1 1 0 0 1 10.5 19.5 L 10.5 17.5 A 1 1 0 0 1 11.5 16.5 L 12 16.5 A 1.5 1.5 0 0 1 13.5 18 L 13.5 19 A 1.5 1.5 0 0 1 12 20.5 L 11.5 20.5" stroke="#D66000" stroke-width="1" stroke-linecap="butt" stroke-linejoin="round" />
    <path d="M 13.5 21 L 13.5 16" stroke="#D66000" stroke-width="1" stroke-linecap="butt" stroke-linejoin="round" />
    <path d="M 15.5 22.5 L 15.75 22.5 A 1.0416663 1.0416663 0 0 0 16.75 21.75 L 18.5 16.5 L 18.5 16" stroke="#D66000" stroke-width="1" stroke-linecap="butt" stroke-linejoin="round" />
    <path d="M 15.5 16 L 15.5 16.5 L 17 20.5" stroke="#D66000" stroke-width="1" stroke-linecap="butt" stroke-linejoin="round" />
    <path d="M 21.5 11.5 L 3.5 11.5 L 12.5 2.5" stroke="#0B7285" stroke-width="1" stroke-linecap="round" stroke-linejoin="round" />
    <path d="M 21.5 11.5 L 19 14" stroke="#0B7285" stroke-width="1" stroke-linecap="round" stroke-linejoin="round" />
    <path d="M 21.5 11.5 L 19 9" stroke="#0B7285" stroke-width="1" stroke-linecap="round" stroke-linejoin="round" />
    <path d="M 12.5 2.5 L 9 2.5" stroke="#0B7285" stroke-width="1" stroke-linecap="round" stroke-linejoin="round" />
    <path d="M 12.5 2.5 L 12.5 6" stroke="#0B7285" stroke-width="1" stroke-linecap="round" stroke-linejoin="round" />
    <path d="M 18 11.5 A 1.5 1.5 0 0 1 15 11.5 A 1.5 1.5 0 0 1 18 11.5" fill="#FCC419" stroke="#D66000" stroke-width="1" stroke-linecap="round" stroke-linejoin="round" />
    <path d="M 10.5 6 A 1.5 1.5 0 0 1 7.5 6 A 1.5 1.5 0 0 1 10.5 6.0000005" fill="#FCC419" stroke="#D66000" stroke-width="1" stroke-linecap="round" stroke-linejoin="round" />
  </g>
</svg>