<?xml version="1.0" encoding="UTF-8"?>
<svg id="Layer_1" data-name="Layer 1" xmlns="http://www.w3.org/2000/svg" viewBox="0 0 23.26 23.14">
  <defs>
    <style>
      .cls-1 {
        fill: #fff;
      }

      .cls-2 {
        fill: #ed1c24;
      }
    </style>
  </defs>
  <path d="m11.61.96s-1.5-1.24-4.15-.58c-2.65.66-4.03,2.94-3.64,4.14s3.51,3.83,6.5,4.04,5.07-.34,5.07-.34L11.61.96Z"/>
  <path d="m8.07,1.96s4.39-3.4,8.61-1.24,4.52,8.31,4.52,8.31l-13.12-2.93c-.41-2.17-.62-3.25-.01-4.14Z"/>
  <path d="m0,10.49c1.26-1.21,2.49-2.38,4.54-2.81s4.2.15,4.32.2c.86.99.77,3.49-3.12,4.94-2.95,1.1-5.74-.37-5.74-2.33Z"/>
  <path d="m18.71,11.11l-1.03.43-.87-.33,1.01-.6v-.06l-1.28.62-1.69.5,1.48-2.14-.07-.11-1.88,2.5.92-3.01-.22-.27-.34,1.22-.27-1.3.11-.25-.15-.15-.03.06-.06-.29-.16.05.1.53-.45,1-1.03.73.62-1.93h-.13s-.75,2.09-.75,2.09l-.89.99-.06-.63-.55-2.6-.57.22.58,2.3.12,1.52-.36,1.94-.54-1.56.04-1.04.3-.73-.7-1.73.51,1.76-.13.29-1.02-1.97-.1.03.95,2.32-.07.4-1.35-2.16-.27.35.94,1.38.3.58.58,2.14-.04,1.52-.89-.78-1.48-1.63-1.28-1-.63-.34.8.72-.86-.48-.32.18,2.07,1.1.93,1.27-.55-.24-.62-.1-2.72-1.96-.22.11,2.49,1.87-.56.13-2.73-1.61h-.48l3.1,1.73,1.21-.06.8.27,1.49.98.39.56.06.61-.51,2.25-.36,1.13c.77.48,1.53.5,2.3,0l-.32-1.03.4-2.34,1.89-3.24.49-1.02.69-.8,1.67-.67,1.15.34,1.12-.48-.04-.09Zm-5.53,2.39l-1.87,2.68-.1-.65.52-3.17.05-.78,1-1.08,1.19-.82.38-.81.25,1.4-1.43,3.24Z"/>
  <g>
    <path d="m7.73,3.56c.55.86,1.64,2.42.91,4.85-.59,1.99-7.25.98-7.57-.48s1.54-3.25,2.7-3.82c1.95-.96,3.96-.55,3.96-.55Z"/>
    <path class="cls-2" d="m7.73,3.56s-2-.41-3.96.55c-1.16.57-3.03,2.36-2.7,3.82.06.27.34.52.75.75l7.05-1.81c0-1.57-.72-2.65-1.15-3.31Z"/>
  </g>
  <g>
    <path d="m13.7,7.67s1.65,1.48,3.15,2.41,2.46,1.57,2.89,1.76.86.19,1.29-.1,2-1.47,1.01-3.72-3.64-3.12-3.64-3.12l-4.71,2.77Z"/>
    <path class="cls-2" d="m21.72,11.13c.52-.6.99-1.62.33-3.11-.99-2.25-3.64-3.12-3.64-3.12l-.57.33c.68.31,1.69.83,2.39,1.47,1.14,1.05,1.66,2.13,1.71,2.75.05.62.03.77-.16,1.42-.02.08-.05.17-.07.25Z"/>
  </g>
  <g>
    <path class="cls-1" d="m13.93,23.14h-3.26v-9.97h3.26v1.42h-1.67v7.14h1.67v1.42Z"/>
    <g>
      <path class="cls-1" d="m14.91,19.58c0,.6-.51,1.11-1.1,1.11s-1.11-.51-1.11-1.11.52-1.1,1.11-1.1,1.1.51,1.1,1.1Z"/>
      <path class="cls-1" d="m18.07,19.58c0,.6-.51,1.11-1.1,1.11s-1.11-.51-1.11-1.11.52-1.1,1.11-1.1,1.1.51,1.1,1.1Z"/>
      <path class="cls-1" d="m21.23,19.58c0,.6-.51,1.11-1.1,1.11s-1.11-.51-1.11-1.11.52-1.1,1.11-1.1,1.1.51,1.1,1.1Z"/>
    </g>
    <path class="cls-1" d="m20,13.17h3.26v9.97h-3.26v-1.42h1.67v-7.14h-1.67v-1.42Z"/>
  </g>
  <path class="cls-2" d="m11.61.96s-1.5-1.24-4.15-.58c-1.77.44-2.96,1.6-3.45,2.68.78-.79,2.21-1.95,3.94-2.05,1.34-.08,2.76.13,3.87.37l-.22-.42Z"/>
  <path class="cls-2" d="m20.77,6.51c-.52-1.96-1.64-4.54-4.09-5.79-4.22-2.16-8.61,1.24-8.61,1.24-.48.7-.45,1.52-.22,2.88l11.46.63,1.45,1.04Z"/>
  <path class="cls-2" d="m4.65,10.72c1.69-.02,2.91.2,3.65.17.16,0,.33-.08.49-.18.75-1.12.58-2.23.08-2.82-.12-.05-2.27-.63-4.32-.2-2.03.42-3.26,1.58-4.51,2.78,1.1.16,3.21.27,4.62.26Z"/>
</svg>