<?xml version="1.0" encoding="UTF-8"?>
<svg id="Layer_1" data-name="Layer 1" xmlns="http://www.w3.org/2000/svg" viewBox="0 0 24 24">
  <defs>
    <style>
      .cls-1 {
        fill: #fff;
      }

      .cls-2 {
        fill: #71090a;
      }

      .cls-3 {
        fill: #ed1c24;
      }
    </style>
  </defs>
  <path d="m20.2,4.45H3.8c-.1,0-.19.04-.25.1-.07.07-.11.16-.11.26v14.24c0,.1.04.19.11.25.07.07.16.11.25.11h16.39c.1,0,.19-.04.25-.11.07-.07.11-.16.11-.25V4.81c0-.1-.04-.19-.11-.26-.06-.06-.16-.1-.25-.1h0ZM3.8,3h16.39c.5,0,.95.2,1.27.53.33.33.53.78.53,1.28v14.24c0,.5-.2.95-.53,1.27-.32.33-.78.53-1.27.53H3.8c-.5,0-.95-.2-1.27-.53-.33-.33-.53-.78-.53-1.27V4.81c0-.5.2-.95.53-1.28.33-.33.78-.53,1.27-.53h0Z"/>
  <path class="cls-3" d="m4.6,18.63c-.21,0-.38-.17-.38-.38v-.33c0-.35.01-.42.16-.6l5.01-6.2c.11-.14.27-.21.45-.22.17,0,.34.06.46.19l3.03,3.22,1.36-1.15.03-.03c.11-.09.25-.13.39-.12.14,0,.27.06.37.16l.03.03,4.19,4.37c.09.09.08.08.08.23v.45c0,.21-.17.38-.38.38H4.6Z"/>
  <path class="cls-3" d="m14.91,6.5c.38-.38.9-.61,1.47-.61s1.1.23,1.48.61c.38.38.61.9.61,1.47s-.23,1.1-.61,1.48c-.38.38-.9.61-1.48.61s-1.1-.23-1.47-.61c-.38-.38-.61-.9-.61-1.48s.23-1.1.61-1.47h0Z"/>
  <path class="cls-3" d="m14.76,6.34c.42-.42,1-.68,1.63-.68s1.21.26,1.63.68c.42.42.68.99.68,1.63s-.26,1.21-.68,1.63c-.42.42-.99.68-1.63.68s-1.21-.26-1.63-.68c-.42-.42-.68-.99-.68-1.63s.26-1.21.68-1.63h0Z"/>
  <g>
    <rect class="cls-1" x="1.5" y="19.5" width="2" height="2"/>
    <path class="cls-2" d="m3,20v1h-1v-1h1m1-1H1v3h3v-3h0Z"/>
  </g>
  <g>
    <rect class="cls-1" x="20.5" y="19.5" width="2" height="2"/>
    <path class="cls-2" d="m22,20v1h-1v-1h1m1-1h-3v3h3v-3h0Z"/>
  </g>
  <g>
    <rect class="cls-1" x="1.5" y="2.5" width="2" height="2"/>
    <path class="cls-2" d="m3,3v1h-1v-1h1m1-1H1v3h3v-3h0Z"/>
  </g>
  <g>
    <rect class="cls-1" x="20.5" y="2.5" width="2" height="2"/>
    <path class="cls-2" d="m22,3v1h-1v-1h1m1-1h-3v3h3v-3h0Z"/>
  </g>
</svg>