<svg version="1.1" baseProfile="full" width="24" height="24" xmlns="http://www.w3.org/2000/svg">
  <defs />
  <g fill="none" stroke="none">
    <path d="M 18.223253 20.018229 L 20.04054 4.8675833 L 9.314818 4.8536897 L 3.9596267 13.807231 L 18.223253 20.018229" fill="#9C9C9C" stroke="#787878" stroke-width="1" stroke-linecap="round" stroke-linejoin="round" />
    <path d="M 5.4596267 13.807231 A 1.5 1.5 0 0 1 2.4596267 13.807231 A 1.5 1.5 0 0 1 5.4596267 13.807231" fill="#F0F0F0" stroke="#787878" stroke-width="1" stroke-linecap="round" stroke-linejoin="round" />
    <path d="M 21.54054 4.8675833 A 1.5 1.5 0 0 1 18.54054 4.8675833 A 1.5 1.5 0 0 1 21.54054 4.8675838" fill="#F0F0F0" stroke="#787878" stroke-width="1" stroke-linecap="round" stroke-linejoin="round" />
    <path d="M 19.723253 20.018229 A 1.5 1.5 0 0 1 16.723253 20.018229 A 1.5 1.5 0 0 1 19.723253 20.018229" fill="#F0F0F0" stroke="#787878" stroke-width="1" stroke-linecap="round" stroke-linejoin="round" />
    <path d="M 10.814818 4.8536897 A 1.5 1.5 0 0 1 7.8148184 4.8536897 A 1.5 1.5 0 0 1 10.814818 4.85369" fill="#F0F0F0" stroke="#787878" stroke-width="1" stroke-linecap="round" stroke-linejoin="round" />
    <path d="M 11.69352 4.2095313 L 10.887695 5.679452" stroke="#787878" stroke-width="1" stroke-linecap="round" stroke-linejoin="round" />
    <path d="M 9.417774 4.8736277 L 10.887695 5.679452" stroke="#787878" stroke-width="1" stroke-linecap="round" stroke-linejoin="round" />
    <path d="M 11.961414 9.358904 L 2 3.084634" stroke="#787878" stroke-width="1" stroke-linecap="round" stroke-linejoin="round" />
    <path d="M 11.961414 9.358904 L 2 10.93552" stroke="#787878" stroke-width="1" stroke-linecap="round" stroke-linejoin="round" />
    <path d="M 11.961414 9.358904 L 9.813976 2" stroke="#787878" stroke-width="1" stroke-linecap="round" stroke-linejoin="round" />
    <path d="M 5.34602 6.5930085 L 6.980707 6.2217693" stroke="#787878" stroke-width="1" stroke-linecap="round" stroke-linejoin="round" />
    <path d="M 11.961414 9.358904 L 2 20.980612" stroke="#787878" stroke-width="1" stroke-linecap="round" stroke-linejoin="round" />
    <path d="M 5.995248 11.503269 L 6.980707 10.147212 L 5.6246505 9.161753" stroke="#787878" stroke-width="1" stroke-linecap="round" stroke-linejoin="round" />
    <path d="M 5.309334 15.298329 L 6.980707 15.169758 L 7.1092787 16.841131" stroke="#787878" stroke-width="1" stroke-linecap="round" stroke-linejoin="round" />
    <path d="M 6.609468 4.5870824 L 6.980707 6.2217693" stroke="#787878" stroke-width="1" stroke-linecap="round" stroke-linejoin="round" />
    <path d="M 13.461414 9.358904 A 1.5 1.5 0 0 1 10.461414 9.358904 A 1.5 1.5 0 0 1 13.461414 9.358904" fill="#F0F0F0" stroke="#787878" stroke-width="1" stroke-linecap="round" stroke-linejoin="round" />
    <path d="M 18.090368 5.2354236 A 2.662103 2.662103 0 0 1 12.766162 5.2354236 A 2.662103 2.662103 0 0 1 18.090368 5.235424" fill="#66D9E8" stroke="#0B7285" stroke-width="1" stroke-linecap="round" stroke-linejoin="round" />
    <path d="M 19.390537 11.224041 A 0.86632204 0.86632204 0 0 1 20.615702 11.224041 A 0.86632204 0.86632204 0 0 1 20.615702 12.449206 L 19.854364 13.210543 L 20.615702 13.971881 A 0.86632174 0.86632174 0 0 1 19.390537 15.197045 L 18.6292 14.435706 L 17.867863 15.197044 A 0.8663217 0.8663217 0 0 1 16.642698 15.197045 A 0.8663217 0.8663217 0 0 1 16.642698 13.971881 L 17.404037 13.210543 L 16.642698 12.449205 A 0.86632204 0.86632204 0 0 1 17.867863 11.224042 L 18.6292 11.985379 L 19.390537 11.224041" fill="#FAA2C1" stroke="#A61E4D" stroke-width="1" stroke-linecap="round" stroke-linejoin="round" />
    <path d="M 10.295435 16.617731 A 0.89282 0.89282 0 0 0 9.0493 17.89666 L 10.46901 19.27997 A 0.8900004 0.8900004 0 0 0 11.716487 19.274784 L 14.051067 16.961922 A 0.89282024 0.89282024 0 0 0 12.794341 15.693396 L 11.084891 17.386948 L 10.295434 16.617733" fill="#63E6BE" stroke="#087F5B" stroke-width="1" stroke-linecap="round" stroke-linejoin="round" />
    <path d="M 16.333004 5.2354236 A 0.9047384 0.9047384 0 0 1 14.523526 5.2354236 A 0.9047384 0.9047384 0 0 1 16.333004 5.2354236" fill="#B9B9B9" stroke="#0B7285" stroke-width="1" stroke-linecap="round" stroke-linejoin="round" />
  </g>
</svg>