<?xml version="1.0" encoding="UTF-8"?>
<svg id="Layer_1" data-name="Layer 1" xmlns="http://www.w3.org/2000/svg" viewBox="0 0 24 24">
  <defs>
    <style>
      .cls-1 {
        fill: #fff;
      }

      .cls-2 {
        fill: #ed1c24;
      }
    </style>
  </defs>
  <rect x="2" y="2" width="20" height="20"/>
  <rect class="cls-1" x="4" y="13" width="3" height="1"/>
  <rect class="cls-1" x="9" y="13" width="11" height="1"/>
  <rect class="cls-1" x="4" y="11" width="3" height="1"/>
  <rect class="cls-1" x="9" y="11" width="11" height="1"/>
  <rect class="cls-1" x="4" y="17" width="3" height="1"/>
  <rect class="cls-1" x="9" y="17" width="11" height="1"/>
  <rect class="cls-1" x="4" y="15" width="3" height="1"/>
  <rect class="cls-1" x="9" y="15" width="11" height="1"/>
  <rect class="cls-1" x="4" y="4" width="3" height="1"/>
  <rect class="cls-1" x="9" y="4" width="11" height="1"/>
  <rect class="cls-1" x="4" y="9" width="3" height="1"/>
  <rect class="cls-1" x="9" y="9" width="11" height="1"/>
  <rect class="cls-2" x="4" y="6" width="3" height="2"/>
  <rect class="cls-2" x="9" y="6" width="11" height="2"/>
  <rect class="cls-1" x="4" y="19" width="3" height="1"/>
  <rect class="cls-1" x="9" y="19" width="11" height="1"/>
</svg>