<?xml version="1.0" encoding="UTF-8"?>
<svg id="Layer_1" data-name="Layer 1" xmlns="http://www.w3.org/2000/svg" version="1.1" viewBox="0 0 24 24">
  <defs>
    <style>
      .cls-1 {
        opacity: .17;
      }

      .cls-1, .cls-2 {
        fill: #ed1c24;
        stroke-width: 0px;
      }

      .cls-3 {
        stroke-width: 1.35px;
      }

      .cls-3, .cls-4 {
        fill: none;
        stroke: #ed1c24;
        stroke-miterlimit: 10;
      }

      .cls-4 {
        stroke-width: .71px;
      }
    </style>
  </defs>
  <g>
    <line class="cls-3" x1="16.18" y1="17.18" x2="20" y2="21"/>
    <line class="cls-3" x1="20" y1="17.18" x2="16.18" y2="21"/>
  </g>
  <polygon class="cls-2" points="-18.2 -16 -18.2 -15.25 17.9 19.29 18.28 18.89 -18.2 -16"/>
  <polygon class="cls-2" points="-18.2 -7.17 -18.2 -6.5 17.93 19.31 18.25 18.87 -18.2 -7.17"/>
  <polygon class="cls-2" points="-18.2 -.76 -18.2 -.14 17.96 19.33 18.22 18.85 -18.2 -.76"/>
  <polygon class="cls-2" points="-18.2 4.28 -18.2 4.86 17.99 19.34 18.19 18.84 -18.2 4.28"/>
  <polygon class="cls-1" points="-6.92 1.17 18.09 19.09 -2.22 -.33 -6.92 1.17"/>
  <g>
    <line class="cls-4" x1="13.03" y1="2.37" x2="16.85" y2="6.19"/>
    <line class="cls-4" x1="16.85" y1="2.37" x2="13.03" y2="6.19"/>
  </g>
  <g>
    <line class="cls-4" x1="1.77" y1="16.92" x2="5.59" y2="20.74"/>
    <line class="cls-4" x1="5.59" y1="16.92" x2="1.77" y2="20.74"/>
  </g>
</svg>