<?xml version="1.0" encoding="UTF-8"?>
<svg id="Layer_1" data-name="Layer 1" xmlns="http://www.w3.org/2000/svg" viewBox="0 0 24 24">
  <defs>
    <style>
      .cls-1 {
        fill: #000;
      }

      .cls-1, .cls-2, .cls-3, .cls-4, .cls-5 {
        stroke-width: 0px;
      }

      .cls-6 {
        stroke-miterlimit: 10;
        stroke-width: 2px;
      }

      .cls-6, .cls-7 {
        fill: none;
        stroke: #4f180b;
      }

      .cls-7 {
        stroke-linecap: round;
        stroke-linejoin: round;
        stroke-width: .75px;
      }

      .cls-2 {
        fill: #ed6b00;
      }

      .cls-3 {
        fill: #ffda63;
      }

      .cls-4 {
        fill: #fff;
      }

      .cls-5 {
        fill: #ffc200;
      }
    </style>
  </defs>
  <g>
    <rect class="cls-1" x="1" y="1" width="13" height="12"/>
    <rect class="cls-4" x="2" y="1" width="1" height="12"/>
    <rect class="cls-4" x="5" y="1" width="1" height="12"/>
    <rect class="cls-4" x="7" y="1" width="2" height="12"/>
    <rect class="cls-4" x="11" y="1" width="2" height="12"/>
  </g>
  <g>
    <polygon class="cls-5" points="15.42 22.11 15.42 14.42 8.85 11.21 8.85 18.91 15.42 22.11"/>
    <polygon class="cls-2" points="15.42 22.11 15.42 14.42 22 11.21 22 18.91 15.42 22.11"/>
    <polygon class="cls-3" points="8.85 11.21 15.42 8 22 11.21 15.42 14.42 8.85 11.21"/>
    <polygon class="cls-7" points="15.42 8 22 11.21 22 18.91 15.42 22.11 8.85 18.91 8.85 11.21 15.42 8"/>
  </g>
  <path class="cls-6" d="M9,19s-4,0-6-2,2-6,2-6"/>
  <polyline class="cls-6" points="4.5 16 9 19 4.5 22"/>
</svg>