<?xml version="1.0" encoding="UTF-8"?>
<svg xmlns="http://www.w3.org/2000/svg" version="1.1" xmlns:xlink="http://www.w3.org/1999/xlink" viewBox="0 0 24 24">
  <defs>
    <style>
      .cls-1 {
        fill: url(#Linear_Gradient_10);
      }

      .cls-1, .cls-2, .cls-3, .cls-4 {
        stroke-width: 0px;
      }

      .cls-1, .cls-5 {
        fill-rule: evenodd;
      }

      .cls-2 {
        fill: #000;
      }

      .cls-3 {
        fill: #231f20;
      }

      .cls-4 {
        fill: #ed1c24;
      }

      .cls-6 {
        stroke-width: .28px;
      }

      .cls-6, .cls-7, .cls-8 {
        stroke-miterlimit: 10;
      }

      .cls-6, .cls-7, .cls-8, .cls-5 {
        fill: none;
      }

      .cls-6, .cls-8 {
        stroke: #fff;
      }

      .cls-7 {
        stroke: #ed1c24;
      }

      .cls-7, .cls-8 {
        stroke-width: .71px;
      }

      .cls-5 {
        stroke: #231f20;
        stroke-linecap: round;
        stroke-linejoin: round;
        stroke-width: .62px;
      }
    </style>
    <linearGradient id="Linear_Gradient_10" data-name="Linear Gradient 10" x1="22.12" y1="6.72" x2="15.77" y2="6.72" gradientUnits="userSpaceOnUse">
      <stop offset="0" stop-color="#f0f0f0"/>
      <stop offset="1" stop-color="#fff"/>
    </linearGradient>
  </defs>
  <g id="Layer_1" data-name="Layer 1">
    <polygon class="cls-2" points="4 5 4 18 19 22 19 2 4 5"/>
    <g>
      <line class="cls-8" x1="3" y1="4" x2="5" y2="6"/>
      <line class="cls-8" x1="5" y1="4" x2="3" y2="6"/>
    </g>
    <g>
      <line class="cls-8" x1="18" y1="1" x2="20" y2="3"/>
      <line class="cls-8" x1="20" y1="1" x2="18" y2="3"/>
    </g>
    <g>
      <line class="cls-8" x1="3" y1="17" x2="5" y2="19"/>
      <line class="cls-8" x1="5" y1="17" x2="3" y2="19"/>
    </g>
    <g>
      <line class="cls-7" x1="18" y1="21" x2="20" y2="23"/>
      <line class="cls-7" x1="20" y1="21" x2="18" y2="23"/>
    </g>
    <g>
      <line class="cls-6" x1="10" y1="11" x2="12" y2="13"/>
      <line class="cls-6" x1="12" y1="11" x2="10" y2="13"/>
    </g>
    <polygon class="cls-4" points="0 3.63 0 4.02 18.9 22.1 19.1 21.9 0 3.63"/>
    <polygon class="cls-4" points="0 8.25 0 8.6 18.92 22.12 19.08 21.88 0 8.25"/>
    <polygon class="cls-4" points="0 11.61 0 11.93 18.93 22.12 19.07 21.88 0 11.61"/>
    <polygon class="cls-4" points="0 14.25 0 14.55 18.95 22.13 19.05 21.87 0 14.25"/>
  </g>
  <g id="Obj_Base">
    <path class="cls-1" d="M21.14,4.27l-.97-.98h-4.88l-4.88,4.88c-.69.69.25,1.71.97.98l3.91-3.91-2.44,2.44c-.64.63.28,1.67.98.98l2.44-2.44-1.95,1.95c-.68.67.29,1.66.97.98l1.95-1.95-1.71,1.71c-.69.69.26,1.7.98.98l1.71-1.71h1.95l.97-.98h1.47v-2.93h-1.47Z"/>
    <rect class="cls-2" x="22.12" y="2.81" width="1.95" height="5.86"/>
    <path class="cls-5" d="M11.38,9.16l3.91-3.91-2.44,2.44c-.64.63.28,1.67.98.98l2.44-2.44-1.95,1.95c-.68.67.29,1.66.97.98l1.95-1.95-1.71,1.71"/>
    <path class="cls-3" d="M22.61,7.69c-.49,0-.98,0-1.47,0,.13,0,.25-.05.34-.14-.15.15-.29.29-.44.44-.1.1-.19.2-.29.29-.07.06-.13.13-.2.19-.08.08-.14.13-.26.17h-.04c-.07.02-.12.02-.19.02,0,0-.18,0-.19,0-.07,0-.13,0-.2,0-.1,0-.19,0-.29,0-.13,0-.26,0-.39,0-.26,0-.52,0-.78-.01.12,0,.23-.05.32-.13-.47.45-.93.89-1.41,1.33-.26.24-.51.53-.86.62-.51.14-1.01-.13-1.2-.62-.06-.14-.07-.28-.06-.43,0-.18.09-.34.19-.48.04-.07.1-.12.15-.17.09-.1.25-.11.35-.02.1.09.11.25.01.35-.03.03-.07.08-.09.13-.05.12-.07.23-.01.36.02.04.05.08.08.12.02.02.04.03.05.05.04.03.14.07.19.07.15,0,.22-.08.32-.18,0,0,0,0-.01,0,.22-.23.44-.47.66-.71s.44-.48.67-.7c.08-.08.17-.18.25-.26.07-.08.12-.13.22-.18.09-.04.19-.04.29-.04.01,0,.18,0,.19,0,.32-.01.65,0,.98-.02.23,0,.46,0,.68,0-.12,0-.25.05-.34.14.14-.15.29-.29.43-.44.08-.08.16-.17.24-.25.05-.05.1-.1.15-.15l.1-.1s.09-.09.12-.11c.02,0,.03-.02.05-.02.14-.08.36-.05.51-.06.12,0,.24,0,.37,0h.81c.27,0,.48.22.48.48s-.22.48-.48.48Z"/>
    <path class="cls-3" d="M22.61,4.76h-.81c-.12,0-.25,0-.37,0-.16,0-.37.03-.51-.05-.02,0-.03-.02-.05-.03-.06-.04-.12-.11-.17-.16-.07-.06-.13-.13-.19-.19-.08-.08-.16-.16-.24-.24l-.44-.44c.09.09.22.14.34.14-1.63,0-3.26,0-4.88-.02.12,0,.24-.05.33-.13-1.64,1.61-3.3,3.21-4.98,4.79h0c-.07.06-.11.11-.15.2,0,.02-.01.04-.02.06-.03.12.03.28.12.36.04.04.07.05.12.08.04.02.1.02.15.03.02,0,.05,0,.07,0,.12-.02.2-.08.29-.16.1-.09.26-.08.35.01.09.1.08.26-.02.35-.05.05-.1.1-.16.14-.11.08-.24.15-.37.18-.02,0-.05,0-.08.01-.03,0-.06,0-.09,0-.07,0-.17,0-.24-.02-.43-.11-.71-.47-.74-.91-.02-.25.07-.47.21-.67.03-.05.07-.09.11-.13.08-.09.16-.17.23-.25.24-.25.48-.5.71-.75.32-.33.63-.67.95-1s.64-.67.96-.99c.32-.33.64-.66.96-.99.08-.08.16-.16.24-.25.08-.08.16-.17.24-.25.08-.07.17-.16.24-.25.07-.09.16-.17.24-.25.02-.02.05-.04.07-.06.02-.02.06-.03.08-.04,0,0,.02,0,.03,0,.04-.02.09-.02.14-.03.02,0,.47,0,.49,0h.49c.24,0,.49,0,.73,0,.41,0,.81,0,1.22,0,.16,0,.32,0,.49,0,.24,0,.49,0,.73,0,.08,0,.16,0,.24,0s.17,0,.24,0c.08,0,.17,0,.25,0,.02,0,.07,0,.09,0,.02,0,.07.02.09.03l.03.02c.06.02.13.09.18.13.08.08.16.17.24.24.08.08.16.16.24.24l.44.44c-.09-.09-.22-.14-.34-.14h1.47c.27,0,.48.22.48.48s-.22.48-.48.48Z"/>
  </g>
</svg>