<?xml version="1.0" encoding="utf-8"?>
<!-- Generator: Adobe Illustrator 27.6.1, SVG Export Plug-In . SVG Version: 6.00 Build 0)  -->
<svg version="1.1" id="Layer_1" xmlns="http://www.w3.org/2000/svg" xmlns:xlink="http://www.w3.org/1999/xlink" x="0px" y="0px"
	 viewBox="0 0 24 24" style="enable-background:new 0 0 24 24;" xml:space="preserve">
<style type="text/css">
	.st0{fill:#FFFFFF;}
	.st1{fill:#ED1C24;}
</style>
<rect y="2.8" width="13.6" height="16.9"/>
<path class="st0" d="M6.2,13l3.4,4.7H5.9L3,13.4v4.2H0V4.8h3v8l3-4.1h3.5L6.2,13z"/>
<path class="st0" d="M11.9,9.3c0.9,0,1.6,0.7,1.6,1.6c0,0.9-0.7,1.6-1.6,1.6c-0.9,0-1.6-0.7-1.6-1.6C10.3,10,11,9.3,11.9,9.3z
	 M10.3,16.2c0-0.9,0.7-1.6,1.6-1.6c0.9,0,1.6,0.7,1.6,1.6c0,0.9-0.7,1.6-1.6,1.6C11,17.8,10.3,17,10.3,16.2z"/>
<path class="st1" d="M14.3,8.7h3.2l1.7,5.8h0.1L21,8.7h3l-3.3,8.9h-3.1L14.3,8.7z"/>
</svg>
