<?xml version="1.0" encoding="utf-8"?>
    <!-- Generator: Grasshopper 1.0.0, Redback Plugin. SVG Version: 6.00 Build 0) Made by Andrew Butler at Cox Architecture -->
    <!DOCTYPE svg PUBLIC "-//W3C//DTD SVG 1.1//EN" "http://www.w3.org/Graphics/SVG/1.1/DTD/svg11.dtd">
    <svg version="1.1" xmlns="http://www.w3.org/2000/svg" xmlns:xlink="http://www.w3.org/1999/xlink" x="0px" y="0px"
    width="24mm" height="24mm" viewBox="0 0 24 24" xml:space="preserve">
    <style type="text/css">
    .fill-white{fill:white;}
.fill-red{fill:#ed1c24;}
    </style>
    <path d=" M7.73,9.48 L7.78,9.56 L7.79,9.73 L7.74,9.97 L7.63,10.23 L7.44,10.50 L7.21,10.77 L7.13,10.90 L7.09,11.02 L7.10,11.14 L7.18,11.23 L7.31,11.29 L7.49,11.30 L7.71,11.25 L7.95,11.13 L8.20,10.94 L8.44,10.68 L8.65,10.37 L8.82,10.03 L8.92,9.68 L8.93,9.52 L8.93,9.36 L8.90,9.22 L8.84,9.09 L8.77,8.98 L8.67,8.89 L8.56,8.81 L8.43,8.76 L8.29,8.72 L8.13,8.71 L7.81,8.73 L7.47,8.84 L7.13,9.00 L6.81,9.23 L6.52,9.51 L6.28,9.82 L6.10,10.14 L5.99,10.46 L5.94,10.76 L5.98,11.03 L6.08,11.26 L6.24,11.45 L6.44,11.59 L6.68,11.71 L7.16,11.89 L7.54,12.07 L7.68,12.17 L7.77,12.27 L7.83,12.37 L7.85,12.46 L7.83,12.53 L7.78,12.60 L7.70,12.65 L7.59,12.67 L7.45,12.67 L7.29,12.65 L6.92,12.54 L6.55,12.37 L6.24,12.17 L6.12,12.07 L6.03,11.96 L5.84,11.55 L5.79,11.50 L5.73,11.49 L5.66,11.49 L5.60,11.53 L5.54,11.59 L5.48,11.68 L5.39,11.94 L5.35,12.32 L5.36,12.54 L5.40,12.77 L5.48,12.99 L5.60,13.20 L5.77,13.38 L5.99,13.54 L6.26,13.67 L6.55,13.77 L6.86,13.83 L7.16,13.87 L7.45,13.86 L7.71,13.81 L7.94,13.72 L8.13,13.59 L8.29,13.41 L8.42,13.20 L8.50,12.97 L8.54,12.74 L8.53,12.52 L8.47,12.32 L8.37,12.14 L8.24,11.98 L8.08,11.85 L7.89,11.75 L7.12,11.44 L6.98,11.35 L6.87,11.23 L6.81,11.09 L6.79,10.91 L6.81,10.72 L6.86,10.52 L7.00,10.15 L7.18,9.84 L7.36,9.63 L7.50,9.52 L7.60,9.47 L7.67,9.46Z" class="fill-red"/>
<path d=" M9.28,11.16 L9.66,10.08 L10.09,9.03 L10.73,7.57 L11.06,6.91 L11.25,6.61 L11.49,6.34 L11.73,6.15 L11.91,6.08 L12.11,6.04 L12.32,6.05 L12.52,6.10 L12.67,6.16 L12.80,6.24 L12.91,6.34 L12.99,6.46 L13.02,6.56 L13.04,6.70 L13.01,6.77 L12.72,7.01 L12.51,7.24 L12.32,7.50 L11.69,8.54 L11.30,9.32 L10.90,10.24 L10.37,11.61 L10.23,12.04 L10.15,12.48 L10.13,12.69 L10.13,12.90 L10.17,13.12 L10.26,13.37 L10.29,13.49 L10.27,13.65 L10.24,13.68 L10.15,13.73 L10.04,13.75 L9.90,13.74 L9.75,13.70 L9.59,13.63 L9.45,13.53 L9.32,13.41 L9.21,13.28 L9.07,13.01 L9.00,12.74 L8.98,12.47 L9.00,12.20 L9.11,11.67Z" class="fill-red"/>
<path d=" M6.73,6.27 L6.80,6.16 L6.89,6.09 L6.96,6.10 L7.52,6.41 L7.89,6.55 L8.26,6.63 L8.63,6.69 L9.20,6.74 L9.78,6.76 L12.31,6.78 L13.00,6.84 L13.73,6.97 L14.03,7.06 L14.32,7.17 L14.44,7.24 L14.55,7.33 L14.64,7.43 L14.71,7.55 L14.75,7.68 L14.77,7.82 L14.75,7.95 L14.71,8.08 L14.62,8.21 L14.51,8.30 L14.37,8.36 L14.21,8.37 L14.13,8.34 L14.08,8.12 L14.02,8.03 L13.86,7.89 L13.60,7.74 L13.34,7.64 L12.80,7.50 L12.17,7.40 L11.53,7.35 L10.90,7.36 L10.26,7.41 L8.75,7.68 L8.23,7.74 L7.94,7.74 L7.64,7.72 L7.36,7.64 L7.10,7.52 L6.95,7.40 L6.82,7.27 L6.71,7.11 L6.64,6.95 L6.61,6.78 L6.61,6.61 L6.65,6.44Z" class="fill-red"/>
<path d=" M13.48,11.80 L13.38,12.16 L13.24,12.50 L13.06,12.83 L12.85,13.19 L12.65,13.42 L12.37,13.62 L12.35,13.67 L12.35,13.72 L12.37,13.77 L12.41,13.82 L12.48,13.86 L12.57,13.88 L12.72,13.88 L12.89,13.86 L13.06,13.81 L13.23,13.74 L13.47,13.60 L13.69,13.40 L13.91,13.15 L14.12,12.87 L14.34,12.51 L14.55,12.13 L14.90,11.35 L15.15,10.65 L15.33,10.02 L15.37,9.81 L15.37,9.63 L15.34,9.51 L15.28,9.42 L15.12,9.32 L14.90,9.22 L14.67,9.18 L14.43,9.21 L14.33,9.25 L14.24,9.31 L14.18,9.38 L14.15,9.46 L14.06,9.98 L14.00,10.17 L13.91,10.38 L13.65,10.82 L13.31,11.33 L12.93,11.85 L12.74,12.07 L12.57,12.23 L12.43,12.31 L12.31,12.31 L12.23,12.24 L12.18,12.11 L12.17,11.95 L12.18,11.75 L12.27,11.32 L12.43,10.82 L12.64,10.35 L12.94,9.89 L12.98,9.77 L12.99,9.66 L12.95,9.55 L12.82,9.37 L12.62,9.21 L12.41,9.11 L12.20,9.06 L12.11,9.06 L12.03,9.09 L11.97,9.14 L11.61,9.81 L11.31,10.31 L11.19,10.58 L11.08,10.85 L10.88,11.55 L10.80,11.94 L10.74,12.33 L10.75,12.71 L10.78,12.88 L10.84,13.04 L10.92,13.17 L11.03,13.29 L11.15,13.39 L11.28,13.46 L11.57,13.55 L11.84,13.56 L12.08,13.51 L12.29,13.40 L12.46,13.24 L12.64,13.04 L13.03,12.52 L13.26,12.18 L13.44,11.87Z" class="fill-red"/>
<path d=" M12.26,15.30 L12.05,15.21 L11.93,15.13 L11.84,15.04 L11.78,14.94 L11.75,14.83 L11.75,14.60 L11.80,14.39 L11.92,14.21 L12.01,14.11 L12.13,14.03 L12.28,13.95 L12.44,13.89 L12.69,13.83 L12.97,13.79 L13.52,13.75 L13.89,13.75 L14.24,13.79 L14.55,13.90 L14.69,13.98 L14.81,14.09 L14.89,14.22 L14.94,14.37 L15.00,14.70 L15.00,15.02 L14.98,15.18 L14.93,15.35 L14.81,15.61 L14.65,15.88 L14.44,16.15 L14.19,16.40 L13.92,16.62 L13.62,16.80 L13.30,16.94 L12.97,17.04 L12.67,17.10 L12.37,17.13 L12.08,17.11 L11.82,17.07 L11.63,17.00 L11.47,16.91 L11.32,16.80 L11.20,16.67 L11.09,16.51 L10.99,16.34 L10.92,16.15 L10.87,15.95 L10.84,15.73 L10.83,15.51 L10.87,15.09 L10.93,14.80 L11.01,14.59 L11.06,14.50 L10.99,14.48 L10.56,14.49 L9.91,14.57 L9.43,14.68 L8.95,14.83 L8.47,15.01 L6.24,16.00 L5.55,16.23 L5.22,16.31 L4.89,16.37 L4.60,16.40 L4.31,16.40 L4.04,16.38 L3.78,16.34 L3.59,16.28 L3.42,16.20 L3.27,16.10 L3.14,15.99 L3.04,15.86 L2.96,15.72 L2.90,15.56 L2.86,15.40 L2.83,15.08 L2.87,14.82 L2.91,14.73 L2.96,14.68 L3.02,14.66 L3.07,14.67 L3.29,14.77 L3.64,14.89 L3.87,14.93 L4.13,14.95 L4.57,14.95 L5.05,14.91 L5.55,14.84 L6.05,14.74 L7.91,14.25 L8.73,14.06 L9.53,13.92 L10.16,13.84 L10.70,13.81 L10.99,13.82 L11.24,13.86 L11.43,13.91 L11.57,13.99 L11.63,14.05 L11.65,14.12 L11.62,14.33 L11.47,14.83 L11.44,15.07 L11.47,15.30 L11.56,15.51 L11.62,15.60 L11.71,15.67 L11.82,15.74 L11.94,15.79 L12.18,15.84 L12.46,15.87 L12.76,15.86 L13.06,15.80 L13.34,15.71 L13.61,15.58 L13.84,15.43 L14.05,15.26 L14.29,14.99 L14.44,14.75 L14.48,14.63 L14.47,14.54 L14.43,14.48 L14.33,14.44 L14.08,14.43 L13.75,14.45 L13.38,14.50 L13.05,14.58 L12.87,14.66 L12.72,14.74 L12.53,14.90 L12.47,14.99 L12.40,15.24 L12.35,15.31Z" class="fill-red"/>
<path d=" M16.42,13.71 L16.19,13.64 L15.93,13.54 L15.68,13.38 L15.58,13.28 L15.49,13.16 L15.41,12.96 L15.36,12.73 L15.35,12.47 L15.36,12.18 L15.42,11.72 L15.51,11.24 L15.76,10.25 L16.04,9.33 L16.36,8.42 L16.74,7.54 L17.12,6.80 L17.30,6.52 L17.49,6.31 L17.67,6.18 L17.89,6.10 L18.02,6.07 L18.16,6.07 L18.31,6.08 L18.45,6.13 L18.60,6.20 L18.74,6.29 L18.85,6.40 L18.93,6.51 L18.98,6.63 L18.98,6.73 L18.92,6.82 L18.81,6.92 L18.52,7.29 L18.18,7.81 L17.78,8.55 L17.43,9.31 L17.16,9.96 L16.93,10.60 L16.73,11.28 L16.59,11.94 L16.52,12.41 L16.51,12.84 L16.55,13.15 L16.63,13.38 L16.71,13.50 L16.71,13.56 L16.68,13.64 L16.60,13.71 L16.53,13.73Z" class="fill-red"/>
<path d=" M17.94,11.95 L18.20,11.94 L18.51,11.89 L18.86,11.80 L19.20,11.66 L19.53,11.45 L19.83,11.18 L20.08,10.87 L20.29,10.55 L20.43,10.28 L20.52,10.02 L20.55,9.78 L20.52,9.55 L20.42,9.37 L20.27,9.22 L20.07,9.11 L19.83,9.07 L19.62,9.07 L19.40,9.12 L19.17,9.20 L18.93,9.31 L18.70,9.46 L18.46,9.62 L18.23,9.81 L18.02,10.02 L17.80,10.26 L17.60,10.51 L17.42,10.77 L17.26,11.05 L17.13,11.32 L17.03,11.60 L16.97,11.87 L16.93,12.14 L16.93,12.34 L16.95,12.53 L16.99,12.71 L17.05,12.88 L17.12,13.04 L17.21,13.18 L17.32,13.31 L17.43,13.41 L17.56,13.50 L17.70,13.57 L18.00,13.65 L18.32,13.67 L18.66,13.63 L18.88,13.57 L19.09,13.49 L19.51,13.27 L19.92,13.00 L20.29,12.68 L20.59,12.38 L21.32,11.50 L21.37,11.40 L21.36,11.31 L21.31,11.23 L21.21,11.22 L21.10,11.25 L20.94,11.43 L20.62,11.73 L20.15,12.07 L19.62,12.37 L19.36,12.48 L19.12,12.56 L18.79,12.61 L18.65,12.61 L18.52,12.58 L18.43,12.55 L18.35,12.49 L18.28,12.41 L18.22,12.31 L18.17,12.09 L18.15,11.83 L18.18,11.54 L18.24,11.23 L18.36,10.90 L18.52,10.59 L18.68,10.31 L18.85,10.08 L19.01,9.90 L19.09,9.85 L19.17,9.83 L19.23,9.84 L19.29,9.88 L19.34,9.94 L19.37,10.01 L19.37,10.10 L19.36,10.20 L19.27,10.42 L19.12,10.65 L18.93,10.89 L18.71,11.11 L18.48,11.30 L18.25,11.45 L18.04,11.55 L17.76,11.65 L17.70,11.69 L17.66,11.78 L17.68,11.87 L17.72,11.91 L17.77,11.93Z" class="fill-red"/>
<path d=" M21.73,12.38 L21.64,12.61 L21.22,13.14 L20.73,13.70 L20.29,14.12 L20.03,14.33 L19.75,14.52 L19.46,14.70 L19.16,14.84 L18.85,14.96 L18.54,15.04 L18.27,15.08 L18.00,15.09 L17.79,15.08 L17.58,15.04 L17.32,14.97 L16.97,14.79 L16.92,14.87 L16.79,14.99 L16.63,15.09 L16.44,15.14 L16.25,15.15 L16.08,15.12 L15.83,15.05 L15.59,14.96 L15.57,15.18 L15.53,15.41 L15.34,16.15 L15.31,16.29 L15.19,16.59 L15.04,16.87 L14.80,17.21 L14.57,17.49 L14.30,17.74 L14.03,17.95 L13.73,18.13 L13.43,18.28 L13.11,18.39 L12.76,18.48 L12.40,18.53 L12.11,18.55 L11.81,18.53 L11.53,18.48 L11.29,18.41 L11.08,18.32 L10.89,18.20 L10.72,18.06 L10.56,17.91 L10.43,17.73 L10.31,17.54 L10.22,17.33 L10.14,17.12 L10.09,16.91 L10.06,16.68 L10.04,16.26 L10.07,15.94 L9.63,16.01 L9.11,16.16 L8.56,16.36 L6.30,17.36 L5.85,17.53 L5.39,17.66 L4.94,17.76 L4.51,17.81 L4.10,17.82 L3.70,17.79 L3.34,17.71 L3.03,17.60 L2.75,17.44 L2.50,17.22 L2.31,16.97 L2.18,16.70 L2.09,16.42 L2.05,16.15 L2.05,15.77 L2.09,15.50 L2.28,14.73 L2.34,14.53 L2.43,14.38 L2.57,14.23 L2.77,14.12 L2.95,14.08 L3.08,14.07 L3.32,14.13 L3.59,14.26 L3.94,14.34 L4.22,14.37 L4.70,14.35 L4.90,14.34 L4.71,13.99 L4.63,13.76 L4.58,13.55 L4.56,13.12 L4.59,12.75 L4.63,12.55 L4.82,11.80 L4.93,11.46 L5.00,11.32 L5.10,11.20 L5.23,11.07 L5.40,10.37 L5.54,9.95 L5.72,9.62 L5.84,9.42 L6.09,9.12 L6.46,8.76 L6.30,8.63 L6.15,8.47 L6.03,8.29 L5.93,8.09 L5.85,7.88 L5.82,7.66 L5.82,7.45 L5.86,7.18 L6.05,6.40 L6.12,6.19 L6.21,5.99 L6.37,5.75 L6.53,5.62 L6.73,5.53 L6.82,5.51 L7.08,5.52 L7.28,5.59 L7.56,5.77 L7.86,5.92 L8.17,6.01 L8.69,6.10 L9.25,6.15 L10.45,6.19 L10.84,6.19 L11.10,5.89 L11.37,5.68 L11.58,5.57 L11.82,5.49 L12.07,5.46 L12.32,5.46 L12.55,5.49 L12.78,5.56 L12.95,5.64 L13.12,5.75 L13.29,5.89 L13.49,6.15 L13.57,6.34 L14.21,6.49 L14.60,6.66 L14.90,6.85 L15.06,7.02 L15.22,7.25 L15.29,7.43 L15.35,7.69 L15.35,7.89 L15.31,8.14 L15.18,8.70 L15.37,8.79 L15.56,8.89 L15.80,8.23 L16.07,7.58 L16.42,6.85 L16.70,6.35 L16.86,6.13 L17.04,5.92 L17.23,5.77 L17.44,5.64 L17.68,5.54 L17.97,5.48 L18.29,5.49 L18.46,5.51 L18.63,5.56 L18.81,5.64 L19.10,5.83 L19.34,6.07 L19.44,6.21 L19.54,6.42 L19.57,6.60 L19.57,6.74 L19.55,6.89 L19.36,7.66 L19.28,7.87 L19.15,8.05 L18.89,8.34 L18.53,8.87 L18.96,8.65 L19.32,8.53 L19.70,8.48 L19.90,8.48 L20.15,8.52 L20.37,8.60 L20.58,8.72 L20.77,8.88 L20.93,9.07 L21.04,9.28 L21.12,9.52 L21.14,9.78 L21.12,10.01 L21.08,10.19 L20.96,10.67 L21.22,10.63 L21.43,10.65 L21.60,10.72 L21.74,10.83 L21.86,10.98 L21.91,11.10 L21.96,11.32 L21.94,11.56 L21.93,11.59Z" class="fill-white"/>
    </svg>