<?xml version="1.0" encoding="UTF-8"?>
<svg id="Layer_1" data-name="Layer 1" xmlns="http://www.w3.org/2000/svg" version="1.1" xmlns:xlink="http://www.w3.org/1999/xlink" viewBox="0 0 24 24">
  <defs>
    <style>
      .cls-1 {
        fill: #000;
      }

      .cls-1, .cls-2, .cls-3, .cls-4, .cls-5, .cls-6, .cls-7 {
        stroke-width: 0px;
      }

      .cls-2 {
        fill: #ffc929;
      }

      .cls-3 {
        fill: none;
      }

      .cls-8 {
        clip-path: url(#clippath-1);
      }

      .cls-9 {
        clip-path: url(#clippath);
      }

      .cls-4 {
        fill: #fe4336;
      }

      .cls-5 {
        fill: #fff;
        opacity: .22;
      }

      .cls-6 {
        fill: #ab48bd;
      }

      .cls-7 {
        fill: #5c6bbf;
      }
    </style>
    <clipPath id="clippath">
      <path class="cls-3" d="M22.98,16.3c.27-6.06-4.42-11.18-10.47-11.46C6.45,4.57,1.32,9.26,1.05,15.31c-.01.33-.01.66,0,.98,0,.15.13.27.28.27h4.59c.16,0,.28-.13.28-.28,0,0,0-.01,0-.02-.25-3.2,2.14-6.01,5.35-6.26,3.2-.25,6.01,2.14,6.26,5.35.02.3.02.61,0,.91-.01.16.1.29.26.31,0,0,.01,0,.02,0h4.59c.15,0,.28-.12.28-.27"/>
    </clipPath>
    <clipPath id="clippath-1">
      <path class="cls-3" d="M16.3,10.67l-5.48,2.76c-1.31.66-1.83,2.26-1.17,3.56.66,1.31,2.26,1.83,3.56,1.17.51-.26.92-.67,1.17-1.17l2.76-5.48c.16-.31.03-.69-.28-.85-.18-.09-.39-.09-.57,0"/>
    </clipPath>
  </defs>
  <g class="cls-9">
    <path class="cls-7" d="M-1.7,2l13.72,13.8V-3.66C6.88-3.66,1.94-1.62-1.7,2"/>
    <path class="cls-6" d="M-1.7,2l13.72,13.8-19.15,3.46c-1.14-6.3.89-12.75,5.43-17.26"/>
    <path class="cls-2" d="M12.02-3.66V15.8L25.78,2.04c-3.65-3.65-8.6-5.7-13.76-5.7"/>
    <path class="cls-4" d="M25.78,2.04l-13.76,13.76,19.08,3.83c1.28-6.39-.71-12.99-5.32-17.6"/>
  </g>
  <g class="cls-8">
    <rect class="cls-1" x="8.89" y="10.31" width="8.74" height="8.47"/>
    <path class="cls-5" d="M9.07,18.75l8.53-8.53,3.85,3.85-8.53,8.53-3.85-3.85Z"/>
  </g>
</svg>