<?xml version="1.0" encoding="utf-8" standalone="no"?>
<!DOCTYPE svg PUBLIC "-//W3C//DTD SVG 1.1//EN" "http://www.w3.org/Graphics/SVG/1.1/DTD/svg11.dtd">
<svg version="1.1" width="2384pt" height="3370pt" viewBox="0 0 2383.92 3370.32" xmlns="http://www.w3.org/2000/svg">
  <defs />
  <g id="Default">
    <path d="M652.3308,1635.0547 L789.3688,1772.9171 L789.3688,1578.5323 A194.38486,194.38486 0 0 0 652.33075,1635.0548" stroke="#000000" stroke-width="0.24" stroke-linecap="round" stroke-linejoin="round" fill="none" />
    <path d="M652.3308,1635.0547 L789.3688,1772.9171 L598.081,1807.4781 A194.38486,194.38486 0 0 1 652.33075,1635.0548" stroke="#000000" stroke-width="0.24" stroke-linecap="round" stroke-linejoin="round" fill="none" />
    <path d="M789.3688,1578.5323 L789.3688,1772.9171 L926.81964,1635.4663 A194.38486,194.38486 0 0 0 789.3688,1578.5323" stroke="#000000" stroke-width="0.24" stroke-linecap="round" stroke-linejoin="round" fill="none" />
    <path d="M926.81964,1635.4663 L789.3688,1772.9171 L979.9447,1811.2092 A194.38486,194.38486 0 0 0 926.81964,1635.4663" stroke="#000000" stroke-width="0.24" stroke-linecap="round" stroke-linejoin="round" fill="none" />
    <path d="M898.87415,1777.8265 A109.61538,109.61538 0 1 0 679.8634,1777.8265 A2.8407354,2.8407354 0 0 0 682.7013,1780.54 L728.5852,1780.5399 A2.8407354,2.8407354 0 0 0 731.4172,1777.4764 A58.130676,58.130676 0 1 1 847.3204,1777.4764 A2.8407354,2.8407354 0 0 0 850.15234,1780.54 L896.0363,1780.5399 A2.8407354,2.8407354 0 0 0 898.87415,1777.8265" stroke="#000000" stroke-width="0.24" stroke-linecap="round" stroke-linejoin="round" fill="none" />
    <path d="M759.934,1802.3519 L845.1643,1717.1216 L883.6257,1755.583 L798.3954,1840.8132 z" stroke="#000000" stroke-width="0.24" stroke-linecap="round" stroke-linejoin="round" fill="none" />
    <path d="M832.1243,1721.6725 L777.43463,1749.2524 A26.503712,26.503712 0 1 0 813.0336,1784.8513 L840.61346,1730.1616 A6.320225,6.320225 0 0 0 832.1244,1721.6725" stroke="#000000" stroke-width="0.24" stroke-linecap="round" stroke-linejoin="round" fill="none" />
  </g>
</svg>