<?xml version="1.0" encoding="utf-8"?>
<!-- Generator: Grasshopper 1.0.0, Redback Plugin. SVG Version: 6.00 Build 0)  -->
<!DOCTYPE svg PUBLIC "-//W3C//DTD SVG 1.1//EN" "http://www.w3.org/Graphics/SVG/1.1/DTD/svg11.dtd">
<svg version="1.1" xmlns="http://www.w3.org/2000/svg" xmlns:xlink="http://www.w3.org/1999/xlink" x="0px" y="0px"
width="594.0mm" height="841.0mm" viewBox="0 0 594.0 841.0" xml:space="preserve">
<style type="text/css">

</style>
<image transform="matrix(-0.766044443119 -0.642787609687 0.642787609687 -0.766044443119 0.301901636637 0.067156657476)" width="0.0831328169504" height="0.0831328169504" xlink:href="K:\Computational Design Group\03_Resources\Rendering\People\PersonLibrary\6\Person_6.png"/>
<image transform="matrix(0.5 -0.866025403784 0.866025403784 0.5 0.250223603862 0.0349954918138)" width="0.0721248778431" height="0.0721248778431" xlink:href="K:\Computational Design Group\03_Resources\Rendering\People\PersonLibrary\19\Person_19.png"/>
<image transform="matrix(-0.939692620786 -0.342020143326 0.342020143326 -0.939692620786 0.315858219774 0.0756223797886)" width="0.0649799601105" height="0.0649799601105" xlink:href="K:\Computational Design Group\03_Resources\Rendering\People\PersonLibrary\20\Person_20.png"/>
<image transform="matrix(-0.766044443119 -0.642787609687 0.642787609687 -0.766044443119 0.298574366112 0.222283751648)" width="0.0895514115782" height="0.0895514115782" xlink:href="K:\Computational Design Group\03_Resources\Rendering\People\PersonLibrary\23\Person_23.png"/>
<image transform="matrix(0.5 -0.866025403784 0.866025403784 0.5 0.24814894656 0.185672894634)" width="0.0632701390066" height="0.0632701390066" xlink:href="K:\Computational Design Group\03_Resources\Rendering\People\PersonLibrary\7\Person_7.png"/>
<image transform="matrix(0.939692620786 -0.342020143326 0.342020143326 0.939692620786 0.214187063877 0.153414064633)" width="0.0692004122395" height="0.0692004122395" xlink:href="K:\Computational Design Group\03_Resources\Rendering\People\PersonLibrary\2\Person_2.png"/>
<image transform="matrix(-0.766044443119 -0.642787609687 0.642787609687 -0.766044443119 0.265407533353 0.218418481618)" width="0.0840642138357" height="0.0840642138357" xlink:href="K:\Computational Design Group\03_Resources\Rendering\People\PersonLibrary\24\Person_24.png"/>
<image transform="matrix(-0.866025403784 -0.5 0.5 -0.866025403784 0.277038170611 0.0840897409896)" width="0.0733664003682" height="0.0733664003682" xlink:href="K:\Computational Design Group\03_Resources\Rendering\People\PersonLibrary\13\Person_13.png"/>
<image transform="matrix(-0.766044443119 -0.642787609687 0.642787609687 -0.766044443119 0.270770811772 0.0688151368101)" width="0.0667494946191" height="0.0667494946191" xlink:href="K:\Computational Design Group\03_Resources\Rendering\People\PersonLibrary\13\Person_13.png"/>
<image transform="matrix(-0.642787609687 -0.766044443119 0.766044443119 -0.642787609687 0.26023120285 0.0510983548591)" width="0.0603361995892" height="0.0603361995892" xlink:href="K:\Computational Design Group\03_Resources\Rendering\People\PersonLibrary\18\Person_18.png"/>
<image transform="matrix(-0.984807753012 -0.173648177667 0.173648177667 -0.984807753012 0.231939609368 0.0566499118405)" width="0.0829610202196" height="0.0829610202196" xlink:href="K:\Computational Design Group\03_Resources\Rendering\People\PersonLibrary\2\Person_2.png"/>
<image transform="matrix(0.5 0.866025403784 -0.866025403784 0.5 0.212138390581 -0.019774006194)" width="0.0608623077212" height="0.0608623077212" xlink:href="K:\Computational Design Group\03_Resources\Rendering\People\PersonLibrary\3\Person_3.png"/>
<image transform="matrix(-0.642787609687 -0.766044443119 0.766044443119 -0.642787609687 0.194242172023 0.0764043059437)" width="0.0602268357157" height="0.0602268357157" xlink:href="K:\Computational Design Group\03_Resources\Rendering\People\PersonLibrary\11\Person_11.png"/>
<image transform="matrix(0.866025403784 0.5 -0.5 0.866025403784 0.180788478522 0.107770986361)" width="0.0753006725085" height="0.0753006725085" xlink:href="K:\Computational Design Group\03_Resources\Rendering\People\PersonLibrary\24\Person_24.png"/>
<image transform="matrix(0.766044443119 0.642787609687 -0.642787609687 0.766044443119 0.188473116531 0.123754079039)" width="0.0714628495376" height="0.0714628495376" xlink:href="K:\Computational Design Group\03_Resources\Rendering\People\PersonLibrary\27\Person_27.png"/>
<image transform="matrix(0.5 -0.866025403784 0.866025403784 0.5 0.178999969698 0.18660847835)" width="0.0683822634995" height="0.0683822634995" xlink:href="K:\Computational Design Group\03_Resources\Rendering\People\PersonLibrary\15\Person_15.png"/>
<image transform="matrix(-0.939692620786 -0.342020143326 0.342020143326 -0.939692620786 0.251631545665 0.211171043682)" width="0.0810926488233" height="0.0810926488233" xlink:href="K:\Computational Design Group\03_Resources\Rendering\People\PersonLibrary\8\Person_8.png"/>
<image transform="matrix(-0.5 -0.866025403784 0.866025403784 -0.5 0.218509622121 0.0797826435564)" width="0.0670603720597" height="0.0670603720597" xlink:href="K:\Computational Design Group\03_Resources\Rendering\People\PersonLibrary\11\Person_11.png"/>
<image transform="matrix(0.766044443119 0.642787609687 -0.642787609687 0.766044443119 0.228778669284 -0.0359238850057)" width="0.0819396576574" height="0.0819396576574" xlink:href="K:\Computational Design Group\03_Resources\Rendering\People\PersonLibrary\7\Person_7.png"/>
<image transform="matrix(0.5 -0.866025403784 0.866025403784 0.5 0.188316523904 0.0200659834768)" width="0.0626700467349" height="0.0626700467349" xlink:href="K:\Computational Design Group\03_Resources\Rendering\People\PersonLibrary\3\Person_3.png"/>
<image transform="matrix(0.939692620786 -0.342020143326 0.342020143326 0.939692620786 0.243273940712 0.207301116022)" width="0.0624794695538" height="0.0624794695538" xlink:href="K:\Computational Design Group\03_Resources\Rendering\People\PersonLibrary\13\Person_13.png"/>
<image transform="matrix(0.984807753012 0.173648177667 -0.173648177667 0.984807753012 0.222264741041 0.184572851446)" width="0.0701617553458" height="0.0701617553458" xlink:href="K:\Computational Design Group\03_Resources\Rendering\People\PersonLibrary\21\Person_21.png"/>
<image transform="matrix(0.766044443119 0.642787609687 -0.642787609687 0.766044443119 0.262409122697 0.176559979044)" width="0.069897365882" height="0.069897365882" xlink:href="K:\Computational Design Group\03_Resources\Rendering\People\PersonLibrary\11\Person_11.png"/>
<image transform="matrix(0.766044443119 0.642787609687 -0.642787609687 0.766044443119 0.295060406839 0.167434814375)" width="0.081939508711" height="0.081939508711" xlink:href="K:\Computational Design Group\03_Resources\Rendering\People\PersonLibrary\2\Person_2.png"/>
<image transform="matrix(0.766044443119 0.642787609687 -0.642787609687 0.766044443119 0.242677267903 0.1632378949)" width="0.0868786023217" height="0.0868786023217" xlink:href="K:\Computational Design Group\03_Resources\Rendering\People\PersonLibrary\18\Person_18.png"/>
<image transform="matrix(0.766044443119 0.642787609687 -0.642787609687 0.766044443119 0.198214343841 0.16581940649)" width="0.0843795049071" height="0.0843795049071" xlink:href="K:\Computational Design Group\03_Resources\Rendering\People\PersonLibrary\11\Person_11.png"/>
<image transform="matrix(0.766044443119 0.642787609687 -0.642787609687 0.766044443119 0.303855429197 0.169212696718)" width="0.0796064575946" height="0.0796064575946" xlink:href="K:\Computational Design Group\03_Resources\Rendering\People\PersonLibrary\4\Person_4.png"/>
<image transform="matrix(0.5 0.866025403784 -0.866025403784 0.5 0.212387452257 0.166523779821)" width="0.0878050860566" height="0.0878050860566" xlink:href="K:\Computational Design Group\03_Resources\Rendering\People\PersonLibrary\3\Person_3.png"/>
<image transform="matrix(0.766044443119 0.642787609687 -0.642787609687 0.766044443119 0.219742800857 0.180113882647)" width="0.0629772427878" height="0.0629772427878" xlink:href="K:\Computational Design Group\03_Resources\Rendering\People\PersonLibrary\3\Person_3.png"/>
<image transform="matrix(0.766044443119 0.642787609687 -0.642787609687 0.766044443119 0.310781216922 0.167867872649)" width="0.0807548739392" height="0.0807548739392" xlink:href="K:\Computational Design Group\03_Resources\Rendering\People\PersonLibrary\6\Person_6.png"/>
<image transform="matrix(0.866025403784 0.5 -0.5 0.866025403784 0.257448994054 0.165355402692)" width="0.0877644017235" height="0.0877644017235" xlink:href="K:\Computational Design Group\03_Resources\Rendering\People\PersonLibrary\16\Person_16.png"/>
<image transform="matrix(0.766044443119 0.642787609687 -0.642787609687 0.766044443119 0.283793955296 0.161491973765)" width="0.0894042248835" height="0.0894042248835" xlink:href="K:\Computational Design Group\03_Resources\Rendering\People\PersonLibrary\20\Person_20.png"/>
<image transform="matrix(0.5 -0.866025403784 0.866025403784 0.5 0.235488864722 0.23623958759)" width="0.0630425939583" height="0.0630425939583" xlink:href="K:\Computational Design Group\03_Resources\Rendering\People\PersonLibrary\10\Person_10.png"/>
<image transform="matrix(-0.939692620786 -0.342020143326 0.342020143326 -0.939692620786 0.301501534084 0.259458949449)" width="0.0611605507839" height="0.0611605507839" xlink:href="K:\Computational Design Group\03_Resources\Rendering\People\PersonLibrary\14\Person_14.png"/>
<image transform="matrix(0.5 -0.866025403784 0.866025403784 0.5 0.202469694803 0.232078488267)" width="0.0702316416009" height="0.0702316416009" xlink:href="K:\Computational Design Group\03_Resources\Rendering\People\PersonLibrary\17\Person_17.png"/>
<image transform="matrix(0.342020143326 0.939692620786 -0.939692620786 0.342020143326 0.292074519179 0.16516006896)" width="0.0854891886448" height="0.0854891886448" xlink:href="K:\Computational Design Group\03_Resources\Rendering\People\PersonLibrary\17\Person_17.png"/>
<image transform="matrix(0.939692620786 -0.342020143326 0.342020143326 0.939692620786 0.248468723393 0.1954996208)" width="0.0806127871576" height="0.0806127871576" xlink:href="K:\Computational Design Group\03_Resources\Rendering\People\PersonLibrary\17\Person_17.png"/>
<image transform="matrix(0.173648177667 0.984807753012 -0.984807753012 0.173648177667 0.28112691848 0.170744209702)" width="0.0823200642841" height="0.0823200642841" xlink:href="K:\Computational Design Group\03_Resources\Rendering\People\PersonLibrary\1\Person_1.png"/>
<image transform="matrix(0.766044443119 0.642787609687 -0.642787609687 0.766044443119 0.197877978224 0.162111231727)" width="0.080569369877" height="0.080569369877" xlink:href="K:\Computational Design Group\03_Resources\Rendering\People\PersonLibrary\21\Person_21.png"/>
<image transform="matrix(0.342020143326 0.939692620786 -0.939692620786 0.342020143326 0.327597296575 0.179557558442)" width="0.0627918396857" height="0.0627918396857" xlink:href="K:\Computational Design Group\03_Resources\Rendering\People\PersonLibrary\9\Person_9.png"/>
<image transform="matrix(0.173648177667 0.984807753012 -0.984807753012 0.173648177667 0.220520739607 0.184585097842)" width="0.0612156331172" height="0.0612156331172" xlink:href="K:\Computational Design Group\03_Resources\Rendering\People\PersonLibrary\23\Person_23.png"/>
<image transform="matrix(0.5 0.866025403784 -0.866025403784 0.5 0.235654884799 0.171710562794)" width="0.0681486056271" height="0.0681486056271" xlink:href="K:\Computational Design Group\03_Resources\Rendering\People\PersonLibrary\8\Person_8.png"/>
<image transform="matrix(0.342020143326 0.939692620786 -0.939692620786 0.342020143326 0.336166910083 0.175809569158)" width="0.067897533792" height="0.067897533792" xlink:href="K:\Computational Design Group\03_Resources\Rendering\People\PersonLibrary\16\Person_16.png"/>
<image transform="matrix(0.866025403784 0.5 -0.5 0.866025403784 0.259642435541 0.168285882576)" width="0.074993384548" height="0.074993384548" xlink:href="K:\Computational Design Group\03_Resources\Rendering\People\PersonLibrary\15\Person_15.png"/>
<image transform="matrix(-0.939692620786 -0.342020143326 0.342020143326 -0.939692620786 0.315814188934 0.275750852731)" width="0.0888470971579" height="0.0888470971579" xlink:href="K:\Computational Design Group\03_Resources\Rendering\People\PersonLibrary\13\Person_13.png"/>
<image transform="matrix(0.866025403784 0.5 -0.5 0.866025403784 0.264406131653 0.166578480448)" width="0.0766813639908" height="0.0766813639908" xlink:href="K:\Computational Design Group\03_Resources\Rendering\People\PersonLibrary\12\Person_12.png"/>
<image transform="matrix(0.939692620786 -0.342020143326 0.342020143326 0.939692620786 0.243374897297 0.196197291241)" width="0.0605280902425" height="0.0605280902425" xlink:href="K:\Computational Design Group\03_Resources\Rendering\People\PersonLibrary\5\Person_5.png"/>
<image transform="matrix(0.642787609687 0.766044443119 -0.766044443119 0.642787609687 0.254765099428 0.160763964317)" width="0.0746562173239" height="0.0746562173239" xlink:href="K:\Computational Design Group\03_Resources\Rendering\People\PersonLibrary\21\Person_21.png"/>
<image transform="matrix(-0.984807753012 -0.173648177667 0.173648177667 -0.984807753012 0.294366593553 0.254722222247)" width="0.070266373763" height="0.070266373763" xlink:href="K:\Computational Design Group\03_Resources\Rendering\People\PersonLibrary\4\Person_4.png"/>
<image transform="matrix(0.766044443119 0.642787609687 -0.642787609687 0.766044443119 0.294065801498 0.161028252135)" width="0.0745696044502" height="0.0745696044502" xlink:href="K:\Computational Design Group\03_Resources\Rendering\People\PersonLibrary\23\Person_23.png"/>
<image transform="matrix(0.342020143326 -0.939692620786 0.939692620786 0.342020143326 0.196724724912 0.236252479238)" width="0.0792729603868" height="0.0792729603868" xlink:href="K:\Computational Design Group\03_Resources\Rendering\People\PersonLibrary\20\Person_20.png"/>
<image transform="matrix(-0.866025403784 -0.5 0.5 -0.866025403784 0.218097703857 0.266835161453)" width="0.0786038322321" height="0.0786038322321" xlink:href="K:\Computational Design Group\03_Resources\Rendering\People\PersonLibrary\20\Person_20.png"/>
<image transform="matrix(-0.866025403784 -0.5 0.5 -0.866025403784 0.318539101433 0.256220153059)" width="0.0622003602247" height="0.0622003602247" xlink:href="K:\Computational Design Group\03_Resources\Rendering\People\PersonLibrary\5\Person_5.png"/>
<image transform="matrix(0.5 -0.866025403784 0.866025403784 0.5 0.137409172044 0.230245216545)" width="0.0868626562957" height="0.0868626562957" xlink:href="K:\Computational Design Group\03_Resources\Rendering\People\PersonLibrary\16\Person_16.png"/>
<image transform="matrix(-0.939692620786 -0.342020143326 0.342020143326 -0.939692620786 0.246828350637 0.26237095849)" width="0.0778611828842" height="0.0778611828842" xlink:href="K:\Computational Design Group\03_Resources\Rendering\People\PersonLibrary\6\Person_6.png"/>
<image transform="matrix(-0.766044443119 -0.642787609687 0.642787609687 -0.766044443119 0.318525676308 0.264639687408)" width="0.0729710616045" height="0.0729710616045" xlink:href="K:\Computational Design Group\03_Resources\Rendering\People\PersonLibrary\12\Person_12.png"/>
<image transform="matrix(-0.5 -0.866025403784 0.866025403784 -0.5 0.261153587244 0.256062929281)" width="0.0622275119611" height="0.0622275119611" xlink:href="K:\Computational Design Group\03_Resources\Rendering\People\PersonLibrary\9\Person_9.png"/>
<image transform="matrix(-0.766044443119 -0.642787609687 0.642787609687 -0.766044443119 0.292555163188 0.264265368115)" width="0.0730404513995" height="0.0730404513995" xlink:href="K:\Computational Design Group\03_Resources\Rendering\People\PersonLibrary\20\Person_20.png"/>
<image transform="matrix(-0.766044443119 -0.642787609687 0.642787609687 -0.766044443119 0.281353307371 0.25713754008)" width="0.0626728092566" height="0.0626728092566" xlink:href="K:\Computational Design Group\03_Resources\Rendering\People\PersonLibrary\5\Person_5.png"/>
<image transform="matrix(0.5 -0.866025403784 0.866025403784 0.5 0.237285335677 0.220874072573)" width="0.0688906340994" height="0.0688906340994" xlink:href="K:\Computational Design Group\03_Resources\Rendering\People\PersonLibrary\23\Person_23.png"/>
<image transform="matrix(-0.766044443119 -0.642787609687 0.642787609687 -0.766044443119 0.256309833785 0.263322422154)" width="0.0795939546449" height="0.0795939546449" xlink:href="K:\Computational Design Group\03_Resources\Rendering\People\PersonLibrary\25\Person_25.png"/>
<image transform="matrix(-0.342020143326 0.939692620786 -0.939692620786 -0.342020143326 0.322845648915 0.182185438929)" width="0.0862591277791" height="0.0862591277791" xlink:href="K:\Computational Design Group\03_Resources\Rendering\People\PersonLibrary\21\Person_21.png"/>
<image transform="matrix(0.939692620786 -0.342020143326 0.342020143326 0.939692620786 0.256209930193 0.186542988706)" width="0.0703891575804" height="0.0703891575804" xlink:href="K:\Computational Design Group\03_Resources\Rendering\People\PersonLibrary\12\Person_12.png"/>
<image transform="matrix(0.984807753012 0.173648177667 -0.173648177667 0.984807753012 0.217870650759 0.162440312524)" width="0.0759946206799" height="0.0759946206799" xlink:href="K:\Computational Design Group\03_Resources\Rendering\People\PersonLibrary\8\Person_8.png"/>
<image transform="matrix(-0.866025403784 -0.5 0.5 -0.866025403784 0.215046437344 0.249672899036)" width="0.0625717978657" height="0.0625717978657" xlink:href="K:\Computational Design Group\03_Resources\Rendering\People\PersonLibrary\3\Person_3.png"/>
<image transform="matrix(0.342020143326 -0.939692620786 0.939692620786 0.342020143326 0.256513518696 0.232748767221)" width="0.0835567953361" height="0.0835567953361" xlink:href="K:\Computational Design Group\03_Resources\Rendering\People\PersonLibrary\9\Person_9.png"/>
<image transform="matrix(-0.766044443119 -0.642787609687 0.642787609687 -0.766044443119 0.201825666686 0.269980509424)" width="0.0878197137629" height="0.0878197137629" xlink:href="K:\Computational Design Group\03_Resources\Rendering\People\PersonLibrary\20\Person_20.png"/>
<image transform="matrix(-0.766044443119 -0.642787609687 0.642787609687 -0.766044443119 0.22951434459 0.26904952181)" width="0.0890662849318" height="0.0890662849318" xlink:href="K:\Computational Design Group\03_Resources\Rendering\People\PersonLibrary\24\Person_24.png"/>
<image transform="matrix(-0.866025403784 -0.5 0.5 -0.866025403784 0.329044961171 0.251740048197)" width="0.0650690309075" height="0.0650690309075" xlink:href="K:\Computational Design Group\03_Resources\Rendering\People\PersonLibrary\7\Person_7.png"/>
<image transform="matrix(-0.642787609687 -0.766044443119 0.766044443119 -0.642787609687 0.269754072404 0.261035061117)" width="0.0759736608928" height="0.0759736608928" xlink:href="K:\Computational Design Group\03_Resources\Rendering\People\PersonLibrary\10\Person_10.png"/>
<image transform="matrix(-0.766044443119 -0.642787609687 0.642787609687 -0.766044443119 0.295196106504 0.261592003074)" width="0.0777694763419" height="0.0777694763419" xlink:href="K:\Computational Design Group\03_Resources\Rendering\People\PersonLibrary\25\Person_25.png"/>
<image transform="matrix(-0.766044443119 -0.642787609687 0.642787609687 -0.766044443119 0.285002047813 0.269492072268)" width="0.0887725845393" height="0.0887725845393" xlink:href="K:\Computational Design Group\03_Resources\Rendering\People\PersonLibrary\8\Person_8.png"/>
<image transform="matrix(-0.766044443119 -0.642787609687 0.642787609687 -0.766044443119 0.288586390111 0.256189680305)" width="0.0764910021827" height="0.0764910021827" xlink:href="K:\Computational Design Group\03_Resources\Rendering\People\PersonLibrary\17\Person_17.png"/>
<image transform="matrix(-0.984807753012 -0.173648177667 0.173648177667 -0.984807753012 0.283251903546 0.247183778253)" width="0.0791478179717" height="0.0791478179717" xlink:href="K:\Computational Design Group\03_Resources\Rendering\People\PersonLibrary\25\Person_25.png"/>
<image transform="matrix(0.5 0.866025403784 -0.866025403784 0.5 0.278455323815 0.160052019132)" width="0.0614544136177" height="0.0614544136177" xlink:href="K:\Computational Design Group\03_Resources\Rendering\People\PersonLibrary\6\Person_6.png"/>
<image transform="matrix(-0.766044443119 -0.642787609687 0.642787609687 -0.766044443119 0.305939118599 0.2610021572)" width="0.0843308639267" height="0.0843308639267" xlink:href="K:\Computational Design Group\03_Resources\Rendering\People\PersonLibrary\6\Person_6.png"/>
<image transform="matrix(-0.766044443119 -0.642787609687 0.642787609687 -0.766044443119 0.252292964763 0.244405880804)" width="0.0622642215538" height="0.0622642215538" xlink:href="K:\Computational Design Group\03_Resources\Rendering\People\PersonLibrary\6\Person_6.png"/>
<image transform="matrix(-0.866025403784 -0.5 0.5 -0.866025403784 0.21919029543 0.259071021534)" width="0.084903981334" height="0.084903981334" xlink:href="K:\Computational Design Group\03_Resources\Rendering\People\PersonLibrary\23\Person_23.png"/>
<image transform="matrix(-0.866025403784 -0.5 0.5 -0.866025403784 0.324634514658 0.258541317245)" width="0.0830924115531" height="0.0830924115531" xlink:href="K:\Computational Design Group\03_Resources\Rendering\People\PersonLibrary\16\Person_16.png"/>
<image transform="matrix(0.866025403784 0.5 -0.5 0.866025403784 0.183671416225 0.154327405643)" width="0.0701972383308" height="0.0701972383308" xlink:href="K:\Computational Design Group\03_Resources\Rendering\People\PersonLibrary\8\Person_8.png"/>
<image transform="matrix(0.342020143326 -0.939692620786 0.939692620786 0.342020143326 0.170211880479 0.22548654709)" width="0.0838514146646" height="0.0838514146646" xlink:href="K:\Computational Design Group\03_Resources\Rendering\People\PersonLibrary\7\Person_7.png"/>
<image transform="matrix(-0.939692620786 0.342020143326 -0.342020143326 -0.939692620786 0.358079830967 0.220706712302)" width="0.0649502402707" height="0.0649502402707" xlink:href="K:\Computational Design Group\03_Resources\Rendering\People\PersonLibrary\10\Person_10.png"/>
<image transform="matrix(0.939692620786 -0.342020143326 0.342020143326 0.939692620786 0.224342285771 0.178401230083)" width="0.0775387122936" height="0.0775387122936" xlink:href="K:\Computational Design Group\03_Resources\Rendering\People\PersonLibrary\26\Person_26.png"/>
<image transform="matrix(0.939692620786 0.342020143326 -0.342020143326 0.939692620786 0.266464882843 0.150596149679)" width="0.0784076383377" height="0.0784076383377" xlink:href="K:\Computational Design Group\03_Resources\Rendering\People\PersonLibrary\6\Person_6.png"/>
<image transform="matrix(-0.939692620786 0.342020143326 -0.342020143326 -0.939692620786 0.318495664403 0.219380377928)" width="0.0614819135524" height="0.0614819135524" xlink:href="K:\Computational Design Group\03_Resources\Rendering\People\PersonLibrary\13\Person_13.png"/>
<image transform="matrix(-0.766044443119 0.642787609687 -0.642787609687 -0.766044443119 0.235231235028 0.448507011602)" width="0.0691605694914" height="0.0691605694914" xlink:href="K:\Computational Design Group\03_Resources\Rendering\People\PersonLibrary\23\Person_23.png"/>
<image transform="matrix(-0.984807753012 -0.173648177667 0.173648177667 -0.984807753012 0.165617186578 0.081666940897)" width="0.0872038646588" height="0.0872038646588" xlink:href="K:\Computational Design Group\03_Resources\Rendering\People\PersonLibrary\16\Person_16.png"/>
<image transform="matrix(0.342020143326 -0.939692620786 0.939692620786 0.342020143326 0.344020747153 0.609201436231)" width="0.0661799376626" height="0.0661799376626" xlink:href="K:\Computational Design Group\03_Resources\Rendering\People\PersonLibrary\21\Person_21.png"/>
<image transform="matrix(-0.173648177667 0.984807753012 -0.984807753012 -0.173648177667 0.505228488314 0.256051292085)" width="0.0732993678997" height="0.0732993678997" xlink:href="K:\Computational Design Group\03_Resources\Rendering\People\PersonLibrary\9\Person_9.png"/>
<image transform="matrix(0.5 -0.866025403784 0.866025403784 0.5 0.388233912969 0.283654333607)" width="0.0872605799964" height="0.0872605799964" xlink:href="K:\Computational Design Group\03_Resources\Rendering\People\PersonLibrary\6\Person_6.png"/>
<image transform="matrix(-1.0 0.0 0.0 -1.0 0.183199442051 0.631757183837)" width="0.0832616766837" height="0.0832616766837" xlink:href="K:\Computational Design Group\03_Resources\Rendering\People\PersonLibrary\9\Person_9.png"/>
<image transform="matrix(-0.984807753012 0.173648177667 -0.173648177667 -0.984807753012 0.170390042623 0.369761303931)" width="0.067572335758" height="0.067572335758" xlink:href="K:\Computational Design Group\03_Resources\Rendering\People\PersonLibrary\24\Person_24.png"/>
<image transform="matrix(-1.0 0.0 0.0 -1.0 0.192849801829 0.387311584904)" width="0.0796472550275" height="0.0796472550275" xlink:href="K:\Computational Design Group\03_Resources\Rendering\People\PersonLibrary\23\Person_23.png"/>
<image transform="matrix(-0.939692620786 0.342020143326 -0.342020143326 -0.939692620786 0.623379082493 0.0865272095879)" width="0.0716787357776" height="0.0716787357776" xlink:href="K:\Computational Design Group\03_Resources\Rendering\People\PersonLibrary\25\Person_25.png"/>
<image transform="matrix(-0.939692620786 -0.342020143326 0.342020143326 -0.939692620786 0.298909184773 0.508037117352)" width="0.0731978850408" height="0.0731978850408" xlink:href="K:\Computational Design Group\03_Resources\Rendering\People\PersonLibrary\12\Person_12.png"/>
<image transform="matrix(-1.0 0.0 0.0 -1.0 0.282855153053 0.494810208316)" width="0.0649565053382" height="0.0649565053382" xlink:href="K:\Computational Design Group\03_Resources\Rendering\People\PersonLibrary\3\Person_3.png"/>
<image transform="matrix(-0.939692620786 0.342020143326 -0.342020143326 -0.939692620786 0.499858674438 0.0984702786893)" width="0.0877594480467" height="0.0877594480467" xlink:href="K:\Computational Design Group\03_Resources\Rendering\People\PersonLibrary\24\Person_24.png"/>
<image transform="matrix(-0.984807753012 -0.173648177667 0.173648177667 -0.984807753012 0.474287277985 0.0963810737085)" width="0.0819029131121" height="0.0819029131121" xlink:href="K:\Computational Design Group\03_Resources\Rendering\People\PersonLibrary\9\Person_9.png"/>
<image transform="matrix(-0.866025403784 0.5 -0.5 -0.866025403784 0.448495996783 0.242850087432)" width="0.0724215866823" height="0.0724215866823" xlink:href="K:\Computational Design Group\03_Resources\Rendering\People\PersonLibrary\13\Person_13.png"/>
<image transform="matrix(-0.5 -0.866025403784 0.866025403784 -0.5 0.135064049438 0.70084750675)" width="0.0652903018218" height="0.0652903018218" xlink:href="K:\Computational Design Group\03_Resources\Rendering\People\PersonLibrary\5\Person_5.png"/>
<image transform="matrix(0.342020143326 0.939692620786 -0.939692620786 0.342020143326 0.226693268462 0.44989842494)" width="0.078861650228" height="0.078861650228" xlink:href="K:\Computational Design Group\03_Resources\Rendering\People\PersonLibrary\18\Person_18.png"/>
<image transform="matrix(-1.0 0.0 0.0 -1.0 0.248675834822 0.555355156709)" width="0.0614618053108" height="0.0614618053108" xlink:href="K:\Computational Design Group\03_Resources\Rendering\People\PersonLibrary\7\Person_7.png"/>
<image transform="matrix(-0.866025403784 -0.5 0.5 -0.866025403784 0.471547831938 0.0530130223488)" width="0.0695871864164" height="0.0695871864164" xlink:href="K:\Computational Design Group\03_Resources\Rendering\People\PersonLibrary\15\Person_15.png"/>
<image transform="matrix(0.173648177667 0.984807753012 -0.984807753012 0.173648177667 0.240237629012 0.338641440518)" width="0.0842927128702" height="0.0842927128702" xlink:href="K:\Computational Design Group\03_Resources\Rendering\People\PersonLibrary\20\Person_20.png"/>
<image transform="matrix(-0.939692620786 0.342020143326 -0.342020143326 -0.939692620786 0.435613895711 0.320632874726)" width="0.0868001281083" height="0.0868001281083" xlink:href="K:\Computational Design Group\03_Resources\Rendering\People\PersonLibrary\25\Person_25.png"/>
<image transform="matrix(-0.984807753012 0.173648177667 -0.173648177667 -0.984807753012 0.428748374839 0.297778629705)" width="0.0805003758476" height="0.0805003758476" xlink:href="K:\Computational Design Group\03_Resources\Rendering\People\PersonLibrary\13\Person_13.png"/>
<image transform="matrix(0.5 -0.866025403784 0.866025403784 0.5 0.265417476988 0.393674169727)" width="0.0621128300494" height="0.0621128300494" xlink:href="K:\Computational Design Group\03_Resources\Rendering\People\PersonLibrary\4\Person_4.png"/>
<image transform="matrix(-0.939692620786 0.342020143326 -0.342020143326 -0.939692620786 0.368527636782 0.381078987203)" width="0.073052542253" height="0.073052542253" xlink:href="K:\Computational Design Group\03_Resources\Rendering\People\PersonLibrary\7\Person_7.png"/>
<image transform="matrix(-0.984807753012 -0.173648177667 0.173648177667 -0.984807753012 0.361795034602 0.197076214354)" width="0.085408242678" height="0.085408242678" xlink:href="K:\Computational Design Group\03_Resources\Rendering\People\PersonLibrary\10\Person_10.png"/>
<image transform="matrix(-0.984807753012 -0.173648177667 0.173648177667 -0.984807753012 0.195458296906 0.578729055026)" width="0.0835303189575" height="0.0835303189575" xlink:href="K:\Computational Design Group\03_Resources\Rendering\People\PersonLibrary\27\Person_27.png"/>
<image transform="matrix(-0.984807753012 0.173648177667 -0.173648177667 -0.984807753012 0.340935009873 0.514798206754)" width="0.0707068400507" height="0.0707068400507" xlink:href="K:\Computational Design Group\03_Resources\Rendering\People\PersonLibrary\7\Person_7.png"/>
<image transform="matrix(-1.0 0.0 0.0 -1.0 0.48308074745 0.202617816052)" width="0.0673235306271" height="0.0673235306271" xlink:href="K:\Computational Design Group\03_Resources\Rendering\People\PersonLibrary\13\Person_13.png"/>
<image transform="matrix(-0.342020143326 0.939692620786 -0.939692620786 -0.342020143326 0.495146849113 0.172004786974)" width="0.0799480398465" height="0.0799480398465" xlink:href="K:\Computational Design Group\03_Resources\Rendering\People\PersonLibrary\5\Person_5.png"/>
<image transform="matrix(-0.642787609687 -0.766044443119 0.766044443119 -0.642787609687 0.360205119204 0.411652713288)" width="0.0824755709257" height="0.0824755709257" xlink:href="K:\Computational Design Group\03_Resources\Rendering\People\PersonLibrary\25\Person_25.png"/>
<image transform="matrix(0.939692620786 -0.342020143326 0.342020143326 0.939692620786 0.214686375478 0.475016481989)" width="0.0750392194349" height="0.0750392194349" xlink:href="K:\Computational Design Group\03_Resources\Rendering\People\PersonLibrary\17\Person_17.png"/>
<image transform="matrix(-0.5 -0.866025403784 0.866025403784 -0.5 0.225877843043 0.550666587621)" width="0.0746437143742" height="0.0746437143742" xlink:href="K:\Computational Design Group\03_Resources\Rendering\People\PersonLibrary\15\Person_15.png"/>
<image transform="matrix(0.939692620786 -0.342020143326 0.342020143326 0.939692620786 0.354371250496 0.312150397873)" width="0.0687204154854" height="0.0687204154854" xlink:href="K:\Computational Design Group\03_Resources\Rendering\People\PersonLibrary\22\Person_22.png"/>
<image transform="matrix(0.984807753012 0.173648177667 -0.173648177667 0.984807753012 0.0964406405703 0.492906143641)" width="0.0819815192427" height="0.0819815192427" xlink:href="K:\Computational Design Group\03_Resources\Rendering\People\PersonLibrary\6\Person_6.png"/>
<image transform="matrix(0.342020143326 -0.939692620786 0.939692620786 0.342020143326 0.22976757466 0.220600130985)" width="0.0745127071275" height="0.0745127071275" xlink:href="K:\Computational Design Group\03_Resources\Rendering\People\PersonLibrary\22\Person_22.png"/>
<image transform="matrix(0.173648177667 -0.984807753012 0.984807753012 0.173648177667 0.370254896588 0.299361178395)" width="0.0834112283743" height="0.0834112283743" xlink:href="K:\Computational Design Group\03_Resources\Rendering\People\PersonLibrary\7\Person_7.png"/>
<image transform="matrix(-0.342020143326 -0.939692620786 0.939692620786 -0.342020143326 0.393842823268 0.348008480888)" width="0.0863529306773" height="0.0863529306773" xlink:href="K:\Computational Design Group\03_Resources\Rendering\People\PersonLibrary\20\Person_20.png"/>
<image transform="matrix(-0.173648177667 -0.984807753012 0.984807753012 -0.173648177667 0.497739216808 0.134117669439)" width="0.0816397761002" height="0.0816397761002" xlink:href="K:\Computational Design Group\03_Resources\Rendering\People\PersonLibrary\26\Person_26.png"/>
<image transform="matrix(1.0 0.0 0.0 1.0 0.0930727386407 0.0571257299297)" width="0.0757669170321" height="0.0757669170321" xlink:href="K:\Computational Design Group\03_Resources\Rendering\People\PersonLibrary\17\Person_17.png"/>
<image transform="matrix(0.342020143326 -0.939692620786 0.939692620786 0.342020143326 0.107581349521 0.10932768322)" width="0.0678084509111" height="0.0678084509111" xlink:href="K:\Computational Design Group\03_Resources\Rendering\People\PersonLibrary\2\Person_2.png"/>
<image transform="matrix(-0.866025403784 -0.5 0.5 -0.866025403784 0.304193715324 0.459769839985)" width="0.0827119842091" height="0.0827119842091" xlink:href="K:\Computational Design Group\03_Resources\Rendering\People\PersonLibrary\2\Person_2.png"/>
<image transform="matrix(-0.766044443119 -0.642787609687 0.642787609687 -0.766044443119 0.188139871058 0.596669445484)" width="0.0701971405839" height="0.0701971405839" xlink:href="K:\Computational Design Group\03_Resources\Rendering\People\PersonLibrary\2\Person_2.png"/>
<image transform="matrix(0.0 -1.0 1.0 0.0 0.164406535807 0.597365363277)" width="0.0691253295118" height="0.0691253295118" xlink:href="K:\Computational Design Group\03_Resources\Rendering\People\PersonLibrary\12\Person_12.png"/>
<image transform="matrix(-0.173648177667 -0.984807753012 0.984807753012 -0.173648177667 0.498873629881 0.0719780817434)" width="0.0648122664051" height="0.0648122664051" xlink:href="K:\Computational Design Group\03_Resources\Rendering\People\PersonLibrary\19\Person_19.png"/>
<image transform="matrix(0.642787609687 0.766044443119 -0.766044443119 0.642787609687 0.202211621386 0.6873849115)" width="0.065949932931" height="0.065949932931" xlink:href="K:\Computational Design Group\03_Resources\Rendering\People\PersonLibrary\14\Person_14.png"/>
<image transform="matrix(-0.5 -0.866025403784 0.866025403784 -0.5 0.286385174919 0.349679157192)" width="0.0864979082795" height="0.0864979082795" xlink:href="K:\Computational Design Group\03_Resources\Rendering\People\PersonLibrary\4\Person_4.png"/>
<image transform="matrix(-0.866025403784 0.5 -0.5 -0.866025403784 0.407093922956 0.232580934977)" width="0.08657141588" height="0.08657141588" xlink:href="K:\Computational Design Group\03_Resources\Rendering\People\PersonLibrary\10\Person_10.png"/>
<image transform="matrix(-0.642787609687 0.766044443119 -0.766044443119 -0.642787609687 0.406855696195 0.236747903838)" width="0.0703613084417" height="0.0703613084417" xlink:href="K:\Computational Design Group\03_Resources\Rendering\People\PersonLibrary\24\Person_24.png"/>
<image transform="matrix(-0.5 -0.866025403784 0.866025403784 -0.5 0.117029535699 0.739102416812)" width="0.0724823946517" height="0.0724823946517" xlink:href="K:\Computational Design Group\03_Resources\Rendering\People\PersonLibrary\11\Person_11.png"/>
<image transform="matrix(-0.766044443119 -0.642787609687 0.642787609687 -0.766044443119 0.488427141426 0.155161488577)" width="0.0778021097313" height="0.0778021097313" xlink:href="K:\Computational Design Group\03_Resources\Rendering\People\PersonLibrary\12\Person_12.png"/>
<image transform="matrix(-0.642787609687 -0.766044443119 0.766044443119 -0.642787609687 0.476501131135 0.21469394246)" width="0.0813355881029" height="0.0813355881029" xlink:href="K:\Computational Design Group\03_Resources\Rendering\People\PersonLibrary\16\Person_16.png"/>
<image transform="matrix(-0.766044443119 -0.642787609687 0.642787609687 -0.766044443119 0.494189996691 0.2402982216)" width="0.0823896093538" height="0.0823896093538" xlink:href="K:\Computational Design Group\03_Resources\Rendering\People\PersonLibrary\27\Person_27.png"/>
<image transform="matrix(0.766044443119 -0.642787609687 0.642787609687 0.766044443119 0.227597031524 0.431926839243)" width="0.0853630538543" height="0.0853630538543" xlink:href="K:\Computational Design Group\03_Resources\Rendering\People\PersonLibrary\23\Person_23.png"/>
<image transform="matrix(0.5 -0.866025403784 0.866025403784 0.5 0.438955489612 0.305735299857)" width="0.0832459994234" height="0.0832459994234" xlink:href="K:\Computational Design Group\03_Resources\Rendering\People\PersonLibrary\7\Person_7.png"/>
<image transform="matrix(0.173648177667 -0.984807753012 0.984807753012 0.173648177667 0.434564903186 0.346752084173)" width="0.0816075102294" height="0.0816075102294" xlink:href="K:\Computational Design Group\03_Resources\Rendering\People\PersonLibrary\8\Person_8.png"/>
<image transform="matrix(-1.0 0.0 0.0 -1.0 0.359166880379 0.196267417679)" width="0.0709815377048" height="0.0709815377048" xlink:href="K:\Computational Design Group\03_Resources\Rendering\People\PersonLibrary\26\Person_26.png"/>
<image transform="matrix(0.939692620786 0.342020143326 -0.342020143326 0.939692620786 0.37019765463 0.281863488936)" width="0.067047739442" height="0.067047739442" xlink:href="K:\Computational Design Group\03_Resources\Rendering\People\PersonLibrary\20\Person_20.png"/>
<image transform="matrix(0.866025403784 0.5 -0.5 0.866025403784 0.375568286898 0.246306842976)" width="0.0741513224059" height="0.0741513224059" xlink:href="K:\Computational Design Group\03_Resources\Rendering\People\PersonLibrary\9\Person_9.png"/>
<image transform="matrix(0.766044443119 0.642787609687 -0.642787609687 0.766044443119 0.244614835831 0.302832858394)" width="0.0707716949846" height="0.0707716949846" xlink:href="K:\Computational Design Group\03_Resources\Rendering\People\PersonLibrary\12\Person_12.png"/>
<image transform="matrix(0.766044443119 0.642787609687 -0.642787609687 0.766044443119 0.125268916045 0.18112166877)" width="0.0797690489421" height="0.0797690489421" xlink:href="K:\Computational Design Group\03_Resources\Rendering\People\PersonLibrary\9\Person_9.png"/>
<image transform="matrix(-0.342020143326 -0.939692620786 0.939692620786 -0.342020143326 0.412795494509 0.277815820613)" width="0.0765537399457" height="0.0765537399457" xlink:href="K:\Computational Design Group\03_Resources\Rendering\People\PersonLibrary\26\Person_26.png"/>
<image transform="matrix(-0.766044443119 -0.642787609687 0.642787609687 -0.766044443119 0.445768372671 0.252058162689)" width="0.0759381460566" height="0.0759381460566" xlink:href="K:\Computational Design Group\03_Resources\Rendering\People\PersonLibrary\23\Person_23.png"/>
<image transform="matrix(-0.642787609687 -0.766044443119 0.766044443119 -0.642787609687 0.503745305522 0.283968642025)" width="0.0776242959116" height="0.0776242959116" xlink:href="K:\Computational Design Group\03_Resources\Rendering\People\PersonLibrary\19\Person_19.png"/>
<image transform="matrix(-0.5 -0.866025403784 0.866025403784 -0.5 0.240866525459 0.320692225178)" width="0.0871716841018" height="0.0871716841018" xlink:href="K:\Computational Design Group\03_Resources\Rendering\People\PersonLibrary\25\Person_25.png"/>
<image transform="matrix(0.5 0.866025403784 -0.866025403784 0.5 0.251324504611 0.215558620107)" width="0.0866395163427" height="0.0866395163427" xlink:href="K:\Computational Design Group\03_Resources\Rendering\People\PersonLibrary\9\Person_9.png"/>
<image transform="matrix(-0.766044443119 0.642787609687 -0.642787609687 -0.766044443119 0.535988597471 0.0617189965785)" width="0.0885541706665" height="0.0885541706665" xlink:href="K:\Computational Design Group\03_Resources\Rendering\People\PersonLibrary\23\Person_23.png"/>
<image transform="matrix(-0.939692620786 -0.342020143326 0.342020143326 -0.939692620786 0.482091694289 0.151098622671)" width="0.0862360898527" height="0.0862360898527" xlink:href="K:\Computational Design Group\03_Resources\Rendering\People\PersonLibrary\8\Person_8.png"/>
<image transform="matrix(-0.984807753012 0.173648177667 -0.173648177667 -0.984807753012 0.193372666993 0.308376429334)" width="0.0657779288039" height="0.0657779288039" xlink:href="K:\Computational Design Group\03_Resources\Rendering\People\PersonLibrary\18\Person_18.png"/>
<image transform="matrix(0.0 -1.0 1.0 0.0 0.341077945001 0.604507966249)" width="0.0673902059847" height="0.0673902059847" xlink:href="K:\Computational Design Group\03_Resources\Rendering\People\PersonLibrary\14\Person_14.png"/>
<image transform="matrix(0.984807753012 0.173648177667 -0.173648177667 0.984807753012 0.301809229764 0.256747036395)" width="0.079010358308" height="0.079010358308" xlink:href="K:\Computational Design Group\03_Resources\Rendering\People\PersonLibrary\7\Person_7.png"/>
<image transform="matrix(0.984807753012 -0.173648177667 0.173648177667 0.984807753012 0.299354929866 0.245818721141)" width="0.0689373711445" height="0.0689373711445" xlink:href="K:\Computational Design Group\03_Resources\Rendering\People\PersonLibrary\12\Person_12.png"/>
<image transform="matrix(0.342020143326 0.939692620786 -0.939692620786 0.342020143326 0.411908277273 0.197349913059)" width="0.0872218741277" height="0.0872218741277" xlink:href="K:\Computational Design Group\03_Resources\Rendering\People\PersonLibrary\19\Person_19.png"/>
<image transform="matrix(0.173648177667 0.984807753012 -0.984807753012 0.173648177667 0.228069430858 0.255678566209)" width="0.0756948882787" height="0.0756948882787" xlink:href="K:\Computational Design Group\03_Resources\Rendering\People\PersonLibrary\18\Person_18.png"/>
<image transform="matrix(0.642787609687 0.766044443119 -0.766044443119 0.642787609687 0.229359502568 0.270048972866)" width="0.0617787355053" height="0.0617787355053" xlink:href="K:\Computational Design Group\03_Resources\Rendering\People\PersonLibrary\13\Person_13.png"/>
<image transform="matrix(0.0 -1.0 1.0 0.0 0.287874345569 0.386481060224)" width="0.0615807286611" height="0.0615807286611" xlink:href="K:\Computational Design Group\03_Resources\Rendering\People\PersonLibrary\20\Person_20.png"/>
<image transform="matrix(0.984807753012 0.173648177667 -0.173648177667 0.984807753012 0.148792999297 0.622542705183)" width="0.0766029875244" height="0.0766029875244" xlink:href="K:\Computational Design Group\03_Resources\Rendering\People\PersonLibrary\24\Person_24.png"/>
<image transform="matrix(-0.5 0.866025403784 -0.866025403784 -0.5 0.387912711224 0.334662989555)" width="0.0713750463358" height="0.0713750463358" xlink:href="K:\Computational Design Group\03_Resources\Rendering\People\PersonLibrary\3\Person_3.png"/>
<image transform="matrix(-0.173648177667 0.984807753012 -0.984807753012 -0.173648177667 0.250381268888 0.306765021629)" width="0.0873005636443" height="0.0873005636443" xlink:href="K:\Computational Design Group\03_Resources\Rendering\People\PersonLibrary\11\Person_11.png"/>
<image transform="matrix(-0.342020143326 -0.939692620786 0.939692620786 -0.342020143326 0.185951517667 0.410745820679)" width="0.067102609322" height="0.067102609322" xlink:href="K:\Computational Design Group\03_Resources\Rendering\People\PersonLibrary\21\Person_21.png"/>
<image transform="matrix(-0.642787609687 -0.766044443119 0.766044443119 -0.642787609687 0.446739507013 0.0954856977278)" width="0.0889103343985" height="0.0889103343985" xlink:href="K:\Computational Design Group\03_Resources\Rendering\People\PersonLibrary\7\Person_7.png"/>
<image transform="matrix(-0.766044443119 -0.642787609687 0.642787609687 -0.766044443119 0.42872687896 0.363060055617)" width="0.0869589030775" height="0.0869589030775" xlink:href="K:\Computational Design Group\03_Resources\Rendering\People\PersonLibrary\18\Person_18.png"/>
<image transform="matrix(0.866025403784 -0.5 0.5 0.866025403784 0.536151798524 0.0893203664328)" width="0.0603455316091" height="0.0603455316091" xlink:href="K:\Computational Design Group\03_Resources\Rendering\People\PersonLibrary\10\Person_10.png"/>
<image transform="matrix(0.5 -0.866025403784 0.866025403784 0.5 0.0719119249555 0.610935940823)" width="0.0848411359754" height="0.0848411359754" xlink:href="K:\Computational Design Group\03_Resources\Rendering\People\PersonLibrary\4\Person_4.png"/>
<image transform="matrix(-0.939692620786 -0.342020143326 0.342020143326 -0.939692620786 0.211843491713 0.551186451268)" width="0.0621459301152" height="0.0621459301152" xlink:href="K:\Computational Design Group\03_Resources\Rendering\People\PersonLibrary\20\Person_20.png"/>
<image transform="matrix(0.342020143326 -0.939692620786 0.939692620786 0.342020143326 0.138850549104 0.554155495579)" width="0.0611399828229" height="0.0611399828229" xlink:href="K:\Computational Design Group\03_Resources\Rendering\People\PersonLibrary\10\Person_10.png"/>
<image transform="matrix(-0.5 -0.866025403784 0.866025403784 -0.5 0.11431380325 0.243880893448)" width="0.0826496100811" height="0.0826496100811" xlink:href="K:\Computational Design Group\03_Resources\Rendering\People\PersonLibrary\17\Person_17.png"/>
<image transform="matrix(0.5 -0.866025403784 0.866025403784 0.5 0.410180328954 0.205317282346)" width="0.07928066052" height="0.07928066052" xlink:href="K:\Computational Design Group\03_Resources\Rendering\People\PersonLibrary\20\Person_20.png"/>
<image transform="matrix(-0.766044443119 -0.642787609687 0.642787609687 -0.766044443119 0.260444624442 0.459449576746)" width="0.075474416062" height="0.075474416062" xlink:href="K:\Computational Design Group\03_Resources\Rendering\People\PersonLibrary\16\Person_16.png"/>
<image transform="matrix(0.939692620786 -0.342020143326 0.342020143326 0.939692620786 0.221412948416 0.414898141728)" width="0.0603740090134" height="0.0603740090134" xlink:href="K:\Computational Design Group\03_Resources\Rendering\People\PersonLibrary\25\Person_25.png"/>
<image transform="matrix(0.984807753012 0.173648177667 -0.173648177667 0.984807753012 0.511300979856 0.361814686105)" width="0.0635311694227" height="0.0635311694227" xlink:href="K:\Computational Design Group\03_Resources\Rendering\People\PersonLibrary\23\Person_23.png"/>
<image transform="matrix(-0.342020143326 -0.939692620786 0.939692620786 -0.342020143326 0.453449963108 0.298663992456)" width="0.0763634889323" height="0.0763634889323" xlink:href="K:\Computational Design Group\03_Resources\Rendering\People\PersonLibrary\14\Person_14.png"/>
<image transform="matrix(-0.984807753012 0.173648177667 -0.173648177667 -0.984807753012 0.490054883011 0.285133253404)" width="0.0722016082714" height="0.0722016082714" xlink:href="K:\Computational Design Group\03_Resources\Rendering\People\PersonLibrary\12\Person_12.png"/>
<image transform="matrix(0.766044443119 -0.642787609687 0.642787609687 0.766044443119 0.0983748909343 0.363239028157)" width="0.0708680811156" height="0.0708680811156" xlink:href="K:\Computational Design Group\03_Resources\Rendering\People\PersonLibrary\15\Person_15.png"/>
<image transform="matrix(0.766044443119 -0.642787609687 0.642787609687 0.766044443119 0.193206538783 0.393689551608)" width="0.0859978680899" height="0.0859978680899" xlink:href="K:\Computational Design Group\03_Resources\Rendering\People\PersonLibrary\9\Person_9.png"/>
<image transform="matrix(-0.984807753012 -0.173648177667 0.173648177667 -0.984807753012 0.270596982725 0.425637615959)" width="0.0812547109654" height="0.0812547109654" xlink:href="K:\Computational Design Group\03_Resources\Rendering\People\PersonLibrary\3\Person_3.png"/>
<image transform="matrix(0.5 0.866025403784 -0.866025403784 0.5 0.532837885229 -0.0172671188527)" width="0.0667738381525" height="0.0667738381525" xlink:href="K:\Computational Design Group\03_Resources\Rendering\People\PersonLibrary\6\Person_6.png"/>
<image transform="matrix(-0.939692620786 -0.342020143326 0.342020143326 -0.939692620786 0.520301320893 0.0701411331599)" width="0.0825728446723" height="0.0825728446723" xlink:href="K:\Computational Design Group\03_Resources\Rendering\People\PersonLibrary\10\Person_10.png"/>
<image transform="matrix(-0.173648177667 0.984807753012 -0.984807753012 -0.173648177667 0.290925293567 0.457309300556)" width="0.07195364541" height="0.07195364541" xlink:href="K:\Computational Design Group\03_Resources\Rendering\People\PersonLibrary\14\Person_14.png"/>
<image transform="matrix(0.866025403784 0.5 -0.5 0.866025403784 0.12905201138 0.418100257447)" width="0.0681727500624" height="0.0681727500624" xlink:href="K:\Computational Design Group\03_Resources\Rendering\People\PersonLibrary\11\Person_11.png"/>
<image transform="matrix(-0.5 -0.866025403784 0.866025403784 -0.5 0.353782653766 0.33686247811)" width="0.0673957622644" height="0.0673957622644" xlink:href="K:\Computational Design Group\03_Resources\Rendering\People\PersonLibrary\18\Person_18.png"/>
<image transform="matrix(0.342020143326 -0.939692620786 0.939692620786 0.342020143326 0.305826076793 0.325727923409)" width="0.0602618184268" height="0.0602618184268" xlink:href="K:\Computational Design Group\03_Resources\Rendering\People\PersonLibrary\23\Person_23.png"/>
<image transform="matrix(0.5 -0.866025403784 0.866025403784 0.5 0.448565338707 0.222377125771)" width="0.0807934870761" height="0.0807934870761" xlink:href="K:\Computational Design Group\03_Resources\Rendering\People\PersonLibrary\18\Person_18.png"/>
<image transform="matrix(-0.939692620786 -0.342020143326 0.342020143326 -0.939692620786 0.393258773656 0.26433388804)" width="0.062971102457" height="0.062971102457" xlink:href="K:\Computational Design Group\03_Resources\Rendering\People\PersonLibrary\12\Person_12.png"/>
<image transform="matrix(-0.5 -0.866025403784 0.866025403784 -0.5 0.381125838898 0.29695258704)" width="0.0834720363438" height="0.0834720363438" xlink:href="K:\Computational Design Group\03_Resources\Rendering\People\PersonLibrary\5\Person_5.png"/>
<image transform="matrix(0.939692620786 -0.342020143326 0.342020143326 0.939692620786 0.459593480389 0.295332255302)" width="0.0688647385868" height="0.0688647385868" xlink:href="K:\Computational Design Group\03_Resources\Rendering\People\PersonLibrary\1\Person_1.png"/>
<image transform="matrix(0.5 -0.866025403784 0.866025403784 0.5 0.45637351811 0.354294200335)" width="0.0841137139751" height="0.0841137139751" xlink:href="K:\Computational Design Group\03_Resources\Rendering\People\PersonLibrary\24\Person_24.png"/>
<image transform="matrix(0.939692620786 -0.342020143326 0.342020143326 0.939692620786 0.31769434642 0.257187866217)" width="0.0666947210751" height="0.0666947210751" xlink:href="K:\Computational Design Group\03_Resources\Rendering\People\PersonLibrary\10\Person_10.png"/>
<image transform="matrix(0.939692620786 -0.342020143326 0.342020143326 0.939692620786 0.298756545264 0.223238405531)" width="0.0835843183489" height="0.0835843183489" xlink:href="K:\Computational Design Group\03_Resources\Rendering\People\PersonLibrary\10\Person_10.png"/>
<image transform="matrix(0.984807753012 0.173648177667 -0.173648177667 0.984807753012 0.247183823667 0.405302822827)" width="0.0816652707624" height="0.0816652707624" xlink:href="K:\Computational Design Group\03_Resources\Rendering\People\PersonLibrary\14\Person_14.png"/>
<image transform="matrix(0.939692620786 -0.342020143326 0.342020143326 0.939692620786 0.52639913537 0.426308806032)" width="0.065004522705" height="0.065004522705" xlink:href="K:\Computational Design Group\03_Resources\Rendering\People\PersonLibrary\11\Person_11.png"/>
<image transform="matrix(0.939692620786 -0.342020143326 0.342020143326 0.939692620786 0.271334282132 0.189439882704)" width="0.089606491369" height="0.089606491369" xlink:href="K:\Computational Design Group\03_Resources\Rendering\People\PersonLibrary\25\Person_25.png"/>
<image transform="matrix(0.939692620786 -0.342020143326 0.342020143326 0.939692620786 0.262919008387 0.256570884411)" width="0.0697471757977" height="0.0697471757977" xlink:href="K:\Computational Design Group\03_Resources\Rendering\People\PersonLibrary\10\Person_10.png"/>
<image transform="matrix(1.0 0.0 0.0 1.0 0.251110613443 0.252910616422)" width="0.0670487130839" height="0.0670487130839" xlink:href="K:\Computational Design Group\03_Resources\Rendering\People\PersonLibrary\16\Person_16.png"/>
<image transform="matrix(0.939692620786 -0.342020143326 0.342020143326 0.939692620786 0.115194590778 0.16712044272)" width="0.0718613605862" height="0.0718613605862" xlink:href="K:\Computational Design Group\03_Resources\Rendering\People\PersonLibrary\6\Person_6.png"/>
<image transform="matrix(1.0 0.0 0.0 1.0 0.13982730199 0.170184899282)" width="0.0828101458646" height="0.0828101458646" xlink:href="K:\Computational Design Group\03_Resources\Rendering\People\PersonLibrary\17\Person_17.png"/>
<image transform="matrix(-0.766044443119 -0.642787609687 0.642787609687 -0.766044443119 0.136104760026 0.313898571033)" width="0.0762082083366" height="0.0762082083366" xlink:href="K:\Computational Design Group\03_Resources\Rendering\People\PersonLibrary\18\Person_18.png"/>
<image transform="matrix(0.939692620786 -0.342020143326 0.342020143326 0.939692620786 0.490933879027 -0.0131893575966)" width="0.0810970100812" height="0.0810970100812" xlink:href="K:\Computational Design Group\03_Resources\Rendering\People\PersonLibrary\20\Person_20.png"/>
<image transform="matrix(0.766044443119 -0.642787609687 0.642787609687 0.766044443119 0.0868191466731 0.66193626323)" width="0.0754783657964" height="0.0754783657964" xlink:href="K:\Computational Design Group\03_Resources\Rendering\People\PersonLibrary\26\Person_26.png"/>
<image transform="matrix(0.984807753012 -0.173648177667 0.173648177667 0.984807753012 0.222964476965 0.467008513633)" width="0.0860317012789" height="0.0860317012789" xlink:href="K:\Computational Design Group\03_Resources\Rendering\People\PersonLibrary\17\Person_17.png"/>
<image transform="matrix(0.866025403784 0.5 -0.5 0.866025403784 0.18546801123 0.390046494826)" width="0.0639899062617" height="0.0639899062617" xlink:href="K:\Computational Design Group\03_Resources\Rendering\People\PersonLibrary\20\Person_20.png"/>
<image transform="matrix(-0.642787609687 0.766044443119 -0.766044443119 -0.642787609687 0.262119425173 0.445204067564)" width="0.0692735101465" height="0.0692735101465" xlink:href="K:\Computational Design Group\03_Resources\Rendering\People\PersonLibrary\5\Person_5.png"/>
<image transform="matrix(-0.342020143326 0.939692620786 -0.939692620786 -0.342020143326 0.390708542075 0.228605724623)" width="0.0707616737908" height="0.0707616737908" xlink:href="K:\Computational Design Group\03_Resources\Rendering\People\PersonLibrary\19\Person_19.png"/>
<image transform="matrix(0.866025403784 0.5 -0.5 0.866025403784 0.160924080389 0.0150717351007)" width="0.0654039197906" height="0.0654039197906" xlink:href="K:\Computational Design Group\03_Resources\Rendering\People\PersonLibrary\20\Person_20.png"/>
<image transform="matrix(0.866025403784 0.5 -0.5 0.866025403784 0.2709001058 0.350234653789)" width="0.063859036562" height="0.063859036562" xlink:href="K:\Computational Design Group\03_Resources\Rendering\People\PersonLibrary\18\Person_18.png"/>
<image transform="matrix(-0.866025403784 0.5 -0.5 -0.866025403784 0.346617351034 0.399497287924)" width="0.0626468693757" height="0.0626468693757" xlink:href="K:\Computational Design Group\03_Resources\Rendering\People\PersonLibrary\19\Person_19.png"/>
<image transform="matrix(-0.866025403784 0.5 -0.5 -0.866025403784 0.336374802388 0.521100471884)" width="0.0867357628731" height="0.0867357628731" xlink:href="K:\Computational Design Group\03_Resources\Rendering\People\PersonLibrary\27\Person_27.png"/>
<image transform="matrix(-0.939692620786 0.342020143326 -0.342020143326 -0.939692620786 0.526776357754 0.185122332908)" width="0.0763537930121" height="0.0763537930121" xlink:href="K:\Computational Design Group\03_Resources\Rendering\People\PersonLibrary\5\Person_5.png"/>
<image transform="matrix(0.939692620786 0.342020143326 -0.342020143326 0.939692620786 0.177817893465 0.424135889015)" width="0.0796970201888" height="0.0796970201888" xlink:href="K:\Computational Design Group\03_Resources\Rendering\People\PersonLibrary\10\Person_10.png"/>
<image transform="matrix(0.984807753012 0.173648177667 -0.173648177667 0.984807753012 0.168899092588 0.459391066967)" width="0.0705240245399" height="0.0705240245399" xlink:href="K:\Computational Design Group\03_Resources\Rendering\People\PersonLibrary\12\Person_12.png"/>
<image transform="matrix(0.984807753012 0.173648177667 -0.173648177667 0.984807753012 0.0952056521756 0.518504186762)" width="0.0848068905085" height="0.0848068905085" xlink:href="K:\Computational Design Group\03_Resources\Rendering\People\PersonLibrary\14\Person_14.png"/>
<image transform="matrix(0.939692620786 0.342020143326 -0.342020143326 0.939692620786 0.199674247892 0.29411217359)" width="0.0840301428521" height="0.0840301428521" xlink:href="K:\Computational Design Group\03_Resources\Rendering\People\PersonLibrary\15\Person_15.png"/>
<image transform="matrix(0.984807753012 0.173648177667 -0.173648177667 0.984807753012 0.203060974595 0.316387091641)" width="0.0894214009258" height="0.0894214009258" xlink:href="K:\Computational Design Group\03_Resources\Rendering\People\PersonLibrary\16\Person_16.png"/>
<image transform="matrix(0.984807753012 0.173648177667 -0.173648177667 0.984807753012 0.123751457634 0.52171933272)" width="0.0791278135819" height="0.0791278135819" xlink:href="K:\Computational Design Group\03_Resources\Rendering\People\PersonLibrary\2\Person_2.png"/>
<image transform="matrix(0.939692620786 0.342020143326 -0.342020143326 0.939692620786 0.539688115568 0.00112971094595)" width="0.0897068470575" height="0.0897068470575" xlink:href="K:\Computational Design Group\03_Resources\Rendering\People\PersonLibrary\4\Person_4.png"/>
<image transform="matrix(0.939692620786 0.342020143326 -0.342020143326 0.939692620786 0.169661765749 0.367766602725)" width="0.0886485159717" height="0.0886485159717" xlink:href="K:\Computational Design Group\03_Resources\Rendering\People\PersonLibrary\11\Person_11.png"/>
<image transform="matrix(0.984807753012 0.173648177667 -0.173648177667 0.984807753012 0.300923395399 0.0941998552487)" width="0.0661654160014" height="0.0661654160014" xlink:href="K:\Computational Design Group\03_Resources\Rendering\People\PersonLibrary\27\Person_27.png"/>
<image transform="matrix(0.939692620786 -0.342020143326 0.342020143326 0.939692620786 0.172495635337 0.159871356087)" width="0.0873744291521" height="0.0873744291521" xlink:href="K:\Computational Design Group\03_Resources\Rendering\People\PersonLibrary\25\Person_25.png"/>
<image transform="matrix(0.939692620786 -0.342020143326 0.342020143326 0.939692620786 0.440566789783 0.069444141854)" width="0.0613690996316" height="0.0613690996316" xlink:href="K:\Computational Design Group\03_Resources\Rendering\People\PersonLibrary\26\Person_26.png"/>
<image transform="matrix(-0.866025403784 -0.5 0.5 -0.866025403784 0.372670289031 0.257793686188)" width="0.0832811915284" height="0.0832811915284" xlink:href="K:\Computational Design Group\03_Resources\Rendering\People\PersonLibrary\20\Person_20.png"/>
<image transform="matrix(-0.939692620786 -0.342020143326 0.342020143326 -0.939692620786 0.548146950126 0.293937809805)" width="0.0670262688478" height="0.0670262688478" xlink:href="K:\Computational Design Group\03_Resources\Rendering\People\PersonLibrary\12\Person_12.png"/>
<image transform="matrix(-0.939692620786 -0.342020143326 0.342020143326 -0.939692620786 0.213158046927 0.348922424458)" width="0.075954889006" height="0.075954889006" xlink:href="K:\Computational Design Group\03_Resources\Rendering\People\PersonLibrary\7\Person_7.png"/>
<image transform="matrix(0.939692620786 -0.342020143326 0.342020143326 0.939692620786 0.474129798335 0.318516862347)" width="0.085696342171" height="0.085696342171" xlink:href="K:\Computational Design Group\03_Resources\Rendering\People\PersonLibrary\10\Person_10.png"/>
<image transform="matrix(0.939692620786 -0.342020143326 0.342020143326 0.939692620786 0.0759765398546 0.762616771507)" width="0.0838091452996" height="0.0838091452996" xlink:href="K:\Computational Design Group\03_Resources\Rendering\People\PersonLibrary\3\Person_3.png"/>
<image transform="matrix(-0.642787609687 -0.766044443119 0.766044443119 -0.642787609687 0.147989929499 0.395410584335)" width="0.0853694863084" height="0.0853694863084" xlink:href="K:\Computational Design Group\03_Resources\Rendering\People\PersonLibrary\15\Person_15.png"/>
<image transform="matrix(-0.642787609687 -0.766044443119 0.766044443119 -0.642787609687 0.1409378005 0.163146861693)" width="0.0639246780537" height="0.0639246780537" xlink:href="K:\Computational Design Group\03_Resources\Rendering\People\PersonLibrary\25\Person_25.png"/>
<image transform="matrix(-0.5 -0.866025403784 0.866025403784 -0.5 0.511303030021 0.0536085735829)" width="0.0666163131346" height="0.0666163131346" xlink:href="K:\Computational Design Group\03_Resources\Rendering\People\PersonLibrary\6\Person_6.png"/>
<image transform="matrix(0.642787609687 -0.766044443119 0.766044443119 0.642787609687 0.108955405947 0.547076586292)" width="0.0651528951876" height="0.0651528951876" xlink:href="K:\Computational Design Group\03_Resources\Rendering\People\PersonLibrary\23\Person_23.png"/>
<image transform="matrix(0.642787609687 -0.766044443119 0.766044443119 0.642787609687 0.180557727619 0.374182608158)" width="0.0890067205294" height="0.0890067205294" xlink:href="K:\Computational Design Group\03_Resources\Rendering\People\PersonLibrary\11\Person_11.png"/>
<image transform="matrix(0.766044443119 -0.642787609687 0.642787609687 0.766044443119 0.224683226524 0.412062847148)" width="0.0631877222253" height="0.0631877222253" xlink:href="K:\Computational Design Group\03_Resources\Rendering\People\PersonLibrary\19\Person_19.png"/>
<image transform="matrix(0.766044443119 -0.642787609687 0.642787609687 0.766044443119 0.236427355141 0.378744724335)" width="0.0650465026289" height="0.0650465026289" xlink:href="K:\Computational Design Group\03_Resources\Rendering\People\PersonLibrary\12\Person_12.png"/>
<image transform="matrix(0.766044443119 -0.642787609687 0.642787609687 0.766044443119 0.204184304659 0.296403515501)" width="0.0756768280713" height="0.0756768280713" xlink:href="K:\Computational Design Group\03_Resources\Rendering\People\PersonLibrary\13\Person_13.png"/>
<image transform="matrix(0.642787609687 -0.766044443119 0.766044443119 0.642787609687 0.183743860652 0.315915950922)" width="0.0670944788759" height="0.0670944788759" xlink:href="K:\Computational Design Group\03_Resources\Rendering\People\PersonLibrary\11\Person_11.png"/>
<image transform="matrix(0.866025403784 -0.5 0.5 0.866025403784 0.190905167574 0.181719080595)" width="0.0759219441311" height="0.0759219441311" xlink:href="K:\Computational Design Group\03_Resources\Rendering\People\PersonLibrary\24\Person_24.png"/>
<image transform="matrix(0.766044443119 -0.642787609687 0.642787609687 0.766044443119 0.0847579182623 0.363204625682)" width="0.0641828438007" height="0.0641828438007" xlink:href="K:\Computational Design Group\03_Resources\Rendering\People\PersonLibrary\18\Person_18.png"/>
<image transform="matrix(0.866025403784 -0.5 0.5 0.866025403784 0.483432735426 0.100129551751)" width="0.0881222521179" height="0.0881222521179" xlink:href="K:\Computational Design Group\03_Resources\Rendering\People\PersonLibrary\14\Person_14.png"/>
<image transform="matrix(0.766044443119 -0.642787609687 0.642787609687 0.766044443119 0.194260614243 0.521407703689)" width="0.079500144636" height="0.079500144636" xlink:href="K:\Computational Design Group\03_Resources\Rendering\People\PersonLibrary\6\Person_6.png"/>
<image transform="matrix(0.766044443119 -0.642787609687 0.642787609687 0.766044443119 0.264095842157 0.309955516908)" width="0.0753895672855" height="0.0753895672855" xlink:href="K:\Computational Design Group\03_Resources\Rendering\People\PersonLibrary\25\Person_25.png"/>
<image transform="matrix(0.766044443119 -0.642787609687 0.642787609687 0.766044443119 0.263511106884 0.29824991955)" width="0.089112065895" height="0.089112065895" xlink:href="K:\Computational Design Group\03_Resources\Rendering\People\PersonLibrary\20\Person_20.png"/>
<image transform="matrix(0.642787609687 -0.766044443119 0.766044443119 0.642787609687 0.490778443411 0.0437729512001)" width="0.0808251669681" height="0.0808251669681" xlink:href="K:\Computational Design Group\03_Resources\Rendering\People\PersonLibrary\13\Person_13.png"/>
<image transform="matrix(0.866025403784 -0.5 0.5 0.866025403784 0.233258817894 0.180937408161)" width="0.0721289757137" height="0.0721289757137" xlink:href="K:\Computational Design Group\03_Resources\Rendering\People\PersonLibrary\2\Person_2.png"/>
<image transform="matrix(0.766044443119 -0.642787609687 0.642787609687 0.766044443119 0.0819929978369 0.447635287994)" width="0.067759920963" height="0.067759920963" xlink:href="K:\Computational Design Group\03_Resources\Rendering\People\PersonLibrary\20\Person_20.png"/>
<image transform="matrix(0.766044443119 -0.642787609687 0.642787609687 0.766044443119 0.385010532085 0.0819410107961)" width="0.0769977008863" height="0.0769977008863" xlink:href="K:\Computational Design Group\03_Resources\Rendering\People\PersonLibrary\1\Person_1.png"/>
<image transform="matrix(0.342020143326 -0.939692620786 0.939692620786 0.342020143326 0.184616583328 0.580622364057)" width="0.0730602938091" height="0.0730602938091" xlink:href="K:\Computational Design Group\03_Resources\Rendering\People\PersonLibrary\25\Person_25.png"/>
<image transform="matrix(0.766044443119 -0.642787609687 0.642787609687 0.766044443119 0.394499847936 0.291920351966)" width="0.0868583802538" height="0.0868583802538" xlink:href="K:\Computational Design Group\03_Resources\Rendering\People\PersonLibrary\1\Person_1.png"/>
<image transform="matrix(0.5 -0.866025403784 0.866025403784 0.5 0.101062797223 0.189301975481)" width="0.0709743798529" height="0.0709743798529" xlink:href="K:\Computational Design Group\03_Resources\Rendering\People\PersonLibrary\23\Person_23.png"/>
<image transform="matrix(0.342020143326 -0.939692620786 0.939692620786 0.342020143326 0.244321077769 0.204313270499)" width="0.0601850904432" height="0.0601850904432" xlink:href="K:\Computational Design Group\03_Resources\Rendering\People\PersonLibrary\10\Person_10.png"/>
<image transform="matrix(0.5 -0.866025403784 0.866025403784 0.5 0.39861220436 0.0580757931292)" width="0.0806193622158" height="0.0806193622158" xlink:href="K:\Computational Design Group\03_Resources\Rendering\People\PersonLibrary\9\Person_9.png"/>
<image transform="matrix(0.766044443119 -0.642787609687 0.642787609687 0.766044443119 0.409776580242 0.0637474756732)" width="0.0673418660263" height="0.0673418660263" xlink:href="K:\Computational Design Group\03_Resources\Rendering\People\PersonLibrary\13\Person_13.png"/>
<image transform="matrix(0.766044443119 -0.642787609687 0.642787609687 0.766044443119 0.328929219225 0.20928483765)" width="0.0732128446145" height="0.0732128446145" xlink:href="K:\Computational Design Group\03_Resources\Rendering\People\PersonLibrary\22\Person_22.png"/>
</svg>