<?xml version="1.0" encoding="utf-8"?>
<!-- Generator: Grasshopper 1.0.0, Redback Plugin. SVG Version: 6.00 Build 0) Made by Andrew Butler at Cox Architecture -->
<!DOCTYPE svg PUBLIC "-//W3C//DTD SVG 1.1//EN" "http://www.w3.org/Graphics/SVG/1.1/DTD/svg11.dtd">
<svg version="1.1" xmlns="http://www.w3.org/2000/svg" xmlns:xlink="http://www.w3.org/1999/xlink" x="0px" y="0px"
width="45.0mm" height="45.0mm" viewBox="0 0 45.0 45.0" xml:space="preserve">
<style type="text/css">
*{
fill:none;
stroke:black;
stroke-width:0.3mm;
}
polygon{
fill:white;
}
</style>
<polygon points="-22.5, 67.5 67.5, 67.5 67.5, -22.5 -22.5, -22.5" />
<polygon points="27.3, 22.5 27.2994679676, 22.4285351299 27.2978719885, 22.3570861022 27.2952124163, 22.2856687556 27.2914898408, 22.2142989220 27.2867050870, 22.1429924226 27.2808592157, 22.0717650648 27.2739535228, 22.0006326381 27.2659895392, 21.9296109113 27.2569690303, 21.8587156284 27.2468939957, 21.7879625056 27.2357666690, 21.7173672273 27.2235895168, 21.6469454432 27.2103652385, 21.5767127643 27.1960967658, 21.5066847599 27.1807872616, 21.4368769537 27.1644401198, 21.3673048209 27.1470589642, 21.2979837841 27.1286476478, 21.2289292104 27.1092102522, 21.1601564079 27.0887510861, 21.0916806221 27.0672746849, 21.0235170328 27.0447858096, 20.9556807504 27.0212894455, 20.8881868130 26.9967908013, 20.8210501825 26.9712953078, 20.7542857419 26.9448086168, 20.6879082916 26.9173366000, 20.6219325459 26.8888853474, 20.5563731306 26.8594611660, 20.4912445788 26.8290705785, 20.4265613281 26.7977203221, 20.3623377177 26.7654173463, 20.2985879846 26.7321688122, 20.2353262608 26.6979820903, 20.1725665703 26.6628647590, 20.1103228255 26.6268246032, 20.0486088248 26.5898696124, 19.9874382488 26.5520079786, 19.9268246579 26.5132480951, 19.8667814888 26.4735985541, 19.8073220521 26.4330681452, 19.7484595286 26.3916658531, 19.6902069671 26.3494008560, 19.6325772809 26.3062825230, 19.5755832454 26.2623204128, 19.5192374950 26.2175242709, 19.4635525206 26.1719040276, 19.4085406662 26.1254697960, 19.3542141271 26.0782318697, 19.3005849462 26.0302007205, 19.2476650122 25.9813869958, 19.1954660563 25.9318015167, 19.1439996499 25.8814552754, 19.0932772023 25.8303594325, 19.0433099574 25.7785253150, 18.9941089922 25.7259644136, 18.9456852134 25.6726883798, 18.8980493556 25.6187090240, 18.8512119788 25.5640383123, 18.8051834659 25.5086883642, 18.7599740205 25.4526714495, 18.7155936646 25.3959999862, 18.6720522365 25.3386865372, 18.6293593885 25.2807438077, 18.5875245846 25.2221846425, 18.5465570989 25.1630220229, 18.5064660130 25.1032690643, 18.4672602143 25.0429390126, 18.4289483940 24.9820452417, 18.3915390451 24.9206012507, 18.3550404604 24.8586206604, 18.3194607309 24.7961172108, 18.2848077441 24.7331047575, 18.2510891817 24.6695972693, 18.2183125185 24.6056088243, 18.1864850204 24.5411536077, 18.1556137430 24.4762459079, 18.1257055299 24.4109001135, 18.0967670109 24.3451307106, 18.0688046014 24.2789522787, 18.0418244999 24.2123794885, 18.0158326874 24.1454270977, 17.9908349258 24.0781099484, 17.9668367567 24.0104429634, 17.9438434998 23.9424411432, 17.9218602524 23.8741195624, 17.9008918878 23.8054933666, 17.8809430541 23.7365777688, 17.8620181736 23.6673880463, 17.8441214417 23.5979395370, 17.8272568257 23.5282476363, 17.8114280641 23.4583277936, 17.7966386658 23.3881955085, 17.7828919094 23.3178663282, 17.7701908422 23.2473558431, 17.7585382798 23.1766796841, 17.7479368054 23.1058535186, 17.7383887691 23.0348930474, 17.7298962875 22.9638140010, 17.7224612432 22.8926321363, 17.7160852845 22.8213632328, 17.7107698246 22.7500230895, 17.7065160421 22.6786275210, 17.7033248798 22.6071923543, 17.7011970452 22.5357334252, 17.7001330099 22.4642665748, 17.7001330099 22.3928076457, 17.7011970452 22.3213724790, 17.7033248798 22.2499769105, 17.7065160421 22.1786367672, 17.7107698246 22.1073678637, 17.7160852845 22.0361859990, 17.7224612432 21.9651069526, 17.7298962875 21.8941464814, 17.7383887691 21.8233203159, 17.7479368054 21.7526441569, 17.7585382798 21.6821336718, 17.7701908422 21.6118044915, 17.7828919094 21.5416722064, 17.7966386658 21.4717523637, 17.8114280641 21.4020604630, 17.8272568257 21.3326119537, 17.8441214417 21.2634222312, 17.8620181736 21.1945066334, 17.8809430541 21.1258804376, 17.9008918878 21.0575588568, 17.9218602524 20.9895570366, 17.9438434998 20.9218900516, 17.9668367567 20.8545729023, 17.9908349258 20.7876205115, 18.0158326874 20.7210477213, 18.0418244999 20.6548692894, 18.0688046014 20.5890998865, 18.0967670109 20.5237540921, 18.1257055299 20.4588463923, 18.1556137430 20.3943911757, 18.1864850204 20.3304027307, 18.2183125185 20.2668952425, 18.2510891817 20.2038827892, 18.2848077441 20.1413793396, 18.3194607309 20.0793987493, 18.3550404604 20.0179547583, 18.3915390451 19.9570609874, 18.4289483940 19.8967309357, 18.4672602143 19.8369779771, 18.5064660130 19.7778153575, 18.5465570989 19.7192561923, 18.5875245846 19.6613134628, 18.6293593885 19.6040000138, 18.6720522365 19.5473285505, 18.7155936646 19.4913116358, 18.7599740205 19.4359616877, 18.8051834659 19.3812909760, 18.8512119788 19.3273116202, 18.8980493556 19.2740355864, 18.9456852134 19.2214746850, 18.9941089922 19.1696405675, 19.0433099574 19.1185447246, 19.0932772023 19.0681984833, 19.1439996499 19.0186130042, 19.1954660563 18.9697992795, 19.2476650122 18.9217681303, 19.3005849462 18.8745302040, 19.3542141271 18.8280959724, 19.4085406662 18.7824757291, 19.4635525206 18.7376795872, 19.5192374950 18.6937174770, 19.5755832454 18.6505991440, 19.6325772809 18.6083341469, 19.6902069671 18.5669318548, 19.7484595286 18.5264014459, 19.8073220521 18.4867519049, 19.8667814888 18.4479920214, 19.9268246579 18.4101303876, 19.9874382488 18.3731753968, 20.0486088248 18.3371352410, 20.1103228255 18.3020179097, 20.1725665703 18.2678311878, 20.2353262608 18.2345826537, 20.2985879846 18.2022796779, 20.3623377177 18.1709294215, 20.4265613281 18.1405388340, 20.4912445788 18.1111146526, 20.5563731306 18.0826634000, 20.6219325459 18.0551913832, 20.6879082916 18.0287046922, 20.7542857419 18.0032091987, 20.8210501825 17.9787105545, 20.8881868130 17.9552141904, 20.9556807504 17.9327253151, 21.0235170328 17.9112489139, 21.0916806221 17.8907897478, 21.1601564079 17.8713523522, 21.2289292104 17.8529410358, 21.2979837841 17.8355598802, 21.3673048209 17.8192127384, 21.4368769537 17.8039032342, 21.5066847599 17.7896347615, 21.5767127643 17.7764104832, 21.6469454432 17.7642333310, 21.7173672273 17.7531060043, 21.7879625056 17.7430309697, 21.8587156284 17.7340104608, 21.9296109113 17.7260464772, 22.0006326381 17.7191407843, 22.0717650648 17.7132949130, 22.1429924226 17.7085101592, 22.2142989220 17.7047875837, 22.2856687556 17.7021280115, 22.3570861022 17.7005320324, 22.4285351299 17.7, 22.5 17.7005320324, 22.5714648701 17.7021280115, 22.6429138978 17.7047875837, 22.7143312444 17.7085101592, 22.7857010780 17.7132949130, 22.8570075774 17.7191407843, 22.9282349352 17.7260464772, 22.9993673619 17.7340104608, 23.0703890887 17.7430309697, 23.1412843716 17.7531060043, 23.2120374944 17.7642333310, 23.2826327727 17.7764104832, 23.3530545568 17.7896347615, 23.4232872357 17.8039032342, 23.4933152401 17.8192127384, 23.5631230463 17.8355598802, 23.6326951791 17.8529410358, 23.7020162159 17.8713523522, 23.7710707896 17.8907897478, 23.8398435921 17.9112489139, 23.9083193779 17.9327253151, 23.9764829672 17.9552141904, 24.0443192496 17.9787105545, 24.1118131870 18.0032091987, 24.1789498175 18.0287046922, 24.2457142581 18.0551913832, 24.3120917084 18.0826634000, 24.3780674541 18.1111146526, 24.4436268694 18.1405388340, 24.5087554212 18.1709294215, 24.5734386719 18.2022796779, 24.6376622823 18.2345826537, 24.7014120154 18.2678311878, 24.7646737392 18.3020179097, 24.8274334297 18.3371352410, 24.8896771745 18.3731753968, 24.9513911752 18.4101303876, 25.0125617512 18.4479920214, 25.0731753421 18.4867519049, 25.1332185112 18.5264014459, 25.1926779479 18.5669318548, 25.2515404714 18.6083341469, 25.3097930329 18.6505991440, 25.3674227191 18.6937174770, 25.4244167546 18.7376795872, 25.4807625050 18.7824757291, 25.5364474794 18.8280959724, 25.5914593338 18.8745302040, 25.6457858729 18.9217681303, 25.6994150538 18.9697992795, 25.7523349878 19.0186130042, 25.8045339437 19.0681984833, 25.8560003501 19.1185447246, 25.9067227977 19.1696405675, 25.9566900426 19.2214746850, 26.0058910078 19.2740355864, 26.0543147866 19.3273116202, 26.1019506444 19.3812909760, 26.1487880212 19.4359616877, 26.1948165341 19.4913116358, 26.2400259795 19.5473285505, 26.2844063354 19.6040000138, 26.3279477635 19.6613134628, 26.3706406115 19.7192561923, 26.4124754154 19.7778153575, 26.4534429011 19.8369779771, 26.4935339870 19.8967309357, 26.5327397857 19.9570609874, 26.5710516060 20.0179547583, 26.6084609549 20.0793987493, 26.6449595396 20.1413793396, 26.6805392691 20.2038827892, 26.7151922559 20.2668952425, 26.7489108183 20.3304027307, 26.7816874815 20.3943911757, 26.8135149796 20.4588463923, 26.8443862570 20.5237540921, 26.8742944701 20.5890998865, 26.9032329891 20.6548692894, 26.9311953986 20.7210477213, 26.9581755001 20.7876205115, 26.9841673126 20.8545729023, 27.0091650742 20.9218900516, 27.0331632433 20.9895570366, 27.0561565002 21.0575588568, 27.0781397476 21.1258804376, 27.0991081122 21.1945066334, 27.1190569459 21.2634222312, 27.1379818264 21.3326119537, 27.1558785583 21.4020604630, 27.1727431743 21.4717523637, 27.1885719359 21.5416722064, 27.2033613342 21.6118044915, 27.2171080906 21.6821336718, 27.2298091578 21.7526441569, 27.2414617202 21.8233203159, 27.2520631946 21.8941464814, 27.2616112309 21.9651069526, 27.2701037125 22.0361859990, 27.2775387568 22.1073678637, 27.2839147155 22.1786367672, 27.2892301754 22.2499769105, 27.2934839579 22.3213724790, 27.2966751202 22.3928076457, 27.2988029548 22.4642665748, 27.2998669901 22.5357334252, 27.2998669901 22.6071923543, 27.2988029548 22.6786275210, 27.2966751202 22.7500230895, 27.2934839579 22.8213632328, 27.2892301754 22.8926321363, 27.2839147155 22.9638140010, 27.2775387568 23.0348930474, 27.2701037125 23.1058535186, 27.2616112309 23.1766796841, 27.2520631946 23.2473558431, 27.2414617202 23.3178663282, 27.2298091578 23.3881955085, 27.2171080906 23.4583277936, 27.2033613342 23.5282476363, 27.1885719359 23.5979395370, 27.1727431743 23.6673880463, 27.1558785583 23.7365777688, 27.1379818264 23.8054933666, 27.1190569459 23.8741195624, 27.0991081122 23.9424411432, 27.0781397476 24.0104429634, 27.0561565002 24.0781099484, 27.0331632433 24.1454270977, 27.0091650742 24.2123794885, 26.9841673126 24.2789522787, 26.9581755001 24.3451307106, 26.9311953986 24.4109001135, 26.9032329891 24.4762459079, 26.8742944701 24.5411536077, 26.8443862570 24.6056088243, 26.8135149796 24.6695972693, 26.7816874815 24.7331047575, 26.7489108183 24.7961172108, 26.7151922559 24.8586206604, 26.6805392691 24.9206012507, 26.6449595396 24.9820452417, 26.6084609549 25.0429390126, 26.5710516060 25.1032690643, 26.5327397857 25.1630220229, 26.4935339870 25.2221846425, 26.4534429011 25.2807438077, 26.4124754154 25.3386865372, 26.3706406115 25.3959999862, 26.3279477635 25.4526714495, 26.2844063354 25.5086883642, 26.2400259795 25.5640383123, 26.1948165341 25.6187090240, 26.1487880212 25.6726883798, 26.1019506444 25.7259644136, 26.0543147866 25.7785253150, 26.0058910078 25.8303594325, 25.9566900426 25.8814552754, 25.9067227977 25.9318015167, 25.8560003501 25.9813869958, 25.8045339437 26.0302007205, 25.7523349878 26.0782318697, 25.6994150538 26.1254697960, 25.6457858729 26.1719040276, 25.5914593338 26.2175242709, 25.5364474794 26.2623204128, 25.4807625050 26.3062825230, 25.4244167546 26.3494008560, 25.3674227191 26.3916658531, 25.3097930329 26.4330681452, 25.2515404714 26.4735985541, 25.1926779479 26.5132480951, 25.1332185112 26.5520079786, 25.0731753421 26.5898696124, 25.0125617512 26.6268246032, 24.9513911752 26.6628647590, 24.8896771745 26.6979820903, 24.8274334297 26.7321688122, 24.7646737392 26.7654173463, 24.7014120154 26.7977203221, 24.6376622823 26.8290705785, 24.5734386719 26.8594611660, 24.5087554212 26.8888853474, 24.4436268694 26.9173366000, 24.3780674541 26.9448086168, 24.3120917084 26.9712953078, 24.2457142581 26.9967908013, 24.1789498175 27.0212894455, 24.1118131870 27.0447858096, 24.0443192496 27.0672746849, 23.9764829672 27.0887510861, 23.9083193779 27.1092102522, 23.8398435921 27.1286476478, 23.7710707896 27.1470589642, 23.7020162159 27.1644401198, 23.6326951791 27.1807872616, 23.5631230463 27.1960967658, 23.4933152401 27.2103652385, 23.4232872357 27.2235895168, 23.3530545568 27.2357666690, 23.2826327727 27.2468939957, 23.2120374944 27.2569690303, 23.1412843716 27.2659895392, 23.0703890887 27.2739535228, 22.9993673619 27.2808592157, 22.9282349352 27.2867050870, 22.8570075774 27.2914898408, 22.7857010780 27.2952124163, 22.7143312444 27.2978719885, 22.6429138978 27.2994679676, 22.5714648701" />
<line x1="22.5" y1="22.5" x2="22.5" y2="17.7" />
</svg>