<?xml version="1.0" encoding="utf-8"?>
<!-- Generator: Grasshopper 1.0.0, Redback Plugin. SVG Version: 6.00 Build 0) Made by Andrew Butler at Cox Architecture -->
<!DOCTYPE svg PUBLIC "-//W3C//DTD SVG 1.1//EN" "http://www.w3.org/Graphics/SVG/1.1/DTD/svg11.dtd">
<svg version="1.1" xmlns="http://www.w3.org/2000/svg" xmlns:xlink="http://www.w3.org/1999/xlink" x="0px" y="0px"
width="30.0mm" height="30.0mm" viewBox="0 0 30.0 30.0" xml:space="preserve">
<style type="text/css">
*{
fill:none;
stroke:black;
stroke-width:0.3mm;
}
polygon{
fill:white;
}
</style>
<polygon points="-15.0, 45.0 45.0, 45.0 45.0, -15.0 -15.0, -15.0" />
<polygon points="22.2, 15.0 22.1992019515, 14.8928026949 22.1968079827, 14.7856291532 22.1928186245, 14.6785031334 22.1872347611, 14.5714483830 22.1800576305, 14.4644886340 22.1712888235, 14.3576475972 22.1609302842, 14.2509489572 22.1489843088, 14.1444163670 22.1354535454, 14.0380734427 22.1203409936, 13.9319437584 22.1036500035, 13.8260508409 22.0853842752, 13.7204181647 22.0655478578, 13.6150691464 22.0441451487, 13.5100271398 22.0211808924, 13.4053154306 21.9966601797, 13.3009572313 21.9705884463, 13.1969756761 21.9429714717, 13.0933938156 21.9138153782, 12.9902346118 21.8831266291, 12.8875209331 21.8509120274, 12.7852755491 21.8171787144, 12.6835211256 21.7819341683, 12.5822802194 21.7451862019, 12.4815752738 21.7069429616, 12.3814286129 21.6672129252, 12.2818624373 21.6260049001, 12.1828988189 21.5833280211, 12.0845596959 21.5391917490, 11.9868668682 21.4936058678, 11.8898419922 21.4465804831, 11.7935065766 21.3981260195, 11.6978819769 21.3482532183, 11.6029893912 21.2969731354, 11.5088498554 21.2442971385, 11.4154842383 21.1902369049, 11.3229132371 21.1348044186, 11.2311573731 21.0780119679, 11.1402369868 21.0198721426, 11.0501722333 20.9603978311, 10.9609830782 20.8996022177, 10.8726892930 20.8374987796, 10.7853104506 20.7741012839, 10.6988659213 20.7094237846, 10.6133748681 20.6434806193, 10.5288562425 20.5762864063, 10.4453287808 20.5078560413, 10.3628109993 20.4382046940, 10.2813211906 20.3673478046, 10.2008774193 20.2953010808, 10.1214975183 20.2220804937, 10.0431990844 20.1477022751, 9.96599947490 20.0721829131, 9.88991580341 19.9955391488, 9.81496493616 19.9177879725, 9.74116348827 19.8389466204, 9.66852782007 19.7590325697, 9.59707403343 19.6780635360, 9.52681796825 19.5960574685, 9.45777519889 19.5130325463, 9.38996103077 19.4290071743, 9.32339049695 19.3439999793, 9.25807835479 19.2580298058, 9.19403908269 19.1711157115, 9.13128687690 19.0832769637, 9.06983564833 18.9945330344, 9.00969901949 18.9049035964, 8.95089032150 18.8144085188, 8.89342259105 18.7230678626, 8.83730856763 18.6309018761, 8.78256069057 18.5379309907, 8.72919109642 18.4441758162, 8.67721161613 18.3496571363, 8.62663377255 18.2543959039, 8.57746877775 18.1584132365, 8.52972753067 18.0617304116, 8.48342061457 17.9643688618, 8.43855829478 17.8663501703, 8.39515051639 17.7676960658, 8.35320690204 17.6684284181, 8.31273674980 17.5685692327, 8.27374903110 17.4681406466, 8.23625238874 17.3671649226, 8.20025513498 17.2656644451, 8.16576524970 17.1636617148, 8.13279037863 17.0611793436, 8.10133783163 16.9582400499, 8.07141458111 16.8548666533, 8.04302726047 16.7510820695, 8.01618216260 16.6469093056, 7.99088523854 16.5423714545, 7.96714209611 16.4374916903, 7.94495799869 16.3322932628, 7.92433786406 16.2267994923, 7.90528626330 16.1210337646, 7.88780741975 16.0150195261, 7.87190520815 15.9087802778, 7.85758315368 15.8023395710, 7.84484443127 15.6957210015, 7.83369186484 15.5889482044, 7.82412792669 15.4820448492, 7.81615473696 15.3750346342, 7.80977406314 15.2679412815, 7.80498731970 15.1607885315, 7.80179556777 15.0536001379, 7.80019951490 14.9463998621, 7.80019951490 14.8392114685, 7.80179556777 14.7320587185, 7.80498731970 14.6249653658, 7.80977406314 14.5179551508, 7.81615473696 14.4110517956, 7.82412792669 14.3042789985, 7.83369186484 14.1976604290, 7.84484443127 14.0912197222, 7.85758315368 13.9849804739, 7.87190520815 13.8789662354, 7.88780741975 13.7732005077, 7.90528626330 13.6677067372, 7.92433786406 13.5625083097, 7.94495799869 13.4576285455, 7.96714209611 13.3530906944, 7.99088523854 13.2489179305, 8.01618216260 13.1451333467, 8.04302726047 13.0417599501, 8.07141458111 12.9388206564, 8.10133783163 12.8363382852, 8.13279037863 12.7343355549, 8.16576524970 12.6328350774, 8.20025513498 12.5318593534, 8.23625238874 12.4314307673, 8.27374903110 12.3315715819, 8.31273674980 12.2323039342, 8.35320690204 12.1336498297, 8.39515051639 12.0356311382, 8.43855829478 11.9382695884, 8.48342061457 11.8415867635, 8.52972753067 11.7456040961, 8.57746877775 11.6503428637, 8.62663377255 11.5558241838, 8.67721161613 11.4620690093, 8.72919109642 11.3690981239, 8.78256069057 11.2769321374, 8.83730856763 11.1855914812, 8.89342259105 11.0950964036, 8.95089032150 11.0054669656, 9.00969901949 10.9167230363, 9.06983564833 10.8288842885, 9.13128687690 10.7419701942, 9.19403908269 10.6560000207, 9.25807835479 10.5709928257, 9.32339049695 10.4869674537, 9.38996103077 10.4039425315, 9.45777519889 10.3219364640, 9.52681796825 10.2409674303, 9.59707403343 10.1610533796, 9.66852782007 10.0822120275, 9.74116348827 10.0044608512, 9.81496493616 9.92781708692, 9.88991580341 9.85229772488, 9.96599947490 9.77791950626, 10.0431990844 9.70469891924, 10.1214975183 9.63265219538, 10.2008774193 9.56179530599, 10.2813211906 9.49214395866, 10.3628109993 9.42371359369, 10.4453287808 9.35651938074, 10.5288562425 9.29057621543, 10.6133748681 9.22589871607, 10.6988659213 9.16250122035, 10.7853104506 9.10039778226, 10.8726892930 9.03960216888, 10.9609830782 8.98012785741, 11.0501722333 8.92198803211, 11.1402369868 8.86519558144, 11.2311573731 8.80976309514, 11.3229132371 8.75570286150, 11.4154842383 8.70302686461, 11.5088498554 8.65174678168, 11.6029893912 8.6018739805, 11.6978819769 8.55341951687, 11.7935065766 8.50639413218, 11.8898419922 8.46080825103, 11.9868668682 8.41667197891, 12.0845596959 8.37399509995, 12.1828988189 8.33278707476, 12.2818624373 8.29305703836, 12.3814286129 8.25481379809, 12.4815752738 8.21806583173, 12.5822802194 8.18282128557, 12.6835211256 8.14908797263, 12.7852755491 8.11687337092, 12.8875209331 8.08618462176, 12.9902346118 8.05702852825, 13.0933938156 8.02941155372, 13.1969756761 8.0033398203, 13.3009572313 7.97881910758, 13.4053154306 7.95585485130, 13.5100271398 7.93445214220, 13.6150691464 7.91461572483, 13.7204181647 7.89634999652, 13.8260508409 7.87965900643, 13.9319437584 7.86454645462, 14.0380734427 7.85101569124, 14.1444163670 7.83906971579, 14.2509489572 7.82871117646, 14.3576475972 7.81994236953, 14.4644886340 7.81276523887, 14.5714483830 7.80718137551, 14.6785031334 7.80319201729, 14.7856291532 7.80079804855, 14.8928026949 7.8, 15.0 7.80079804855, 15.1071973051 7.80319201729, 15.2143708468 7.80718137551, 15.3214968666 7.81276523887, 15.4285516170 7.81994236953, 15.5355113660 7.82871117646, 15.6423524028 7.83906971579, 15.7490510428 7.85101569124, 15.8555836330 7.86454645462, 15.9619265573 7.87965900643, 16.0680562416 7.89634999652, 16.1739491591 7.91461572483, 16.2795818353 7.93445214220, 16.3849308536 7.95585485130, 16.4899728602 7.97881910758, 16.5946845694 8.0033398203, 16.6990427687 8.02941155372, 16.8030243239 8.05702852825, 16.9066061844 8.08618462176, 17.0097653882 8.11687337092, 17.1124790669 8.14908797263, 17.2147244509 8.18282128557, 17.3164788744 8.21806583173, 17.4177197806 8.25481379809, 17.5184247262 8.29305703836, 17.6185713871 8.33278707476, 17.7181375627 8.37399509995, 17.8171011811 8.41667197891, 17.9154403041 8.46080825103, 18.0131331318 8.50639413218, 18.1101580078 8.55341951687, 18.2064934234 8.6018739805, 18.3021180231 8.65174678168, 18.3970106088 8.70302686461, 18.4911501446 8.75570286150, 18.5845157617 8.80976309514, 18.6770867629 8.86519558144, 18.7688426269 8.92198803211, 18.8597630132 8.98012785741, 18.9498277667 9.03960216888, 19.0390169218 9.10039778226, 19.1273107070 9.16250122035, 19.2146895494 9.22589871607, 19.3011340787 9.29057621543, 19.3866251319 9.35651938074, 19.4711437575 9.42371359369, 19.5546712192 9.49214395866, 19.6371890007 9.56179530599, 19.7186788094 9.63265219538, 19.7991225807 9.70469891924, 19.8785024817 9.77791950626, 19.9568009156 9.85229772488, 20.0340005251 9.92781708692, 20.1100841966 10.0044608512, 20.1850350638 10.0822120275, 20.2588365117 10.1610533796, 20.3314721799 10.2409674303, 20.4029259666 10.3219364640, 20.4731820318 10.4039425315, 20.5422248011 10.4869674537, 20.6100389692 10.5709928257, 20.6766095031 10.6560000207, 20.7419216452 10.7419701942, 20.8059609173 10.8288842885, 20.8687131231 10.9167230363, 20.9301643517 11.0054669656, 20.9903009805 11.0950964036, 21.0491096785 11.1855914812, 21.1065774089 11.2769321374, 21.1626914324 11.3690981239, 21.2174393094 11.4620690093, 21.2708089036 11.5558241838, 21.3227883839 11.6503428637, 21.3733662275 11.7456040961, 21.4225312222 11.8415867635, 21.4702724693 11.9382695884, 21.5165793854 12.0356311382, 21.5614417052 12.1336498297, 21.6048494836 12.2323039342, 21.6467930980 12.3315715819, 21.6872632502 12.4314307673, 21.7262509689 12.5318593534, 21.7637476113 12.6328350774, 21.7997448650 12.7343355549, 21.8342347503 12.8363382852, 21.8672096214 12.9388206564, 21.8986621684 13.0417599501, 21.9285854189 13.1451333467, 21.9569727395 13.2489179305, 21.9838178374 13.3530906944, 22.0091147615 13.4576285455, 22.0328579039 13.5625083097, 22.0550420013 13.6677067372, 22.0756621359 13.7732005077, 22.0947137367 13.8789662354, 22.1121925802 13.9849804739, 22.1280947919 14.0912197222, 22.1424168463 14.1976604290, 22.1551555687 14.3042789985, 22.1663081352 14.4110517956, 22.1758720733 14.5179551508, 22.1838452630 14.6249653658, 22.1902259369 14.7320587185, 22.1950126803 14.8392114685, 22.1982044322 14.9463998621, 22.1998004851 15.0536001379, 22.1998004851 15.1607885315, 22.1982044322 15.2679412815, 22.1950126803 15.3750346342, 22.1902259369 15.4820448492, 22.1838452630 15.5889482044, 22.1758720733 15.6957210015, 22.1663081352 15.8023395710, 22.1551555687 15.9087802778, 22.1424168463 16.0150195261, 22.1280947919 16.1210337646, 22.1121925802 16.2267994923, 22.0947137367 16.3322932628, 22.0756621359 16.4374916903, 22.0550420013 16.5423714545, 22.0328579039 16.6469093056, 22.0091147615 16.7510820695, 21.9838178374 16.8548666533, 21.9569727395 16.9582400499, 21.9285854189 17.0611793436, 21.8986621684 17.1636617148, 21.8672096214 17.2656644451, 21.8342347503 17.3671649226, 21.7997448650 17.4681406466, 21.7637476113 17.5685692327, 21.7262509689 17.6684284181, 21.6872632502 17.7676960658, 21.6467930980 17.8663501703, 21.6048494836 17.9643688618, 21.5614417052 18.0617304116, 21.5165793854 18.1584132365, 21.4702724693 18.2543959039, 21.4225312222 18.3496571363, 21.3733662275 18.4441758162, 21.3227883839 18.5379309907, 21.2708089036 18.6309018761, 21.2174393094 18.7230678626, 21.1626914324 18.8144085188, 21.1065774089 18.9049035964, 21.0491096785 18.9945330344, 20.9903009805 19.0832769637, 20.9301643517 19.1711157115, 20.8687131231 19.2580298058, 20.8059609173 19.3439999793, 20.7419216452 19.4290071743, 20.6766095031 19.5130325463, 20.6100389692 19.5960574685, 20.5422248011 19.6780635360, 20.4731820318 19.7590325697, 20.4029259666 19.8389466204, 20.3314721799 19.9177879725, 20.2588365117 19.9955391488, 20.1850350638 20.0721829131, 20.1100841966 20.1477022751, 20.0340005251 20.2220804937, 19.9568009156 20.2953010808, 19.8785024817 20.3673478046, 19.7991225807 20.4382046940, 19.7186788094 20.5078560413, 19.6371890007 20.5762864063, 19.5546712192 20.6434806193, 19.4711437575 20.7094237846, 19.3866251319 20.7741012839, 19.3011340787 20.8374987796, 19.2146895494 20.8996022177, 19.1273107070 20.9603978311, 19.0390169218 21.0198721426, 18.9498277667 21.0780119679, 18.8597630132 21.1348044186, 18.7688426269 21.1902369049, 18.6770867629 21.2442971385, 18.5845157617 21.2969731354, 18.4911501446 21.3482532183, 18.3970106088 21.3981260195, 18.3021180231 21.4465804831, 18.2064934234 21.4936058678, 18.1101580078 21.5391917490, 18.0131331318 21.5833280211, 17.9154403041 21.6260049001, 17.8171011811 21.6672129252, 17.7181375627 21.7069429616, 17.6185713871 21.7451862019, 17.5184247262 21.7819341683, 17.4177197806 21.8171787144, 17.3164788744 21.8509120274, 17.2147244509 21.8831266291, 17.1124790669 21.9138153782, 17.0097653882 21.9429714717, 16.9066061844 21.9705884463, 16.8030243239 21.9966601797, 16.6990427687 22.0211808924, 16.5946845694 22.0441451487, 16.4899728602 22.0655478578, 16.3849308536 22.0853842752, 16.2795818353 22.1036500035, 16.1739491591 22.1203409936, 16.0680562416 22.1354535454, 15.9619265573 22.1489843088, 15.8555836330 22.1609302842, 15.7490510428 22.1712888235, 15.6423524028 22.1800576305, 15.5355113660 22.1872347611, 15.4285516170 22.1928186245, 15.3214968666 22.1968079827, 15.2143708468 22.1992019515, 15.1071973051" />
<line x1="15.0" y1="15.0" x2="8.19226625568" y2="12.6559092879" />
</svg>