<?xml version="1.0" encoding="utf-8"?>
<!-- Generator: Grasshopper 1.0.0, Redback Plugin. SVG Version: 6.00 Build 0) Made by Andrew Butler at Cox Architecture -->
<!DOCTYPE svg PUBLIC "-//W3C//DTD SVG 1.1//EN" "http://www.w3.org/Graphics/SVG/1.1/DTD/svg11.dtd">
<svg version="1.1" xmlns="http://www.w3.org/2000/svg" xmlns:xlink="http://www.w3.org/1999/xlink" x="0px" y="0px"
width="23.2563809524mm" height="11.2428571429mm" viewBox="0 0 23.2563809524 11.2428571429" xml:space="preserve">
<style type="text/css">
polyline{
fill:none;
stroke:black;
stroke-width:0.2mm;
}
polygon{
fill:white;
}
</style>
<polygon points="0.0, 11.2428571429 23.2563809524, 11.2428571429 23.2563809524, -0.0 0.0, -0.0" />
<polyline points="-7114.08609524, 3627.05 -3780.75276190, 3627.05 -3780.75276190, 1227.05 -447.419428571, 1227.05 -447.419428571, 3627.05 6219.24723810, 3627.05" />
<path d="M -8624.75425, -3614.65535714 -8671.99085714, -3615.80714286 -8720.07121429, -3614.73571429 -8767.45514286, -3611.52142857 -8814.14264286, -3606.16428571 -8860.13371429, -3598.66428571 -8905.42835714, -3589.02142857 -8950.02657143, -3577.23571429 -8993.92835714, -3563.30714286 -9037.13371429, -3547.23571429 -9079.32121429, -3528.82048994 -9120.16942857, -3507.86063581 -9159.67835714, -3484.35615191 -9197.848, -3458.30703823 -9234.67835714, -3429.71329476 -9270.16942857, -3398.57492153 -9304.32121429, -3364.89191851 -9337.13371429, -3328.66428571 -9368.44621429, -3289.825 -9398.098, -3248.30714286 -9426.08907143, -3204.11071429 -9452.41942857, -3157.23571429 -9477.08907143, -3107.68214286 -9500.098, -3055.45 -9521.44621429, -3000.53928571 -9541.13371429, -2942.95 -9558.81228571, -2882.48125 -9574.13371429, -2818.93214286 -9587.098, -2752.30267857 -9597.70514286, -2682.59285714 -9605.95514286, -2609.80267857 -9611.848, -2533.93214286 -9615.38371429, -2454.98125 -9616.56228571, -2372.95 -9615.38371429, -2290.91875 -9611.848, -2211.96785714 -9605.95514286, -2136.09732143 -9597.70514286, -2063.30714286 -9587.098, -1993.59732143 -9574.13371429, -1926.96785714 -9558.81228571, -1863.41875 -9541.13371429, -1802.95 -9521.44621429, -1745.37410714 -9500.098, -1690.50357143 -9477.08907143, -1638.33839286 -9452.41942857, -1588.87857143 -9426.08907143, -1542.12410714 -9398.098, -1498.075 -9368.44621429, -1456.73125 -9337.13371429, -1418.09285714 -9304.32121429, -1382.05267857 -9270.16942857, -1348.50357143 -9234.67835714, -1317.44553571 -9197.848, -1288.87857143 -9159.67835714, -1262.80267857 -9120.16942857, -1239.21785714 -9079.32121429, -1218.12410714 -9037.13371429, -1199.52142857 -8993.92835714, -1183.24910714 -8950.02657143, -1169.14642857 -8905.42835714, -1157.21339286 -8860.13371429, -1147.45 -8814.14264286, -1139.85625 -8767.45514286, -1134.43214286 -8720.07121429, -1131.17767857 -8671.99085714, -1130.09285714 -8624.75425, -1131.17767857 -8578.18728571, -1134.43214286 -8532.28996429, -1139.85625 -8487.06228571, -1147.45 -8442.50425, -1157.21339286 -8398.61585714, -1169.14642857 -8355.39710714, -1183.24910714 -8312.848, -1199.52142857 -8271.28996429, -1218.12410714 -8231.04442857, -1239.21785714 -8192.11139286, -1262.80267857 -8154.49085714, -1288.87857143 -8118.18282143, -1317.44553571 -8083.18728571, -1348.50357143 -8049.50425, -1382.05267857 -8017.13371429, -1418.09285714 -7986.24983149, -1456.73125 -7957.02664990, -1498.075 -7929.46416952, -1542.12410714 -7903.56239035, -1588.87857143 -7879.32131238, -1638.33839286 -7856.74093562, -1690.50357143 -7835.82126006, -1745.37410714 -7816.56228571, -1802.95 -7799.2855, -1863.41875 -7784.31228571, -1926.96785714 -7771.64264286, -1993.59732143 -7761.27657143, -2063.30714286 -7753.21407143, -2136.09732143 -7747.45514286, -2211.96785714 -7743.99978571, -2290.91875 -7742.848, -2372.95 -7743.99978571, -2451.75357143 -7747.45514286, -2527.87857143 -7753.21407143, -2601.325 -7761.27657143, -2672.09285714 -7771.64264286, -2740.18214286 -7784.31228571, -2805.59285714 -7799.2855, -2868.325 -7816.56228571, -2928.37857143 -7835.82126006, -2985.80714286 -7856.74093562, -3040.66428571 -7879.32131238, -3092.95 -7903.56239035, -3142.66428571 -7929.46416952, -3189.80714286 -7957.02664990, -3234.37857143 -7986.24983149, -3276.37857143 -8017.13371429, -3315.80714286 -8049.50425, -3352.71781137 -8083.18728571, -3387.16420724 -8118.18282143, -3419.14633048 -8154.49085714, -3448.66418108 -8192.11139286, -3475.71775905 -8231.04442857, -3500.30706438 -8271.28996429, -3522.43209708 -8312.848, -3542.09285714 -8355.39710714, -3559.36964286 -8398.61585714, -3574.34285714 -8442.50425, -3587.0125 -8487.06228571, -3597.37857143 -8532.28996429, -3605.44107143 -8578.18728571, -3611.2 Z M -8762.63371429, -3161.73571429 -8717.79442857, -3169.28928571 -8671.99085714, -3171.80714286 -8649.81228571, -3171.11071429 -8627.848, -3169.02142857 -8606.098, -3165.53928571 -8584.56228571, -3160.66428571 -8563.24085714, -3154.39642857 -8542.13371429, -3146.73571429 -8521.24085714, -3137.68214286 -8500.56228571, -3127.23571429 -8480.29889286, -3115.27589286 -8460.65157143, -3101.68214286 -8441.62032143, -3086.45446429 -8423.20514286, -3069.59285714 -8405.40603571, -3051.09732143 -8388.223, -3030.96785714 -8371.65603571, -3009.20446429 -8355.70514286, -2985.80714286 -8340.46407143, -2960.73571429 -8326.02657143, -2933.95 -8312.39264286, -2905.45 -8299.56228571, -2875.23571429 -8276.31228571, -2809.66428571 -8256.27657143, -2737.23571429 -8247.63817857, -2698.35625 -8240.15157143, -2657.575 -8233.81675, -2614.89196429 -8228.63371429, -2570.30714286 -8221.723, -2475.43214286 -8219.41942857, -2372.95 -8221.723, -2264.36071429 -8228.63371429, -2164.87857143 -8233.81675, -2118.55267857 -8240.15157143, -2074.50357143 -8247.63817857, -2032.73125 -8256.27657143, -1993.23571429 -8276.31228571, -1920.325 -8287.5355, -1886.72232143 -8299.56228571, -1855.02142857 -8312.39264286, -1825.22232143 -8326.02657143, -1797.325 -8340.46407143, -1771.32946429 -8355.70514286, -1747.23571429 -8371.65603571, -1724.90982143 -8388.223, -1704.21785714 -8405.40603571, -1685.15982143 -8423.20514286, -1667.73571429 -8441.62032143, -1651.94553571 -8460.65157143, -1637.78928571 -8480.29889286, -1625.26696429 -8500.56228571, -1614.37857143 -8542.13371429, -1596.75357143 -8584.56228571, -1584.16428571 -8627.848, -1576.61071429 -8671.99085714, -1574.09285714 -8717.79442857, -1576.61071429 -8762.63371429, -1584.16428571 -8806.50871429, -1596.75357143 -8849.41942857, -1614.37857143 -8870.31228571, -1625.26696429 -8890.56228571, -1637.78928571 -8910.16942857, -1651.94553571 -8929.13371429, -1667.73571429 -8947.45514286, -1685.15982143 -8965.13371429, -1704.21785714 -8982.16942857, -1724.90982143 -8998.56228571, -1747.23571429 -9014.21853571, -1771.32946429 -9029.04442857, -1797.325 -9043.03996429, -1825.22232143 -9056.20514286, -1855.02142857 -9068.53996429, -1886.72232143 -9080.04442857, -1920.325 -9100.56228571, -1993.23571429 -9109.40157143, -2032.73125 -9117.06228571, -2074.50357143 -9123.54442857, -2118.55267857 -9128.848, -2164.87857143 -9132.973, -2213.48125 -9135.91942857, -2264.36071429 -9138.27657143, -2372.95 -9135.91942857, -2481.53928571 -9132.973, -2532.41875 -9128.848, -2581.02142857 -9123.54442857, -2627.34732143 -9117.06228571, -2671.39642857 -9109.40157143, -2713.16875 -9100.56228571, -2752.66428571 -9080.04442857, -2825.575 -9068.53996429, -2859.17767857 -9056.20514286, -2890.87857143 -9043.03996429, -2920.67767857 -9029.04442857, -2948.575 -9014.21853571, -2974.57053571 -8998.56228571, -2998.66428571 -8982.16942857, -3020.99017857 -8965.13371429, -3041.68214286 -8947.45514286, -3060.74017857 -8929.13371429, -3078.16428571 -8910.16942857, -3093.95446429 -8890.56228571, -3108.11071429 -8870.31228571, -3120.63303571 -8849.41942857, -3131.52142857 -8806.50871429, -3149.14642857 Z"  />
<path d="M -5342.80782143, -2877.92767857 -5378.848, -2878.66428571 -5419.83014286, -2877.75357143 -5460.49085714, -2875.02142857 -5500.83014286, -2870.46785714 -5540.848, -2864.09285714 -5580.33014286, -2855.62857143 -5619.06228571, -2844.80714286 -5657.04442857, -2831.62857143 -5694.27657143, -2816.09285714 -5730.49085714, -2798.03928571 -5765.41942857, -2777.30714286 -5799.06228571, -2753.89642857 -5831.41942857, -2727.80714286 -5862.16942857, -2698.87857143 -5890.99085714, -2666.95 -5917.88371429, -2632.02142857 -5942.848, -2594.09285714 -5964.74532143, -2626.61071429 -5988.43728571, -2657.30714286 -6013.92389286, -2686.18214286 -6041.20514286, -2713.23571429 -6070.28103571, -2738.46785714 -6101.15157143, -2761.87857143 -6133.81675, -2783.46785714 -6168.27657143, -2803.23571429 -6204.26317857, -2820.91428571 -6241.50871429, -2836.23571429 -6280.01317857, -2849.2 -6319.77657143, -2859.80714286 -6360.79889286, -2868.05714286 -6403.08014286, -2873.95 -6446.62032143, -2877.48571429 -6491.41942857, -2878.66428571 -6526.77657143, -2877.82053571 -6561.70514286, -2875.28928571 -6596.20514286, -2871.07053571 -6630.27657143, -2865.16428571 -6663.91942857, -2857.57053571 -6697.13371429, -2848.28928571 -6729.91942857, -2837.32053571 -6762.27657143, -2824.66428571 -6793.80335714, -2809.94553571 -6824.098, -2792.78928571 -6853.1605, -2773.19553571 -6880.99085714, -2751.16428571 -6907.58907143, -2726.69553571 -6932.95514286, -2699.78928571 -6957.08907143, -2670.44553571 -6979.99085714, -2638.66428571 -6979.99085714, -2834.09285714 -7415.41942857, -2834.09285714 -7415.41942857, -1172.95 -6967.99085714, -1172.95 -6967.99085714, -2083.23571429 -6966.223, -2128.87857143 -6960.91942857, -2171.52142857 -6952.08014286, -2211.16428571 -6939.70514286, -2247.80714286 -6924.38371429, -2281.50357143 -6906.70514286, -2312.30714286 -6886.66942857, -2340.21785714 -6864.27657143, -2365.23571429 -6839.63371429, -2387.30714286 -6812.848, -2406.37857143 -6783.91942857, -2422.45 -6752.848, -2435.52142857 -6720.223, -2445.64642857 -6686.63371429, -2452.87857143 -6652.08014286, -2457.21785714 -6616.56228571, -2458.66428571 -6579.07567857, -2457.17767857 -6543.75871429, -2452.71785714 -6510.61139286, -2445.28482143 -6479.63371429, -2434.87857143 -6450.82567857, -2421.49910714 -6424.18728571, -2405.14642857 -6399.71853571, -2385.82053571 -6377.41942857, -2363.52142857 -6357.53103571, -2338.38303571 -6340.29442857, -2310.53928571 -6325.70960714, -2279.99017857 -6313.77657143, -2246.73571429 -6304.49532143, -2210.77589286 -6297.86585714, -2172.11071429 -6293.88817857, -2130.74017857 -6292.56228571, -2086.66428571 -6292.56228571, -1172.95 -5845.13371429, -1172.95 -5845.13371429, -2083.23571429 -5843.36585714, -2128.87857143 -5838.06228571, -2171.52142857 -5829.223, -2211.16428571 -5816.848, -2247.80714286 -5801.52657143, -2281.50357143 -5783.848, -2312.30714286 -5763.81228571, -2340.21785714 -5741.41942857, -2365.23571429 -5716.77657143, -2387.30714286 -5689.99085714, -2406.37857143 -5661.06228571, -2422.45 -5629.99085714, -2435.52142857 -5597.36585714, -2445.64642857 -5563.77657143, -2452.87857143 -5529.223, -2457.21785714 -5493.70514286, -2458.66428571 -5456.60692857, -2457.17767857 -5421.598, -2452.71785714 -5388.67835714, -2445.28482143 -5357.848, -2434.87857143 -5329.10692857, -2421.49910714 -5302.45514286, -2405.14642857 -5277.89264286, -2385.82053571 -5255.41942857, -2363.52142857 -5235.33014286, -2338.38303571 -5217.91942857, -2310.53928571 -5203.18728571, -2279.99017857 -5191.13371429, -2246.73571429 -5181.75871429, -2210.77589286 -5175.06228571, -2172.11071429 -5171.04442857, -2130.74017857 -5169.70514286, -2086.66428571 -5169.70514286, -1172.95 -4723.99085714, -1172.95 -4723.99085714, -2230.66428571 -4724.72751006, -2266.28928571 -4726.93736419, -2301.16428571 -4730.62041952, -2335.28928571 -4735.77667606, -2368.66428571 -4742.40613381, -2401.28928571 -4750.50879276, -2433.16428571 -4760.08465292, -2464.28928571 -4771.13371429, -2494.66428571 -4783.5355, -2524.11517857 -4797.16942857, -2552.46785714 -4812.0355, -2579.72232143 -4828.13371429, -2605.87857143 -4845.46407143, -2630.93660714 -4864.02657143, -2654.89642857 -4883.82121429, -2677.75803571 -4904.848, -2699.52142857 -4927.02661720, -2720.14642857 -4950.27664990, -2739.59285714 -4974.59809809, -2757.86071429 -4999.99096177, -2774.95 -5026.45524095, -2790.86071429 -5053.99093562, -2805.59285714 -5082.59804578, -2819.14642857 -5112.27657143, -2831.52142857 -5142.87925, -2842.57053571 -5174.25871429, -2852.14642857 -5206.41496429, -2860.24910714 -5239.348, -2866.87857143 -5273.05782143, -2872.03482143 -5307.54442857, -2875.71785714 Z"  />
<path d="M -5295.74680952, -2661.78035714 -5347.22895238, -2662.66428571 -5623.22895238, -2662.66428571 -5612.94323810, -3142.66428571 -4640.94323810, -3142.66428571 -4640.94323810, -3572.95 -6020.94323810, -3572.95 -6046.65752381, -2244.37857143 -5475.80038095, -2244.37857143 -5408.40752381, -2242.66428571 -5346.80038095, -2237.52142857 -5290.97895238, -2228.95 -5240.94323810, -2216.95 -5196.15752381, -2202.05714286 -5156.08609524, -2184.80714286 -5120.72895238, -2165.2 -5090.08609524, -2143.23571429 -5063.88966667, -2119.12857143 -5041.87180952, -2093.09285714 -5024.03252381, -2065.12857143 -5010.37180952, -2035.23571429 -5000.24680952, -2004.05714286 -4993.01466667, -1972.23571429 -4988.67538095, -1939.77142857 -4987.22895238, -1906.66428571 -4988.78252381, -1871.25357143 -4993.44323810, -1837.02142857 -5001.21109524, -1803.96785714 -5012.08609524, -1772.09285714 -5026.06831657, -1741.71785714 -5043.15762844, -1713.16428571 -5063.35403085, -1686.43214286 -5086.65752381, -1661.52142857 -5113.12180952, -1638.80714286 -5142.80038095, -1618.66428571 -5175.69323810, -1601.09285714 -5211.80038095, -1586.09285714 -5251.01466667, -1574.09285714 -5293.22895238, -1565.52142857 -5338.44323810, -1560.37857143 -5386.65752381, -1558.66428571 -5427.90752381, -1559.89642857 -5469.37180952, -1563.59285714 -5511.05038095, -1569.75357143 -5552.94323810, -1578.37857143 -5594.51466667, -1589.14642857 -5635.22895238, -1601.73571429 -5675.08609524, -1616.14642857 -5714.08609524, -1632.37857143 -5752.01466667, -1650.27142857 -5788.65752381, -1669.66428571 -5824.01466667, -1690.55714286 -5858.08609524, -1712.95 -5890.33609524, -1736.52142857 -5920.22895238, -1760.95 -5947.76466667, -1786.23571429 -5972.94323810, -1812.37857143 -6233.51466667, -1488.37857143 -6194.80930952, -1447.12857143 -6154.12180952, -1408.23571429 -6111.45216667, -1371.7 -6066.80038095, -1337.52142857 -6020.16645238, -1305.7 -5971.55038095, -1276.23571429 -5920.95216667, -1249.12857143 -5868.37180952, -1224.37857143 -5813.91645238, -1202.28035714 -5757.69323810, -1183.12857143 -5699.70216667, -1166.92321429 -5639.94323810, -1153.66428571 -5578.41645238, -1143.35178571 -5515.12180952, -1135.98571429 -5450.05930952, -1131.56607143 -5383.22895238, -1130.09285714 -5338.14859524, -1130.93660714 -5293.76466667, -1133.46785714 -5250.07716667, -1137.68660714 -5207.08609524, -1143.59285714 -5164.79145238, -1151.18660714 -5123.19323810, -1160.46785714 -5082.29145238, -1171.43660714 -5042.08609524, -1184.09285714 -5002.85841667, -1198.36964286 -4964.88966667, -1214.2 -4928.17984524, -1231.58392857 -4892.72895238, -1250.52142857 -4858.53698810, -1271.0125 -4825.60395238, -1293.05714286 -4793.92984524, -1316.65535714 -4763.51466667, -1341.80714286 -4734.51913095, -1368.47232143 -4707.10395238, -1396.61071429 -4681.26913095, -1426.22232143 -4657.01466667, -1457.30714286 -4634.34055952, -1489.86517857 -4613.24680952, -1523.89642857 -4593.73341667, -1559.40089286 -4575.80038095, -1596.37857143 -4559.72895238, -1634.7625 -4545.80038095, -1674.48571429 -4534.01466667, -1715.54821429 -4524.37180952, -1757.95 -4516.87180952, -1801.69107143 -4511.51466667, -1846.77142857 -4508.30038095, -1893.19107143 -4507.22895238, -1940.95 -4508.04591667, -1978.35625 -4510.49680952, -2015.14642857 -4514.58163095, -2051.32053571 -4520.30038095, -2086.87857143 -4527.65305952, -2121.82053571 -4536.63966667, -2156.14642857 -4547.26020238, -2189.85625 -4559.51466667, -2222.95 -4573.41645238, -2255.21339286 -4588.97895238, -2286.43214286 -4606.20216667, -2316.60625 -4625.08609524, -2345.73571429 -4645.63073810, -2373.82053571 -4667.83609524, -2400.86071429 -4691.70216667, -2426.85625 -4717.22895238, -2451.80714286 -4744.40305952, -2475.59285714 -4773.21109524, -2498.09285714 -4803.65305952, -2519.30714286 -4835.72895238, -2539.23571429 -4869.43877381, -2557.87857143 -4904.78252381, -2575.23571429 -4941.76020238, -2591.30714286 -4980.37180952, -2606.09285714 -5020.60395238, -2619.35178571 -5062.44323810, -2630.84285714 -5105.88966667, -2640.56607143 -5150.94323810, -2648.52142857 -5197.60395238, -2654.70892857 -5245.87180952, -2659.12857143 Z"  />
<path d="M -2009.47448810, -2877.92767857 -2045.51466667, -2878.66428571 -2086.49680952, -2877.75357143 -2127.15752381, -2875.02142857 -2167.49680952, -2870.46785714 -2207.51466667, -2864.09285714 -2246.99680952, -2855.62857143 -2285.72895238, -2844.80714286 -2323.71109524, -2831.62857143 -2360.94323810, -2816.09285714 -2397.15752381, -2798.03928571 -2432.08609524, -2777.30714286 -2465.72895238, -2753.89642857 -2498.08609524, -2727.80714286 -2528.83609524, -2698.87857143 -2557.65752381, -2666.95 -2584.55038095, -2632.02142857 -2609.51466667, -2594.09285714 -2631.41198810, -2626.61071429 -2655.10395238, -2657.30714286 -2680.59055952, -2686.18214286 -2707.87180952, -2713.23571429 -2736.94770238, -2738.46785714 -2767.81823810, -2761.87857143 -2800.48341667, -2783.46785714 -2834.94323810, -2803.23571429 -2870.92984524, -2820.91428571 -2908.17538095, -2836.23571429 -2946.67984524, -2849.2 -2986.44323810, -2859.80714286 -3027.46555952, -2868.05714286 -3069.74680952, -2873.95 -3113.28698810, -2877.48571429 -3158.08609524, -2878.66428571 -3193.44323810, -2877.82053571 -3228.37180952, -2875.28928571 -3262.87180952, -2871.07053571 -3296.94323810, -2865.16428571 -3330.58609524, -2857.57053571 -3363.80038095, -2848.28928571 -3396.58609524, -2837.32053571 -3428.94323810, -2824.66428571 -3460.47002381, -2809.94553571 -3490.76466667, -2792.78928571 -3519.82716667, -2773.19553571 -3547.65752381, -2751.16428571 -3574.25573810, -2726.69553571 -3599.62180952, -2699.78928571 -3623.75573810, -2670.44553571 -3646.65752381, -2638.66428571 -3646.65752381, -2834.09285714 -4082.08609524, -2834.09285714 -4082.08609524, -1172.95 -3634.65752381, -1172.95 -3634.65752381, -2083.23571429 -3632.88966667, -2128.87857143 -3627.58609524, -2171.52142857 -3618.74680952, -2211.16428571 -3606.37180952, -2247.80714286 -3591.05038095, -2281.50357143 -3573.37180952, -2312.30714286 -3553.33609524, -2340.21785714 -3530.94323810, -2365.23571429 -3506.30038095, -2387.30714286 -3479.51466667, -2406.37857143 -3450.58609524, -2422.45 -3419.51466667, -2435.52142857 -3386.88966667, -2445.64642857 -3353.30038095, -2452.87857143 -3318.74680952, -2457.21785714 -3283.22895238, -2458.66428571 -3245.74234524, -2457.17767857 -3210.42538095, -2452.71785714 -3177.27805952, -2445.28482143 -3146.30038095, -2434.87857143 -3117.49234524, -2421.49910714 -3090.85395238, -2405.14642857 -3066.38520238, -2385.82053571 -3044.08609524, -2363.52142857 -3024.19770238, -2338.38303571 -3006.96109524, -2310.53928571 -2992.37627381, -2279.99017857 -2980.44323810, -2246.73571429 -2971.16198810, -2210.77589286 -2964.53252381, -2172.11071429 -2960.55484524, -2130.74017857 -2959.22895238, -2086.66428571 -2959.22895238, -1172.95 -2511.80038095, -1172.95 -2511.80038095, -2083.23571429 -2510.03252381, -2128.87857143 -2504.72895238, -2171.52142857 -2495.88966667, -2211.16428571 -2483.51466667, -2247.80714286 -2468.19323810, -2281.50357143 -2450.51466667, -2312.30714286 -2430.47895238, -2340.21785714 -2408.08609524, -2365.23571429 -2383.44323810, -2387.30714286 -2356.65752381, -2406.37857143 -2327.72895238, -2422.45 -2296.65752381, -2435.52142857 -2264.03252381, -2445.64642857 -2230.44323810, -2452.87857143 -2195.88966667, -2457.21785714 -2160.37180952, -2458.66428571 -2123.27359524, -2457.17767857 -2088.26466667, -2452.71785714 -2055.34502381, -2445.28482143 -2024.51466667, -2434.87857143 -1995.77359524, -2421.49910714 -1969.12180952, -2405.14642857 -1944.55930952, -2385.82053571 -1922.08609524, -2363.52142857 -1901.99680952, -2338.38303571 -1884.58609524, -2310.53928571 -1869.85395238, -2279.99017857 -1857.80038095, -2246.73571429 -1848.42538095, -2210.77589286 -1841.72895238, -2172.11071429 -1837.71109524, -2130.74017857 -1836.37180952, -2086.66428571 -1836.37180952, -1172.95 -1390.65752381, -1172.95 -1390.65752381, -2230.66428571 -1391.39417673, -2266.28928571 -1393.60403085, -2301.16428571 -1397.28708619, -2335.28928571 -1402.44334273, -2368.66428571 -1409.07280047, -2401.28928571 -1417.17545943, -2433.16428571 -1426.75131959, -2464.28928571 -1437.80038095, -2494.66428571 -1450.20216667, -2524.11517857 -1463.83609524, -2552.46785714 -1478.70216667, -2579.72232143 -1494.80038095, -2605.87857143 -1512.13073810, -2630.93660714 -1530.69323810, -2654.89642857 -1550.48788095, -2677.75803571 -1571.51466667, -2699.52142857 -1593.69328387, -2720.14642857 -1616.94331657, -2739.59285714 -1641.26476476, -2757.86071429 -1666.65762844, -2774.95 -1693.12190762, -2790.86071429 -1720.65760228, -2805.59285714 -1749.26471244, -2819.14642857 -1778.94323810, -2831.52142857 -1809.54591667, -2842.57053571 -1840.92538095, -2852.14642857 -1873.08163095, -2860.24910714 -1906.01466667, -2866.87857143 -1939.72448810, -2872.03482143 -1974.21109524, -2875.71785714 Z"  />
<path d="M -3160.56228571, -2988.37857143 -3160.56228571, -1611.80714286 -3729.70514286, -1611.80714286 -3729.70514286, -1172.95 -2155.99085714, -1172.95 -2155.99085714, -1611.80714286 -2699.41942857, -1611.80714286 -2699.41942857, -3610.66428571 -3757.13371429, -3236.95 -3757.13371429, -2775.80714286 Z"  />
<path d="M -927.611392857, -3614.65535714 -974.848000000, -3615.80714286 -1022.92835714, -3614.73571429 -1070.31228571, -3611.52142857 -1116.99978571, -3606.16428571 -1162.99085714, -3598.66428571 -1208.2855, -3589.02142857 -1252.88371429, -3577.23571429 -1296.7855, -3563.30714286 -1339.99085714, -3547.23571429 -1382.17835714, -3528.82048994 -1423.02657143, -3507.86063581 -1462.5355, -3484.35615191 -1500.70514286, -3458.30703823 -1537.5355, -3429.71329476 -1573.02657143, -3398.57492153 -1607.17835714, -3364.89191851 -1639.99085714, -3328.66428571 -1671.30335714, -3289.825 -1700.95514286, -3248.30714286 -1728.94621429, -3204.11071429 -1755.27657143, -3157.23571429 -1779.94621429, -3107.68214286 -1802.95514286, -3055.45 -1824.30335714, -3000.53928571 -1843.99085714, -2942.95 -1861.66942857, -2882.48125 -1876.99085714, -2818.93214286 -1889.95514286, -2752.30267857 -1900.56228571, -2682.59285714 -1908.81228571, -2609.80267857 -1914.70514286, -2533.93214286 -1918.24085714, -2454.98125 -1919.41942857, -2372.95 -1918.24085714, -2290.91875 -1914.70514286, -2211.96785714 -1908.81228571, -2136.09732143 -1900.56228571, -2063.30714286 -1889.95514286, -1993.59732143 -1876.99085714, -1926.96785714 -1861.66942857, -1863.41875 -1843.99085714, -1802.95 -1824.30335714, -1745.37410714 -1802.95514286, -1690.50357143 -1779.94621429, -1638.33839286 -1755.27657143, -1588.87857143 -1728.94621429, -1542.12410714 -1700.95514286, -1498.075 -1671.30335714, -1456.73125 -1639.99085714, -1418.09285714 -1607.17835714, -1382.05267857 -1573.02657143, -1348.50357143 -1537.5355, -1317.44553571 -1500.70514286, -1288.87857143 -1462.5355, -1262.80267857 -1423.02657143, -1239.21785714 -1382.17835714, -1218.12410714 -1339.99085714, -1199.52142857 -1296.7855, -1183.24910714 -1252.88371429, -1169.14642857 -1208.2855, -1157.21339286 -1162.99085714, -1147.45 -1116.99978571, -1139.85625 -1070.31228571, -1134.43214286 -1022.92835714, -1131.17767857 -974.848000000, -1130.09285714 -927.611392857, -1131.17767857 -881.044428571, -1134.43214286 -835.147107143, -1139.85625 -789.919428571, -1147.45 -745.361392857, -1157.21339286 -701.473000000, -1169.14642857 -658.254250000, -1183.24910714 -615.705142857, -1199.52142857 -574.147107143, -1218.12410714 -533.901571429, -1239.21785714 -494.968535714, -1262.80267857 -457.348000000, -1288.87857143 -421.039964286, -1317.44553571 -386.044428571, -1348.50357143 -352.361392857, -1382.05267857 -319.990857143, -1418.09285714 -289.106974348, -1456.73125 -259.883792759, -1498.075 -232.321312378, -1542.12410714 -206.419533203, -1588.87857143 -182.178455235, -1638.33839286 -159.598078474, -1690.50357143 -138.678402919, -1745.37410714 -119.419428571, -1802.95 -102.142642857, -1863.41875 -87.1694285714, -1926.96785714 -74.4997857143, -1993.59732143 -64.1337142857, -2063.30714286 -56.0712142857, -2136.09732143 -50.3122857143, -2211.96785714 -46.8569285714, -2290.91875 -45.7051428571, -2372.95 -46.8569285714, -2451.75357143 -50.3122857143, -2527.87857143 -56.0712142857, -2601.325 -64.1337142857, -2672.09285714 -74.4997857143, -2740.18214286 -87.1694285714, -2805.59285714 -102.142642857, -2868.325 -119.419428571, -2928.37857143 -138.678402919, -2985.80714286 -159.598078474, -3040.66428571 -182.178455235, -3092.95 -206.419533203, -3142.66428571 -232.321312378, -3189.80714286 -259.883792759, -3234.37857143 -289.106974348, -3276.37857143 -319.990857143, -3315.80714286 -352.361392857, -3352.71781137 -386.044428571, -3387.16420724 -421.039964286, -3419.14633048 -457.348000000, -3448.66418108 -494.968535714, -3475.71775905 -533.901571429, -3500.30706438 -574.147107143, -3522.43209708 -615.705142857, -3542.09285714 -658.254250000, -3559.36964286 -701.473000000, -3574.34285714 -745.361392857, -3587.0125 -789.919428571, -3597.37857143 -835.147107143, -3605.44107143 -881.044428571, -3611.2 Z M -1065.49085714, -3161.73571429 -1020.65157143, -3169.28928571 -974.848000000, -3171.80714286 -952.669428571, -3171.11071429 -930.705142857, -3169.02142857 -908.955142857, -3165.53928571 -887.419428571, -3160.66428571 -866.098000000, -3154.39642857 -844.990857143, -3146.73571429 -824.098000000, -3137.68214286 -803.419428571, -3127.23571429 -783.156035714, -3115.27589286 -763.508714286, -3101.68214286 -744.477464286, -3086.45446429 -726.062285714, -3069.59285714 -708.263178571, -3051.09732143 -691.080142857, -3030.96785714 -674.513178571, -3009.20446429 -658.562285714, -2985.80714286 -643.321214286, -2960.73571429 -628.883714286, -2933.95 -615.249785714, -2905.45 -602.419428571, -2875.23571429 -579.169428571, -2809.66428571 -559.133714286, -2737.23571429 -550.495321429, -2698.35625 -543.008714286, -2657.575 -536.673892857, -2614.89196429 -531.490857143, -2570.30714286 -524.580142857, -2475.43214286 -522.276571429, -2372.95 -524.580142857, -2264.36071429 -531.490857143, -2164.87857143 -536.673892857, -2118.55267857 -543.008714286, -2074.50357143 -550.495321429, -2032.73125 -559.133714286, -1993.23571429 -579.169428571, -1920.325 -590.392642857, -1886.72232143 -602.419428571, -1855.02142857 -615.249785714, -1825.22232143 -628.883714286, -1797.325 -643.321214286, -1771.32946429 -658.562285714, -1747.23571429 -674.513178571, -1724.90982143 -691.080142857, -1704.21785714 -708.263178571, -1685.15982143 -726.062285714, -1667.73571429 -744.477464286, -1651.94553571 -763.508714286, -1637.78928571 -783.156035714, -1625.26696429 -803.419428571, -1614.37857143 -844.990857143, -1596.75357143 -887.419428571, -1584.16428571 -930.705142857, -1576.61071429 -974.848000000, -1574.09285714 -1020.65157143, -1576.61071429 -1065.49085714, -1584.16428571 -1109.36585714, -1596.75357143 -1152.27657143, -1614.37857143 -1173.16942857, -1625.26696429 -1193.41942857, -1637.78928571 -1213.02657143, -1651.94553571 -1231.99085714, -1667.73571429 -1250.31228571, -1685.15982143 -1267.99085714, -1704.21785714 -1285.02657143, -1724.90982143 -1301.41942857, -1747.23571429 -1317.07567857, -1771.32946429 -1331.90157143, -1797.325 -1345.89710714, -1825.22232143 -1359.06228571, -1855.02142857 -1371.39710714, -1886.72232143 -1382.90157143, -1920.325 -1403.41942857, -1993.23571429 -1412.25871429, -2032.73125 -1419.91942857, -2074.50357143 -1426.40157143, -2118.55267857 -1431.70514286, -2164.87857143 -1435.83014286, -2213.48125 -1438.77657143, -2264.36071429 -1441.13371429, -2372.95 -1438.77657143, -2481.53928571 -1435.83014286, -2532.41875 -1431.70514286, -2581.02142857 -1426.40157143, -2627.34732143 -1419.91942857, -2671.39642857 -1412.25871429, -2713.16875 -1403.41942857, -2752.66428571 -1382.90157143, -2825.575 -1371.39710714, -2859.17767857 -1359.06228571, -2890.87857143 -1345.89710714, -2920.67767857 -1331.90157143, -2948.575 -1317.07567857, -2974.57053571 -1301.41942857, -2998.66428571 -1285.02657143, -3020.99017857 -1267.99085714, -3041.68214286 -1250.31228571, -3060.74017857 -1231.99085714, -3078.16428571 -1213.02657143, -3093.95446429 -1193.41942857, -3108.11071429 -1173.16942857, -3120.63303571 -1152.27657143, -3131.52142857 -1109.36585714, -3149.14642857 Z"  />
<path d="M 2354.33503571, -2877.92767857 2318.29485714, -2878.66428571 2277.31271429, -2877.75357143 2236.652, -2875.02142857 2196.31271429, -2870.46785714 2156.29485714, -2864.09285714 2116.81271429, -2855.62857143 2078.08057143, -2844.80714286 2040.09842857, -2831.62857143 2002.86628571, -2816.09285714 1966.652, -2798.03928571 1931.72342857, -2777.30714286 1898.08057143, -2753.89642857 1865.72342857, -2727.80714286 1834.97342857, -2698.87857143 1806.152, -2666.95 1779.25914286, -2632.02142857 1754.29485714, -2594.09285714 1732.39753571, -2626.61071429 1708.70557143, -2657.30714286 1683.21896429, -2686.18214286 1655.93771429, -2713.23571429 1626.86182143, -2738.46785714 1595.99128571, -2761.87857143 1563.32610714, -2783.46785714 1528.86628571, -2803.23571429 1492.87967857, -2820.91428571 1455.63414286, -2836.23571429 1417.12967857, -2849.2 1377.36628571, -2859.80714286 1336.34396429, -2868.05714286 1294.06271429, -2873.95 1250.52253571, -2877.48571429 1205.72342857, -2878.66428571 1170.36628571, -2877.82053571 1135.43771429, -2875.28928571 1100.93771429, -2871.07053571 1066.86628571, -2865.16428571 1033.22342857, -2857.57053571 1000.00914286, -2848.28928571 967.223428571, -2837.32053571 934.866285714, -2824.66428571 903.339500000, -2809.94553571 873.044857143, -2792.78928571 843.982357143, -2773.19553571 816.152000000, -2751.16428571 789.553785714, -2726.69553571 764.187714286, -2699.78928571 740.053785714, -2670.44553571 717.152000000, -2638.66428571 717.152000000, -2834.09285714 281.723428571, -2834.09285714 281.723428571, -1172.95 729.152000000, -1172.95 729.152000000, -2083.23571429 730.919857143, -2128.87857143 736.223428571, -2171.52142857 745.062714286, -2211.16428571 757.437714286, -2247.80714286 772.759142857, -2281.50357143 790.437714286, -2312.30714286 810.473428571, -2340.21785714 832.866285714, -2365.23571429 857.509142857, -2387.30714286 884.294857143, -2406.37857143 913.223428571, -2422.45 944.294857143, -2435.52142857 976.919857143, -2445.64642857 1010.50914286, -2452.87857143 1045.06271429, -2457.21785714 1080.58057143, -2458.66428571 1118.06717857, -2457.17767857 1153.38414286, -2452.71785714 1186.53146429, -2445.28482143 1217.50914286, -2434.87857143 1246.31717857, -2421.49910714 1272.95557143, -2405.14642857 1297.42432143, -2385.82053571 1319.72342857, -2363.52142857 1339.61182143, -2338.38303571 1356.84842857, -2310.53928571 1371.43325, -2279.99017857 1383.36628571, -2246.73571429 1392.64753571, -2210.77589286 1399.277, -2172.11071429 1403.25467857, -2130.74017857 1404.58057143, -2086.66428571 1404.58057143, -1172.95 1852.00914286, -1172.95 1852.00914286, -2083.23571429 1853.777, -2128.87857143 1859.08057143, -2171.52142857 1867.91985714, -2211.16428571 1880.29485714, -2247.80714286 1895.61628571, -2281.50357143 1913.29485714, -2312.30714286 1933.33057143, -2340.21785714 1955.72342857, -2365.23571429 1980.36628571, -2387.30714286 2007.152, -2406.37857143 2036.08057143, -2422.45 2067.152, -2435.52142857 2099.777, -2445.64642857 2133.36628571, -2452.87857143 2167.91985714, -2457.21785714 2203.43771429, -2458.66428571 2240.53592857, -2457.17767857 2275.54485714, -2452.71785714 2308.4645, -2445.28482143 2339.29485714, -2434.87857143 2368.03592857, -2421.49910714 2394.68771429, -2405.14642857 2419.25021429, -2385.82053571 2441.72342857, -2363.52142857 2461.81271429, -2338.38303571 2479.22342857, -2310.53928571 2493.95557143, -2279.99017857 2506.00914286, -2246.73571429 2515.38414286, -2210.77589286 2522.08057143, -2172.11071429 2526.09842857, -2130.74017857 2527.43771429, -2086.66428571 2527.43771429, -1172.95 2973.152, -1172.95 2973.152, -2230.66428571 2972.41534708, -2266.28928571 2970.20549295, -2301.16428571 2966.52243762, -2335.28928571 2961.36618108, -2368.66428571 2954.73672334, -2401.28928571 2946.63406438, -2433.16428571 2937.05820422, -2464.28928571 2926.00914286, -2494.66428571 2913.60735714, -2524.11517857 2899.97342857, -2552.46785714 2885.10735714, -2579.72232143 2869.00914286, -2605.87857143 2851.67878571, -2630.93660714 2833.11628571, -2654.89642857 2813.32164286, -2677.75803571 2792.29485714, -2699.52142857 2770.11623994, -2720.14642857 2746.86620724, -2739.59285714 2722.54475905, -2757.86071429 2697.15189537, -2774.95 2670.68761619, -2790.86071429 2643.15192153, -2805.59285714 2614.54481137, -2819.14642857 2584.86628571, -2831.52142857 2554.26360714, -2842.57053571 2522.88414286, -2852.14642857 2490.72789286, -2860.24910714 2457.79485714, -2866.87857143 2424.08503571, -2872.03482143 2389.59842857, -2875.71785714 Z"  />
<path d="M 2789.31866667, -3234.96785714 2763.81866667, -3202.66428571 3062.10438095, -2909.52142857 3109.24723810, -2961.37857143 3158.10438095, -3010.66428571 3183.49723810, -3033.91428571 3209.96152381, -3055.66428571 3237.49723810, -3075.91428571 3266.10438095, -3094.66428571 3295.94366667, -3111.75357143 3327.17580952, -3127.02142857 3359.80080952, -3140.46785714 3393.81866667, -3152.09285714 3429.55080952, -3161.46785714 3467.31866667, -3168.16428571 3507.12223810, -3172.18214286 3548.96152381, -3173.52142857 3589.19366667, -3171.86071429 3627.60438095, -3166.87857143 3664.19366667, -3158.575 3698.96152381, -3146.95 3731.58652381, -3132.325 3761.74723810, -3115.02142857 3789.44366667, -3095.03928571 3814.67580952, -3072.37857143 3837.33652381, -3047.30706438 3857.31866667, -3020.09275251 3874.62223810, -2990.73563581 3889.24723810, -2959.23571429 3900.87223810, -2925.80714286 3909.17580952, -2890.66428571 3914.15795238, -2853.80714286 3915.81866667, -2815.23571429 3915.02848810, -2787.15089286 3912.65795238, -2759.46785714 3908.70705952, -2732.18660714 3903.17580952, -2705.30714286 3896.06420238, -2678.82946429 3887.37223810, -2652.75357143 3877.09991667, -2627.07946429 3865.24723810, -2601.80714286 3837.12223810, -2551.825 3803.31866667, -2502.16428571 3763.83652381, -2452.825 3718.67580952, -2403.80714286 2870.10438095, -1534.66428571 2870.10438095, -1172.95 4455.81866667, -1172.95 4455.81866667, -1606.66428571 3538.67580952, -1606.66428571 4051.24723810, -2139.80714286 4122.39009524, -2216.95 4188.39009524, -2294.09285714 4219.03295238, -2333.14642857 4247.53295238, -2373.16428571 4273.89009524, -2414.14642857 4298.10438095, -2456.09285714 4320.01509524, -2499.16428571 4339.46152381, -2543.52142857 4356.44366667, -2589.16428571 4370.96152381, -2636.09285714 4382.58652381, -2684.575 4390.89009524, -2734.87857143 4395.87223810, -2787.00357143 4397.53295238, -2840.95 4396.64902381, -2883.36517857 4393.99723810, -2924.89642857 4389.57759524, -2965.54375 4383.39009524, -3005.30714286 4375.43473810, -3044.18660714 4365.71152381, -3082.18214286 4354.22045238, -3119.29375 4340.96152381, -3155.52142857 4326.05527381, -3190.66428571 4309.62223810, -3224.52142857 4291.66241667, -3257.09285714 4272.17580952, -3288.37857143 4251.16241667, -3318.37857143 4228.62223810, -3347.09285714 4204.55527381, -3374.52142857 4178.96152381, -3400.66428571 4151.89455952, -3425.45446429 4123.40795238, -3448.825 4093.50170238, -3470.77589286 4062.17580952, -3491.30714286 4029.43027381, -3510.41875 3995.26509524, -3528.11071429 3959.68027381, -3544.38303571 3922.67580952, -3559.23571429 3884.37223810, -3572.49464286 3844.89009524, -3583.98571429 3804.22938095, -3593.70892857 3762.39009524, -3601.66428571 3719.37223810, -3607.85178571 3675.17580952, -3612.27142857 3629.80080952, -3614.92321429 3583.24723810, -3615.80714286 3501.60438095, -3613.28928571 3462.55080952, -3610.14196429 3424.67580952, -3605.73571429 3387.97938095, -3600.07053571 3352.46152381, -3593.14642857 3318.12223810, -3584.96339286 3284.96152381, -3575.52142857 3221.74723810, -3554.03928571 3162.39009524, -3529.87857143 3106.89009524, -3503.03928571 3055.24723810, -3473.52142857 3007.24723810, -3441.96785714 2962.67580952, -3409.02142857 2921.53295238, -3374.68214286 2883.81866667, -3338.95 2849.31866667, -3303.11071429 2817.81866667, -3268.45 Z"  />
<path d="M 5739.05527381, -3614.65535714 5691.81866667, -3615.80714286 5643.73830952, -3614.73571429 5596.35438095, -3611.52142857 5549.66688095, -3606.16428571 5503.67580952, -3598.66428571 5458.38116667, -3589.02142857 5413.78295238, -3577.23571429 5369.88116667, -3563.30714286 5326.67580952, -3547.23571429 5284.48830952, -3528.82048994 5243.64009524, -3507.86063581 5204.13116667, -3484.35615191 5165.96152381, -3458.30703823 5129.13116667, -3429.71329476 5093.64009524, -3398.57492153 5059.48830952, -3364.89191851 5026.67580952, -3328.66428571 4995.36330952, -3289.825 4965.71152381, -3248.30714286 4937.72045238, -3204.11071429 4911.39009524, -3157.23571429 4886.72045238, -3107.68214286 4863.71152381, -3055.45 4842.36330952, -3000.53928571 4822.67580952, -2942.95 4804.99723810, -2882.48125 4789.67580952, -2818.93214286 4776.71152381, -2752.30267857 4766.10438095, -2682.59285714 4757.85438095, -2609.80267857 4751.96152381, -2533.93214286 4748.42580952, -2454.98125 4747.24723810, -2372.95 4748.42580952, -2290.91875 4751.96152381, -2211.96785714 4757.85438095, -2136.09732143 4766.10438095, -2063.30714286 4776.71152381, -1993.59732143 4789.67580952, -1926.96785714 4804.99723810, -1863.41875 4822.67580952, -1802.95 4842.36330952, -1745.37410714 4863.71152381, -1690.50357143 4886.72045238, -1638.33839286 4911.39009524, -1588.87857143 4937.72045238, -1542.12410714 4965.71152381, -1498.075 4995.36330952, -1456.73125 5026.67580952, -1418.09285714 5059.48830952, -1382.05267857 5093.64009524, -1348.50357143 5129.13116667, -1317.44553571 5165.96152381, -1288.87857143 5204.13116667, -1262.80267857 5243.64009524, -1239.21785714 5284.48830952, -1218.12410714 5326.67580952, -1199.52142857 5369.88116667, -1183.24910714 5413.78295238, -1169.14642857 5458.38116667, -1157.21339286 5503.67580952, -1147.45 5549.66688095, -1139.85625 5596.35438095, -1134.43214286 5643.73830952, -1131.17767857 5691.81866667, -1130.09285714 5739.05527381, -1131.17767857 5785.62223810, -1134.43214286 5831.51955952, -1139.85625 5876.74723810, -1147.45 5921.30527381, -1157.21339286 5965.19366667, -1169.14642857 6008.41241667, -1183.24910714 6050.96152381, -1199.52142857 6092.51955952, -1218.12410714 6132.76509524, -1239.21785714 6171.69813095, -1262.80267857 6209.31866667, -1288.87857143 6245.62670238, -1317.44553571 6280.62223810, -1348.50357143 6314.30527381, -1382.05267857 6346.67580952, -1418.09285714 6377.55969232, -1456.73125 6406.78287391, -1498.075 6434.34535429, -1542.12410714 6460.24713346, -1588.87857143 6484.48821143, -1638.33839286 6507.06858819, -1690.50357143 6527.98826375, -1745.37410714 6547.24723810, -1802.95 6564.52402381, -1863.41875 6579.49723810, -1926.96785714 6592.16688095, -1993.59732143 6602.53295238, -2063.30714286 6610.59545238, -2136.09732143 6616.35438095, -2211.96785714 6619.80973810, -2290.91875 6620.96152381, -2372.95 6619.80973810, -2451.75357143 6616.35438095, -2527.87857143 6610.59545238, -2601.325 6602.53295238, -2672.09285714 6592.16688095, -2740.18214286 6579.49723810, -2805.59285714 6564.52402381, -2868.325 6547.24723810, -2928.37857143 6527.98826375, -2985.80714286 6507.06858819, -3040.66428571 6484.48821143, -3092.95 6460.24713346, -3142.66428571 6434.34535429, -3189.80714286 6406.78287391, -3234.37857143 6377.55969232, -3276.37857143 6346.67580952, -3315.80714286 6314.30527381, -3352.71781137 6280.62223810, -3387.16420724 6245.62670238, -3419.14633048 6209.31866667, -3448.66418108 6171.69813095, -3475.71775905 6132.76509524, -3500.30706438 6092.51955952, -3522.43209708 6050.96152381, -3542.09285714 6008.41241667, -3559.36964286 5965.19366667, -3574.34285714 5921.30527381, -3587.0125 5876.74723810, -3597.37857143 5831.51955952, -3605.44107143 5785.62223810, -3611.2 Z M 5601.17580952, -3161.73571429 5646.01509524, -3169.28928571 5691.81866667, -3171.80714286 5713.99723810, -3171.11071429 5735.96152381, -3169.02142857 5757.71152381, -3165.53928571 5779.24723810, -3160.66428571 5800.56866667, -3154.39642857 5821.67580952, -3146.73571429 5842.56866667, -3137.68214286 5863.24723810, -3127.23571429 5883.51063095, -3115.27589286 5903.15795238, -3101.68214286 5922.18920238, -3086.45446429 5940.60438095, -3069.59285714 5958.40348810, -3051.09732143 5975.58652381, -3030.96785714 5992.15348810, -3009.20446429 6008.10438095, -2985.80714286 6023.34545238, -2960.73571429 6037.78295238, -2933.95 6051.41688095, -2905.45 6064.24723810, -2875.23571429 6087.49723810, -2809.66428571 6107.53295238, -2737.23571429 6116.17134524, -2698.35625 6123.65795238, -2657.575 6129.99277381, -2614.89196429 6135.17580952, -2570.30714286 6142.08652381, -2475.43214286 6144.39009524, -2372.95 6142.08652381, -2264.36071429 6135.17580952, -2164.87857143 6129.99277381, -2118.55267857 6123.65795238, -2074.50357143 6116.17134524, -2032.73125 6107.53295238, -1993.23571429 6087.49723810, -1920.325 6076.27402381, -1886.72232143 6064.24723810, -1855.02142857 6051.41688095, -1825.22232143 6037.78295238, -1797.325 6023.34545238, -1771.32946429 6008.10438095, -1747.23571429 5992.15348810, -1724.90982143 5975.58652381, -1704.21785714 5958.40348810, -1685.15982143 5940.60438095, -1667.73571429 5922.18920238, -1651.94553571 5903.15795238, -1637.78928571 5883.51063095, -1625.26696429 5863.24723810, -1614.37857143 5821.67580952, -1596.75357143 5779.24723810, -1584.16428571 5735.96152381, -1576.61071429 5691.81866667, -1574.09285714 5646.01509524, -1576.61071429 5601.17580952, -1584.16428571 5557.30080952, -1596.75357143 5514.39009524, -1614.37857143 5493.49723810, -1625.26696429 5473.24723810, -1637.78928571 5453.64009524, -1651.94553571 5434.67580952, -1667.73571429 5416.35438095, -1685.15982143 5398.67580952, -1704.21785714 5381.64009524, -1724.90982143 5365.24723810, -1747.23571429 5349.59098810, -1771.32946429 5334.76509524, -1797.325 5320.76955952, -1825.22232143 5307.60438095, -1855.02142857 5295.26955952, -1886.72232143 5283.76509524, -1920.325 5263.24723810, -1993.23571429 5254.40795238, -2032.73125 5246.74723810, -2074.50357143 5240.26509524, -2118.55267857 5234.96152381, -2164.87857143 5230.83652381, -2213.48125 5227.89009524, -2264.36071429 5225.53295238, -2372.95 5227.89009524, -2481.53928571 5230.83652381, -2532.41875 5234.96152381, -2581.02142857 5240.26509524, -2627.34732143 5246.74723810, -2671.39642857 5254.40795238, -2713.16875 5263.24723810, -2752.66428571 5283.76509524, -2825.575 5295.26955952, -2859.17767857 5307.60438095, -2890.87857143 5320.76955952, -2920.67767857 5334.76509524, -2948.575 5349.59098810, -2974.57053571 5365.24723810, -2998.66428571 5381.64009524, -3020.99017857 5398.67580952, -3041.68214286 5416.35438095, -3060.74017857 5434.67580952, -3078.16428571 5453.64009524, -3093.95446429 5473.24723810, -3108.11071429 5493.49723810, -3120.63303571 5514.39009524, -3131.52142857 5557.30080952, -3149.14642857 Z"  />
<path d="M 9021.00170238, -2877.92767857 8984.96152381, -2878.66428571 8943.97938095, -2877.75357143 8903.31866667, -2875.02142857 8862.97938095, -2870.46785714 8822.96152381, -2864.09285714 8783.47938095, -2855.62857143 8744.74723810, -2844.80714286 8706.76509524, -2831.62857143 8669.53295238, -2816.09285714 8633.31866667, -2798.03928571 8598.39009524, -2777.30714286 8564.74723810, -2753.89642857 8532.39009524, -2727.80714286 8501.64009524, -2698.87857143 8472.81866667, -2666.95 8445.92580952, -2632.02142857 8420.96152381, -2594.09285714 8399.06420238, -2626.61071429 8375.37223810, -2657.30714286 8349.88563095, -2686.18214286 8322.60438095, -2713.23571429 8293.52848810, -2738.46785714 8262.65795238, -2761.87857143 8229.99277381, -2783.46785714 8195.53295238, -2803.23571429 8159.54634524, -2820.91428571 8122.30080952, -2836.23571429 8083.79634524, -2849.2 8044.03295238, -2859.80714286 8003.01063095, -2868.05714286 7960.72938095, -2873.95 7917.18920238, -2877.48571429 7872.39009524, -2878.66428571 7837.03295238, -2877.82053571 7802.10438095, -2875.28928571 7767.60438095, -2871.07053571 7733.53295238, -2865.16428571 7699.89009524, -2857.57053571 7666.67580952, -2848.28928571 7633.89009524, -2837.32053571 7601.53295238, -2824.66428571 7570.00616667, -2809.94553571 7539.71152381, -2792.78928571 7510.64902381, -2773.19553571 7482.81866667, -2751.16428571 7456.22045238, -2726.69553571 7430.85438095, -2699.78928571 7406.72045238, -2670.44553571 7383.81866667, -2638.66428571 7383.81866667, -2834.09285714 6948.39009524, -2834.09285714 6948.39009524, -1172.95 7395.81866667, -1172.95 7395.81866667, -2083.23571429 7397.58652381, -2128.87857143 7402.89009524, -2171.52142857 7411.72938095, -2211.16428571 7424.10438095, -2247.80714286 7439.42580952, -2281.50357143 7457.10438095, -2312.30714286 7477.14009524, -2340.21785714 7499.53295238, -2365.23571429 7524.17580952, -2387.30714286 7550.96152381, -2406.37857143 7579.89009524, -2422.45 7610.96152381, -2435.52142857 7643.58652381, -2445.64642857 7677.17580952, -2452.87857143 7711.72938095, -2457.21785714 7747.24723810, -2458.66428571 7784.73384524, -2457.17767857 7820.05080952, -2452.71785714 7853.19813095, -2445.28482143 7884.17580952, -2434.87857143 7912.98384524, -2421.49910714 7939.62223810, -2405.14642857 7964.09098810, -2385.82053571 7986.39009524, -2363.52142857 8006.27848810, -2338.38303571 8023.51509524, -2310.53928571 8038.09991667, -2279.99017857 8050.03295238, -2246.73571429 8059.31420238, -2210.77589286 8065.94366667, -2172.11071429 8069.92134524, -2130.74017857 8071.24723810, -2086.66428571 8071.24723810, -1172.95 8518.67580952, -1172.95 8518.67580952, -2083.23571429 8520.44366667, -2128.87857143 8525.74723810, -2171.52142857 8534.58652381, -2211.16428571 8546.96152381, -2247.80714286 8562.28295238, -2281.50357143 8579.96152381, -2312.30714286 8599.99723810, -2340.21785714 8622.39009524, -2365.23571429 8647.03295238, -2387.30714286 8673.81866667, -2406.37857143 8702.74723810, -2422.45 8733.81866667, -2435.52142857 8766.44366667, -2445.64642857 8800.03295238, -2452.87857143 8834.58652381, -2457.21785714 8870.10438095, -2458.66428571 8907.20259524, -2457.17767857 8942.21152381, -2452.71785714 8975.13116667, -2445.28482143 9005.96152381, -2434.87857143 9034.70259524, -2421.49910714 9061.35438095, -2405.14642857 9085.91688095, -2385.82053571 9108.39009524, -2363.52142857 9128.47938095, -2338.38303571 9145.89009524, -2310.53928571 9160.62223810, -2279.99017857 9172.67580952, -2246.73571429 9182.05080952, -2210.77589286 9188.74723810, -2172.11071429 9192.76509524, -2130.74017857 9194.10438095, -2086.66428571 9194.10438095, -1172.95 9639.81866667, -1172.95 9639.81866667, -2230.66428571 9639.08201375, -2266.28928571 9636.87215962, -2301.16428571 9633.18910429, -2335.28928571 9628.03284775, -2368.66428571 9621.40339000, -2401.28928571 9613.30073105, -2433.16428571 9603.72487089, -2464.28928571 9592.67580952, -2494.66428571 9580.27402381, -2524.11517857 9566.64009524, -2552.46785714 9551.77402381, -2579.72232143 9535.67580952, -2605.87857143 9518.34545238, -2630.93660714 9499.78295238, -2654.89642857 9479.98830952, -2677.75803571 9458.96152381, -2699.52142857 9436.78290660, -2720.14642857 9413.53287391, -2739.59285714 9389.21142572, -2757.86071429 9363.81856203, -2774.95 9337.35428286, -2790.86071429 9309.81858819, -2805.59285714 9281.21147803, -2819.14642857 9251.53295238, -2831.52142857 9220.93027381, -2842.57053571 9189.55080952, -2852.14642857 9157.39455952, -2860.24910714 9124.46152381, -2866.87857143 9090.75170238, -2872.03482143 9056.26509524, -2875.71785714 Z"  />
</svg>