<?xml version="1.0" encoding="utf-8"?>
<!-- Generator: Grasshopper 1.0.0, Redback Plugin. SVG Version: 6.00 Build 0) Made by Andrew Butler at Cox Architecture -->
<!DOCTYPE svg PUBLIC "-//W3C//DTD SVG 1.1//EN" "http://www.w3.org/Graphics/SVG/1.1/DTD/svg11.dtd">
<svg version="1.1" xmlns="http://www.w3.org/2000/svg" xmlns:xlink="http://www.w3.org/1999/xlink" x="0px" y="0px"
width="260.953523810mm" height="11.2428571429mm" viewBox="0 0 260.953523810 11.2428571429" xml:space="preserve">
<style type="text/css">
polyline{
fill:none;
stroke:black;
stroke-width:0.2mm;
}
polygon{
fill:white;
}
</style>
<polygon points="0.0, 11.2428571429 260.953523810, 11.2428571429 260.953523810, -0.0 0.0, -0.0" />
<polyline points="4.50247619048, 9.24285714286 54.5024761905, 9.24285714286 54.5024761905, 6.84285714286 104.502476190, 6.84285714286 104.502476190, 9.24285714286 254.502476190, 9.24285714286" />
<path d="M 2.99180803571, 2.00115178571 2.94457142857, 2.0 2.89649107143, 2.00107142857 2.84910714286, 2.00428571429 2.80241964286, 2.00964285714 2.75642857143, 2.01714285714 2.71113392857, 2.02678571429 2.66653571429, 2.03857142857 2.62263392857, 2.0525 2.57942857143, 2.06857142857 2.53724107143, 2.08698665292 2.49639285714, 2.10794650705 2.45688392857, 2.13145099095 2.41871428571, 2.15750010463 2.38188392857, 2.18609384809 2.34639285714, 2.21723222133 2.31224107143, 2.25091522435 2.27942857143, 2.28714285714 2.24811607143, 2.32598214286 2.21846428571, 2.3675 2.19047321429, 2.41169642857 2.16414285714, 2.45857142857 2.13947321429, 2.508125 2.11646428571, 2.56035714286 2.09511607143, 2.61526785714 2.07542857143, 2.67285714286 2.05775, 2.73332589286 2.04242857143, 2.796875 2.02946428571, 2.86350446429 2.01885714286, 2.93321428571 2.01060714286, 3.00600446429 2.00471428571, 3.081875 2.00117857143, 3.16082589286 2.0, 3.24285714286 2.00117857143, 3.32488839286 2.00471428571, 3.40383928571 2.01060714286, 3.47970982143 2.01885714286, 3.5525 2.02946428571, 3.62220982143 2.04242857143, 3.68883928571 2.05775, 3.75238839286 2.07542857143, 3.81285714286 2.09511607143, 3.87043303571 2.11646428571, 3.92530357143 2.13947321429, 3.97746875 2.16414285714, 4.02692857143 2.19047321429, 4.07368303571 2.21846428571, 4.11773214286 2.24811607143, 4.15907589286 2.27942857143, 4.19771428571 2.31224107143, 4.23375446429 2.34639285714, 4.26730357143 2.38188392857, 4.29836160714 2.41871428571, 4.32692857143 2.45688392857, 4.35300446429 2.49639285714, 4.37658928571 2.53724107143, 4.39768303571 2.57942857143, 4.41628571429 2.62263392857, 4.43255803571 2.66653571429, 4.44666071429 2.71113392857, 4.45859375 2.75642857143, 4.46835714286 2.80241964286, 4.47595089286 2.84910714286, 4.481375 2.89649107143, 4.48462946429 2.94457142857, 4.48571428571 2.99180803571, 4.48462946429 3.038375, 4.481375 3.08427232143, 4.47595089286 3.1295, 4.46835714286 3.17405803571, 4.45859375 3.21794642857, 4.44666071429 3.26116517857, 4.43255803571 3.30371428571, 4.41628571429 3.34527232143, 4.39768303571 3.38551785714, 4.37658928571 3.42445089286, 4.35300446429 3.46207142857, 4.32692857143 3.49837946429, 4.29836160714 3.533375, 4.26730357143 3.56705803571, 4.23375446429 3.59942857143, 4.19771428571 3.63031245422, 4.15907589286 3.65953563581, 4.11773214286 3.68709811619, 4.07368303571 3.71299989537, 4.02692857143 3.73724097334, 3.97746875 3.75982135010, 3.92530357143 3.78074102565, 3.87043303571 3.8, 3.81285714286 3.81727678571, 3.75238839286 3.83225, 3.68883928571 3.84491964286, 3.62220982143 3.85528571429, 3.5525 3.86334821429, 3.47970982143 3.86910714286, 3.40383928571 3.8725625, 3.32488839286 3.87371428571, 3.24285714286 3.8725625, 3.16405357143 3.86910714286, 3.08792857143 3.86334821429, 3.01448214286 3.85528571429, 2.94371428571 3.84491964286, 2.875625 3.83225, 2.81021428571 3.81727678571, 2.74748214286 3.8, 2.68742857143 3.78074102565, 2.63 3.75982135010, 2.57514285714 3.73724097334, 2.52285714286 3.71299989537, 2.47314285714 3.68709811619, 2.426 3.65953563581, 2.38142857143 3.63031245422, 2.33942857143 3.59942857143, 2.3 3.56705803571, 2.26308933149 3.533375, 2.22864293562 3.49837946429, 2.19666081238 3.46207142857, 2.16714296177 3.42445089286, 2.14008938381 3.38551785714, 2.11550007847 3.34527232143, 2.09337504578 3.30371428571, 2.07371428571 3.26116517857, 2.0564375 3.21794642857, 2.04146428571 3.17405803571, 2.02879464286 3.1295, 2.01842857143 3.08427232143, 2.01036607143 3.038375, 2.00460714286 Z M 2.89876785714, 2.44651785714 2.92154910714, 2.44462946429 2.94457142857, 2.444 2.96675, 2.44469642857 2.98871428571, 2.44678571429 3.01046428571, 2.45026785714 3.032, 2.45514285714 3.05332142857, 2.46141071429 3.07442857143, 2.46907142857 3.09532142857, 2.478125 3.116, 2.48857142857 3.13626339286, 2.50053125 3.15591071429, 2.514125 3.17494196429, 2.52935267857 3.19335714286, 2.54621428571 3.21115625, 2.56470982143 3.22833928571, 2.58483928571 3.24490625, 2.60660267857 3.26085714286, 2.63 3.27609821429, 2.65507142857 3.29053571429, 2.68185714286 3.30416964286, 2.71035714286 3.317, 2.74057142857 3.32902678571, 2.7725 3.34025, 2.80614285714 3.35066964286, 2.8415 3.36028571429, 2.87857142857 3.36892410714, 2.91745089286 3.37641071429, 2.95823214286 3.38274553571, 3.00091517857 3.38792857143, 3.0455 3.39195982143, 3.09198660714 3.39483928571, 3.140375 3.39656696429, 3.19066517857 3.39714285714, 3.24285714286 3.39656696429, 3.29829017857 3.39483928571, 3.35144642857 3.39195982143, 3.40232589286 3.38792857143, 3.45092857143 3.38274553571, 3.49725446429 3.37641071429, 3.54130357143 3.36892410714, 3.58307589286 3.36028571429, 3.62257142857 3.35066964286, 3.65997767857 3.34025, 3.69548214286 3.32902678571, 3.72908482143 3.317, 3.76078571429 3.30416964286, 3.79058482143 3.29053571429, 3.81848214286 3.27609821429, 3.84447767857 3.26085714286, 3.86857142857 3.24490625, 3.89089732143 3.22833928571, 3.91158928571 3.21115625, 3.93064732143 3.19335714286, 3.94807142857 3.17494196429, 3.96386160714 3.15591071429, 3.97801785714 3.13626339286, 3.99054017857 3.116, 4.00142857143 3.09532142857, 4.01087053571 3.07442857143, 4.01905357143 3.05332142857, 4.02597767857 3.032, 4.03164285714 3.01046428571, 4.03604910714 2.98871428571, 4.03919642857 2.96675, 4.04108482143 2.94457142857, 4.04171428571 2.92154910714, 4.04108482143 2.89876785714, 4.03919642857 2.87622767857, 4.03604910714 2.85392857143, 4.03164285714 2.83187053571, 4.02597767857 2.81005357143, 4.01905357143 2.78847767857, 4.01087053571 2.76714285714, 4.00142857143 2.74625, 3.99054017857 2.726, 3.97801785714 2.70639285714, 3.96386160714 2.68742857143, 3.94807142857 2.66910714286, 3.93064732143 2.65142857143, 3.91158928571 2.63439285714, 3.89089732143 2.618, 3.86857142857 2.60234375, 3.84447767857 2.58751785714, 3.81848214286 2.57352232143, 3.79058482143 2.56035714286, 3.76078571429 2.54802232143, 3.72908482143 2.53651785714, 3.69548214286 2.52584375, 3.65997767857 2.516, 3.62257142857 2.50716071429, 3.58307589286 2.4995, 3.54130357143 2.49301785714, 3.49725446429 2.48771428571, 3.45092857143 2.48358928571, 3.40232589286 2.48064285714, 3.35144642857 2.478875, 3.29829017857 2.47828571429, 3.24285714286 2.478875, 3.18742410714 2.48064285714, 3.13426785714 2.48358928571, 3.08338839286 2.48771428571, 3.03478571429 2.49301785714, 2.98845982143 2.4995, 2.94441071429 2.50716071429, 2.90263839286 2.516, 2.86314285714 2.52584375, 2.82573660714 2.53651785714, 2.79023214286 2.54802232143, 2.75662946429 2.56035714286, 2.72492857143 2.57352232143, 2.69512946429 2.58751785714, 2.66723214286 2.60234375, 2.64123660714 2.618, 2.61714285714 2.63439285714, 2.59481696429 2.65142857143, 2.574125 2.66910714286, 2.55506696429 2.68742857143, 2.53764285714 2.70639285714, 2.52185267857 2.726, 2.50769642857 2.74625, 2.49517410714 2.76714285714, 2.48428571429 2.78847767857, 2.47484375 2.81005357143, 2.46666071429 2.83187053571, 2.45973660714 2.85392857143, 2.45407142857 2.87622767857, 2.44966517857 Z"  />
<path d="M 6.27375446429, 2.73787946429 6.23771428571, 2.73714285714 6.19673214286, 2.73805357143 6.15607142857, 2.74078571429 6.11573214286, 2.74533928571 6.07571428571, 2.75171428571 6.03623214286, 2.76017857143 5.9975, 2.771 5.95951785714, 2.78417857143 5.92228571429, 2.79971428571 5.88607142857, 2.81776785714 5.85114285714, 2.8385 5.8175, 2.86191071429 5.78514285714, 2.888 5.75439285714, 2.91692857143 5.72557142857, 2.94885714286 5.69867857143, 2.98378571429 5.67371428571, 3.02171428571 5.65181696429, 2.98919642857 5.628125, 2.9585 5.60263839286, 2.929625 5.57535714286, 2.90257142857 5.54628125, 2.87733928571 5.51541071429, 2.85392857143 5.48274553571, 2.83233928571 5.44828571429, 2.81257142857 5.41229910714, 2.79489285714 5.37505357143, 2.77957142857 5.33654910714, 2.76660714286 5.29678571429, 2.756 5.25576339286, 2.74775 5.21348214286, 2.74185714286 5.16994196429, 2.73832142857 5.12514285714, 2.73714285714 5.08978571429, 2.73798660714 5.05485714286, 2.74051785714 5.02035714286, 2.74473660714 4.98628571429, 2.75064285714 4.95264285714, 2.75823660714 4.91942857143, 2.76751785714 4.88664285714, 2.77848660714 4.85428571429, 2.79114285714 4.82275892857, 2.80586160714 4.79246428571, 2.82301785714 4.76340178571, 2.84261160714 4.73557142857, 2.86464285714 4.70897321429, 2.88911160714 4.68360714286, 2.91601785714 4.65947321429, 2.94536160714 4.63657142857, 2.97714285714 4.63657142857, 2.78171428571 4.20114285714, 2.78171428571 4.20114285714, 4.44285714286 4.64857142857, 4.44285714286 4.64857142857, 3.53257142857 4.65033928571, 3.48692857143 4.65564285714, 3.44428571429 4.65962053571, 3.42408928571 4.66448214286, 3.40464285714 4.67022767857, 3.38594642857 4.67685714286, 3.368 4.69217857143, 3.33430357143 4.70985714286, 3.3035 4.72989285714, 3.27558928571 4.75228571429, 3.25057142857 4.77692857143, 3.2285 4.80371428571, 3.20942857143 4.83264285714, 3.19335714286 4.86371428571, 3.18028571429 4.89633928571, 3.17016071429 4.92992857143, 3.16292857143 4.96448214286, 3.15858928571 5.0, 3.15714285714 5.03748660714, 3.15862946429 5.07280357143, 3.16308928571 5.10595089286, 3.17052232143 5.13692857143, 3.18092857143 5.16573660714, 3.19430803571 5.192375, 3.21066071429 5.21684375, 3.22998660714 5.23914285714, 3.25228571429 5.25903125, 3.27742410714 5.27626785714, 3.30526785714 5.29085267857, 3.33581696429 5.30278571429, 3.36907142857 5.31206696429, 3.40503125 5.31869642857, 3.44369642857 5.32267410714, 3.48506696429 5.324, 3.52914285714 5.324, 4.44285714286 5.77142857143, 4.44285714286 5.77142857143, 3.53257142857 5.77319642857, 3.48692857143 5.7785, 3.44428571429 5.78247767857, 3.42408928571 5.78733928571, 3.40464285714 5.79308482143, 3.38594642857 5.79971428571, 3.368 5.81503571429, 3.33430357143 5.83271428571, 3.3035 5.85275, 3.27558928571 5.87514285714, 3.25057142857 5.89978571429, 3.2285 5.92657142857, 3.20942857143 5.9555, 3.19335714286 5.98657142857, 3.18028571429 6.01919642857, 3.17016071429 6.05278571429, 3.16292857143 6.08733928571, 3.15858928571 6.12285714286, 3.15714285714 6.15995535714, 3.15862946429 6.19496428571, 3.16308928571 6.22788392857, 3.17052232143 6.25871428571, 3.18092857143 6.28745535714, 3.19430803571 6.31410714286, 3.21066071429 6.33866964286, 3.22998660714 6.36114285714, 3.25228571429 6.38123214286, 3.27742410714 6.39864285714, 3.30526785714 6.413375, 3.33581696429 6.42542857143, 3.36907142857 6.43480357143, 3.40503125 6.4415, 3.44369642857 6.44551785714, 3.48506696429 6.44685714286, 3.52914285714 6.44685714286, 4.44285714286 6.89257142857, 4.44285714286 6.89257142857, 3.38514285714 6.89183477565, 3.34951785714 6.88962492153, 3.31464285714 6.88594186619, 3.28051785714 6.88078560965, 3.24714285714 6.87415615191, 3.21451785714 6.86605349295, 3.18264285714 6.85647763280, 3.15151785714 6.84542857143, 3.12114285714 6.83302678571, 3.09169196429 6.81939285714, 3.06333928571 6.80452678571, 3.03608482143 6.78842857143, 3.00992857143 6.77109821429, 2.98487053571 6.75253571429, 2.96091071429 6.73274107143, 2.93804910714 6.71171428571, 2.91628571429 6.68953566851, 2.89566071429 6.66628563581, 2.87621428571 6.64196418762, 2.85794642857 6.61657132394, 2.84085714286 6.59010704476, 2.82494642857 6.56257135010, 2.81021428571 6.53396423994, 2.79666071429 6.50428571429, 2.78428571429 6.47368303571, 2.77323660714 6.44230357143, 2.76366071429 6.41014732143, 2.75555803571 6.37721428571, 2.74892857143 6.34350446429, 2.74377232143 6.30901785714, 2.74008928571 Z"  />
<path d="M 50.7626666667, 2.62742857143 50.7626666667, 4.004 50.1935238095, 4.004 50.1935238095, 4.44285714286 51.7672380952, 4.44285714286 51.7672380952, 4.004 51.2238095238, 4.004 51.2238095238, 2.00514285714 50.1660952381, 2.37885714286 50.1660952381, 2.84 Z"  />
<path d="M 52.9956175595, 2.00115178571 52.9483809524, 2.0 52.9003005952, 2.00107142857 52.8529166667, 2.00428571429 52.8062291667, 2.00964285714 52.7602380952, 2.01714285714 52.7149434524, 2.02678571429 52.6703452381, 2.03857142857 52.6264434524, 2.0525 52.5832380952, 2.06857142857 52.5410505952, 2.08698665292 52.5002023810, 2.10794650705 52.4606934524, 2.13145099095 52.4225238095, 2.15750010463 52.3856934524, 2.18609384809 52.3502023810, 2.21723222133 52.3160505952, 2.25091522435 52.2832380952, 2.28714285714 52.2519255952, 2.32598214286 52.2222738095, 2.3675 52.1942827381, 2.41169642857 52.1679523810, 2.45857142857 52.1432827381, 2.508125 52.1202738095, 2.56035714286 52.0989255952, 2.61526785714 52.0792380952, 2.67285714286 52.0615595238, 2.73332589286 52.0462380952, 2.796875 52.0332738095, 2.86350446429 52.0226666667, 2.93321428571 52.0144166667, 3.00600446429 52.0085238095, 3.081875 52.0049880952, 3.16082589286 52.0038095238, 3.24285714286 52.0049880952, 3.32488839286 52.0085238095, 3.40383928571 52.0144166667, 3.47970982143 52.0226666667, 3.5525 52.0332738095, 3.62220982143 52.0462380952, 3.68883928571 52.0615595238, 3.75238839286 52.0792380952, 3.81285714286 52.0989255952, 3.87043303571 52.1202738095, 3.92530357143 52.1432827381, 3.97746875 52.1679523810, 4.02692857143 52.1942827381, 4.07368303571 52.2222738095, 4.11773214286 52.2519255952, 4.15907589286 52.2832380952, 4.19771428571 52.3160505952, 4.23375446429 52.3502023810, 4.26730357143 52.3856934524, 4.29836160714 52.4225238095, 4.32692857143 52.4606934524, 4.35300446429 52.5002023810, 4.37658928571 52.5410505952, 4.39768303571 52.5832380952, 4.41628571429 52.6264434524, 4.43255803571 52.6703452381, 4.44666071429 52.7149434524, 4.45859375 52.7602380952, 4.46835714286 52.8062291667, 4.47595089286 52.8529166667, 4.481375 52.9003005952, 4.48462946429 52.9483809524, 4.48571428571 52.9956175595, 4.48462946429 53.0421845238, 4.481375 53.0880818452, 4.47595089286 53.1333095238, 4.46835714286 53.1778675595, 4.45859375 53.2217559524, 4.44666071429 53.2649747024, 4.43255803571 53.3075238095, 4.41628571429 53.3490818452, 4.39768303571 53.3893273810, 4.37658928571 53.4282604167, 4.35300446429 53.4658809524, 4.32692857143 53.5021889881, 4.29836160714 53.5371845238, 4.26730357143 53.5708675595, 4.23375446429 53.6032380952, 4.19771428571 53.6341219780, 4.15907589286 53.6633451596, 4.11773214286 53.6909076400, 4.07368303571 53.7168094192, 4.02692857143 53.7410504971, 3.97746875 53.7636308739, 3.92530357143 53.7845505495, 3.87043303571 53.8038095238, 3.81285714286 53.8210863095, 3.75238839286 53.8360595238, 3.68883928571 53.8487291667, 3.62220982143 53.8590952381, 3.5525 53.8671577381, 3.47970982143 53.8729166667, 3.40383928571 53.8763720238, 3.32488839286 53.8775238095, 3.24285714286 53.8763720238, 3.16405357143 53.8729166667, 3.08792857143 53.8671577381, 3.01448214286 53.8590952381, 2.94371428571 53.8487291667, 2.875625 53.8360595238, 2.81021428571 53.8210863095, 2.74748214286 53.8038095238, 2.68742857143 53.7845505495, 2.63 53.7636308739, 2.57514285714 53.7410504971, 2.52285714286 53.7168094192, 2.47314285714 53.6909076400, 2.426 53.6633451596, 2.38142857143 53.6341219780, 2.33942857143 53.6032380952, 2.3 53.5708675595, 2.26308933149 53.5371845238, 2.22864293562 53.5021889881, 2.19666081238 53.4658809524, 2.16714296177 53.4282604167, 2.14008938381 53.3893273810, 2.11550007847 53.3490818452, 2.09337504578 53.3075238095, 2.07371428571 53.2649747024, 2.0564375 53.2217559524, 2.04146428571 53.1778675595, 2.02879464286 53.1333095238, 2.01842857143 53.0880818452, 2.01036607143 53.0421845238, 2.00460714286 Z M 52.9025773810, 2.44651785714 52.9253586310, 2.44462946429 52.9483809524, 2.444 52.9705595238, 2.44469642857 52.9925238095, 2.44678571429 53.0142738095, 2.45026785714 53.0358095238, 2.45514285714 53.0571309524, 2.46141071429 53.0782380952, 2.46907142857 53.0991309524, 2.478125 53.1198095238, 2.48857142857 53.1400729167, 2.50053125 53.1597202381, 2.514125 53.1787514881, 2.52935267857 53.1971666667, 2.54621428571 53.2149657738, 2.56470982143 53.2321488095, 2.58483928571 53.2487157738, 2.60660267857 53.2646666667, 2.63 53.2799077381, 2.65507142857 53.2943452381, 2.68185714286 53.3079791667, 2.71035714286 53.3208095238, 2.74057142857 53.3328363095, 2.7725 53.3440595238, 2.80614285714 53.3544791667, 2.8415 53.3640952381, 2.87857142857 53.3727336310, 2.91745089286 53.3802202381, 2.95823214286 53.3865550595, 3.00091517857 53.3917380952, 3.0455 53.3957693452, 3.09198660714 53.3986488095, 3.140375 53.4003764881, 3.19066517857 53.4009523810, 3.24285714286 53.4003764881, 3.29829017857 53.3986488095, 3.35144642857 53.3957693452, 3.40232589286 53.3917380952, 3.45092857143 53.3865550595, 3.49725446429 53.3802202381, 3.54130357143 53.3727336310, 3.58307589286 53.3640952381, 3.62257142857 53.3544791667, 3.65997767857 53.3440595238, 3.69548214286 53.3328363095, 3.72908482143 53.3208095238, 3.76078571429 53.3079791667, 3.79058482143 53.2943452381, 3.81848214286 53.2799077381, 3.84447767857 53.2646666667, 3.86857142857 53.2487157738, 3.89089732143 53.2321488095, 3.91158928571 53.2149657738, 3.93064732143 53.1971666667, 3.94807142857 53.1787514881, 3.96386160714 53.1597202381, 3.97801785714 53.1400729167, 3.99054017857 53.1198095238, 4.00142857143 53.0991309524, 4.01087053571 53.0782380952, 4.01905357143 53.0571309524, 4.02597767857 53.0358095238, 4.03164285714 53.0142738095, 4.03604910714 52.9925238095, 4.03919642857 52.9705595238, 4.04108482143 52.9483809524, 4.04171428571 52.9253586310, 4.04108482143 52.9025773810, 4.03919642857 52.8800372024, 4.03604910714 52.8577380952, 4.03164285714 52.8356800595, 4.02597767857 52.8138630952, 4.01905357143 52.7922872024, 4.01087053571 52.7709523810, 4.00142857143 52.7500595238, 3.99054017857 52.7298095238, 3.97801785714 52.7102023810, 3.96386160714 52.6912380952, 3.94807142857 52.6729166667, 3.93064732143 52.6552380952, 3.91158928571 52.6382023810, 3.89089732143 52.6218095238, 3.86857142857 52.6061532738, 3.84447767857 52.5913273810, 3.81848214286 52.5773318452, 3.79058482143 52.5641666667, 3.76078571429 52.5518318452, 3.72908482143 52.5403273810, 3.69548214286 52.5296532738, 3.65997767857 52.5198095238, 3.62257142857 52.5109702381, 3.58307589286 52.5033095238, 3.54130357143 52.4968273810, 3.49725446429 52.4915238095, 3.45092857143 52.4873988095, 3.40232589286 52.4844523810, 3.35144642857 52.4826845238, 3.29829017857 52.4820952381, 3.24285714286 52.4826845238, 3.18742410714 52.4844523810, 3.13426785714 52.4873988095, 3.08338839286 52.4915238095, 3.03478571429 52.4968273810, 2.98845982143 52.5033095238, 2.94441071429 52.5109702381, 2.90263839286 52.5198095238, 2.86314285714 52.5296532738, 2.82573660714 52.5403273810, 2.79023214286 52.5518318452, 2.75662946429 52.5641666667, 2.72492857143 52.5773318452, 2.69512946429 52.5913273810, 2.66723214286 52.6061532738, 2.64123660714 52.6218095238, 2.61714285714 52.6382023810, 2.59481696429 52.6552380952, 2.574125 52.6729166667, 2.55506696429 52.6912380952, 2.53764285714 52.7102023810, 2.52185267857 52.7298095238, 2.50769642857 52.7500595238, 2.49517410714 52.7709523810, 2.48428571429 52.7922872024, 2.47484375 52.8138630952, 2.46666071429 52.8356800595, 2.45973660714 52.8577380952, 2.45407142857 52.8800372024, 2.44966517857 Z"  />
<path d="M 55.0527604167, 2.00115178571 55.0055238095, 2.0 54.9574434524, 2.00107142857 54.9100595238, 2.00428571429 54.8633720238, 2.00964285714 54.8173809524, 2.01714285714 54.7720863095, 2.02678571429 54.7274880952, 2.03857142857 54.6835863095, 2.0525 54.6403809524, 2.06857142857 54.5981934524, 2.08698665292 54.5573452381, 2.10794650705 54.5178363095, 2.13145099095 54.4796666667, 2.15750010463 54.4428363095, 2.18609384809 54.4073452381, 2.21723222133 54.3731934524, 2.25091522435 54.3403809524, 2.28714285714 54.3090684524, 2.32598214286 54.2794166667, 2.3675 54.2514255952, 2.41169642857 54.2250952381, 2.45857142857 54.2004255952, 2.508125 54.1774166667, 2.56035714286 54.1560684524, 2.61526785714 54.1363809524, 2.67285714286 54.1187023810, 2.73332589286 54.1033809524, 2.796875 54.0904166667, 2.86350446429 54.0798095238, 2.93321428571 54.0715595238, 3.00600446429 54.0656666667, 3.081875 54.0621309524, 3.16082589286 54.0609523810, 3.24285714286 54.0621309524, 3.32488839286 54.0656666667, 3.40383928571 54.0715595238, 3.47970982143 54.0798095238, 3.5525 54.0904166667, 3.62220982143 54.1033809524, 3.68883928571 54.1187023810, 3.75238839286 54.1363809524, 3.81285714286 54.1560684524, 3.87043303571 54.1774166667, 3.92530357143 54.2004255952, 3.97746875 54.2250952381, 4.02692857143 54.2514255952, 4.07368303571 54.2794166667, 4.11773214286 54.3090684524, 4.15907589286 54.3403809524, 4.19771428571 54.3731934524, 4.23375446429 54.4073452381, 4.26730357143 54.4428363095, 4.29836160714 54.4796666667, 4.32692857143 54.5178363095, 4.35300446429 54.5573452381, 4.37658928571 54.5981934524, 4.39768303571 54.6403809524, 4.41628571429 54.6835863095, 4.43255803571 54.7274880952, 4.44666071429 54.7720863095, 4.45859375 54.8173809524, 4.46835714286 54.8633720238, 4.47595089286 54.9100595238, 4.481375 54.9574434524, 4.48462946429 55.0055238095, 4.48571428571 55.0527604167, 4.48462946429 55.0993273810, 4.481375 55.1452247024, 4.47595089286 55.1904523810, 4.46835714286 55.2350104167, 4.45859375 55.2788988095, 4.44666071429 55.3221175595, 4.43255803571 55.3646666667, 4.41628571429 55.4062247024, 4.39768303571 55.4464702381, 4.37658928571 55.4854032738, 4.35300446429 55.5230238095, 4.32692857143 55.5593318452, 4.29836160714 55.5943273810, 4.26730357143 55.6280104167, 4.23375446429 55.6603809524, 4.19771428571 55.6912648352, 4.15907589286 55.7204880168, 4.11773214286 55.7480504971, 4.07368303571 55.7739522763, 4.02692857143 55.7981933543, 3.97746875 55.8207737311, 3.92530357143 55.8416934066, 3.87043303571 55.8609523810, 3.81285714286 55.8782291667, 3.75238839286 55.8932023810, 3.68883928571 55.9058720238, 3.62220982143 55.9162380952, 3.5525 55.9243005952, 3.47970982143 55.9300595238, 3.40383928571 55.9335148810, 3.32488839286 55.9346666667, 3.24285714286 55.9335148810, 3.16405357143 55.9300595238, 3.08792857143 55.9243005952, 3.01448214286 55.9162380952, 2.94371428571 55.9058720238, 2.875625 55.8932023810, 2.81021428571 55.8782291667, 2.74748214286 55.8609523810, 2.68742857143 55.8416934066, 2.63 55.8207737311, 2.57514285714 55.7981933543, 2.52285714286 55.7739522763, 2.47314285714 55.7480504971, 2.426 55.7204880168, 2.38142857143 55.6912648352, 2.33942857143 55.6603809524, 2.3 55.6280104167, 2.26308933149 55.5943273810, 2.22864293562 55.5593318452, 2.19666081238 55.5230238095, 2.16714296177 55.4854032738, 2.14008938381 55.4464702381, 2.11550007847 55.4062247024, 2.09337504578 55.3646666667, 2.07371428571 55.3221175595, 2.0564375 55.2788988095, 2.04146428571 55.2350104167, 2.02879464286 55.1904523810, 2.01842857143 55.1452247024, 2.01036607143 55.0993273810, 2.00460714286 Z M 54.9597202381, 2.44651785714 54.9825014881, 2.44462946429 55.0055238095, 2.444 55.0277023810, 2.44469642857 55.0496666667, 2.44678571429 55.0714166667, 2.45026785714 55.0929523810, 2.45514285714 55.1142738095, 2.46141071429 55.1353809524, 2.46907142857 55.1562738095, 2.478125 55.1769523810, 2.48857142857 55.1972157738, 2.50053125 55.2168630952, 2.514125 55.2358943452, 2.52935267857 55.2543095238, 2.54621428571 55.2721086310, 2.56470982143 55.2892916667, 2.58483928571 55.3058586310, 2.60660267857 55.3218095238, 2.63 55.3370505952, 2.65507142857 55.3514880952, 2.68185714286 55.3651220238, 2.71035714286 55.3779523810, 2.74057142857 55.3899791667, 2.7725 55.4012023810, 2.80614285714 55.4116220238, 2.8415 55.4212380952, 2.87857142857 55.4298764881, 2.91745089286 55.4373630952, 2.95823214286 55.4436979167, 3.00091517857 55.4488809524, 3.0455 55.4529122024, 3.09198660714 55.4557916667, 3.140375 55.4575193452, 3.19066517857 55.4580952381, 3.24285714286 55.4575193452, 3.29829017857 55.4557916667, 3.35144642857 55.4529122024, 3.40232589286 55.4488809524, 3.45092857143 55.4436979167, 3.49725446429 55.4373630952, 3.54130357143 55.4298764881, 3.58307589286 55.4212380952, 3.62257142857 55.4116220238, 3.65997767857 55.4012023810, 3.69548214286 55.3899791667, 3.72908482143 55.3779523810, 3.76078571429 55.3651220238, 3.79058482143 55.3514880952, 3.81848214286 55.3370505952, 3.84447767857 55.3218095238, 3.86857142857 55.3058586310, 3.89089732143 55.2892916667, 3.91158928571 55.2721086310, 3.93064732143 55.2543095238, 3.94807142857 55.2358943452, 3.96386160714 55.2168630952, 3.97801785714 55.1972157738, 3.99054017857 55.1769523810, 4.00142857143 55.1562738095, 4.01087053571 55.1353809524, 4.01905357143 55.1142738095, 4.02597767857 55.0929523810, 4.03164285714 55.0714166667, 4.03604910714 55.0496666667, 4.03919642857 55.0277023810, 4.04108482143 55.0055238095, 4.04171428571 54.9825014881, 4.04108482143 54.9597202381, 4.03919642857 54.9371800595, 4.03604910714 54.9148809524, 4.03164285714 54.8928229167, 4.02597767857 54.8710059524, 4.01905357143 54.8494300595, 4.01087053571 54.8280952381, 4.00142857143 54.8072023810, 3.99054017857 54.7869523810, 3.97801785714 54.7673452381, 3.96386160714 54.7483809524, 3.94807142857 54.7300595238, 3.93064732143 54.7123809524, 3.91158928571 54.6953452381, 3.89089732143 54.6789523810, 3.86857142857 54.6632961310, 3.84447767857 54.6484702381, 3.81848214286 54.6344747024, 3.79058482143 54.6213095238, 3.76078571429 54.6089747024, 3.72908482143 54.5974702381, 3.69548214286 54.5867961310, 3.65997767857 54.5769523810, 3.62257142857 54.5681130952, 3.58307589286 54.5604523810, 3.54130357143 54.5539702381, 3.49725446429 54.5486666667, 3.45092857143 54.5445416667, 3.40232589286 54.5415952381, 3.35144642857 54.5398273810, 3.29829017857 54.5392380952, 3.24285714286 54.5398273810, 3.18742410714 54.5415952381, 3.13426785714 54.5445416667, 3.08338839286 54.5486666667, 3.03478571429 54.5539702381, 2.98845982143 54.5604523810, 2.94441071429 54.5681130952, 2.90263839286 54.5769523810, 2.86314285714 54.5867961310, 2.82573660714 54.5974702381, 2.79023214286 54.6089747024, 2.75662946429 54.6213095238, 2.72492857143 54.6344747024, 2.69512946429 54.6484702381, 2.66723214286 54.6632961310, 2.64123660714 54.6789523810, 2.61714285714 54.6953452381, 2.59481696429 54.7123809524, 2.574125 54.7300595238, 2.55506696429 54.7483809524, 2.53764285714 54.7673452381, 2.52185267857 54.7869523810, 2.50769642857 54.8072023810, 2.49517410714 54.8280952381, 2.48428571429 54.8494300595, 2.47484375 54.8710059524, 2.46666071429 54.8928229167, 2.45973660714 54.9148809524, 2.45407142857 54.9371800595, 2.44966517857 Z"  />
<path d="M 58.3347068452, 2.73787946429 58.2986666667, 2.73714285714 58.2576845238, 2.73805357143 58.2170238095, 2.74078571429 58.1766845238, 2.74533928571 58.1366666667, 2.75171428571 58.0971845238, 2.76017857143 58.0584523810, 2.771 58.0204702381, 2.78417857143 57.9832380952, 2.79971428571 57.9470238095, 2.81776785714 57.9120952381, 2.8385 57.8784523810, 2.86191071429 57.8460952381, 2.888 57.8153452381, 2.91692857143 57.7865238095, 2.94885714286 57.7596309524, 2.98378571429 57.7346666667, 3.02171428571 57.7127693452, 2.98919642857 57.6890773810, 2.9585 57.6635907738, 2.929625 57.6363095238, 2.90257142857 57.6072336310, 2.87733928571 57.5763630952, 2.85392857143 57.5436979167, 2.83233928571 57.5092380952, 2.81257142857 57.4732514881, 2.79489285714 57.4360059524, 2.77957142857 57.3975014881, 2.76660714286 57.3577380952, 2.756 57.3167157738, 2.74775 57.2744345238, 2.74185714286 57.2308943452, 2.73832142857 57.1860952381, 2.73714285714 57.1507380952, 2.73798660714 57.1158095238, 2.74051785714 57.0813095238, 2.74473660714 57.0472380952, 2.75064285714 57.0135952381, 2.75823660714 56.9803809524, 2.76751785714 56.9475952381, 2.77848660714 56.9152380952, 2.79114285714 56.8837113095, 2.80586160714 56.8534166667, 2.82301785714 56.8243541667, 2.84261160714 56.7965238095, 2.86464285714 56.7699255952, 2.88911160714 56.7445595238, 2.91601785714 56.7204255952, 2.94536160714 56.6975238095, 2.97714285714 56.6975238095, 2.78171428571 56.2620952381, 2.78171428571 56.2620952381, 4.44285714286 56.7095238095, 4.44285714286 56.7095238095, 3.53257142857 56.7112916667, 3.48692857143 56.7165952381, 3.44428571429 56.7205729167, 3.42408928571 56.7254345238, 3.40464285714 56.7311800595, 3.38594642857 56.7378095238, 3.368 56.7531309524, 3.33430357143 56.7708095238, 3.3035 56.7908452381, 3.27558928571 56.8132380952, 3.25057142857 56.8378809524, 3.2285 56.8646666667, 3.20942857143 56.8935952381, 3.19335714286 56.9246666667, 3.18028571429 56.9572916667, 3.17016071429 56.9908809524, 3.16292857143 57.0254345238, 3.15858928571 57.0609523810, 3.15714285714 57.0984389881, 3.15862946429 57.1337559524, 3.16308928571 57.1669032738, 3.17052232143 57.1978809524, 3.18092857143 57.2266889881, 3.19430803571 57.2533273810, 3.21066071429 57.2777961310, 3.22998660714 57.3000952381, 3.25228571429 57.3199836310, 3.27742410714 57.3372202381, 3.30526785714 57.3518050595, 3.33581696429 57.3637380952, 3.36907142857 57.3730193452, 3.40503125 57.3796488095, 3.44369642857 57.3836264881, 3.48506696429 57.3849523810, 3.52914285714 57.3849523810, 4.44285714286 57.8323809524, 4.44285714286 57.8323809524, 3.53257142857 57.8341488095, 3.48692857143 57.8394523810, 3.44428571429 57.8434300595, 3.42408928571 57.8482916667, 3.40464285714 57.8540372024, 3.38594642857 57.8606666667, 3.368 57.8759880952, 3.33430357143 57.8936666667, 3.3035 57.9137023810, 3.27558928571 57.9360952381, 3.25057142857 57.9607380952, 3.2285 57.9875238095, 3.20942857143 58.0164523810, 3.19335714286 58.0475238095, 3.18028571429 58.0801488095, 3.17016071429 58.1137380952, 3.16292857143 58.1482916667, 3.15858928571 58.1838095238, 3.15714285714 58.2209077381, 3.15862946429 58.2559166667, 3.16308928571 58.2888363095, 3.17052232143 58.3196666667, 3.18092857143 58.3484077381, 3.19430803571 58.3750595238, 3.21066071429 58.3996220238, 3.22998660714 58.4220952381, 3.25228571429 58.4421845238, 3.27742410714 58.4595952381, 3.30526785714 58.4743273810, 3.33581696429 58.4863809524, 3.36907142857 58.4957559524, 3.40503125 58.5024523810, 3.44369642857 58.5064702381, 3.48506696429 58.5078095238, 3.52914285714 58.5078095238, 4.44285714286 58.9535238095, 4.44285714286 58.9535238095, 3.38514285714 58.9527871566, 3.34951785714 58.9505773025, 3.31464285714 58.9468942471, 3.28051785714 58.9417379906, 3.24714285714 58.9351085329, 3.21451785714 58.9270058739, 3.18264285714 58.9174300137, 3.15151785714 58.9063809524, 3.12114285714 58.8939791667, 3.09169196429 58.8803452381, 3.06333928571 58.8654791667, 3.03608482143 58.8493809524, 3.00992857143 58.8320505952, 2.98487053571 58.8134880952, 2.96091071429 58.7936934524, 2.93804910714 58.7726666667, 2.91628571429 58.7504880495, 2.89566071429 58.7272380168, 2.87621428571 58.7029165686, 2.85794642857 58.6775237049, 2.84085714286 58.6510594257, 2.82494642857 58.6235237311, 2.81021428571 58.5949166209, 2.79666071429 58.5652380952, 2.78428571429 58.5346354167, 2.77323660714 58.5032559524, 2.76366071429 58.4710997024, 2.75555803571 58.4381666667, 2.74892857143 58.4044568452, 2.74377232143 58.3699702381, 2.74008928571 Z"  />
<path d="M 100.045880952, 2.38083928571 100.020380952, 2.41314285714 100.318666667, 2.70628571429 100.365809524, 2.65442857143 100.414666667, 2.60514285714 100.440059524, 2.58189285714 100.466523810, 2.56014285714 100.494059524, 2.53989285714 100.522666667, 2.52114285714 100.552505952, 2.50405357143 100.583738095, 2.48878571429 100.616363095, 2.47533928571 100.650380952, 2.46371428571 100.686113095, 2.45433928571 100.723880952, 2.44764285714 100.763684524, 2.443625 100.805523810, 2.44228571429 100.845755952, 2.44394642857 100.884166667, 2.44892857143 100.920755952, 2.45723214286 100.955523810, 2.46885714286 100.988148810, 2.48348214286 101.018309524, 2.50078571429 101.046005952, 2.52076785714 101.071238095, 2.54342857143 101.093898810, 2.56850007847 101.113880952, 2.59571439035 101.131184524, 2.62507150705 101.145809524, 2.65657142857 101.157434524, 2.69 101.165738095, 2.72514285714 101.170720238, 2.762 101.172380952, 2.80057142857 101.171590774, 2.82865625 101.169220238, 2.85633928571 101.165269345, 2.88362053571 101.159738095, 2.9105 101.152626488, 2.93697767857 101.143934524, 2.96305357143 101.133662202, 2.98872767857 101.121809524, 3.014 101.108456845, 3.03903125 101.093684524, 3.06398214286 101.077492560, 3.08885267857 101.059880952, 3.11364285714 101.040849702, 3.13835267857 101.020398810, 3.16298214286 100.998528274, 3.18753125 100.975238095, 3.212 100.126666667, 4.08114285714 100.126666667, 4.44285714286 101.712380952, 4.44285714286 101.712380952, 4.00914285714 100.795238095, 4.00914285714 101.307809524, 3.476 101.378952381, 3.39885714286 101.444952381, 3.32171428571 101.475595238, 3.28266071429 101.504095238, 3.24264285714 101.530452381, 3.20166071429 101.554666667, 3.15971428571 101.576577381, 3.11664285714 101.596023810, 3.07228571429 101.613005952, 3.02664285714 101.627523810, 2.97971428571 101.639148810, 2.93123214286 101.647452381, 2.88092857143 101.652434524, 2.82880357143 101.654095238, 2.77485714286 101.653211310, 2.73244196429 101.650559524, 2.69091071429 101.646139881, 2.65026339286 101.639952381, 2.6105 101.631997024, 2.57162053571 101.622273810, 2.533625 101.610782738, 2.49651339286 101.597523810, 2.46028571429 101.582617560, 2.42514285714 101.566184524, 2.39128571429 101.548224702, 2.35871428571 101.528738095, 2.32742857143 101.507724702, 2.29742857143 101.485184524, 2.26871428571 101.461117560, 2.24128571429 101.435523810, 2.21514285714 101.408456845, 2.19035267857 101.379970238, 2.16698214286 101.350063988, 2.14503125 101.318738095, 2.1245 101.285992560, 2.10538839286 101.251827381, 2.08769642857 101.216242560, 2.07142410714 101.179238095, 2.05657142857 101.140934524, 2.0433125 101.101452381, 2.03182142857 101.060791667, 2.02209821429 101.018952381, 2.01414285714 100.975934524, 2.00795535714 100.931738095, 2.00353571429 100.886363095, 2.00088392857 100.839809524, 2.0 100.798398810, 2.00062946429 100.758166667, 2.00251785714 100.719113095, 2.00566517857 100.681238095, 2.01007142857 100.644541667, 2.01573660714 100.609023810, 2.02266071429 100.574684524, 2.03084375 100.541523810, 2.04028571429 100.478309524, 2.06176785714 100.418952381, 2.08592857143 100.390720238, 2.09901339286 100.363452381, 2.11276785714 100.337148810, 2.12719196429 100.311809524, 2.14228571429 100.263809524, 2.17383928571 100.219238095, 2.20678571429 100.178095238, 2.241125 100.140380952, 2.27685714286 100.105880952, 2.31269642857 100.074380952, 2.34735714286 Z"  />
<path d="M 102.995617560, 2.00115178571 102.948380952, 2.0 102.900300595, 2.00107142857 102.852916667, 2.00428571429 102.806229167, 2.00964285714 102.760238095, 2.01714285714 102.714943452, 2.02678571429 102.670345238, 2.03857142857 102.626443452, 2.0525 102.583238095, 2.06857142857 102.541050595, 2.08698665292 102.500202381, 2.10794650705 102.460693452, 2.13145099095 102.422523810, 2.15750010463 102.385693452, 2.18609384809 102.350202381, 2.21723222133 102.316050595, 2.25091522435 102.283238095, 2.28714285714 102.251925595, 2.32598214286 102.222273810, 2.3675 102.194282738, 2.41169642857 102.167952381, 2.45857142857 102.143282738, 2.508125 102.120273810, 2.56035714286 102.098925595, 2.61526785714 102.079238095, 2.67285714286 102.061559524, 2.73332589286 102.046238095, 2.796875 102.033273810, 2.86350446429 102.022666667, 2.93321428571 102.014416667, 3.00600446429 102.008523810, 3.081875 102.004988095, 3.16082589286 102.003809524, 3.24285714286 102.004988095, 3.32488839286 102.008523810, 3.40383928571 102.014416667, 3.47970982143 102.022666667, 3.5525 102.033273810, 3.62220982143 102.046238095, 3.68883928571 102.061559524, 3.75238839286 102.079238095, 3.81285714286 102.098925595, 3.87043303571 102.120273810, 3.92530357143 102.143282738, 3.97746875 102.167952381, 4.02692857143 102.194282738, 4.07368303571 102.222273810, 4.11773214286 102.251925595, 4.15907589286 102.283238095, 4.19771428571 102.316050595, 4.23375446429 102.350202381, 4.26730357143 102.385693452, 4.29836160714 102.422523810, 4.32692857143 102.460693452, 4.35300446429 102.500202381, 4.37658928571 102.541050595, 4.39768303571 102.583238095, 4.41628571429 102.626443452, 4.43255803571 102.670345238, 4.44666071429 102.714943452, 4.45859375 102.760238095, 4.46835714286 102.806229167, 4.47595089286 102.852916667, 4.481375 102.900300595, 4.48462946429 102.948380952, 4.48571428571 102.995617560, 4.48462946429 103.042184524, 4.481375 103.088081845, 4.47595089286 103.133309524, 4.46835714286 103.177867560, 4.45859375 103.221755952, 4.44666071429 103.264974702, 4.43255803571 103.307523810, 4.41628571429 103.349081845, 4.39768303571 103.389327381, 4.37658928571 103.428260417, 4.35300446429 103.465880952, 4.32692857143 103.502188988, 4.29836160714 103.537184524, 4.26730357143 103.570867560, 4.23375446429 103.603238095, 4.19771428571 103.634121978, 4.15907589286 103.663345160, 4.11773214286 103.690907640, 4.07368303571 103.716809419, 4.02692857143 103.741050497, 3.97746875 103.763630874, 3.92530357143 103.784550549, 3.87043303571 103.803809524, 3.81285714286 103.821086310, 3.75238839286 103.836059524, 3.68883928571 103.848729167, 3.62220982143 103.859095238, 3.5525 103.867157738, 3.47970982143 103.872916667, 3.40383928571 103.876372024, 3.32488839286 103.877523810, 3.24285714286 103.876372024, 3.16405357143 103.872916667, 3.08792857143 103.867157738, 3.01448214286 103.859095238, 2.94371428571 103.848729167, 2.875625 103.836059524, 2.81021428571 103.821086310, 2.74748214286 103.803809524, 2.68742857143 103.784550549, 2.63 103.763630874, 2.57514285714 103.741050497, 2.52285714286 103.716809419, 2.47314285714 103.690907640, 2.426 103.663345160, 2.38142857143 103.634121978, 2.33942857143 103.603238095, 2.3 103.570867560, 2.26308933149 103.537184524, 2.22864293562 103.502188988, 2.19666081238 103.465880952, 2.16714296177 103.428260417, 2.14008938381 103.389327381, 2.11550007847 103.349081845, 2.09337504578 103.307523810, 2.07371428571 103.264974702, 2.0564375 103.221755952, 2.04146428571 103.177867560, 2.02879464286 103.133309524, 2.01842857143 103.088081845, 2.01036607143 103.042184524, 2.00460714286 Z M 102.902577381, 2.44651785714 102.925358631, 2.44462946429 102.948380952, 2.444 102.970559524, 2.44469642857 102.992523810, 2.44678571429 103.014273810, 2.45026785714 103.035809524, 2.45514285714 103.057130952, 2.46141071429 103.078238095, 2.46907142857 103.099130952, 2.478125 103.119809524, 2.48857142857 103.140072917, 2.50053125 103.159720238, 2.514125 103.178751488, 2.52935267857 103.197166667, 2.54621428571 103.214965774, 2.56470982143 103.232148810, 2.58483928571 103.248715774, 2.60660267857 103.264666667, 2.63 103.279907738, 2.65507142857 103.294345238, 2.68185714286 103.307979167, 2.71035714286 103.320809524, 2.74057142857 103.332836310, 2.7725 103.344059524, 2.80614285714 103.354479167, 2.8415 103.364095238, 2.87857142857 103.372733631, 2.91745089286 103.380220238, 2.95823214286 103.386555060, 3.00091517857 103.391738095, 3.0455 103.395769345, 3.09198660714 103.398648810, 3.140375 103.400376488, 3.19066517857 103.400952381, 3.24285714286 103.400376488, 3.29829017857 103.398648810, 3.35144642857 103.395769345, 3.40232589286 103.391738095, 3.45092857143 103.386555060, 3.49725446429 103.380220238, 3.54130357143 103.372733631, 3.58307589286 103.364095238, 3.62257142857 103.354479167, 3.65997767857 103.344059524, 3.69548214286 103.332836310, 3.72908482143 103.320809524, 3.76078571429 103.307979167, 3.79058482143 103.294345238, 3.81848214286 103.279907738, 3.84447767857 103.264666667, 3.86857142857 103.248715774, 3.89089732143 103.232148810, 3.91158928571 103.214965774, 3.93064732143 103.197166667, 3.94807142857 103.178751488, 3.96386160714 103.159720238, 3.97801785714 103.140072917, 3.99054017857 103.119809524, 4.00142857143 103.099130952, 4.01087053571 103.078238095, 4.01905357143 103.057130952, 4.02597767857 103.035809524, 4.03164285714 103.014273810, 4.03604910714 102.992523810, 4.03919642857 102.970559524, 4.04108482143 102.948380952, 4.04171428571 102.925358631, 4.04108482143 102.902577381, 4.03919642857 102.880037202, 4.03604910714 102.857738095, 4.03164285714 102.835680060, 4.02597767857 102.813863095, 4.01905357143 102.792287202, 4.01087053571 102.770952381, 4.00142857143 102.750059524, 3.99054017857 102.729809524, 3.97801785714 102.710202381, 3.96386160714 102.691238095, 3.94807142857 102.672916667, 3.93064732143 102.655238095, 3.91158928571 102.638202381, 3.89089732143 102.621809524, 3.86857142857 102.606153274, 3.84447767857 102.591327381, 3.81848214286 102.577331845, 3.79058482143 102.564166667, 3.76078571429 102.551831845, 3.72908482143 102.540327381, 3.69548214286 102.529653274, 3.65997767857 102.519809524, 3.62257142857 102.510970238, 3.58307589286 102.503309524, 3.54130357143 102.496827381, 3.49725446429 102.491523810, 3.45092857143 102.487398810, 3.40232589286 102.484452381, 3.35144642857 102.482684524, 3.29829017857 102.482095238, 3.24285714286 102.482684524, 3.18742410714 102.484452381, 3.13426785714 102.487398810, 3.08338839286 102.491523810, 3.03478571429 102.496827381, 2.98845982143 102.503309524, 2.94441071429 102.510970238, 2.90263839286 102.519809524, 2.86314285714 102.529653274, 2.82573660714 102.540327381, 2.79023214286 102.551831845, 2.75662946429 102.564166667, 2.72492857143 102.577331845, 2.69512946429 102.591327381, 2.66723214286 102.606153274, 2.64123660714 102.621809524, 2.61714285714 102.638202381, 2.59481696429 102.655238095, 2.574125 102.672916667, 2.55506696429 102.691238095, 2.53764285714 102.710202381, 2.52185267857 102.729809524, 2.50769642857 102.750059524, 2.49517410714 102.770952381, 2.48428571429 102.792287202, 2.47484375 102.813863095, 2.46666071429 102.835680060, 2.45973660714 102.857738095, 2.45407142857 102.880037202, 2.44966517857 Z"  />
<path d="M 105.052760417, 2.00115178571 105.005523810, 2.0 104.957443452, 2.00107142857 104.910059524, 2.00428571429 104.863372024, 2.00964285714 104.817380952, 2.01714285714 104.772086310, 2.02678571429 104.727488095, 2.03857142857 104.683586310, 2.0525 104.640380952, 2.06857142857 104.598193452, 2.08698665292 104.557345238, 2.10794650705 104.517836310, 2.13145099095 104.479666667, 2.15750010463 104.442836310, 2.18609384809 104.407345238, 2.21723222133 104.373193452, 2.25091522435 104.340380952, 2.28714285714 104.309068452, 2.32598214286 104.279416667, 2.3675 104.251425595, 2.41169642857 104.225095238, 2.45857142857 104.200425595, 2.508125 104.177416667, 2.56035714286 104.156068452, 2.61526785714 104.136380952, 2.67285714286 104.118702381, 2.73332589286 104.103380952, 2.796875 104.090416667, 2.86350446429 104.079809524, 2.93321428571 104.071559524, 3.00600446429 104.065666667, 3.081875 104.062130952, 3.16082589286 104.060952381, 3.24285714286 104.062130952, 3.32488839286 104.065666667, 3.40383928571 104.071559524, 3.47970982143 104.079809524, 3.5525 104.090416667, 3.62220982143 104.103380952, 3.68883928571 104.118702381, 3.75238839286 104.136380952, 3.81285714286 104.156068452, 3.87043303571 104.177416667, 3.92530357143 104.200425595, 3.97746875 104.225095238, 4.02692857143 104.251425595, 4.07368303571 104.279416667, 4.11773214286 104.309068452, 4.15907589286 104.340380952, 4.19771428571 104.373193452, 4.23375446429 104.407345238, 4.26730357143 104.442836310, 4.29836160714 104.479666667, 4.32692857143 104.517836310, 4.35300446429 104.557345238, 4.37658928571 104.598193452, 4.39768303571 104.640380952, 4.41628571429 104.683586310, 4.43255803571 104.727488095, 4.44666071429 104.772086310, 4.45859375 104.817380952, 4.46835714286 104.863372024, 4.47595089286 104.910059524, 4.481375 104.957443452, 4.48462946429 105.005523810, 4.48571428571 105.052760417, 4.48462946429 105.099327381, 4.481375 105.145224702, 4.47595089286 105.190452381, 4.46835714286 105.235010417, 4.45859375 105.278898810, 4.44666071429 105.322117560, 4.43255803571 105.364666667, 4.41628571429 105.406224702, 4.39768303571 105.446470238, 4.37658928571 105.485403274, 4.35300446429 105.523023810, 4.32692857143 105.559331845, 4.29836160714 105.594327381, 4.26730357143 105.628010417, 4.23375446429 105.660380952, 4.19771428571 105.691264835, 4.15907589286 105.720488017, 4.11773214286 105.748050497, 4.07368303571 105.773952276, 4.02692857143 105.798193354, 3.97746875 105.820773731, 3.92530357143 105.841693407, 3.87043303571 105.860952381, 3.81285714286 105.878229167, 3.75238839286 105.893202381, 3.68883928571 105.905872024, 3.62220982143 105.916238095, 3.5525 105.924300595, 3.47970982143 105.930059524, 3.40383928571 105.933514881, 3.32488839286 105.934666667, 3.24285714286 105.933514881, 3.16405357143 105.930059524, 3.08792857143 105.924300595, 3.01448214286 105.916238095, 2.94371428571 105.905872024, 2.875625 105.893202381, 2.81021428571 105.878229167, 2.74748214286 105.860952381, 2.68742857143 105.841693407, 2.63 105.820773731, 2.57514285714 105.798193354, 2.52285714286 105.773952276, 2.47314285714 105.748050497, 2.426 105.720488017, 2.38142857143 105.691264835, 2.33942857143 105.660380952, 2.3 105.628010417, 2.26308933149 105.594327381, 2.22864293562 105.559331845, 2.19666081238 105.523023810, 2.16714296177 105.485403274, 2.14008938381 105.446470238, 2.11550007847 105.406224702, 2.09337504578 105.364666667, 2.07371428571 105.322117560, 2.0564375 105.278898810, 2.04146428571 105.235010417, 2.02879464286 105.190452381, 2.01842857143 105.145224702, 2.01036607143 105.099327381, 2.00460714286 Z M 104.959720238, 2.44651785714 104.982501488, 2.44462946429 105.005523810, 2.444 105.027702381, 2.44469642857 105.049666667, 2.44678571429 105.071416667, 2.45026785714 105.092952381, 2.45514285714 105.114273810, 2.46141071429 105.135380952, 2.46907142857 105.156273810, 2.478125 105.176952381, 2.48857142857 105.197215774, 2.50053125 105.216863095, 2.514125 105.235894345, 2.52935267857 105.254309524, 2.54621428571 105.272108631, 2.56470982143 105.289291667, 2.58483928571 105.305858631, 2.60660267857 105.321809524, 2.63 105.337050595, 2.65507142857 105.351488095, 2.68185714286 105.365122024, 2.71035714286 105.377952381, 2.74057142857 105.389979167, 2.7725 105.401202381, 2.80614285714 105.411622024, 2.8415 105.421238095, 2.87857142857 105.429876488, 2.91745089286 105.437363095, 2.95823214286 105.443697917, 3.00091517857 105.448880952, 3.0455 105.452912202, 3.09198660714 105.455791667, 3.140375 105.457519345, 3.19066517857 105.458095238, 3.24285714286 105.457519345, 3.29829017857 105.455791667, 3.35144642857 105.452912202, 3.40232589286 105.448880952, 3.45092857143 105.443697917, 3.49725446429 105.437363095, 3.54130357143 105.429876488, 3.58307589286 105.421238095, 3.62257142857 105.411622024, 3.65997767857 105.401202381, 3.69548214286 105.389979167, 3.72908482143 105.377952381, 3.76078571429 105.365122024, 3.79058482143 105.351488095, 3.81848214286 105.337050595, 3.84447767857 105.321809524, 3.86857142857 105.305858631, 3.89089732143 105.289291667, 3.91158928571 105.272108631, 3.93064732143 105.254309524, 3.94807142857 105.235894345, 3.96386160714 105.216863095, 3.97801785714 105.197215774, 3.99054017857 105.176952381, 4.00142857143 105.156273810, 4.01087053571 105.135380952, 4.01905357143 105.114273810, 4.02597767857 105.092952381, 4.03164285714 105.071416667, 4.03604910714 105.049666667, 4.03919642857 105.027702381, 4.04108482143 105.005523810, 4.04171428571 104.982501488, 4.04108482143 104.959720238, 4.03919642857 104.937180060, 4.03604910714 104.914880952, 4.03164285714 104.892822917, 4.02597767857 104.871005952, 4.01905357143 104.849430060, 4.01087053571 104.828095238, 4.00142857143 104.807202381, 3.99054017857 104.786952381, 3.97801785714 104.767345238, 3.96386160714 104.748380952, 3.94807142857 104.730059524, 3.93064732143 104.712380952, 3.91158928571 104.695345238, 3.89089732143 104.678952381, 3.86857142857 104.663296131, 3.84447767857 104.648470238, 3.81848214286 104.634474702, 3.79058482143 104.621309524, 3.76078571429 104.608974702, 3.72908482143 104.597470238, 3.69548214286 104.586796131, 3.65997767857 104.576952381, 3.62257142857 104.568113095, 3.58307589286 104.560452381, 3.54130357143 104.553970238, 3.49725446429 104.548666667, 3.45092857143 104.544541667, 3.40232589286 104.541595238, 3.35144642857 104.539827381, 3.29829017857 104.539238095, 3.24285714286 104.539827381, 3.18742410714 104.541595238, 3.13426785714 104.544541667, 3.08338839286 104.548666667, 3.03478571429 104.553970238, 2.98845982143 104.560452381, 2.94441071429 104.568113095, 2.90263839286 104.576952381, 2.86314285714 104.586796131, 2.82573660714 104.597470238, 2.79023214286 104.608974702, 2.75662946429 104.621309524, 2.72492857143 104.634474702, 2.69512946429 104.648470238, 2.66723214286 104.663296131, 2.64123660714 104.678952381, 2.61714285714 104.695345238, 2.59481696429 104.712380952, 2.574125 104.730059524, 2.55506696429 104.748380952, 2.53764285714 104.767345238, 2.52185267857 104.786952381, 2.50769642857 104.807202381, 2.49517410714 104.828095238, 2.48428571429 104.849430060, 2.47484375 104.871005952, 2.46666071429 104.892822917, 2.45973660714 104.914880952, 2.45407142857 104.937180060, 2.44966517857 Z"  />
<path d="M 108.334706845, 2.73787946429 108.298666667, 2.73714285714 108.257684524, 2.73805357143 108.217023810, 2.74078571429 108.176684524, 2.74533928571 108.136666667, 2.75171428571 108.097184524, 2.76017857143 108.058452381, 2.771 108.020470238, 2.78417857143 107.983238095, 2.79971428571 107.947023810, 2.81776785714 107.912095238, 2.8385 107.878452381, 2.86191071429 107.846095238, 2.888 107.815345238, 2.91692857143 107.786523810, 2.94885714286 107.759630952, 2.98378571429 107.734666667, 3.02171428571 107.712769345, 2.98919642857 107.689077381, 2.9585 107.663590774, 2.929625 107.636309524, 2.90257142857 107.607233631, 2.87733928571 107.576363095, 2.85392857143 107.543697917, 2.83233928571 107.509238095, 2.81257142857 107.473251488, 2.79489285714 107.436005952, 2.77957142857 107.397501488, 2.76660714286 107.357738095, 2.756 107.316715774, 2.74775 107.274434524, 2.74185714286 107.230894345, 2.73832142857 107.186095238, 2.73714285714 107.150738095, 2.73798660714 107.115809524, 2.74051785714 107.081309524, 2.74473660714 107.047238095, 2.75064285714 107.013595238, 2.75823660714 106.980380952, 2.76751785714 106.947595238, 2.77848660714 106.915238095, 2.79114285714 106.883711310, 2.80586160714 106.853416667, 2.82301785714 106.824354167, 2.84261160714 106.796523810, 2.86464285714 106.769925595, 2.88911160714 106.744559524, 2.91601785714 106.720425595, 2.94536160714 106.697523810, 2.97714285714 106.697523810, 2.78171428571 106.262095238, 2.78171428571 106.262095238, 4.44285714286 106.709523810, 4.44285714286 106.709523810, 3.53257142857 106.711291667, 3.48692857143 106.716595238, 3.44428571429 106.720572917, 3.42408928571 106.725434524, 3.40464285714 106.731180060, 3.38594642857 106.737809524, 3.368 106.753130952, 3.33430357143 106.770809524, 3.3035 106.790845238, 3.27558928571 106.813238095, 3.25057142857 106.837880952, 3.2285 106.864666667, 3.20942857143 106.893595238, 3.19335714286 106.924666667, 3.18028571429 106.957291667, 3.17016071429 106.990880952, 3.16292857143 107.025434524, 3.15858928571 107.060952381, 3.15714285714 107.098438988, 3.15862946429 107.133755952, 3.16308928571 107.166903274, 3.17052232143 107.197880952, 3.18092857143 107.226688988, 3.19430803571 107.253327381, 3.21066071429 107.277796131, 3.22998660714 107.300095238, 3.25228571429 107.319983631, 3.27742410714 107.337220238, 3.30526785714 107.351805060, 3.33581696429 107.363738095, 3.36907142857 107.373019345, 3.40503125 107.379648810, 3.44369642857 107.383626488, 3.48506696429 107.384952381, 3.52914285714 107.384952381, 4.44285714286 107.832380952, 4.44285714286 107.832380952, 3.53257142857 107.834148810, 3.48692857143 107.839452381, 3.44428571429 107.843430060, 3.42408928571 107.848291667, 3.40464285714 107.854037202, 3.38594642857 107.860666667, 3.368 107.875988095, 3.33430357143 107.893666667, 3.3035 107.913702381, 3.27558928571 107.936095238, 3.25057142857 107.960738095, 3.2285 107.987523810, 3.20942857143 108.016452381, 3.19335714286 108.047523810, 3.18028571429 108.080148810, 3.17016071429 108.113738095, 3.16292857143 108.148291667, 3.15858928571 108.183809524, 3.15714285714 108.220907738, 3.15862946429 108.255916667, 3.16308928571 108.288836310, 3.17052232143 108.319666667, 3.18092857143 108.348407738, 3.19430803571 108.375059524, 3.21066071429 108.399622024, 3.22998660714 108.422095238, 3.25228571429 108.442184524, 3.27742410714 108.459595238, 3.30526785714 108.474327381, 3.33581696429 108.486380952, 3.36907142857 108.495755952, 3.40503125 108.502452381, 3.44369642857 108.506470238, 3.48506696429 108.507809524, 3.52914285714 108.507809524, 4.44285714286 108.953523810, 4.44285714286 108.953523810, 3.38514285714 108.952787157, 3.34951785714 108.950577302, 3.31464285714 108.946894247, 3.28051785714 108.941737991, 3.24714285714 108.935108533, 3.21451785714 108.927005874, 3.18264285714 108.917430014, 3.15151785714 108.906380952, 3.12114285714 108.893979167, 3.09169196429 108.880345238, 3.06333928571 108.865479167, 3.03608482143 108.849380952, 3.00992857143 108.832050595, 2.98487053571 108.813488095, 2.96091071429 108.793693452, 2.93804910714 108.772666667, 2.91628571429 108.750488049, 2.89566071429 108.727238017, 2.87621428571 108.702916569, 2.85794642857 108.677523705, 2.84085714286 108.651059426, 2.82494642857 108.623523731, 2.81021428571 108.594916621, 2.79666071429 108.565238095, 2.78428571429 108.534635417, 2.77323660714 108.503255952, 2.76366071429 108.471099702, 2.75555803571 108.438166667, 2.74892857143 108.404456845, 2.74377232143 108.369970238, 2.74008928571 Z"  />
<path d="M 250.934148810, 2.95402678571 250.882666667, 2.95314285714 250.606666667, 2.95314285714 250.616952381, 2.47314285714 251.588952381, 2.47314285714 251.588952381, 2.04285714286 250.208952381, 2.04285714286 250.183238095, 3.37142857143 250.754095238, 3.37142857143 250.821488095, 3.37314285714 250.883095238, 3.37828571429 250.911729167, 3.38214285714 250.938916667, 3.38685714286 250.964657738, 3.39242857143 250.988952381, 3.39885714286 251.033738095, 3.41375 251.054363095, 3.42208035714 251.073809524, 3.431 251.092077381, 3.44050892857 251.109166667, 3.45060714286 251.125077381, 3.46129464286 251.139809524, 3.47257142857 251.153430060, 3.48438392857 251.166005952, 3.49667857143 251.177537202, 3.50945535714 251.188023810, 3.52271428571 251.197465774, 3.53645535714 251.205863095, 3.55067857143 251.213215774, 3.56538392857 251.219523810, 3.58057142857 251.229648810, 3.61175 251.236880952, 3.64357142857 251.241220238, 3.67603571429 251.242666667, 3.70914285714 251.241113095, 3.74455357143 251.236452381, 3.77878571429 251.228684524, 3.81183928571 251.217809524, 3.84371428571 251.203827302, 3.87408928571 251.186737991, 3.90264285714 251.166541588, 3.929375 251.143238095, 3.95428571429 251.130407738, 3.96596428571 251.116773810, 3.977 251.087095238, 3.99714285714 251.054202381, 4.01471428571 251.018095238, 4.02971428571 250.998863095, 4.03614285714 250.978880952, 4.04171428571 250.936666667, 4.05028571429 250.891452381, 4.05542857143 250.843238095, 4.05714285714 250.801988095, 4.05591071429 250.760523810, 4.05221428571 250.718845238, 4.04605357143 250.676952381, 4.03742857143 250.635380952, 4.02666071429 250.594666667, 4.01407142857 250.554809524, 3.99966071429 250.515809524, 3.98342857143 250.477880952, 3.96553571429 250.441238095, 3.94614285714 250.405880952, 3.92525 250.371809524, 3.90285714286 250.339559524, 3.87928571429 250.309666667, 3.85485714286 250.282130952, 3.82957142857 250.256952381, 3.80342857143 249.996380952, 4.12742857143 250.035086310, 4.16867857143 250.075773810, 4.20757142857 250.118443452, 4.24410714286 250.163095238, 4.27828571429 250.209729167, 4.31010714286 250.258345238, 4.33957142857 250.308943452, 4.36667857143 250.361523810, 4.39142857143 250.415979167, 4.41352678571 250.472202381, 4.43267857143 250.530193452, 4.44888392857 250.589952381, 4.46214285714 250.651479167, 4.47245535714 250.714773810, 4.47982142857 250.779836310, 4.48424107143 250.846666667, 4.48571428571 250.891747024, 4.48487053571 250.936130952, 4.48233928571 250.979818452, 4.47812053571 251.022809524, 4.47221428571 251.065104167, 4.46462053571 251.106702381, 4.45533928571 251.147604167, 4.44437053571 251.187809524, 4.43171428571 251.227037202, 4.4174375 251.265005952, 4.40160714286 251.301715774, 4.38422321429 251.337166667, 4.36528571429 251.371358631, 4.34479464286 251.404291667, 4.32275 251.435965774, 4.29915178571 251.466380952, 4.274 251.495376488, 4.24733482143 251.522791667, 4.21919642857 251.548626488, 4.18958482143 251.572880952, 4.1585 251.595555060, 4.12594196429 251.616648810, 4.09191071429 251.636162202, 4.05640625 251.654095238, 4.01942857143 251.670166667, 3.98104464286 251.684095238, 3.94132142857 251.695880952, 3.90025892857 251.705523810, 3.85785714286 251.713023810, 3.81411607143 251.718380952, 3.76903571429 251.721595238, 3.72261607143 251.722666667, 3.67485714286 251.721849702, 3.63745089286 251.719398810, 3.60066071429 251.715313988, 3.56448660714 251.709595238, 3.52892857143 251.702242560, 3.49398660714 251.693255952, 3.45966071429 251.682635417, 3.42595089286 251.670380952, 3.39285714286 251.656479167, 3.36059375 251.640916667, 3.329375 251.623693452, 3.29920089286 251.604809524, 3.27007142857 251.584264881, 3.24198660714 251.562059524, 3.21494642857 251.538193452, 3.18895089286 251.512666667, 3.164 251.485492560, 3.14021428571 251.456684524, 3.11771428571 251.426242560, 3.0965 251.394166667, 3.07657142857 251.360456845, 3.05792857143 251.325113095, 3.04057142857 251.288135417, 3.0245 251.249523810, 3.00971428571 251.209291667, 2.99645535714 251.167452381, 2.98496428571 251.124005952, 2.97524107143 251.078952381, 2.96728571429 251.032291667, 2.96109821429 250.984023810, 2.95667857143 Z"  />
<path d="M 252.995617560, 2.00115178571 252.948380952, 2.0 252.900300595, 2.00107142857 252.852916667, 2.00428571429 252.806229167, 2.00964285714 252.760238095, 2.01714285714 252.714943452, 2.02678571429 252.670345238, 2.03857142857 252.626443452, 2.0525 252.583238095, 2.06857142857 252.541050595, 2.08698665292 252.500202381, 2.10794650705 252.460693452, 2.13145099095 252.422523810, 2.15750010463 252.385693452, 2.18609384809 252.350202381, 2.21723222133 252.316050595, 2.25091522435 252.283238095, 2.28714285714 252.251925595, 2.32598214286 252.222273810, 2.3675 252.194282738, 2.41169642857 252.167952381, 2.45857142857 252.143282738, 2.508125 252.120273810, 2.56035714286 252.098925595, 2.61526785714 252.079238095, 2.67285714286 252.061559524, 2.73332589286 252.046238095, 2.796875 252.033273810, 2.86350446429 252.022666667, 2.93321428571 252.014416667, 3.00600446429 252.008523810, 3.081875 252.004988095, 3.16082589286 252.003809524, 3.24285714286 252.004988095, 3.32488839286 252.008523810, 3.40383928571 252.014416667, 3.47970982143 252.022666667, 3.5525 252.033273810, 3.62220982143 252.046238095, 3.68883928571 252.061559524, 3.75238839286 252.079238095, 3.81285714286 252.098925595, 3.87043303571 252.120273810, 3.92530357143 252.143282738, 3.97746875 252.167952381, 4.02692857143 252.194282738, 4.07368303571 252.222273810, 4.11773214286 252.251925595, 4.15907589286 252.283238095, 4.19771428571 252.316050595, 4.23375446429 252.350202381, 4.26730357143 252.385693452, 4.29836160714 252.422523810, 4.32692857143 252.460693452, 4.35300446429 252.500202381, 4.37658928571 252.541050595, 4.39768303571 252.583238095, 4.41628571429 252.626443452, 4.43255803571 252.670345238, 4.44666071429 252.714943452, 4.45859375 252.760238095, 4.46835714286 252.806229167, 4.47595089286 252.852916667, 4.481375 252.900300595, 4.48462946429 252.948380952, 4.48571428571 252.995617560, 4.48462946429 253.042184524, 4.481375 253.088081845, 4.47595089286 253.133309524, 4.46835714286 253.177867560, 4.45859375 253.221755952, 4.44666071429 253.264974702, 4.43255803571 253.307523810, 4.41628571429 253.349081845, 4.39768303571 253.389327381, 4.37658928571 253.428260417, 4.35300446429 253.465880952, 4.32692857143 253.502188988, 4.29836160714 253.537184524, 4.26730357143 253.570867560, 4.23375446429 253.603238095, 4.19771428571 253.634121978, 4.15907589286 253.663345160, 4.11773214286 253.690907640, 4.07368303571 253.716809419, 4.02692857143 253.741050497, 3.97746875 253.763630874, 3.92530357143 253.784550549, 3.87043303571 253.803809524, 3.81285714286 253.821086310, 3.75238839286 253.836059524, 3.68883928571 253.848729167, 3.62220982143 253.859095238, 3.5525 253.867157738, 3.47970982143 253.872916667, 3.40383928571 253.876372024, 3.32488839286 253.877523810, 3.24285714286 253.876372024, 3.16405357143 253.872916667, 3.08792857143 253.867157738, 3.01448214286 253.859095238, 2.94371428571 253.848729167, 2.875625 253.836059524, 2.81021428571 253.821086310, 2.74748214286 253.803809524, 2.68742857143 253.784550549, 2.63 253.763630874, 2.57514285714 253.741050497, 2.52285714286 253.716809419, 2.47314285714 253.690907640, 2.426 253.663345160, 2.38142857143 253.634121978, 2.33942857143 253.603238095, 2.3 253.570867560, 2.26308933149 253.537184524, 2.22864293562 253.502188988, 2.19666081238 253.465880952, 2.16714296177 253.428260417, 2.14008938381 253.389327381, 2.11550007847 253.349081845, 2.09337504578 253.307523810, 2.07371428571 253.264974702, 2.0564375 253.221755952, 2.04146428571 253.177867560, 2.02879464286 253.133309524, 2.01842857143 253.088081845, 2.01036607143 253.042184524, 2.00460714286 Z M 252.902577381, 2.44651785714 252.925358631, 2.44462946429 252.948380952, 2.444 252.970559524, 2.44469642857 252.992523810, 2.44678571429 253.014273810, 2.45026785714 253.035809524, 2.45514285714 253.057130952, 2.46141071429 253.078238095, 2.46907142857 253.099130952, 2.478125 253.119809524, 2.48857142857 253.140072917, 2.50053125 253.159720238, 2.514125 253.178751488, 2.52935267857 253.197166667, 2.54621428571 253.214965774, 2.56470982143 253.232148810, 2.58483928571 253.248715774, 2.60660267857 253.264666667, 2.63 253.279907738, 2.65507142857 253.294345238, 2.68185714286 253.307979167, 2.71035714286 253.320809524, 2.74057142857 253.332836310, 2.7725 253.344059524, 2.80614285714 253.354479167, 2.8415 253.364095238, 2.87857142857 253.372733631, 2.91745089286 253.380220238, 2.95823214286 253.386555060, 3.00091517857 253.391738095, 3.0455 253.395769345, 3.09198660714 253.398648810, 3.140375 253.400376488, 3.19066517857 253.400952381, 3.24285714286 253.400376488, 3.29829017857 253.398648810, 3.35144642857 253.395769345, 3.40232589286 253.391738095, 3.45092857143 253.386555060, 3.49725446429 253.380220238, 3.54130357143 253.372733631, 3.58307589286 253.364095238, 3.62257142857 253.354479167, 3.65997767857 253.344059524, 3.69548214286 253.332836310, 3.72908482143 253.320809524, 3.76078571429 253.307979167, 3.79058482143 253.294345238, 3.81848214286 253.279907738, 3.84447767857 253.264666667, 3.86857142857 253.248715774, 3.89089732143 253.232148810, 3.91158928571 253.214965774, 3.93064732143 253.197166667, 3.94807142857 253.178751488, 3.96386160714 253.159720238, 3.97801785714 253.140072917, 3.99054017857 253.119809524, 4.00142857143 253.099130952, 4.01087053571 253.078238095, 4.01905357143 253.057130952, 4.02597767857 253.035809524, 4.03164285714 253.014273810, 4.03604910714 252.992523810, 4.03919642857 252.970559524, 4.04108482143 252.948380952, 4.04171428571 252.925358631, 4.04108482143 252.902577381, 4.03919642857 252.880037202, 4.03604910714 252.857738095, 4.03164285714 252.835680060, 4.02597767857 252.813863095, 4.01905357143 252.792287202, 4.01087053571 252.770952381, 4.00142857143 252.750059524, 3.99054017857 252.729809524, 3.97801785714 252.710202381, 3.96386160714 252.691238095, 3.94807142857 252.672916667, 3.93064732143 252.655238095, 3.91158928571 252.638202381, 3.89089732143 252.621809524, 3.86857142857 252.606153274, 3.84447767857 252.591327381, 3.81848214286 252.577331845, 3.79058482143 252.564166667, 3.76078571429 252.551831845, 3.72908482143 252.540327381, 3.69548214286 252.529653274, 3.65997767857 252.519809524, 3.62257142857 252.510970238, 3.58307589286 252.503309524, 3.54130357143 252.496827381, 3.49725446429 252.491523810, 3.45092857143 252.487398810, 3.40232589286 252.484452381, 3.35144642857 252.482684524, 3.29829017857 252.482095238, 3.24285714286 252.482684524, 3.18742410714 252.484452381, 3.13426785714 252.487398810, 3.08338839286 252.491523810, 3.03478571429 252.496827381, 2.98845982143 252.503309524, 2.94441071429 252.510970238, 2.90263839286 252.519809524, 2.86314285714 252.529653274, 2.82573660714 252.540327381, 2.79023214286 252.551831845, 2.75662946429 252.564166667, 2.72492857143 252.577331845, 2.69512946429 252.591327381, 2.66723214286 252.606153274, 2.64123660714 252.621809524, 2.61714285714 252.638202381, 2.59481696429 252.655238095, 2.574125 252.672916667, 2.55506696429 252.691238095, 2.53764285714 252.710202381, 2.52185267857 252.729809524, 2.50769642857 252.750059524, 2.49517410714 252.770952381, 2.48428571429 252.792287202, 2.47484375 252.813863095, 2.46666071429 252.835680060, 2.45973660714 252.857738095, 2.45407142857 252.880037202, 2.44966517857 Z"  />
<path d="M 255.052760417, 2.00115178571 255.005523810, 2.0 254.957443452, 2.00107142857 254.910059524, 2.00428571429 254.863372024, 2.00964285714 254.817380952, 2.01714285714 254.772086310, 2.02678571429 254.727488095, 2.03857142857 254.683586310, 2.0525 254.640380952, 2.06857142857 254.598193452, 2.08698665292 254.557345238, 2.10794650705 254.517836310, 2.13145099095 254.479666667, 2.15750010463 254.442836310, 2.18609384809 254.407345238, 2.21723222133 254.373193452, 2.25091522435 254.340380952, 2.28714285714 254.309068452, 2.32598214286 254.279416667, 2.3675 254.251425595, 2.41169642857 254.225095238, 2.45857142857 254.200425595, 2.508125 254.177416667, 2.56035714286 254.156068452, 2.61526785714 254.136380952, 2.67285714286 254.118702381, 2.73332589286 254.103380952, 2.796875 254.090416667, 2.86350446429 254.079809524, 2.93321428571 254.071559524, 3.00600446429 254.065666667, 3.081875 254.062130952, 3.16082589286 254.060952381, 3.24285714286 254.062130952, 3.32488839286 254.065666667, 3.40383928571 254.071559524, 3.47970982143 254.079809524, 3.5525 254.090416667, 3.62220982143 254.103380952, 3.68883928571 254.118702381, 3.75238839286 254.136380952, 3.81285714286 254.156068452, 3.87043303571 254.177416667, 3.92530357143 254.200425595, 3.97746875 254.225095238, 4.02692857143 254.251425595, 4.07368303571 254.279416667, 4.11773214286 254.309068452, 4.15907589286 254.340380952, 4.19771428571 254.373193452, 4.23375446429 254.407345238, 4.26730357143 254.442836310, 4.29836160714 254.479666667, 4.32692857143 254.517836310, 4.35300446429 254.557345238, 4.37658928571 254.598193452, 4.39768303571 254.640380952, 4.41628571429 254.683586310, 4.43255803571 254.727488095, 4.44666071429 254.772086310, 4.45859375 254.817380952, 4.46835714286 254.863372024, 4.47595089286 254.910059524, 4.481375 254.957443452, 4.48462946429 255.005523810, 4.48571428571 255.052760417, 4.48462946429 255.099327381, 4.481375 255.145224702, 4.47595089286 255.190452381, 4.46835714286 255.235010417, 4.45859375 255.278898810, 4.44666071429 255.322117560, 4.43255803571 255.364666667, 4.41628571429 255.406224702, 4.39768303571 255.446470238, 4.37658928571 255.485403274, 4.35300446429 255.523023810, 4.32692857143 255.559331845, 4.29836160714 255.594327381, 4.26730357143 255.628010417, 4.23375446429 255.660380952, 4.19771428571 255.691264835, 4.15907589286 255.720488017, 4.11773214286 255.748050497, 4.07368303571 255.773952276, 4.02692857143 255.798193354, 3.97746875 255.820773731, 3.92530357143 255.841693407, 3.87043303571 255.860952381, 3.81285714286 255.878229167, 3.75238839286 255.893202381, 3.68883928571 255.905872024, 3.62220982143 255.916238095, 3.5525 255.924300595, 3.47970982143 255.930059524, 3.40383928571 255.933514881, 3.32488839286 255.934666667, 3.24285714286 255.933514881, 3.16405357143 255.930059524, 3.08792857143 255.924300595, 3.01448214286 255.916238095, 2.94371428571 255.905872024, 2.875625 255.893202381, 2.81021428571 255.878229167, 2.74748214286 255.860952381, 2.68742857143 255.841693407, 2.63 255.820773731, 2.57514285714 255.798193354, 2.52285714286 255.773952276, 2.47314285714 255.748050497, 2.426 255.720488017, 2.38142857143 255.691264835, 2.33942857143 255.660380952, 2.3 255.628010417, 2.26308933149 255.594327381, 2.22864293562 255.559331845, 2.19666081238 255.523023810, 2.16714296177 255.485403274, 2.14008938381 255.446470238, 2.11550007847 255.406224702, 2.09337504578 255.364666667, 2.07371428571 255.322117560, 2.0564375 255.278898810, 2.04146428571 255.235010417, 2.02879464286 255.190452381, 2.01842857143 255.145224702, 2.01036607143 255.099327381, 2.00460714286 Z M 254.959720238, 2.44651785714 254.982501488, 2.44462946429 255.005523810, 2.444 255.027702381, 2.44469642857 255.049666667, 2.44678571429 255.071416667, 2.45026785714 255.092952381, 2.45514285714 255.114273810, 2.46141071429 255.135380952, 2.46907142857 255.156273810, 2.478125 255.176952381, 2.48857142857 255.197215774, 2.50053125 255.216863095, 2.514125 255.235894345, 2.52935267857 255.254309524, 2.54621428571 255.272108631, 2.56470982143 255.289291667, 2.58483928571 255.305858631, 2.60660267857 255.321809524, 2.63 255.337050595, 2.65507142857 255.351488095, 2.68185714286 255.365122024, 2.71035714286 255.377952381, 2.74057142857 255.389979167, 2.7725 255.401202381, 2.80614285714 255.411622024, 2.8415 255.421238095, 2.87857142857 255.429876488, 2.91745089286 255.437363095, 2.95823214286 255.443697917, 3.00091517857 255.448880952, 3.0455 255.452912202, 3.09198660714 255.455791667, 3.140375 255.457519345, 3.19066517857 255.458095238, 3.24285714286 255.457519345, 3.29829017857 255.455791667, 3.35144642857 255.452912202, 3.40232589286 255.448880952, 3.45092857143 255.443697917, 3.49725446429 255.437363095, 3.54130357143 255.429876488, 3.58307589286 255.421238095, 3.62257142857 255.411622024, 3.65997767857 255.401202381, 3.69548214286 255.389979167, 3.72908482143 255.377952381, 3.76078571429 255.365122024, 3.79058482143 255.351488095, 3.81848214286 255.337050595, 3.84447767857 255.321809524, 3.86857142857 255.305858631, 3.89089732143 255.289291667, 3.91158928571 255.272108631, 3.93064732143 255.254309524, 3.94807142857 255.235894345, 3.96386160714 255.216863095, 3.97801785714 255.197215774, 3.99054017857 255.176952381, 4.00142857143 255.156273810, 4.01087053571 255.135380952, 4.01905357143 255.114273810, 4.02597767857 255.092952381, 4.03164285714 255.071416667, 4.03604910714 255.049666667, 4.03919642857 255.027702381, 4.04108482143 255.005523810, 4.04171428571 254.982501488, 4.04108482143 254.959720238, 4.03919642857 254.937180060, 4.03604910714 254.914880952, 4.03164285714 254.892822917, 4.02597767857 254.871005952, 4.01905357143 254.849430060, 4.01087053571 254.828095238, 4.00142857143 254.807202381, 3.99054017857 254.786952381, 3.97801785714 254.767345238, 3.96386160714 254.748380952, 3.94807142857 254.730059524, 3.93064732143 254.712380952, 3.91158928571 254.695345238, 3.89089732143 254.678952381, 3.86857142857 254.663296131, 3.84447767857 254.648470238, 3.81848214286 254.634474702, 3.79058482143 254.621309524, 3.76078571429 254.608974702, 3.72908482143 254.597470238, 3.69548214286 254.586796131, 3.65997767857 254.576952381, 3.62257142857 254.568113095, 3.58307589286 254.560452381, 3.54130357143 254.553970238, 3.49725446429 254.548666667, 3.45092857143 254.544541667, 3.40232589286 254.541595238, 3.35144642857 254.539827381, 3.29829017857 254.539238095, 3.24285714286 254.539827381, 3.18742410714 254.541595238, 3.13426785714 254.544541667, 3.08338839286 254.548666667, 3.03478571429 254.553970238, 2.98845982143 254.560452381, 2.94441071429 254.568113095, 2.90263839286 254.576952381, 2.86314285714 254.586796131, 2.82573660714 254.597470238, 2.79023214286 254.608974702, 2.75662946429 254.621309524, 2.72492857143 254.634474702, 2.69512946429 254.648470238, 2.66723214286 254.663296131, 2.64123660714 254.678952381, 2.61714285714 254.695345238, 2.59481696429 254.712380952, 2.574125 254.730059524, 2.55506696429 254.748380952, 2.53764285714 254.767345238, 2.52185267857 254.786952381, 2.50769642857 254.807202381, 2.49517410714 254.828095238, 2.48428571429 254.849430060, 2.47484375 254.871005952, 2.46666071429 254.892822917, 2.45973660714 254.914880952, 2.45407142857 254.937180060, 2.44966517857 Z"  />
<path d="M 258.334706845, 2.73787946429 258.298666667, 2.73714285714 258.257684524, 2.73805357143 258.217023810, 2.74078571429 258.176684524, 2.74533928571 258.136666667, 2.75171428571 258.097184524, 2.76017857143 258.058452381, 2.771 258.020470238, 2.78417857143 257.983238095, 2.79971428571 257.947023810, 2.81776785714 257.912095238, 2.8385 257.878452381, 2.86191071429 257.846095238, 2.888 257.815345238, 2.91692857143 257.786523810, 2.94885714286 257.759630952, 2.98378571429 257.734666667, 3.02171428571 257.712769345, 2.98919642857 257.689077381, 2.9585 257.663590774, 2.929625 257.636309524, 2.90257142857 257.607233631, 2.87733928571 257.576363095, 2.85392857143 257.543697917, 2.83233928571 257.509238095, 2.81257142857 257.473251488, 2.79489285714 257.436005952, 2.77957142857 257.397501488, 2.76660714286 257.357738095, 2.756 257.316715774, 2.74775 257.274434524, 2.74185714286 257.230894345, 2.73832142857 257.186095238, 2.73714285714 257.150738095, 2.73798660714 257.115809524, 2.74051785714 257.081309524, 2.74473660714 257.047238095, 2.75064285714 257.013595238, 2.75823660714 256.980380952, 2.76751785714 256.947595238, 2.77848660714 256.915238095, 2.79114285714 256.883711310, 2.80586160714 256.853416667, 2.82301785714 256.824354167, 2.84261160714 256.796523810, 2.86464285714 256.769925595, 2.88911160714 256.744559524, 2.91601785714 256.720425595, 2.94536160714 256.697523810, 2.97714285714 256.697523810, 2.78171428571 256.262095238, 2.78171428571 256.262095238, 4.44285714286 256.709523810, 4.44285714286 256.709523810, 3.53257142857 256.711291667, 3.48692857143 256.716595238, 3.44428571429 256.720572917, 3.42408928571 256.725434524, 3.40464285714 256.731180060, 3.38594642857 256.737809524, 3.368 256.753130952, 3.33430357143 256.770809524, 3.3035 256.790845238, 3.27558928571 256.813238095, 3.25057142857 256.837880952, 3.2285 256.864666667, 3.20942857143 256.893595238, 3.19335714286 256.924666667, 3.18028571429 256.957291667, 3.17016071429 256.990880952, 3.16292857143 257.025434524, 3.15858928571 257.060952381, 3.15714285714 257.098438988, 3.15862946429 257.133755952, 3.16308928571 257.166903274, 3.17052232143 257.197880952, 3.18092857143 257.226688988, 3.19430803571 257.253327381, 3.21066071429 257.277796131, 3.22998660714 257.300095238, 3.25228571429 257.319983631, 3.27742410714 257.337220238, 3.30526785714 257.351805060, 3.33581696429 257.363738095, 3.36907142857 257.373019345, 3.40503125 257.379648810, 3.44369642857 257.383626488, 3.48506696429 257.384952381, 3.52914285714 257.384952381, 4.44285714286 257.832380952, 4.44285714286 257.832380952, 3.53257142857 257.834148810, 3.48692857143 257.839452381, 3.44428571429 257.843430060, 3.42408928571 257.848291667, 3.40464285714 257.854037202, 3.38594642857 257.860666667, 3.368 257.875988095, 3.33430357143 257.893666667, 3.3035 257.913702381, 3.27558928571 257.936095238, 3.25057142857 257.960738095, 3.2285 257.987523810, 3.20942857143 258.016452381, 3.19335714286 258.047523810, 3.18028571429 258.080148810, 3.17016071429 258.113738095, 3.16292857143 258.148291667, 3.15858928571 258.183809524, 3.15714285714 258.220907738, 3.15862946429 258.255916667, 3.16308928571 258.288836310, 3.17052232143 258.319666667, 3.18092857143 258.348407738, 3.19430803571 258.375059524, 3.21066071429 258.399622024, 3.22998660714 258.422095238, 3.25228571429 258.442184524, 3.27742410714 258.459595238, 3.30526785714 258.474327381, 3.33581696429 258.486380952, 3.36907142857 258.495755952, 3.40503125 258.502452381, 3.44369642857 258.506470238, 3.48506696429 258.507809524, 3.52914285714 258.507809524, 4.44285714286 258.953523810, 4.44285714286 258.953523810, 3.38514285714 258.952787157, 3.34951785714 258.950577302, 3.31464285714 258.946894247, 3.28051785714 258.941737991, 3.24714285714 258.935108533, 3.21451785714 258.927005874, 3.18264285714 258.917430014, 3.15151785714 258.906380952, 3.12114285714 258.893979167, 3.09169196429 258.880345238, 3.06333928571 258.865479167, 3.03608482143 258.849380952, 3.00992857143 258.832050595, 2.98487053571 258.813488095, 2.96091071429 258.793693452, 2.93804910714 258.772666667, 2.91628571429 258.750488049, 2.89566071429 258.727238017, 2.87621428571 258.702916569, 2.85794642857 258.677523705, 2.84085714286 258.651059426, 2.82494642857 258.623523731, 2.81021428571 258.594916621, 2.79666071429 258.565238095, 2.78428571429 258.534635417, 2.77323660714 258.503255952, 2.76366071429 258.471099702, 2.75555803571 258.438166667, 2.74892857143 258.404456845, 2.74377232143 258.369970238, 2.74008928571 Z"  />
</svg>