<?xml version="1.0" encoding="utf-8"?>
<!-- Generator: Grasshopper 1.0.0, Redback Plugin. SVG Version: 6.00 Build 0) Made by Andrew Butler at Cox Architecture -->
<!DOCTYPE svg PUBLIC "-//W3C//DTD SVG 1.1//EN" "http://www.w3.org/Graphics/SVG/1.1/DTD/svg11.dtd">
<svg version="1.1" xmlns="http://www.w3.org/2000/svg" xmlns:xlink="http://www.w3.org/1999/xlink" x="0px" y="0px"
width="110.158095238mm" height="11.2428571429mm" viewBox="0 0 110.158095238 11.2428571429" xml:space="preserve">
<style type="text/css">
polyline{
fill:none;
stroke:black;
stroke-width:0.2mm;
}
polygon{
fill:white;
}
</style>
<polygon points="0.0, 11.2428571429 110.158095238, 11.2428571429 110.158095238, -0.0 0.0, -0.0" />
<polyline points="4.59676190476, 9.24285714286 37.9300952381, 9.24285714286 37.9300952381, 6.84285714286 71.2634285714, 6.84285714286 71.2634285714, 9.24285714286 104.596761905, 9.24285714286" />
<path d="M 3.13969949777, 2.00542619978 3.03371428571, 2.0 2.92746582031, 2.00542619978 2.8244140625, 2.02155245536 2.72506375558, 2.04815025112 2.62991964286, 2.08499107143 2.53948646763, 2.13184640067 2.45426897321, 2.18848772321 2.37477190290, 2.25468652344 2.3015, 2.33021428571 2.23495800781, 2.41484249442 2.17565066964, 2.50834263393 2.12408272879, 2.61048618862 2.08075892857, 2.72104464286 2.04618401228, 2.83978948103 2.02086272321, 2.9664921875 2.00529980469, 3.10092424665 2.0, 3.24285714286 2.00529980469, 3.38479003906 2.02086272321, 3.51922209821 2.04618401228, 3.64592480469 2.08075892857, 3.76466964286 2.12408272879, 3.87522809710 2.17565066964, 3.97737165179 2.23495800781, 4.07087179129 2.3015, 4.1555 2.37477190290, 4.23102776228 2.45426897321, 4.2972265625 2.53948646763, 4.35386788504 2.62991964286, 4.40072321429 2.72506375558, 4.43756403460 2.8244140625, 4.46416183036 2.92746582031, 4.48028808594 3.03371428571, 4.48571428571 3.13969949777, 4.48028808594 3.24259598214, 4.46416183036 3.34188643973, 4.43756403460 3.43705357143, 4.40072321429 3.52758007812, 4.35386788504 3.61294866071, 4.2972265625 3.69264202009, 4.23102776228 3.76614285714, 4.1555 3.83293387277, 4.07087179129 3.89249776786, 3.97737165179 3.94431724330, 3.87522809710 3.987875, 3.76466964286 4.02265373884, 3.64592480469 4.04813616071, 3.51922209821 4.06380496652, 3.38479003906 4.06914285714, 3.24285714286 4.06380496652, 3.10092424665 4.04813616071, 2.9664921875 4.02265373884, 2.83978948103 3.987875, 2.72104464286 3.94431724330, 2.61048618862 3.89249776786, 2.50834263393 3.83293387277, 2.41484249442 3.76614285714, 2.33021428571 3.69264202009, 2.25468652344 3.61294866071, 2.18848772321 3.52758007812, 2.13184640067 3.43705357143, 2.08499107143 3.34188643973, 2.04815025112 3.24259598214, 2.02155245536 Z M 2.86882519531, 2.47277036830 2.92189397321, 2.45681026786 3.03371428571, 2.444 3.14602678571, 2.45681026786 3.19923995536, 2.47277036830 3.25014285714, 2.49505357143 3.29847433036, 2.52362472098 3.34397321429, 2.55844866071 3.42542857143, 2.64671428571 3.49241964286, 2.75956919643 3.54285714286, 2.89673214286 3.57465178571, 3.057921875 3.58571428571, 3.24285714286 3.57465178571, 3.42779241071 3.54285714286, 3.58898214286 3.49241964286, 3.72614508929 3.42542857143, 3.839 3.34397321429, 3.927265625 3.29847433036, 3.96208956473 3.25014285714, 3.99066071429 3.19923995536, 4.01294391741 3.14602678571, 4.02890401786 3.03371428571, 4.04171428571 2.92189397321, 4.02890401786 2.86882519531, 4.01294391741 2.81800892857, 3.99066071429 2.76971386719, 3.96208956473 2.72420870536, 3.927265625 2.64264285714, 3.839 2.5754609375, 3.72614508929 2.5248125, 3.58898214286 2.49284709821, 3.42779241071 2.48171428571, 3.24285714286 2.49284709821, 3.057921875 2.5248125, 2.89673214286 2.5754609375, 2.75956919643 2.64264285714, 2.64671428571 2.72420870536, 2.55844866071 2.76971386719, 2.52362472098 2.81800892857, 2.49505357143 Z"  />
<path d="M 6.65578571429, 2.74916629464 6.51542857143, 2.73714285714 6.43395982143, 2.74072209821 6.35353571429, 2.75195535714 6.27520089286, 2.7715859375 6.2, 2.80035714286 6.12897767857, 2.83901227679 6.06317857143, 2.88829464286 6.00364732143, 2.94894754464 5.95142857143, 3.02171428571 5.90570870536, 2.95879129464 5.85245535714, 2.90275892857 5.79217075893, 2.85407924107 5.72535714286, 2.81321428571 5.65251674107, 2.78062611607 5.57415178571, 2.75677678571 5.49076450893, 2.74212834821 5.40285714286, 2.73714285714 5.26359821429, 2.7498125 5.19659040179, 2.7665234375 5.13221428571, 2.79092857143 5.0711328125, 2.82361049107 5.01400892857, 2.86515178571 4.96150558036, 2.91613504464 4.91428571429, 2.97714285714 4.91428571429, 2.78171428571 4.47885714286, 2.78171428571 4.47885714286, 4.44285714286 4.92628571429, 4.44285714286 4.92628571429, 3.53257142857 4.93351116071, 3.44458035714 4.95419642857, 3.36832142857 4.98685491071, 3.30379464286 5.03, 3.251 5.08214508929, 3.2099375 5.14180357143, 3.18060714286 5.20748883929, 3.16300892857 5.27771428571, 3.15714285714 5.35020647321, 3.16328348214 5.41440178571, 3.18151785714 5.46987834821, 3.21156473214 5.51621428571, 3.25314285714 5.55298772321, 3.30597098214 5.57977678571, 3.36976785714 5.59615959821, 3.44425223214 5.60171428571, 3.52914285714 5.60171428571, 4.44285714286 6.04914285714, 4.44285714286 6.04914285714, 3.53257142857 6.05636830357, 3.44458035714 6.07705357143, 3.36832142857 6.10971205357, 3.30379464286 6.15285714286, 3.251 6.20500223214, 3.2099375 6.26466071429, 3.18060714286 6.33034598214, 3.16300892857 6.40057142857, 3.15714285714 6.47257142857, 3.16328348214 6.53653571429, 3.18151785714 6.59198214286, 3.21156473214 6.63842857143, 3.25314285714 6.67539285714, 3.30597098214 6.70239285714, 3.36976785714 6.71894642857, 3.44425223214 6.72457142857, 3.52914285714 6.72457142857, 4.44285714286 7.17028571429, 4.44285714286 7.17028571429, 3.38514285714 7.15817857143, 3.24655691964 7.12292857143, 3.12116964286 7.06614285714, 3.01060825893 6.98942857143, 2.9165 6.89439285714, 2.84047209821 6.78264285714, 2.78415178571 Z"  />
<path d="M 35.1201904762, 4.44285714286 35.5830476190, 4.44285714286 35.5830476190, 2.00514285714 34.5459047619, 2.42342857143 34.5459047619, 2.88971428571 35.1201904762, 2.65657142857 Z"  />
<path d="M 37.1804614025, 2.00542619978 37.0744761905, 2.0 36.9682277251, 2.00542619978 36.8651759673, 2.02155245536 36.7658256603, 2.04815025112 36.6706815476, 2.08499107143 36.5802483724, 2.13184640067 36.4950308780, 2.18848772321 36.4155338077, 2.25468652344 36.3422619048, 2.33021428571 36.2757199126, 2.41484249442 36.2164125744, 2.50834263393 36.1648446336, 2.61048618862 36.1215208333, 2.72104464286 36.0869459170, 2.83978948103 36.0616246280, 2.9664921875 36.0460617094, 3.10092424665 36.0407619048, 3.24285714286 36.0460617094, 3.38479003906 36.0616246280, 3.51922209821 36.0869459170, 3.64592480469 36.1215208333, 3.76466964286 36.1648446336, 3.87522809710 36.2164125744, 3.97737165179 36.2757199126, 4.07087179129 36.3422619048, 4.1555 36.4155338077, 4.23102776228 36.4950308780, 4.2972265625 36.5802483724, 4.35386788504 36.6706815476, 4.40072321429 36.7658256603, 4.43756403460 36.8651759673, 4.46416183036 36.9682277251, 4.48028808594 37.0744761905, 4.48571428571 37.1804614025, 4.48028808594 37.2833578869, 4.46416183036 37.3826483445, 4.43756403460 37.4778154762, 4.40072321429 37.5683419829, 4.35386788504 37.6537105655, 4.2972265625 37.7334039249, 4.23102776228 37.8069047619, 4.1555 37.8736957775, 4.07087179129 37.9332596726, 3.97737165179 37.9850791481, 3.87522809710 38.0286369048, 3.76466964286 38.0634156436, 3.64592480469 38.0888980655, 3.51922209821 38.1045668713, 3.38479003906 38.1099047619, 3.24285714286 38.1045668713, 3.10092424665 38.0888980655, 2.9664921875 38.0634156436, 2.83978948103 38.0286369048, 2.72104464286 37.9850791481, 2.61048618862 37.9332596726, 2.50834263393 37.8736957775, 2.41484249442 37.8069047619, 2.33021428571 37.7334039249, 2.25468652344 37.6537105655, 2.18848772321 37.5683419829, 2.13184640067 37.4778154762, 2.08499107143 37.3826483445, 2.04815025112 37.2833578869, 2.02155245536 Z M 36.9095871001, 2.47277036830 36.9626558780, 2.45681026786 37.0744761905, 2.444 37.1867886905, 2.45681026786 37.2400018601, 2.47277036830 37.2909047619, 2.49505357143 37.3392362351, 2.52362472098 37.3847351190, 2.55844866071 37.4661904762, 2.64671428571 37.5331815476, 2.75956919643 37.5836190476, 2.89673214286 37.6154136905, 3.057921875 37.6264761905, 3.24285714286 37.6154136905, 3.42779241071 37.5836190476, 3.58898214286 37.5331815476, 3.72614508929 37.4661904762, 3.839 37.3847351190, 3.927265625 37.3392362351, 3.96208956473 37.2909047619, 3.99066071429 37.2400018601, 4.01294391741 37.1867886905, 4.02890401786 37.0744761905, 4.04171428571 36.9626558780, 4.02890401786 36.9095871001, 4.01294391741 36.8587708333, 3.99066071429 36.8104757719, 3.96208956473 36.7649706101, 3.927265625 36.6834047619, 3.839 36.6162228423, 3.72614508929 36.5655744048, 3.58898214286 36.5336090030, 3.42779241071 36.5224761905, 3.24285714286 36.5336090030, 3.057921875 36.5655744048, 2.89673214286 36.6162228423, 2.75956919643 36.6834047619, 2.64671428571 36.7649706101, 2.55844866071 36.8104757719, 2.52362472098 36.8587708333, 2.49505357143 Z"  />
<path d="M 40.6965476190, 2.74916629464 40.5561904762, 2.73714285714 40.4747217262, 2.74072209821 40.3942976190, 2.75195535714 40.3159627976, 2.7715859375 40.2407619048, 2.80035714286 40.1697395833, 2.83901227679 40.1039404762, 2.88829464286 40.0444092262, 2.94894754464 39.9921904762, 3.02171428571 39.9464706101, 2.95879129464 39.8932172619, 2.90275892857 39.8329326637, 2.85407924107 39.7661190476, 2.81321428571 39.6932786458, 2.78062611607 39.6149136905, 2.75677678571 39.5315264137, 2.74212834821 39.4436190476, 2.73714285714 39.3043601190, 2.7498125 39.2373523065, 2.7665234375 39.1729761905, 2.79092857143 39.1118947173, 2.82361049107 39.0547708333, 2.86515178571 39.0022674851, 2.91613504464 38.9550476190, 2.97714285714 38.9550476190, 2.78171428571 38.5196190476, 2.78171428571 38.5196190476, 4.44285714286 38.9670476190, 4.44285714286 38.9670476190, 3.53257142857 38.9742730655, 3.44458035714 38.9949583333, 3.36832142857 39.0276168155, 3.30379464286 39.0707619048, 3.251 39.1229069940, 3.2099375 39.1825654762, 3.18060714286 39.2482507440, 3.16300892857 39.3184761905, 3.15714285714 39.3909683780, 3.16328348214 39.4551636905, 3.18151785714 39.5106402530, 3.21156473214 39.5569761905, 3.25314285714 39.5937496280, 3.30597098214 39.6205386905, 3.36976785714 39.6369215030, 3.44425223214 39.6424761905, 3.52914285714 39.6424761905, 4.44285714286 40.0899047619, 4.44285714286 40.0899047619, 3.53257142857 40.0971302083, 3.44458035714 40.1178154762, 3.36832142857 40.1504739583, 3.30379464286 40.1936190476, 3.251 40.2457641369, 3.2099375 40.3054226190, 3.18060714286 40.3711078869, 3.16300892857 40.4413333333, 3.15714285714 40.5133333333, 3.16328348214 40.5772976190, 3.18151785714 40.6327440476, 3.21156473214 40.6791904762, 3.25314285714 40.7161547619, 3.30597098214 40.7431547619, 3.36976785714 40.7597083333, 3.44425223214 40.7653333333, 3.52914285714 40.7653333333, 4.44285714286 41.2110476190, 4.44285714286 41.2110476190, 3.38514285714 41.1989404762, 3.24655691964 41.1636904762, 3.12116964286 41.1069047619, 3.01060825893 41.0301904762, 2.9165 40.9351547619, 2.84047209821 40.8234047619, 2.78415178571 Z"  />
<path d="M 67.7652738095, 2.27699107143 67.6449523810, 2.41314285714 67.9432380952, 2.70628571429 68.0393184524, 2.60573214286 68.1474523810, 2.52157142857 68.2083999256, 2.48875223214 68.2751934524, 2.46376785714 68.3487771577, 2.44786383929 68.4300952381, 2.44228571429 68.5093508185, 2.44910267857 68.5807113095, 2.46885714286 68.6433530506, 2.50050446429 68.6964523810, 2.543 68.7391856399, 2.59529910714 68.7707291667, 2.65635714286 68.7902593006, 2.72512946429 68.7969523810, 2.80057142857 68.7839880952, 2.91041964286 68.7459523810, 3.01464285714 68.6841309524, 3.1146875 68.5998095238, 3.212 67.7512380952, 4.08114285714 67.7512380952, 4.44285714286 69.3369523810, 4.44285714286 69.3369523810, 4.00914285714 68.4198095238, 4.00914285714 68.9323809524, 3.476 69.0696577381, 3.32160714286 69.1285829613, 3.24179910714 69.1794523810, 3.15885714286 69.2210807292, 3.07173660714 69.2522827381, 2.97939285714 69.2718731399, 2.88078125 69.2786666667, 2.77485714286 69.2750401321, 2.69044363839 69.2642793899, 2.60965625 69.2465627325, 2.53274609375 69.2220684524, 2.45996428571 69.1909748419, 2.39156194196 69.1534601935, 2.32779017857 69.1097027995, 2.26890011161 69.0598809524, 2.21514285714 69.0041729446, 2.16676953125 68.9427570685, 2.12403125 68.8758116164, 2.08717912946 68.8035148810, 2.05646428571 68.7260451544, 2.03213783482 68.6435807292, 2.01445089286 68.5562998977, 2.00365457589 68.4643809524, 2.0 68.3065461310, 2.01079129464 68.1666309524, 2.0406875 68.0435907738, 2.08597209821 67.9363809524, 2.14292857143 67.8439568452, 2.20784040179 Z"  />
<path d="M 70.7766518787, 2.00542619978 70.6706666667, 2.0 70.5644182013, 2.00542619978 70.4613664435, 2.02155245536 70.3620161365, 2.04815025112 70.2668720238, 2.08499107143 70.1764388486, 2.13184640067 70.0912213542, 2.18848772321 70.0117242839, 2.25468652344 69.9384523810, 2.33021428571 69.8719103888, 2.41484249442 69.8126030506, 2.50834263393 69.7610351097, 2.61048618862 69.7177113095, 2.72104464286 69.6831363932, 2.83978948103 69.6578151042, 2.9664921875 69.6422521856, 3.10092424665 69.6369523810, 3.24285714286 69.6422521856, 3.38479003906 69.6578151042, 3.51922209821 69.6831363932, 3.64592480469 69.7177113095, 3.76466964286 69.7610351097, 3.87522809710 69.8126030506, 3.97737165179 69.8719103888, 4.07087179129 69.9384523810, 4.1555 70.0117242839, 4.23102776228 70.0912213542, 4.2972265625 70.1764388486, 4.35386788504 70.2668720238, 4.40072321429 70.3620161365, 4.43756403460 70.4613664435, 4.46416183036 70.5644182013, 4.48028808594 70.6706666667, 4.48571428571 70.7766518787, 4.48028808594 70.8795483631, 4.46416183036 70.9788388207, 4.43756403460 71.0740059524, 4.40072321429 71.1645324591, 4.35386788504 71.2499010417, 4.2972265625 71.3295944010, 4.23102776228 71.4030952381, 4.1555 71.4698862537, 4.07087179129 71.5294501488, 3.97737165179 71.5812696243, 3.87522809710 71.6248273810, 3.76466964286 71.6596061198, 3.64592480469 71.6850885417, 3.51922209821 71.7007573475, 3.38479003906 71.7060952381, 3.24285714286 71.7007573475, 3.10092424665 71.6850885417, 2.9664921875 71.6596061198, 2.83978948103 71.6248273810, 2.72104464286 71.5812696243, 2.61048618862 71.5294501488, 2.50834263393 71.4698862537, 2.41484249442 71.4030952381, 2.33021428571 71.3295944010, 2.25468652344 71.2499010417, 2.18848772321 71.1645324591, 2.13184640067 71.0740059524, 2.08499107143 70.9788388207, 2.04815025112 70.8795483631, 2.02155245536 Z M 70.5057775763, 2.47277036830 70.5588463542, 2.45681026786 70.6706666667, 2.444 70.7829791667, 2.45681026786 70.8361923363, 2.47277036830 70.8870952381, 2.49505357143 70.9354267113, 2.52362472098 70.9809255952, 2.55844866071 71.0623809524, 2.64671428571 71.1293720238, 2.75956919643 71.1798095238, 2.89673214286 71.2116041667, 3.057921875 71.2226666667, 3.24285714286 71.2116041667, 3.42779241071 71.1798095238, 3.58898214286 71.1293720238, 3.72614508929 71.0623809524, 3.839 70.9809255952, 3.927265625 70.9354267113, 3.96208956473 70.8870952381, 3.99066071429 70.8361923363, 4.01294391741 70.7829791667, 4.02890401786 70.6706666667, 4.04171428571 70.5588463542, 4.02890401786 70.5057775763, 4.01294391741 70.4549613095, 3.99066071429 70.4066662481, 3.96208956473 70.3611610863, 3.927265625 70.2795952381, 3.839 70.2124133185, 3.72614508929 70.1617648810, 3.58898214286 70.1297994792, 3.42779241071 70.1186666667, 3.24285714286 70.1297994792, 3.057921875 70.1617648810, 2.89673214286 70.2124133185, 2.75956919643 70.2795952381, 2.64671428571 70.3611610863, 2.55844866071 70.4066662481, 2.52362472098 70.4549613095, 2.49505357143 Z"  />
<path d="M 74.2927380952, 2.74916629464 74.1523809524, 2.73714285714 74.0709122024, 2.74072209821 73.9904880952, 2.75195535714 73.9121532738, 2.7715859375 73.8369523810, 2.80035714286 73.7659300595, 2.83901227679 73.7001309524, 2.88829464286 73.6405997024, 2.94894754464 73.5883809524, 3.02171428571 73.5426610863, 2.95879129464 73.4894077381, 2.90275892857 73.4291231399, 2.85407924107 73.3623095238, 2.81321428571 73.2894691220, 2.78062611607 73.2111041667, 2.75677678571 73.1277168899, 2.74212834821 73.0398095238, 2.73714285714 72.9005505952, 2.7498125 72.8335427827, 2.7665234375 72.7691666667, 2.79092857143 72.7080851935, 2.82361049107 72.6509613095, 2.86515178571 72.5984579613, 2.91613504464 72.5512380952, 2.97714285714 72.5512380952, 2.78171428571 72.1158095238, 2.78171428571 72.1158095238, 4.44285714286 72.5632380952, 4.44285714286 72.5632380952, 3.53257142857 72.5704635417, 3.44458035714 72.5911488095, 3.36832142857 72.6238072917, 3.30379464286 72.6669523810, 3.251 72.7190974702, 3.2099375 72.7787559524, 3.18060714286 72.8444412202, 3.16300892857 72.9146666667, 3.15714285714 72.9871588542, 3.16328348214 73.0513541667, 3.18151785714 73.1068307292, 3.21156473214 73.1531666667, 3.25314285714 73.1899401042, 3.30597098214 73.2167291667, 3.36976785714 73.2331119792, 3.44425223214 73.2386666667, 3.52914285714 73.2386666667, 4.44285714286 73.6860952381, 4.44285714286 73.6860952381, 3.53257142857 73.6933206845, 3.44458035714 73.7140059524, 3.36832142857 73.7466644345, 3.30379464286 73.7898095238, 3.251 73.8419546131, 3.2099375 73.9016130952, 3.18060714286 73.9672983631, 3.16300892857 74.0375238095, 3.15714285714 74.1095238095, 3.16328348214 74.1734880952, 3.18151785714 74.2289345238, 3.21156473214 74.2753809524, 3.25314285714 74.3123452381, 3.30597098214 74.3393452381, 3.36976785714 74.3558988095, 3.44425223214 74.3615238095, 3.52914285714 74.3615238095, 4.44285714286 74.8072380952, 4.44285714286 74.8072380952, 3.38514285714 74.7951309524, 3.24655691964 74.7598809524, 3.12116964286 74.7030952381, 3.01060825893 74.6263809524, 2.9165 74.5313452381, 2.84047209821 74.4195952381, 2.78415178571 Z"  />
<path d="M 101.940397693, 2.01259598214 101.758666667, 2.0 101.620978051, 2.007265625 101.494479167, 2.02823214286 101.378949033, 2.06165401786 101.274166667, 2.10628571429 101.179911086, 2.16088169643 101.095961310, 2.22419642857 101.022096354, 2.294984375 100.958095238, 2.372 101.249523810, 2.66514285714 101.335211310, 2.57286607143 101.387205729, 2.53161941964 101.445166667, 2.49521428571 101.508993676, 2.4648359375 101.578586310, 2.44166964286 101.653844122, 2.42690066964 101.734666667, 2.42171428571 101.815740327, 2.42665959821 101.890827381, 2.44134821429 101.958441220, 2.46555915179 102.017095238, 2.49907142857 102.065302827, 2.5416640625 102.101577381, 2.59311607143 102.124432292, 2.65320647321 102.132380952, 2.72171428571 102.123896577, 2.79290401786 102.099541667, 2.85473214286 102.060963542, 2.90715848214 102.009809524, 2.95014285714 101.947726935, 2.98364508929 101.876363095, 3.007625 101.797365327, 3.02204241071 101.712380952, 3.02685714286 101.431238095, 3.02685714286 101.431238095, 3.43828571429 101.710666667, 3.43828571429 101.805170015, 3.443328125 101.893264881, 3.458375 101.973042783, 3.48330580357 102.042595238, 3.518 102.100013765, 3.56233705357 102.143389881, 3.61619642857 102.170815104, 3.67945758929 102.180380952, 3.752 102.171896577, 3.8259453125 102.147541667, 3.88970535714 102.108963542, 3.94338058036 102.057809524, 3.98707142857 101.995726935, 4.02087834821 101.924363095, 4.04490178571 101.845365327, 4.0592421875 101.760380952, 4.064 101.683589658, 4.06010602679 101.607943452, 4.04859821429 101.534105283, 4.02973772321 101.462738095, 4.00378571429 101.394504836, 3.97100334821 101.330068452, 3.93165178571 101.270091890, 3.8859921875 101.215238095, 3.83428571429 100.939238095, 4.13771428571 101.012664435, 4.21566741071 101.096255952, 4.28466071429 101.189409970, 4.34425223214 101.291523810, 4.394 101.401994792, 4.43346205357 101.520220238, 4.46219642857 101.645597470, 4.47976116071 101.777523810, 4.48571428571 101.945962426, 4.47499330357 102.107389881, 4.44269642857 102.257045015, 4.38862276786 102.325970099, 4.35335686384 102.390166667, 4.31257142857 102.449039574, 4.26624135045 102.501993676, 4.21434151786 102.548433826, 4.15684681920 102.587764881, 4.09373214286 102.619391695, 4.02497237723 102.642719122, 3.95054241071 102.657152018, 3.87041713170 102.662095238, 3.78457142857 102.654752604, 3.69068415179 102.633247024, 3.60336607143 102.598361979, 3.52291852679 102.550880952, 3.44964285714 102.491587426, 3.38384040179 102.421264881, 3.3258125 102.340696801, 3.27586049107 102.250666667, 3.23428571429 102.330046131, 3.19124441964 102.400666667, 3.14066964286 102.461965774, 3.0827421875 102.513380952, 3.01764285714 102.554349702, 2.94555245536 102.584309524, 2.86665178571 102.602697917, 2.78112165179 102.608952381, 2.68914285714 102.604959217, 2.61303710937 102.593158854, 2.540421875 102.573819987, 2.47149302455 102.547211310, 2.40644642857 102.513601516, 2.34547795759 102.473259301, 2.28878348214 102.426453358, 2.23655887277 102.373452381, 2.189 102.314525065, 2.14630273437 102.249940104, 2.10866294643 102.179966192, 2.07627650670 102.104872024, 2.04933928571 102.024926293, 2.02804715402 Z"  />
<path d="M 104.127509022, 2.00542619978 104.021523810, 2.0 103.915275344, 2.00542619978 103.812223586, 2.02155245536 103.712873279, 2.04815025112 103.617729167, 2.08499107143 103.527295991, 2.13184640067 103.442078497, 2.18848772321 103.362581427, 2.25468652344 103.289309524, 2.33021428571 103.222767532, 2.41484249442 103.163460193, 2.50834263393 103.111892253, 2.61048618862 103.068568452, 2.72104464286 103.033993536, 2.83978948103 103.008672247, 2.9664921875 102.993109328, 3.10092424665 102.987809524, 3.24285714286 102.993109328, 3.38479003906 103.008672247, 3.51922209821 103.033993536, 3.64592480469 103.068568452, 3.76466964286 103.111892253, 3.87522809710 103.163460193, 3.97737165179 103.222767532, 4.07087179129 103.289309524, 4.1555 103.362581427, 4.23102776228 103.442078497, 4.2972265625 103.527295991, 4.35386788504 103.617729167, 4.40072321429 103.712873279, 4.43756403460 103.812223586, 4.46416183036 103.915275344, 4.48028808594 104.021523810, 4.48571428571 104.127509022, 4.48028808594 104.230405506, 4.46416183036 104.329695964, 4.43756403460 104.424863095, 4.40072321429 104.515389602, 4.35386788504 104.600758185, 4.2972265625 104.680451544, 4.23102776228 104.753952381, 4.1555 104.820743397, 4.07087179129 104.880307292, 3.97737165179 104.932126767, 3.87522809710 104.975684524, 3.76466964286 105.010463263, 3.64592480469 105.035945685, 3.51922209821 105.051614490, 3.38479003906 105.056952381, 3.24285714286 105.051614490, 3.10092424665 105.035945685, 2.9664921875 105.010463263, 2.83978948103 104.975684524, 2.72104464286 104.932126767, 2.61048618862 104.880307292, 2.50834263393 104.820743397, 2.41484249442 104.753952381, 2.33021428571 104.680451544, 2.25468652344 104.600758185, 2.18848772321 104.515389602, 2.13184640067 104.424863095, 2.08499107143 104.329695964, 2.04815025112 104.230405506, 2.02155245536 Z M 103.856634719, 2.47277036830 103.909703497, 2.45681026786 104.021523810, 2.444 104.133836310, 2.45681026786 104.187049479, 2.47277036830 104.237952381, 2.49505357143 104.286283854, 2.52362472098 104.331782738, 2.55844866071 104.413238095, 2.64671428571 104.480229167, 2.75956919643 104.530666667, 2.89673214286 104.562461310, 3.057921875 104.573523810, 3.24285714286 104.562461310, 3.42779241071 104.530666667, 3.58898214286 104.480229167, 3.72614508929 104.413238095, 3.839 104.331782738, 3.927265625 104.286283854, 3.96208956473 104.237952381, 3.99066071429 104.187049479, 4.01294391741 104.133836310, 4.02890401786 104.021523810, 4.04171428571 103.909703497, 4.02890401786 103.856634719, 4.01294391741 103.805818452, 3.99066071429 103.757523391, 3.96208956473 103.712018229, 3.927265625 103.630452381, 3.839 103.563270461, 3.72614508929 103.512622024, 3.58898214286 103.480656622, 3.42779241071 103.469523810, 3.24285714286 103.480656622, 3.057921875 103.512622024, 2.89673214286 103.563270461, 2.75956919643 103.630452381, 2.64671428571 103.712018229, 2.55844866071 103.757523391, 2.52362472098 103.805818452, 2.49505357143 Z"  />
<path d="M 107.643595238, 2.74916629464 107.503238095, 2.73714285714 107.421769345, 2.74072209821 107.341345238, 2.75195535714 107.263010417, 2.7715859375 107.187809524, 2.80035714286 107.116787202, 2.83901227679 107.050988095, 2.88829464286 106.991456845, 2.94894754464 106.939238095, 3.02171428571 106.893518229, 2.95879129464 106.840264881, 2.90275892857 106.779980283, 2.85407924107 106.713166667, 2.81321428571 106.640326265, 2.78062611607 106.561961310, 2.75677678571 106.478574033, 2.74212834821 106.390666667, 2.73714285714 106.251407738, 2.7498125 106.184399926, 2.7665234375 106.120023810, 2.79092857143 106.058942336, 2.82361049107 106.001818452, 2.86515178571 105.949315104, 2.91613504464 105.902095238, 2.97714285714 105.902095238, 2.78171428571 105.466666667, 2.78171428571 105.466666667, 4.44285714286 105.914095238, 4.44285714286 105.914095238, 3.53257142857 105.921320685, 3.44458035714 105.942005952, 3.36832142857 105.974664435, 3.30379464286 106.017809524, 3.251 106.069954613, 3.2099375 106.129613095, 3.18060714286 106.195298363, 3.16300892857 106.265523810, 3.15714285714 106.338015997, 3.16328348214 106.402211310, 3.18151785714 106.457687872, 3.21156473214 106.504023810, 3.25314285714 106.540797247, 3.30597098214 106.567586310, 3.36976785714 106.583969122, 3.44425223214 106.589523810, 3.52914285714 106.589523810, 4.44285714286 107.036952381, 4.44285714286 107.036952381, 3.53257142857 107.044177827, 3.44458035714 107.064863095, 3.36832142857 107.097521577, 3.30379464286 107.140666667, 3.251 107.192811756, 3.2099375 107.252470238, 3.18060714286 107.318155506, 3.16300892857 107.388380952, 3.15714285714 107.460380952, 3.16328348214 107.524345238, 3.18151785714 107.579791667, 3.21156473214 107.626238095, 3.25314285714 107.663202381, 3.30597098214 107.690202381, 3.36976785714 107.706755952, 3.44425223214 107.712380952, 3.52914285714 107.712380952, 4.44285714286 108.158095238, 4.44285714286 108.158095238, 3.38514285714 108.145988095, 3.24655691964 108.110738095, 3.12116964286 108.053952381, 3.01060825893 107.977238095, 2.9165 107.882202381, 2.84047209821 107.770452381, 2.78415178571 Z"  />
</svg>