<?xml version="1.0" encoding="utf-8"?>
<!-- Generator: Grasshopper 1.0.0, Redback Plugin. SVG Version: 6.00 Build 0) Made by Andrew Butler at Cox Architecture -->
<!DOCTYPE svg PUBLIC "-//W3C//DTD SVG 1.1//EN" "http://www.w3.org/Graphics/SVG/1.1/DTD/svg11.dtd">
<svg version="1.1" xmlns="http://www.w3.org/2000/svg" xmlns:xlink="http://www.w3.org/1999/xlink" x="0px" y="0px"
width="109.918333333mm" height="11.2428571429mm" viewBox="0 0 109.918333333 11.2428571429" xml:space="preserve">
<style type="text/css">
polyline{
fill:none;
stroke:black;
stroke-width:0.2mm;
}
polygon{
fill:white;
}
</style>
<polygon points="0.0, 11.2428571429 109.918333333, 11.2428571429 109.918333333, -0.0 0.0, -0.0" />
<polyline points="4.49776190476, 9.24285714286 29.4977619048, 9.24285714286 29.4977619048, 6.84285714286 54.4977619048, 6.84285714286 54.4977619048, 9.24285714286 104.497761905, 9.24285714286" />
<path d="M 3.12478571429, 2.01842857143 2.93985714286, 2.0 2.75171428571, 2.01714285714 2.57471428571, 2.06857142857 2.49167857143, 2.10794650705 2.414, 2.15750010463 2.34167857143, 2.21723222133 2.27471428571, 2.28714285714 2.21375, 2.3675 2.15942857143, 2.45857142857 2.11175, 2.56035714286 2.07071428571, 2.67285714286 2.03771428571, 2.796875 2.01414285714, 2.93321428571 2.0, 3.081875 2.0, 3.40383928571 2.01414285714, 3.5525 2.03771428571, 3.68883928571 2.07071428571, 3.81285714286 2.11175, 3.92530357143 2.15942857143, 4.02692857143 2.21375, 4.11773214286 2.27471428571, 4.19771428571 2.34167857143, 4.26730357143 2.414, 4.32692857143 2.49167857143, 4.37658928571 2.57471428571, 4.41628571429 2.75171428571, 4.46835714286 2.93985714286, 4.48571428571 3.12478571429, 4.46835714286 3.299, 4.41628571429 3.38080357143, 4.37658928571 3.45735714286, 4.32692857143 3.52866071429, 4.26730357143 3.59471428571, 4.19771428571 3.65482135010, 4.11773214286 3.70828560965, 4.02692857143 3.75510706438, 3.92530357143 3.79528571429, 3.81285714286 3.82753571429, 3.68883928571 3.85057142857, 3.5525 3.869, 3.24285714286 3.85057142857, 2.94371428571 3.82753571429, 2.81021428571 3.79528571429, 2.68742857143 3.75510706438, 2.57514285714 3.70828560965, 2.47314285714 3.65482135010, 2.38142857143 3.59471428571, 2.3 3.52866071429, 2.22864293562 3.45735714286, 2.16714296177 3.38080357143, 2.11550007847 3.299, 2.07371428571 Z M 2.76242857143, 2.48428571429 2.84921428571, 2.45407142857 2.93985714286, 2.444 3.02728571429, 2.45514285714 3.11128571429, 2.48857142857 3.18864285714, 2.54621428571 3.25614285714, 2.63 3.31228571429, 2.74057142857 3.35557142857, 2.87857142857 3.38321428571, 3.0455 3.39242857143, 3.24285714286 3.38321428571, 3.45092857143 3.35557142857, 3.62257142857 3.31228571429, 3.76078571429 3.25614285714, 3.86857142857 3.18864285714, 3.94807142857 3.11128571429, 4.00142857143 3.02728571429, 4.03164285714 2.93985714286, 4.04171428571 2.84921428571, 4.03164285714 2.76242857143, 4.00142857143 2.68271428571, 3.94807142857 2.61328571429, 3.86857142857 2.55564285714, 3.76078571429 2.51128571429, 3.62257142857 2.483, 3.45092857143 2.47357142857, 3.24285714286 2.483, 3.03478571429 2.51128571429, 2.86314285714 2.55564285714, 2.72492857143 2.61328571429, 2.61714285714 2.68271428571, 2.53764285714 Z"  />
<path d="M 6.3725, 2.74892857143 6.233, 2.73714285714 6.071, 2.75171428571 5.91757142857, 2.79971428571 5.84642857143, 2.8385 5.78042857143, 2.888 5.72085714286, 2.94885714286 5.669, 3.02171428571 5.62341071429, 2.9585 5.57064285714, 2.90257142857 5.51069642857, 2.85392857143 5.44357142857, 2.81257142857 5.37033928571, 2.77957142857 5.29207142857, 2.756 5.12042857143, 2.73714285714 4.98157142857, 2.75064285714 4.84957142857, 2.79114285714 4.78775, 2.82301785714 4.73085714286, 2.86464285714 4.67889285714, 2.91601785714 4.63185714286, 2.97714285714 4.63185714286, 2.78171428571 4.19642857143, 2.78171428571 4.19642857143, 4.44285714286 4.64385714286, 4.44285714286 4.64385714286, 3.53257142857 4.65092857143, 3.44428571429 4.67214285714, 3.368 4.70514285714, 3.3035 4.74757142857, 3.25057142857 4.799, 3.20942857143 4.859, 3.18028571429 4.92521428571, 3.16292857143 4.99528571429, 3.15714285714 5.06808928571, 3.16308928571 5.13221428571, 3.18092857143 5.18766071429, 3.21066071429 5.23442857143, 3.25228571429 5.27155357143, 3.30526785714 5.29807142857, 3.36907142857 5.31398214286, 3.44369642857 5.31928571429, 3.52914285714 5.31928571429, 4.44285714286 5.76671428571, 4.44285714286 5.76671428571, 3.53257142857 5.77378571429, 3.44428571429 5.795, 3.368 5.828, 3.3035 5.87042857143, 3.25057142857 5.92185714286, 3.20942857143 5.98185714286, 3.18028571429 6.04807142857, 3.16292857143 6.11814285714, 3.15714285714 6.19025, 3.16308928571 6.254, 3.18092857143 6.30939285714, 3.21066071429 6.35642857143, 3.25228571429 6.39392857143, 3.30526785714 6.42071428571, 3.36907142857 6.43678571429, 3.44369642857 6.44214285714, 3.52914285714 6.44214285714, 4.44285714286 6.88785714286, 4.44285714286 6.88785714286, 3.38514285714 6.87607132394, 3.24714285714 6.84071428571, 3.12114285714 6.78371428571, 3.00992857143 6.707, 2.91628571429 6.61185703823, 2.84085714286 6.49957142857, 2.78428571429 Z"  />
<path d="M 28.1275714286, 2.96728571429 27.9312857143, 2.95314285714 27.6552857143, 2.95314285714 27.6655714286, 2.47314285714 28.6375714286, 2.47314285714 28.6375714286, 2.04285714286 27.2575714286, 2.04285714286 27.2318571429, 3.37142857143 27.8027142857, 3.37142857143 27.9317142857, 3.37828571429 28.0375714286, 3.39885714286 28.1224285714, 3.431 28.1884285714, 3.47257142857 28.2366428571, 3.52271428571 28.2681428571, 3.58057142857 28.2855, 3.64357142857 28.2912857143, 3.70914285714 28.2850714286, 3.77878571429 28.2664285714, 3.84371428571 28.2353570382, 3.90264285714 28.1918571429, 3.95428571429 28.1357142857, 3.99714285714 28.0667142857, 4.02971428571 27.9852857143, 4.05028571429 27.8918571429, 4.05714285714 27.7255714286, 4.03742857143 27.5644285714, 3.98342857143 27.4204285714, 3.90285714286 27.3055714286, 3.80342857143 27.045, 4.12742857143 27.1243928571, 4.20757142857 27.2117142857, 4.27828571429 27.3069642857, 4.33957142857 27.4101428571, 4.39142857143 27.5208214286, 4.43267857143 27.6385714286, 4.46214285714 27.7633928571, 4.47982142857 27.8952857143, 4.48571428571 28.0714285714, 4.47221428571 28.2364285714, 4.43171428571 28.3857857143, 4.36528571429 28.515, 4.274 28.6215, 4.1585 28.7027142857, 4.01942857143 28.7541428571, 3.85785714286 28.7712857143, 3.67485714286 28.7582142857, 3.52892857143 28.719, 3.39285714286 28.6534285714, 3.27007142857 28.5612857143, 3.164 28.4427857143, 3.07657142857 28.2981428571, 3.00971428571 Z"  />
<path d="M 31.3725, 2.74892857143 31.233, 2.73714285714 31.071, 2.75171428571 30.9175714286, 2.79971428571 30.8464285714, 2.8385 30.7804285714, 2.888 30.7208571429, 2.94885714286 30.669, 3.02171428571 30.6234107143, 2.9585 30.5706428571, 2.90257142857 30.5106964286, 2.85392857143 30.4435714286, 2.81257142857 30.3703392857, 2.77957142857 30.2920714286, 2.756 30.1204285714, 2.73714285714 29.9815714286, 2.75064285714 29.8495714286, 2.79114285714 29.78775, 2.82301785714 29.7308571429, 2.86464285714 29.6788928571, 2.91601785714 29.6318571429, 2.97714285714 29.6318571429, 2.78171428571 29.1964285714, 2.78171428571 29.1964285714, 4.44285714286 29.6438571429, 4.44285714286 29.6438571429, 3.53257142857 29.6509285714, 3.44428571429 29.6721428571, 3.368 29.7051428571, 3.3035 29.7475714286, 3.25057142857 29.799, 3.20942857143 29.859, 3.18028571429 29.9252142857, 3.16292857143 29.9952857143, 3.15714285714 30.0680892857, 3.16308928571 30.1322142857, 3.18092857143 30.1876607143, 3.21066071429 30.2344285714, 3.25228571429 30.2715535714, 3.30526785714 30.2980714286, 3.36907142857 30.3139821429, 3.44369642857 30.3192857143, 3.52914285714 30.3192857143, 4.44285714286 30.7667142857, 4.44285714286 30.7667142857, 3.53257142857 30.7737857143, 3.44428571429 30.795, 3.368 30.828, 3.3035 30.8704285714, 3.25057142857 30.9218571429, 3.20942857143 30.9818571429, 3.18028571429 31.0480714286, 3.16292857143 31.1181428571, 3.15714285714 31.19025, 3.16308928571 31.254, 3.18092857143 31.3093928571, 3.21066071429 31.3564285714, 3.25228571429 31.3939285714, 3.30526785714 31.4207142857, 3.36907142857 31.4367857143, 3.44369642857 31.4421428571, 3.52914285714 31.4421428571, 4.44285714286 31.8878571429, 4.44285714286 31.8878571429, 3.38514285714 31.8760713239, 3.24714285714 31.8407142857, 3.12114285714 31.7837142857, 3.00992857143 31.707, 2.91628571429 31.6118570382, 2.84085714286 31.4995714286, 2.78428571429 Z"  />
<path d="M 51.7846190476, 2.62742857143 51.7846190476, 4.004 51.2154761905, 4.004 51.2154761905, 4.44285714286 52.7891904762, 4.44285714286 52.7891904762, 4.004 52.2457619048, 4.004 52.2457619048, 2.00514285714 51.1880476190, 2.37885714286 51.1880476190, 2.84 Z"  />
<path d="M 54.1552619048, 2.01842857143 53.9703333333, 2.0 53.7821904762, 2.01714285714 53.6051904762, 2.06857142857 53.5221547619, 2.10794650705 53.4444761905, 2.15750010463 53.3721547619, 2.21723222133 53.3051904762, 2.28714285714 53.2442261905, 2.3675 53.1899047619, 2.45857142857 53.1422261905, 2.56035714286 53.1011904762, 2.67285714286 53.0681904762, 2.796875 53.0446190476, 2.93321428571 53.0304761905, 3.081875 53.0304761905, 3.40383928571 53.0446190476, 3.5525 53.0681904762, 3.68883928571 53.1011904762, 3.81285714286 53.1422261905, 3.92530357143 53.1899047619, 4.02692857143 53.2442261905, 4.11773214286 53.3051904762, 4.19771428571 53.3721547619, 4.26730357143 53.4444761905, 4.32692857143 53.5221547619, 4.37658928571 53.6051904762, 4.41628571429 53.7821904762, 4.46835714286 53.9703333333, 4.48571428571 54.1552619048, 4.46835714286 54.3294761905, 4.41628571429 54.4112797619, 4.37658928571 54.4878333333, 4.32692857143 54.5591369048, 4.26730357143 54.6251904762, 4.19771428571 54.6852975406, 4.11773214286 54.7387618001, 4.02692857143 54.7855832549, 3.92530357143 54.8257619048, 3.81285714286 54.8580119048, 3.68883928571 54.8810476190, 3.5525 54.8994761905, 3.24285714286 54.8810476190, 2.94371428571 54.8580119048, 2.81021428571 54.8257619048, 2.68742857143 54.7855832549, 2.57514285714 54.7387618001, 2.47314285714 54.6852975406, 2.38142857143 54.6251904762, 2.3 54.5591369048, 2.22864293562 54.4878333333, 2.16714296177 54.4112797619, 2.11550007847 54.3294761905, 2.07371428571 Z M 53.7929047619, 2.48428571429 53.8796904762, 2.45407142857 53.9703333333, 2.444 54.0577619048, 2.45514285714 54.1417619048, 2.48857142857 54.2191190476, 2.54621428571 54.2866190476, 2.63 54.3427619048, 2.74057142857 54.3860476190, 2.87857142857 54.4136904762, 3.0455 54.4229047619, 3.24285714286 54.4136904762, 3.45092857143 54.3860476190, 3.62257142857 54.3427619048, 3.76078571429 54.2866190476, 3.86857142857 54.2191190476, 3.94807142857 54.1417619048, 4.00142857143 54.0577619048, 4.03164285714 53.9703333333, 4.04171428571 53.8796904762, 4.03164285714 53.7929047619, 4.00142857143 53.7131904762, 3.94807142857 53.6437619048, 3.86857142857 53.5861190476, 3.76078571429 53.5417619048, 3.62257142857 53.5134761905, 3.45092857143 53.5040476190, 3.24285714286 53.5134761905, 3.03478571429 53.5417619048, 2.86314285714 53.5861190476, 2.72492857143 53.6437619048, 2.61714285714 53.7131904762, 2.53764285714 Z"  />
<path d="M 57.4029761905, 2.74892857143 57.2634761905, 2.73714285714 57.1014761905, 2.75171428571 56.9480476190, 2.79971428571 56.8769047619, 2.8385 56.8109047619, 2.888 56.7513333333, 2.94885714286 56.6994761905, 3.02171428571 56.6538869048, 2.9585 56.6011190476, 2.90257142857 56.5411726190, 2.85392857143 56.4740476190, 2.81257142857 56.4008154762, 2.77957142857 56.3225476190, 2.756 56.1509047619, 2.73714285714 56.0120476190, 2.75064285714 55.8800476190, 2.79114285714 55.8182261905, 2.82301785714 55.7613333333, 2.86464285714 55.7093690476, 2.91601785714 55.6623333333, 2.97714285714 55.6623333333, 2.78171428571 55.2269047619, 2.78171428571 55.2269047619, 4.44285714286 55.6743333333, 4.44285714286 55.6743333333, 3.53257142857 55.6814047619, 3.44428571429 55.7026190476, 3.368 55.7356190476, 3.3035 55.7780476190, 3.25057142857 55.8294761905, 3.20942857143 55.8894761905, 3.18028571429 55.9556904762, 3.16292857143 56.0257619048, 3.15714285714 56.0985654762, 3.16308928571 56.1626904762, 3.18092857143 56.2181369048, 3.21066071429 56.2649047619, 3.25228571429 56.3020297619, 3.30526785714 56.3285476190, 3.36907142857 56.3444583333, 3.44369642857 56.3497619048, 3.52914285714 56.3497619048, 4.44285714286 56.7971904762, 4.44285714286 56.7971904762, 3.53257142857 56.8042619048, 3.44428571429 56.8254761905, 3.368 56.8584761905, 3.3035 56.9009047619, 3.25057142857 56.9523333333, 3.20942857143 57.0123333333, 3.18028571429 57.0785476190, 3.16292857143 57.1486190476, 3.15714285714 57.2207261905, 3.16308928571 57.2844761905, 3.18092857143 57.3398690476, 3.21066071429 57.3869047619, 3.25228571429 57.4244047619, 3.30526785714 57.4511904762, 3.36907142857 57.4672619048, 3.44369642857 57.4726190476, 3.52914285714 57.4726190476, 4.44285714286 57.9183333333, 4.44285714286 57.9183333333, 3.38514285714 57.9065475144, 3.24714285714 57.8711904762, 3.12114285714 57.8141904762, 3.00992857143 57.7374761905, 2.91628571429 57.6423332287, 2.84085714286 57.5300476190, 2.78428571429 Z"  />
<path d="M 101.162333333, 2.27685714286 101.042333333, 2.41314285714 101.340619048, 2.70628571429 101.436619048, 2.60514285714 101.544619048, 2.52114285714 101.672333333, 2.46371428571 101.745833333, 2.44764285714 101.827476190, 2.44228571429 101.906119048, 2.44892857143 101.977476190, 2.46885714286 102.040261905, 2.50078571429 102.093190476, 2.54342857143 102.135833333, 2.59571439035 102.167761905, 2.65657142857 102.187690476, 2.72514285714 102.194333333, 2.80057142857 102.181690476, 2.9105 102.143761905, 3.014 102.081833333, 3.11364285714 101.997190476, 3.212 101.148619048, 4.08114285714 101.148619048, 4.44285714286 102.734333333, 4.44285714286 102.734333333, 4.00914285714 101.817190476, 4.00914285714 102.329761905, 3.476 102.466904762, 3.32171428571 102.576619048, 3.15971428571 102.617976190, 3.07228571429 102.649476190, 2.97971428571 102.669404762, 2.88092857143 102.676047619, 2.77485714286 102.661904762, 2.6105 102.619476190, 2.46028571429 102.550690476, 2.32742857143 102.457476190, 2.21514285714 102.340690476, 2.1245 102.201190476, 2.05657142857 102.040904762, 2.01414285714 101.861761905, 2.0 101.703190476, 2.01007142857 101.563476190, 2.04028571429 101.440904762, 2.08592857143 101.333761905, 2.14228571429 101.241190476, 2.20678571429 Z"  />
<path d="M 104.155261905, 2.01842857143 103.970333333, 2.0 103.782190476, 2.01714285714 103.605190476, 2.06857142857 103.522154762, 2.10794650705 103.444476190, 2.15750010463 103.372154762, 2.21723222133 103.305190476, 2.28714285714 103.244226190, 2.3675 103.189904762, 2.45857142857 103.142226190, 2.56035714286 103.101190476, 2.67285714286 103.068190476, 2.796875 103.044619048, 2.93321428571 103.030476190, 3.081875 103.030476190, 3.40383928571 103.044619048, 3.5525 103.068190476, 3.68883928571 103.101190476, 3.81285714286 103.142226190, 3.92530357143 103.189904762, 4.02692857143 103.244226190, 4.11773214286 103.305190476, 4.19771428571 103.372154762, 4.26730357143 103.444476190, 4.32692857143 103.522154762, 4.37658928571 103.605190476, 4.41628571429 103.782190476, 4.46835714286 103.970333333, 4.48571428571 104.155261905, 4.46835714286 104.329476190, 4.41628571429 104.411279762, 4.37658928571 104.487833333, 4.32692857143 104.559136905, 4.26730357143 104.625190476, 4.19771428571 104.685297541, 4.11773214286 104.738761800, 4.02692857143 104.785583255, 3.92530357143 104.825761905, 3.81285714286 104.858011905, 3.68883928571 104.881047619, 3.5525 104.899476190, 3.24285714286 104.881047619, 2.94371428571 104.858011905, 2.81021428571 104.825761905, 2.68742857143 104.785583255, 2.57514285714 104.738761800, 2.47314285714 104.685297541, 2.38142857143 104.625190476, 2.3 104.559136905, 2.22864293562 104.487833333, 2.16714296177 104.411279762, 2.11550007847 104.329476190, 2.07371428571 Z M 103.792904762, 2.48428571429 103.879690476, 2.45407142857 103.970333333, 2.444 104.057761905, 2.45514285714 104.141761905, 2.48857142857 104.219119048, 2.54621428571 104.286619048, 2.63 104.342761905, 2.74057142857 104.386047619, 2.87857142857 104.413690476, 3.0455 104.422904762, 3.24285714286 104.413690476, 3.45092857143 104.386047619, 3.62257142857 104.342761905, 3.76078571429 104.286619048, 3.86857142857 104.219119048, 3.94807142857 104.141761905, 4.00142857143 104.057761905, 4.03164285714 103.970333333, 4.04171428571 103.879690476, 4.03164285714 103.792904762, 4.00142857143 103.713190476, 3.94807142857 103.643761905, 3.86857142857 103.586119048, 3.76078571429 103.541761905, 3.62257142857 103.513476190, 3.45092857143 103.504047619, 3.24285714286 103.513476190, 3.03478571429 103.541761905, 2.86314285714 103.586119048, 2.72492857143 103.643761905, 2.61714285714 103.713190476, 2.53764285714 Z"  />
<path d="M 107.402976190, 2.74892857143 107.263476190, 2.73714285714 107.101476190, 2.75171428571 106.948047619, 2.79971428571 106.876904762, 2.8385 106.810904762, 2.888 106.751333333, 2.94885714286 106.699476190, 3.02171428571 106.653886905, 2.9585 106.601119048, 2.90257142857 106.541172619, 2.85392857143 106.474047619, 2.81257142857 106.400815476, 2.77957142857 106.322547619, 2.756 106.150904762, 2.73714285714 106.012047619, 2.75064285714 105.880047619, 2.79114285714 105.818226190, 2.82301785714 105.761333333, 2.86464285714 105.709369048, 2.91601785714 105.662333333, 2.97714285714 105.662333333, 2.78171428571 105.226904762, 2.78171428571 105.226904762, 4.44285714286 105.674333333, 4.44285714286 105.674333333, 3.53257142857 105.681404762, 3.44428571429 105.702619048, 3.368 105.735619048, 3.3035 105.778047619, 3.25057142857 105.829476190, 3.20942857143 105.889476190, 3.18028571429 105.955690476, 3.16292857143 106.025761905, 3.15714285714 106.098565476, 3.16308928571 106.162690476, 3.18092857143 106.218136905, 3.21066071429 106.264904762, 3.25228571429 106.302029762, 3.30526785714 106.328547619, 3.36907142857 106.344458333, 3.44369642857 106.349761905, 3.52914285714 106.349761905, 4.44285714286 106.797190476, 4.44285714286 106.797190476, 3.53257142857 106.804261905, 3.44428571429 106.825476190, 3.368 106.858476190, 3.3035 106.900904762, 3.25057142857 106.952333333, 3.20942857143 107.012333333, 3.18028571429 107.078547619, 3.16292857143 107.148619048, 3.15714285714 107.220726190, 3.16308928571 107.284476190, 3.18092857143 107.339869048, 3.21066071429 107.386904762, 3.25228571429 107.424404762, 3.30526785714 107.451190476, 3.36907142857 107.467261905, 3.44369642857 107.472619048, 3.52914285714 107.472619048, 4.44285714286 107.918333333, 4.44285714286 107.918333333, 3.38514285714 107.906547514, 3.24714285714 107.871190476, 3.12114285714 107.814190476, 3.00992857143 107.737476190, 2.91628571429 107.642333229, 2.84085714286 107.530047619, 2.78428571429 Z"  />
</svg>