<?xml version="1.0" encoding="utf-8"?>
<!-- Generator: Grasshopper 1.0.0, Redback Plugin. SVG Version: 6.00 Build 0) Made by Andrew Butler at Cox Architecture -->
<!DOCTYPE svg PUBLIC "-//W3C//DTD SVG 1.1//EN" "http://www.w3.org/Graphics/SVG/1.1/DTD/svg11.dtd">
<svg version="1.1" xmlns="http://www.w3.org/2000/svg" xmlns:xlink="http://www.w3.org/1999/xlink" x="0px" y="0px"
width="111.091619048mm" height="11.2428571429mm" viewBox="0 0 111.091619048 11.2428571429" xml:space="preserve">
<style type="text/css">
polyline{
fill:none;
stroke:black;
stroke-width:0.2mm;
}
polygon{
fill:white;
}
</style>
<polygon points="0.0, 11.2428571429 111.091619048, 11.2428571429 111.091619048, -0.0 0.0, -0.0" />
<polyline points="4.59676190476, 9.24285714286 14.5967619048, 9.24285714286 14.5967619048, 6.84285714286 24.5967619048, 6.84285714286 24.5967619048, 9.24285714286 54.5967619048, 9.24285714286 54.5967619048, 6.84285714286 104.596761905, 6.84285714286" />
<path d="M 3.08706065151, 2.00136131069 3.03371428571, 2.0 2.98022201102, 2.00136131069 2.92746582031, 2.00542619978 2.87550880650, 2.01216610282 2.8244140625, 2.02155245536 2.77424468122, 2.03355669294 2.72506375558, 2.04815025112 2.67693437849, 2.06530456543 2.62991964286, 2.08499107143 2.58408264160, 2.10718120466 2.53948646763, 2.13184640067 2.49619421387, 2.15895809501 2.45426897321, 2.18848772321 2.41377383859, 2.22040672084 2.37477190290, 2.25468652344 2.33732625907, 2.29129856655 2.3015, 2.33021428571 2.26735621861, 2.37140511649 2.23495800781, 2.41484249442 2.20436846052, 2.46049785505 2.17565066964, 2.50834263393 2.14886772810, 2.55834826660 2.12408272879, 2.61048618862 2.10135876465, 2.66472783552 2.08075892857, 2.72104464286 2.06234631348, 2.77940804618 2.04618401228, 2.83978948103 2.03233511789, 2.90216038295 2.02086272321, 2.9664921875 2.01182992118, 3.03275633022 2.00529980469, 3.10092424665 2.00133546666, 3.17096737235 2.0, 3.24285714286 2.00133546666, 3.31474691336 2.00529980469, 3.38479003906 2.01182992118, 3.45295795550 2.02086272321, 3.51922209821 2.03233511789, 3.58355390276 2.04618401228, 3.64592480469 2.06234631348, 3.70630623954 2.08075892857, 3.76466964286 2.10135876465, 3.82098645020 2.12408272879, 3.87522809710 2.14886772810, 3.92736601911 2.17565066964, 3.97737165179 2.20436846052, 4.02521643066 2.23495800781, 4.07087179129 2.26735621861, 4.11430916922 2.3015, 4.1555 2.33732625907, 4.19441571917 2.37477190290, 4.23102776228 2.41377383859, 4.26530756487 2.45426897321, 4.2972265625 2.49619421387, 4.32675619071 2.53948646763, 4.35386788504 2.58408264160, 4.37853308105 2.62991964286, 4.40072321429 2.67693437849, 4.42040972028 2.72506375558, 4.43756403460 2.77424468122, 4.45215759277 2.8244140625, 4.46416183036 2.87550880650, 4.47354818290 2.92746582031, 4.48028808594 2.98022201102, 4.48435297503 3.03371428571, 4.48571428571 3.08706065151, 4.48435297503 3.13969949777, 4.48028808594 3.19156616211, 4.47354818290 3.24259598214, 4.46416183036 3.29272429548, 4.45215759277 3.34188643973, 4.43756403460 3.39001775251, 4.42040972028 3.43705357143, 4.40072321429 3.48292923410, 4.37853308105 3.52758007812, 4.35386788504 3.57094144113, 4.32675619071 3.61294866071, 4.2972265625 3.65353707450, 4.26530756487 3.69264202009, 4.23102776228 3.7301988351, 4.19441571917 3.76614285714, 4.1555 3.80040942383, 4.11430916922 3.83293387277, 4.07087179129 3.86365154157, 4.02521643066 3.89249776786, 3.97737165179 3.91940788923, 3.92736601911 3.94431724330, 3.87522809710 3.96716116769, 3.82098645020 3.987875, 3.76466964286 4.00639407785, 3.70630623954 4.02265373884, 3.64592480469 4.03658932059, 3.58355390276 4.04813616071, 3.51922209821 4.05722959682, 3.45295795550 4.06380496652, 3.38479003906 4.06779760742, 3.31474691336 4.06914285714, 3.24285714286 4.06779760742, 3.17096737235 4.06380496652, 3.10092424665 4.05722959682, 3.03275633022 4.04813616071, 2.9664921875 4.03658932059, 2.90216038295 4.02265373884, 2.83978948103 4.00639407785, 2.77940804618 3.987875, 2.72104464286 3.96716116769, 2.66472783552 3.94431724330, 2.61048618862 3.91940788923, 2.55834826660 3.89249776786, 2.50834263393 3.86365154157, 2.46049785505 3.83293387277, 2.41484249442 3.80040942383, 2.37140511649 3.76614285714, 2.33021428571 3.7301988351, 2.29129856655 3.69264202009, 2.25468652344 3.65353707450, 2.22040672084 3.61294866071, 2.18848772321 3.57094144113, 2.15895809501 3.52758007812, 2.13184640067 3.48292923410, 2.10718120466 3.43705357143, 2.08499107143 3.39001775251, 2.06530456543 3.34188643973, 2.04815025112 3.29272429548, 2.03355669294 3.24259598214, 2.02155245536 3.19156616211, 2.01216610282 3.13969949777, 2.00542619978 Z M 2.92189397321, 2.45681026786 2.97694656808, 2.44720842634 3.03371428571, 2.444 3.09076450893, 2.44720842634 3.14602678571, 2.45681026786 3.19923995536, 2.47277036830 3.25014285714, 2.49505357143 3.29847433036, 2.52362472098 3.34397321429, 2.55844866071 3.38637834821, 2.59949023437 3.42542857143, 2.64671428571 3.46086272321, 2.70008565848 3.49241964286, 2.75956919643 3.51983816964, 2.82512974330 3.54285714286, 2.89673214286 3.56121540179, 2.97434123884 3.57465178571, 3.057921875 3.58290513393, 3.14743889509 3.58571428571, 3.24285714286 3.58290513393, 3.33827539062 3.57465178571, 3.42779241071 3.56121540179, 3.51137304687 3.54285714286, 3.58898214286 3.51983816964, 3.66058454241 3.49241964286, 3.72614508929 3.46086272321, 3.78562862723 3.42542857143, 3.839 3.38637834821, 3.88622405134 3.34397321429, 3.927265625 3.29847433036, 3.96208956473 3.25014285714, 3.99066071429 3.19923995536, 4.01294391741 3.14602678571, 4.02890401786 3.09076450893, 4.03850585937 3.03371428571, 4.04171428571 2.97694656808, 4.03850585937 2.92189397321, 4.02890401786 2.86882519531, 4.01294391741 2.81800892857, 3.99066071429 2.76971386719, 3.96208956473 2.72420870536, 3.927265625 2.68176213728, 3.88622405134 2.64264285714, 3.839 2.60711955915, 3.78562862723 2.5754609375, 3.72614508929 2.54793568638, 3.66058454241 2.5248125, 3.58898214286 2.50636007254, 3.51137304687 2.49284709821, 3.42779241071 2.48454227121, 3.33827539062 2.48171428571, 3.24285714286 2.48454227121, 3.14743889509 2.49284709821, 3.057921875 2.50636007254, 2.97434123884 2.5248125, 2.89673214286 2.54793568638, 2.82512974330 2.5754609375, 2.75956919643 2.60711955915, 2.70008565848 2.64264285714, 2.64671428571 2.68176213728, 2.59949023437 2.72420870536, 2.55844866071 2.76971386719, 2.52362472098 2.81800892857, 2.49505357143 2.86882519531, 2.47277036830 Z"  />
<path d="M 6.58719419643, 2.74018261719 6.51542857143, 2.73714285714 6.43395982143, 2.74072209821 6.39355189732, 2.74533551897 6.35353571429, 2.75195535714 6.31404185268, 2.76067452567 6.27520089286, 2.7715859375 6.23714341518, 2.78478250558 6.2, 2.80035714286 6.16390122768, 2.81840276228 6.12897767857, 2.83901227679 6.09535993304, 2.86227859933 6.06317857143, 2.88829464286 6.03256417411, 2.91715332031 6.00364732143, 2.94894754464 5.97655859375, 2.98377022879 5.95142857143, 3.02171428571 5.92954171317, 2.98942034040 5.90570870536, 2.95879129464 5.87999232701, 2.92988490513 5.85245535714, 2.90275892857 5.82316057478, 2.87747112165 5.79217075893, 2.85407924107 5.75954868862, 2.83264104353 5.72535714286, 2.81321428571 5.68965890067, 2.79585672433 5.65251674107, 2.78062611607 5.61399344308, 2.76758021763 5.57415178571, 2.75677678571 5.53305454799, 2.74827357701 5.49076450893, 2.74212834821 5.44734444754, 2.73839885603 5.40285714286, 2.73714285714 5.33257477679, 2.74021316964 5.26359821429, 2.7498125 5.19659040179, 2.7665234375 5.16403194754, 2.77772781808 5.13221428571, 2.79092857143 5.10122028460, 2.80619852121 5.0711328125, 2.82361049107 5.04203473772, 2.84323730469 5.01400892857, 2.86515178571 4.98713825335, 2.88942675781 4.96150558036, 2.91613504464 4.93719377790, 2.94534946987 4.91428571429, 2.97714285714 4.91428571429, 2.78171428571 4.47885714286, 2.78171428571 4.47885714286, 4.44285714286 4.92628571429, 4.44285714286 4.92628571429, 3.53257142857 4.92812304687, 3.487109375 4.93351116071, 3.44458035714 4.94226422991, 3.404984375 4.95419642857, 3.36832142857 4.96912193080, 3.33459151786 4.98685491071, 3.30379464286 5.00720954241, 3.27593080357 5.03, 3.251 5.05504045759, 3.22900223214 5.08214508929, 3.2099375 5.11112806920, 3.19380580357 5.14180357143, 3.18060714286 5.17398577009, 3.17034151786 5.20748883929, 3.16300892857 5.24212695312, 3.158609375 5.27771428571, 3.15714285714 5.31497112165, 3.15868387277 5.35020647321, 3.16328348214 5.38336760603, 3.17090652902 5.41440178571, 3.18151785714 5.44325627790, 3.19508231027 5.46987834821, 3.21156473214 5.49421526228, 3.23092996652 5.51621428571, 3.25314285714 5.53582268415, 3.27816824777 5.55298772321, 3.30597098214 5.56765666853, 3.33651590402 5.57977678571, 3.36976785714 5.58929534040, 3.40569168527 5.59615959821, 3.44425223214 5.60031682478, 3.48541434152 5.60171428571, 3.52914285714 5.60171428571, 4.44285714286 6.04914285714, 4.44285714286 6.04914285714, 3.53257142857 6.05098018973, 3.487109375 6.05636830357, 3.44458035714 6.06512137277, 3.404984375 6.07705357143, 3.36832142857 6.09197907366, 3.33459151786 6.10971205357, 3.30379464286 6.13006668527, 3.27593080357 6.15285714286, 3.251 6.17789760045, 3.22900223214 6.20500223214, 3.2099375 6.23398521205, 3.19380580357 6.26466071429, 3.18060714286 6.29684291295, 3.17034151786 6.33034598214, 3.16300892857 6.36498409598, 3.158609375 6.40057142857, 3.15714285714 6.43754575893, 3.15868387277 6.47257142857, 3.16328348214 6.50558816964, 3.17090652902 6.53653571429, 3.18151785714 6.56535379464, 3.19508231027 6.59198214286, 3.21156473214 6.61636049107, 3.23092996652 6.63842857143, 3.25314285714 6.65812611607, 3.27816824777 6.67539285714, 3.30597098214 6.69016852679, 3.33651590402 6.70239285714, 3.36976785714 6.71200558036, 3.40569168527 6.71894642857, 3.44425223214 6.72315513393, 3.48541434152 6.72457142857, 3.52914285714 6.72457142857, 4.44285714286 7.17028571429, 4.44285714286 7.17028571429, 3.38514285714 7.16722544643, 3.31430175781 7.15817857143, 3.24655691964 7.14334598214, 3.18211174665 7.12292857143, 3.12116964286 7.09712723214, 3.06393401228 7.06614285714, 3.01060825893 7.03017633929, 2.96139578683 6.98942857143, 2.9165 6.94410044643, 2.87612430246 6.89439285714, 2.84047209821 6.84050669643, 2.80974679129 6.78264285714, 2.78415178571 6.72100223214, 2.76389048549 6.65578571429, 2.74916629464 Z"  />
<path d="M 11.7868571429, 4.44285714286 12.2497142857, 4.44285714286 12.2497142857, 2.00514285714 11.2125714286, 2.42342857143 11.2125714286, 2.88971428571 11.7868571429, 2.65657142857 Z"  />
<path d="M 13.7944892229, 2.00136131069 13.7411428571, 2.0 13.6876505824, 2.00136131069 13.6348943917, 2.00542619978 13.5829373779, 2.01216610282 13.5318426339, 2.02155245536 13.4816732527, 2.03355669294 13.4324923270, 2.04815025112 13.3843629499, 2.06530456543 13.3373482143, 2.08499107143 13.2915112130, 2.10718120466 13.2469150391, 2.13184640067 13.2036227853, 2.15895809501 13.1616975446, 2.18848772321 13.1212024100, 2.22040672084 13.0822004743, 2.25468652344 13.0447548305, 2.29129856655 13.0089285714, 2.33021428571 12.9747847900, 2.37140511649 12.9423865792, 2.41484249442 12.9117970319, 2.46049785505 12.8830792411, 2.50834263393 12.8562962995, 2.55834826660 12.8315113002, 2.61048618862 12.8087873361, 2.66472783552 12.7881875, 2.72104464286 12.7697748849, 2.77940804618 12.7536125837, 2.83978948103 12.7397636893, 2.90216038295 12.7282912946, 2.9664921875 12.7192584926, 3.03275633022 12.7127283761, 3.10092424665 12.7087640381, 3.17096737235 12.7074285714, 3.24285714286 12.7087640381, 3.31474691336 12.7127283761, 3.38479003906 12.7192584926, 3.45295795550 12.7282912946, 3.51922209821 12.7397636893, 3.58355390276 12.7536125837, 3.64592480469 12.7697748849, 3.70630623954 12.7881875, 3.76466964286 12.8087873361, 3.82098645020 12.8315113002, 3.87522809710 12.8562962995, 3.92736601911 12.8830792411, 3.97737165179 12.9117970319, 4.02521643066 12.9423865792, 4.07087179129 12.9747847900, 4.11430916922 13.0089285714, 4.1555 13.0447548305, 4.19441571917 13.0822004743, 4.23102776228 13.1212024100, 4.26530756487 13.1616975446, 4.2972265625 13.2036227853, 4.32675619071 13.2469150391, 4.35386788504 13.2915112130, 4.37853308105 13.3373482143, 4.40072321429 13.3843629499, 4.42040972028 13.4324923270, 4.43756403460 13.4816732527, 4.45215759277 13.5318426339, 4.46416183036 13.5829373779, 4.47354818290 13.6348943917, 4.48028808594 13.6876505824, 4.48435297503 13.7411428571, 4.48571428571 13.7944892229, 4.48435297503 13.8471280692, 4.48028808594 13.8989947335, 4.47354818290 13.9500245536, 4.46416183036 14.0001528669, 4.45215759277 14.0493150112, 4.43756403460 14.0974463239, 4.42040972028 14.1444821429, 4.40072321429 14.1903578055, 4.37853308105 14.2350086496, 4.35386788504 14.2783700126, 4.32675619071 14.3203772321, 4.2972265625 14.3609656459, 4.26530756487 14.4000705915, 4.23102776228 14.4376274065, 4.19441571917 14.4735714286, 4.1555 14.5078379953, 4.11430916922 14.5403624442, 4.07087179129 14.5710801130, 4.02521643066 14.5999263393, 3.97737165179 14.6268364607, 3.92736601911 14.6517458147, 3.87522809710 14.6745897391, 3.82098645020 14.6953035714, 3.76466964286 14.7138226493, 3.70630623954 14.7300823103, 3.64592480469 14.7440178920, 3.58355390276 14.7555647321, 3.51922209821 14.7646581682, 3.45295795550 14.7712335379, 3.38479003906 14.7752261789, 3.31474691336 14.7765714286, 3.24285714286 14.7752261789, 3.17096737235 14.7712335379, 3.10092424665 14.7646581682, 3.03275633022 14.7555647321, 2.9664921875 14.7440178920, 2.90216038295 14.7300823103, 2.83978948103 14.7138226493, 2.77940804618 14.6953035714, 2.72104464286 14.6745897391, 2.66472783552 14.6517458147, 2.61048618862 14.6268364607, 2.55834826660 14.5999263393, 2.50834263393 14.5710801130, 2.46049785505 14.5403624442, 2.41484249442 14.5078379953, 2.37140511649 14.4735714286, 2.33021428571 14.4376274065, 2.29129856655 14.4000705915, 2.25468652344 14.3609656459, 2.22040672084 14.3203772321, 2.18848772321 14.2783700126, 2.15895809501 14.2350086496, 2.13184640067 14.1903578055, 2.10718120466 14.1444821429, 2.08499107143 14.0974463239, 2.06530456543 14.0493150112, 2.04815025112 14.0001528669, 2.03355669294 13.9500245536, 2.02155245536 13.8989947335, 2.01216610282 13.8471280692, 2.00542619978 Z M 13.6293225446, 2.45681026786 13.6843751395, 2.44720842634 13.7411428571, 2.444 13.7981930804, 2.44720842634 13.8534553571, 2.45681026786 13.9066685268, 2.47277036830 13.9575714286, 2.49505357143 14.0059029018, 2.52362472098 14.0514017857, 2.55844866071 14.0938069196, 2.59949023437 14.1328571429, 2.64671428571 14.1682912946, 2.70008565848 14.1998482143, 2.75956919643 14.2272667411, 2.82512974330 14.2502857143, 2.89673214286 14.2686439732, 2.97434123884 14.2820803571, 3.057921875 14.2903337054, 3.14743889509 14.2931428571, 3.24285714286 14.2903337054, 3.33827539062 14.2820803571, 3.42779241071 14.2686439732, 3.51137304687 14.2502857143, 3.58898214286 14.2272667411, 3.66058454241 14.1998482143, 3.72614508929 14.1682912946, 3.78562862723 14.1328571429, 3.839 14.0938069196, 3.88622405134 14.0514017857, 3.927265625 14.0059029018, 3.96208956473 13.9575714286, 3.99066071429 13.9066685268, 4.01294391741 13.8534553571, 4.02890401786 13.7981930804, 4.03850585937 13.7411428571, 4.04171428571 13.6843751395, 4.03850585937 13.6293225446, 4.02890401786 13.5762537667, 4.01294391741 13.5254375, 3.99066071429 13.4771424386, 3.96208956473 13.4316372768, 3.927265625 13.3891907087, 3.88622405134 13.3500714286, 3.839 13.3145481306, 3.78562862723 13.2828895089, 3.72614508929 13.2553642578, 3.66058454241 13.2322410714, 3.58898214286 13.2137886440, 3.51137304687 13.2002756696, 3.42779241071 13.1919708426, 3.33827539062 13.1891428571, 3.24285714286 13.1919708426, 3.14743889509 13.2002756696, 3.057921875 13.2137886440, 2.97434123884 13.2322410714, 2.89673214286 13.2553642578, 2.82512974330 13.2828895089, 2.75956919643 13.3145481306, 2.70008565848 13.3500714286, 2.64671428571 13.3891907087, 2.59949023437 13.4316372768, 2.55844866071 13.4771424386, 2.52362472098 13.5254375, 2.49505357143 13.5762537667, 2.47277036830 Z"  />
<path d="M 17.2946227679, 2.74018261719 17.2228571429, 2.73714285714 17.1413883929, 2.74072209821 17.1009804688, 2.74533551897 17.0609642857, 2.75195535714 17.0214704241, 2.76067452567 16.9826294643, 2.7715859375 16.9445719866, 2.78478250558 16.9074285714, 2.80035714286 16.8713297991, 2.81840276228 16.83640625, 2.83901227679 16.8027885045, 2.86227859933 16.7706071429, 2.88829464286 16.7399927455, 2.91715332031 16.7110758929, 2.94894754464 16.6839871652, 2.98377022879 16.6588571429, 3.02171428571 16.6369702846, 2.98942034040 16.6131372768, 2.95879129464 16.5874208984, 2.92988490513 16.5598839286, 2.90275892857 16.5305891462, 2.87747112165 16.4995993304, 2.85407924107 16.4669772600, 2.83264104353 16.4327857143, 2.81321428571 16.3970874721, 2.79585672433 16.3599453125, 2.78062611607 16.3214220145, 2.76758021763 16.2815803571, 2.75677678571 16.2404831194, 2.74827357701 16.1981930804, 2.74212834821 16.1547730190, 2.73839885603 16.1102857143, 2.73714285714 16.0400033482, 2.74021316964 15.9710267857, 2.7498125 15.9040189732, 2.7665234375 15.8714605190, 2.77772781808 15.8396428571, 2.79092857143 15.8086488560, 2.80619852121 15.7785613839, 2.82361049107 15.7494633092, 2.84323730469 15.7214375, 2.86515178571 15.6945668248, 2.88942675781 15.6689341518, 2.91613504464 15.6446223493, 2.94534946987 15.6217142857, 2.97714285714 15.6217142857, 2.78171428571 15.1862857143, 2.78171428571 15.1862857143, 4.44285714286 15.6337142857, 4.44285714286 15.6337142857, 3.53257142857 15.6355516183, 3.487109375 15.6409397321, 3.44458035714 15.6496928013, 3.404984375 15.661625, 3.36832142857 15.6765505022, 3.33459151786 15.6942834821, 3.30379464286 15.7146381138, 3.27593080357 15.7374285714, 3.251 15.7624690290, 3.22900223214 15.7895736607, 3.2099375 15.8185566406, 3.19380580357 15.8492321429, 3.18060714286 15.8814143415, 3.17034151786 15.9149174107, 3.16300892857 15.9495555246, 3.158609375 15.9851428571, 3.15714285714 16.0223996931, 3.15868387277 16.0576350446, 3.16328348214 16.0907961775, 3.17090652902 16.1218303571, 3.18151785714 16.1506848493, 3.19508231027 16.1773069196, 3.21156473214 16.2016438337, 3.23092996652 16.2236428571, 3.25314285714 16.2432512556, 3.27816824777 16.2604162946, 3.30597098214 16.2750852400, 3.33651590402 16.2872053571, 3.36976785714 16.2967239118, 3.40569168527 16.3035881696, 3.44425223214 16.3077453962, 3.48541434152 16.3091428571, 3.52914285714 16.3091428571, 4.44285714286 16.7565714286, 4.44285714286 16.7565714286, 3.53257142857 16.7584087612, 3.487109375 16.763796875, 3.44458035714 16.7725499442, 3.404984375 16.7844821429, 3.36832142857 16.7994076451, 3.33459151786 16.817140625, 3.30379464286 16.8374952567, 3.27593080357 16.8602857143, 3.251 16.8853261719, 3.22900223214 16.9124308036, 3.2099375 16.9414137835, 3.19380580357 16.9720892857, 3.18060714286 17.0042714844, 3.17034151786 17.0377745536, 3.16300892857 17.0724126674, 3.158609375 17.108, 3.15714285714 17.1449743304, 3.15868387277 17.18, 3.16328348214 17.2130167411, 3.17090652902 17.2439642857, 3.18151785714 17.2727823661, 3.19508231027 17.2994107143, 3.21156473214 17.3237890625, 3.23092996652 17.3458571429, 3.25314285714 17.3655546875, 3.27816824777 17.3828214286, 3.30597098214 17.3975970982, 3.33651590402 17.4098214286, 3.36976785714 17.4194341518, 3.40569168527 17.426375, 3.44425223214 17.4305837054, 3.48541434152 17.432, 3.52914285714 17.432, 4.44285714286 17.8777142857, 4.44285714286 17.8777142857, 3.38514285714 17.8746540179, 3.31430175781 17.8656071429, 3.24655691964 17.8507745536, 3.18211174665 17.8303571429, 3.12116964286 17.8045558036, 3.06393401228 17.7735714286, 3.01060825893 17.7376049107, 2.96139578683 17.6968571429, 2.9165 17.6515290179, 2.87612430246 17.6018214286, 2.84047209821 17.5479352679, 2.80974679129 17.4900714286, 2.78415178571 17.4284308036, 2.76389048549 17.3632142857, 2.74916629464 Z"  />
<path d="M 21.0326205357, 2.3466640625 20.9782857143, 2.41314285714 21.2765714286, 2.70628571429 21.3235770089, 2.65458258929 21.3726517857, 2.60573214286 21.4247399554, 2.56097991071 21.4807857143, 2.52157142857 21.5105877511, 2.50426032366 21.5417332589, 2.48875223214 21.5743402623, 2.47520284598 21.6085267857, 2.46376785714 21.6444108538, 2.45460295759 21.6821104911, 2.44786383929 21.7217437221, 2.44370619420 21.7634285714, 2.44228571429 21.8039917690, 2.44401171875 21.8426841518, 2.44910267857 21.8794027623, 2.45742801339 21.9140446429, 2.46885714286 21.9465068359, 2.48325948661 21.9766863839, 2.50050446429 22.0044803292, 2.52046149554 22.0297857143, 2.543 22.0524995815, 2.56798939732 22.0725189732, 2.59529910714 22.0897409319, 2.62479854911 22.1040625, 2.65635714286 22.1153807199, 2.68984430804 22.1235926339, 2.72512946429 22.1285952846, 2.76208203125 22.1302857143, 2.80057142857 22.1270178571, 2.8562890625 22.1173214286, 2.91041964286 22.1013571429, 2.96314397321 22.0792857143, 3.01464285714 22.0512678571, 3.06509709821 22.0174642857, 3.1146875 21.9780357143, 3.16359486607 21.9331428571, 3.212 21.0845714286, 4.08114285714 21.0845714286, 4.44285714286 22.6702857143, 4.44285714286 22.6702857143, 4.00914285714 21.7531428571, 4.00914285714 22.2657142857, 3.476 22.3371953125, 3.39932589286 22.4029910714, 3.32160714286 22.4619162946, 3.24179910714 22.4884320592, 3.20078515625 22.5127857143, 3.15885714286 22.5348291016, 3.11588448661 22.5544140625, 3.07173660714 22.5713924386, 3.02628292411 22.5856160714, 2.97939285714 22.5969368025, 2.93093582589 22.6052064732, 2.88078125 22.6102769252, 2.82879854911 22.612, 2.77485714286 22.6083734654, 2.69044363839 22.5976127232, 2.60965625 22.5798960658, 2.53274609375 22.5554017857, 2.45996428571 22.5243081752, 2.39156194196 22.4867935268, 2.32779017857 22.4430361328, 2.26890011161 22.3932142857, 2.21514285714 22.3375062779, 2.16676953125 22.2760904018, 2.12403125 22.2091449498, 2.08717912946 22.1368482143, 2.05646428571 22.0593784877, 2.03213783482 21.9769140625, 2.01445089286 21.8896332310, 2.00365457589 21.7977142857, 2.0 21.7164916295, 2.00277525112 21.6398794643, 2.01079129464 21.5677472098, 2.02358356585 21.4999642857, 2.0406875 21.4364001116, 2.06163853237 21.3769241071, 2.08597209821 21.3214056920, 2.11322363281 21.2697142857, 2.14292857143 21.2217193080, 2.17462234933 21.1772901786, 2.20784040179 21.1362963170, 2.24211816406 21.0986071429, 2.27699107143 Z"  />
<path d="M 24.0573463658, 2.00136131069 24.004, 2.0 23.9505077253, 2.00136131069 23.8977515346, 2.00542619978 23.8457945208, 2.01216610282 23.7946997768, 2.02155245536 23.7445303955, 2.03355669294 23.6953494699, 2.04815025112 23.6472200928, 2.06530456543 23.6002053571, 2.08499107143 23.5543683559, 2.10718120466 23.5097721819, 2.13184640067 23.4664799282, 2.15895809501 23.4245546875, 2.18848772321 23.3840595529, 2.22040672084 23.3450576172, 2.25468652344 23.3076119734, 2.29129856655 23.2717857143, 2.33021428571 23.2376419329, 2.37140511649 23.2052437221, 2.41484249442 23.1746541748, 2.46049785505 23.1459363839, 2.50834263393 23.1191534424, 2.55834826660 23.0943684431, 2.61048618862 23.0716444789, 2.66472783552 23.0510446429, 2.72104464286 23.0326320278, 2.77940804618 23.0164697266, 2.83978948103 23.0026208322, 2.90216038295 22.9911484375, 2.9664921875 22.9821156355, 3.03275633022 22.9755855190, 3.10092424665 22.9716211809, 3.17096737235 22.9702857143, 3.24285714286 22.9716211809, 3.31474691336 22.9755855190, 3.38479003906 22.9821156355, 3.45295795550 22.9911484375, 3.51922209821 23.0026208322, 3.58355390276 23.0164697266, 3.64592480469 23.0326320278, 3.70630623954 23.0510446429, 3.76466964286 23.0716444789, 3.82098645020 23.0943684431, 3.87522809710 23.1191534424, 3.92736601911 23.1459363839, 3.97737165179 23.1746541748, 4.02521643066 23.2052437221, 4.07087179129 23.2376419329, 4.11430916922 23.2717857143, 4.1555 23.3076119734, 4.19441571917 23.3450576172, 4.23102776228 23.3840595529, 4.26530756487 23.4245546875, 4.2972265625 23.4664799282, 4.32675619071 23.5097721819, 4.35386788504 23.5543683559, 4.37853308105 23.6002053571, 4.40072321429 23.6472200928, 4.42040972028 23.6953494699, 4.43756403460 23.7445303955, 4.45215759277 23.7946997768, 4.46416183036 23.8457945208, 4.47354818290 23.8977515346, 4.48028808594 23.9505077253, 4.48435297503 24.004, 4.48571428571 24.0573463658, 4.48435297503 24.1099852121, 4.48028808594 24.1618518764, 4.47354818290 24.2128816964, 4.46416183036 24.2630100098, 4.45215759277 24.3121721540, 4.43756403460 24.3603034668, 4.42040972028 24.4073392857, 4.40072321429 24.4532149484, 4.37853308105 24.4978657924, 4.35386788504 24.5412271554, 4.32675619071 24.583234375, 4.2972265625 24.6238227888, 4.26530756487 24.6629277344, 4.23102776228 24.7004845494, 4.19441571917 24.7364285714, 4.1555 24.7706951381, 4.11430916922 24.8032195871, 4.07087179129 24.8339372559, 4.02521643066 24.8627834821, 3.97737165179 24.8896936035, 3.92736601911 24.9146029576, 3.87522809710 24.9374468820, 3.82098645020 24.9581607143, 3.76466964286 24.9766797921, 3.70630623954 24.9929394531, 3.64592480469 25.0068750349, 3.58355390276 25.018421875, 3.51922209821 25.0275153111, 3.45295795550 25.0340906808, 3.38479003906 25.0380833217, 3.31474691336 25.0394285714, 3.24285714286 25.0380833217, 3.17096737235 25.0340906808, 3.10092424665 25.0275153111, 3.03275633022 25.018421875, 2.9664921875 25.0068750349, 2.90216038295 24.9929394531, 2.83978948103 24.9766797921, 2.77940804618 24.9581607143, 2.72104464286 24.9374468820, 2.66472783552 24.9146029576, 2.61048618862 24.8896936035, 2.55834826660 24.8627834821, 2.50834263393 24.8339372559, 2.46049785505 24.8032195871, 2.41484249442 24.7706951381, 2.37140511649 24.7364285714, 2.33021428571 24.7004845494, 2.29129856655 24.6629277344, 2.25468652344 24.6238227888, 2.22040672084 24.583234375, 2.18848772321 24.5412271554, 2.15895809501 24.4978657924, 2.13184640067 24.4532149484, 2.10718120466 24.4073392857, 2.08499107143 24.3603034668, 2.06530456543 24.3121721540, 2.04815025112 24.2630100098, 2.03355669294 24.2128816964, 2.02155245536 24.1618518764, 2.01216610282 24.1099852121, 2.00542619978 Z M 23.8921796875, 2.45681026786 23.9472322824, 2.44720842634 24.004, 2.444 24.0610502232, 2.44720842634 24.1163125, 2.45681026786 24.1695256696, 2.47277036830 24.2204285714, 2.49505357143 24.2687600446, 2.52362472098 24.3142589286, 2.55844866071 24.3566640625, 2.59949023437 24.3957142857, 2.64671428571 24.4311484375, 2.70008565848 24.4627053571, 2.75956919643 24.4901238839, 2.82512974330 24.5131428571, 2.89673214286 24.5315011161, 2.97434123884 24.5449375, 3.057921875 24.5531908482, 3.14743889509 24.556, 3.24285714286 24.5531908482, 3.33827539062 24.5449375, 3.42779241071 24.5315011161, 3.51137304687 24.5131428571, 3.58898214286 24.4901238839, 3.66058454241 24.4627053571, 3.72614508929 24.4311484375, 3.78562862723 24.3957142857, 3.839 24.3566640625, 3.88622405134 24.3142589286, 3.927265625 24.2687600446, 3.96208956473 24.2204285714, 3.99066071429 24.1695256696, 4.01294391741 24.1163125, 4.02890401786 24.0610502232, 4.03850585937 24.004, 4.04171428571 23.9472322824, 4.03850585937 23.8921796875, 4.02890401786 23.8391109096, 4.01294391741 23.7882946429, 3.99066071429 23.7399995815, 3.96208956473 23.6944944196, 3.927265625 23.6520478516, 3.88622405134 23.6129285714, 3.839 23.5774052734, 3.78562862723 23.5457466518, 3.72614508929 23.5182214007, 3.66058454241 23.4950982143, 3.58898214286 23.4766457868, 3.51137304687 23.4631328125, 3.42779241071 23.4548279855, 3.33827539062 23.452, 3.24285714286 23.4548279855, 3.14743889509 23.4631328125, 3.057921875 23.4766457868, 2.97434123884 23.4950982143, 2.89673214286 23.5182214007, 2.82512974330 23.5457466518, 2.75956919643 23.5774052734, 2.70008565848 23.6129285714, 2.64671428571 23.6520478516, 2.59949023437 23.6944944196, 2.55844866071 23.7399995815, 2.52362472098 23.7882946429, 2.49505357143 23.8391109096, 2.47277036830 Z"  />
<path d="M 27.5574799107, 2.74018261719 27.4857142857, 2.73714285714 27.4042455357, 2.74072209821 27.3638376116, 2.74533551897 27.3238214286, 2.75195535714 27.2843275670, 2.76067452567 27.2454866071, 2.7715859375 27.2074291295, 2.78478250558 27.1702857143, 2.80035714286 27.1341869420, 2.81840276228 27.0992633929, 2.83901227679 27.0656456473, 2.86227859933 27.0334642857, 2.88829464286 27.0028498884, 2.91715332031 26.9739330357, 2.94894754464 26.9468443080, 2.98377022879 26.9217142857, 3.02171428571 26.8998274275, 2.98942034040 26.8759944196, 2.95879129464 26.8502780413, 2.92988490513 26.8227410714, 2.90275892857 26.7934462891, 2.87747112165 26.7624564732, 2.85407924107 26.7298344029, 2.83264104353 26.6956428571, 2.81321428571 26.6599446150, 2.79585672433 26.6228024554, 2.78062611607 26.5842791574, 2.76758021763 26.5444375, 2.75677678571 26.5033402623, 2.74827357701 26.4610502232, 2.74212834821 26.4176301618, 2.73839885603 26.3731428571, 2.73714285714 26.3028604911, 2.74021316964 26.2338839286, 2.7498125 26.1668761161, 2.7665234375 26.1343176618, 2.77772781808 26.1025, 2.79092857143 26.0715059989, 2.80619852121 26.0414185268, 2.82361049107 26.0123204520, 2.84323730469 25.9842946429, 2.86515178571 25.9574239676, 2.88942675781 25.9317912946, 2.91613504464 25.9074794922, 2.94534946987 25.8845714286, 2.97714285714 25.8845714286, 2.78171428571 25.4491428571, 2.78171428571 25.4491428571, 4.44285714286 25.8965714286, 4.44285714286 25.8965714286, 3.53257142857 25.8984087612, 3.487109375 25.903796875, 3.44458035714 25.9125499442, 3.404984375 25.9244821429, 3.36832142857 25.9394076451, 3.33459151786 25.957140625, 3.30379464286 25.9774952567, 3.27593080357 26.0002857143, 3.251 26.0253261719, 3.22900223214 26.0524308036, 3.2099375 26.0814137835, 3.19380580357 26.1120892857, 3.18060714286 26.1442714844, 3.17034151786 26.1777745536, 3.16300892857 26.2124126674, 3.158609375 26.248, 3.15714285714 26.2852568359, 3.15868387277 26.3204921875, 3.16328348214 26.3536533203, 3.17090652902 26.3846875, 3.18151785714 26.4135419922, 3.19508231027 26.4401640625, 3.21156473214 26.4645009766, 3.23092996652 26.4865, 3.25314285714 26.5061083984, 3.27816824777 26.5232734375, 3.30597098214 26.5379423828, 3.33651590402 26.5500625, 3.36976785714 26.5595810547, 3.40569168527 26.5664453125, 3.44425223214 26.5706025391, 3.48541434152 26.572, 3.52914285714 26.572, 4.44285714286 27.0194285714, 4.44285714286 27.0194285714, 3.53257142857 27.0212659040, 3.487109375 27.0266540179, 3.44458035714 27.0354070871, 3.404984375 27.0473392857, 3.36832142857 27.0622647879, 3.33459151786 27.0799977679, 3.30379464286 27.1003523996, 3.27593080357 27.1231428571, 3.251 27.1481833147, 3.22900223214 27.1752879464, 3.2099375 27.2042709263, 3.19380580357 27.2349464286, 3.18060714286 27.2671286272, 3.17034151786 27.3006316964, 3.16300892857 27.3352698103, 3.158609375 27.3708571429, 3.15714285714 27.4078314732, 3.15868387277 27.4428571429, 3.16328348214 27.4758738839, 3.17090652902 27.5068214286, 3.18151785714 27.5356395089, 3.19508231027 27.5622678571, 3.21156473214 27.5866462054, 3.23092996652 27.6087142857, 3.25314285714 27.6284118304, 3.27816824777 27.6456785714, 3.30597098214 27.6604542411, 3.33651590402 27.6726785714, 3.36976785714 27.6822912946, 3.40569168527 27.6892321429, 3.44425223214 27.6934408482, 3.48541434152 27.6948571429, 3.52914285714 27.6948571429, 4.44285714286 28.1405714286, 4.44285714286 28.1405714286, 3.38514285714 28.1375111607, 3.31430175781 28.1284642857, 3.24655691964 28.1136316964, 3.18211174665 28.0932142857, 3.12116964286 28.0674129464, 3.06393401228 28.0364285714, 3.01060825893 28.0004620536, 2.96139578683 27.9597142857, 2.9165 27.9143861607, 2.87612430246 27.8646785714, 2.84047209821 27.8107924107, 2.80974679129 27.7529285714, 2.78415178571 27.6912879464, 2.76389048549 27.6260714286, 2.74916629464 Z"  />
<path d="M 51.9327685082, 2.95684095982 51.8312380952, 2.95314285714 51.5552380952, 2.95314285714 51.5655238095, 2.47314285714 52.5375238095, 2.47314285714 52.5375238095, 2.04285714286 51.1575238095, 2.04285714286 51.1318095238, 3.37142857143 51.7026666667, 3.37142857143 51.7700222749, 3.37324372210 51.8314490327, 3.37855691964 51.8871654111, 3.38716978237 51.9373898810, 3.39888392857 51.9823409133, 3.41350097656 52.0222369792, 3.43082254464 52.0572965495, 3.45065025112 52.0877380952, 3.47278571429 52.1137800874, 3.49703055246 52.1356409970, 3.52318638393 52.1535392950, 3.55105482701 52.1676934524, 3.5804375 52.1783219401, 3.61113602121 52.1856432292, 3.64295200893 52.1898757906, 3.67568708147 52.1912380952, 3.70914285714 52.1896903832, 3.74440917969 52.1850438988, 3.77872879464 52.1772936198, 3.81191838728 52.1664345238, 3.84379464286 52.1524615885, 3.87417424665 52.1353697917, 3.90287388393 52.1151541109, 3.92971023996 52.0918095238, 3.9545 52.0653310082, 3.97705984933 52.0357135417, 3.99720647321 52.0029521019, 4.01475655692 51.9670416667, 4.02952678571 51.9279772135, 4.04133384487 51.8857537202, 4.04999441964 51.8403661644, 4.05532519531 51.7918095238, 4.05714285714 51.7502134022, 4.05585672433 51.7084691220, 4.05207700893 51.6667499535, 4.04592173549 51.6252291667, 4.03750892857 51.5840800316, 4.02695661272 51.5434758185, 4.0143828125 51.4645952381, 3.98364285714 51.3899735863, 3.94623325893 51.3209970238, 3.90309821429 51.2890588263, 3.87967871094 51.2590517113, 3.85518191964 51.2311489490, 3.82972586496 51.2055238095, 3.80342857143 50.9449523810, 4.12742857143 50.9833358910, 4.16846051897 51.0238865327, 4.20730022321 51.0665616164, 4.24388490513 51.1113184524, 4.27815178571 51.1581143508, 4.31003808594 51.2069066220, 4.33948102679 51.2576525763, 4.36641782924 51.3103095238, 4.39078571429 51.3648347749, 4.41252190290 51.4211856399, 4.43156361607 51.4793194289, 4.44784807478 51.5391934524, 4.4613125 51.6007650205, 4.47189411272 51.6639914435, 4.47953013393 51.7288300316, 4.48415778460 51.7952380952, 4.48571428571 51.8850250651, 4.48227692522 51.9721677827, 4.47203683036 52.0562318173, 4.45510198103 52.1367827381, 4.43158035714 52.2133861142, 4.40157993862 52.2856075149, 4.36520870536 52.3530125093, 4.32257463728 52.3847730945, 4.29894278390 52.4151666667, 4.27378571429 52.4441389218, 4.24711692592 52.4716355562, 4.21894991629 52.4976022659, 4.18929818290 52.5219847470, 4.15817522321 52.5447286958, 4.12559453474 52.5657798084, 4.09156961496 52.5850837809, 4.05611396136 52.6025863095, 4.01924107143 52.6182330904, 3.98096444266 52.6319698196, 3.94129757254 52.6437421933, 3.90025395857 52.6534959077, 3.85784709821 52.6611766590, 3.81409048898 52.6667301432, 3.76899762835 52.6701020566, 3.72258201381 52.6712380952, 3.67485714286 52.6679442894, 3.60064564732 52.6580662202, 3.52867410714 52.6416089100, 3.45929408482 52.6185773810, 3.39285714286 52.5889766555, 3.32971484375 52.5528117560, 3.27021875 52.5100877046, 3.21472042411 52.4608095238, 3.16357142857 52.4049822359, 3.11712332589 52.3426108631, 3.07572767857 52.2737004278, 3.03973604911 52.1982559524, 3.0095 52.1162824591, 2.98537109375 52.0277849702, 2.96770089286 Z"  />
<path d="M 54.0925844610, 2.00136131069 54.0392380952, 2.0 53.9857458205, 2.00136131069 53.9329896298, 2.00542619978 53.8810326160, 2.01216610282 53.8299378720, 2.02155245536 53.7797684907, 2.03355669294 53.7305875651, 2.04815025112 53.6824581880, 2.06530456543 53.6354434524, 2.08499107143 53.5896064511, 2.10718120466 53.5450102772, 2.13184640067 53.5017180234, 2.15895809501 53.4597927827, 2.18848772321 53.4192976481, 2.22040672084 53.3802957124, 2.25468652344 53.3428500686, 2.29129856655 53.3070238095, 2.33021428571 53.2728800281, 2.37140511649 53.2404818173, 2.41484249442 53.2098922700, 2.46049785505 53.1811744792, 2.50834263393 53.1543915376, 2.55834826660 53.1296065383, 2.61048618862 53.1068825742, 2.66472783552 53.0862827381, 2.72104464286 53.067870123, 2.77940804618 53.0517078218, 2.83978948103 53.0378589274, 2.90216038295 53.0263865327, 2.9664921875 53.0173537307, 3.03275633022 53.0108236142, 3.10092424665 53.0068592762, 3.17096737235 53.0055238095, 3.24285714286 53.0068592762, 3.31474691336 53.0108236142, 3.38479003906 53.0173537307, 3.45295795550 53.0263865327, 3.51922209821 53.0378589274, 3.58355390276 53.0517078218, 3.64592480469 53.067870123, 3.70630623954 53.0862827381, 3.76466964286 53.1068825742, 3.82098645020 53.1296065383, 3.87522809710 53.1543915376, 3.92736601911 53.1811744792, 3.97737165179 53.2098922700, 4.02521643066 53.2404818173, 4.07087179129 53.2728800281, 4.11430916922 53.3070238095, 4.1555 53.3428500686, 4.19441571917 53.3802957124, 4.23102776228 53.4192976481, 4.26530756487 53.4597927827, 4.2972265625 53.5017180234, 4.32675619071 53.5450102772, 4.35386788504 53.5896064511, 4.37853308105 53.6354434524, 4.40072321429 53.6824581880, 4.42040972028 53.7305875651, 4.43756403460 53.7797684907, 4.45215759277 53.8299378720, 4.46416183036 53.8810326160, 4.47354818290 53.9329896298, 4.48028808594 53.9857458205, 4.48435297503 54.0392380952, 4.48571428571 54.0925844610, 4.48435297503 54.1452233073, 4.48028808594 54.1970899716, 4.47354818290 54.2481197917, 4.46416183036 54.2982481050, 4.45215759277 54.3474102493, 4.43756403460 54.3955415620, 4.42040972028 54.4425773810, 4.40072321429 54.4884530436, 4.37853308105 54.5331038876, 4.35386788504 54.5764652507, 4.32675619071 54.6184724702, 4.2972265625 54.6590608840, 4.26530756487 54.6981658296, 4.23102776228 54.7357226446, 4.19441571917 54.7716666667, 4.1555 54.8059332334, 4.11430916922 54.8384576823, 4.07087179129 54.8691753511, 4.02521643066 54.8980215774, 3.97737165179 54.9249316988, 3.92736601911 54.9498410528, 3.87522809710 54.9726849772, 3.82098645020 54.9933988095, 3.76466964286 55.0119178874, 3.70630623954 55.0281775484, 3.64592480469 55.0421131301, 3.58355390276 55.0536599702, 3.51922209821 55.0627534063, 3.45295795550 55.0693287760, 3.38479003906 55.0733214169, 3.31474691336 55.0746666667, 3.24285714286 55.0733214169, 3.17096737235 55.0693287760, 3.10092424665 55.0627534063, 3.03275633022 55.0536599702, 2.9664921875 55.0421131301, 2.90216038295 55.0281775484, 2.83978948103 55.0119178874, 2.77940804618 54.9933988095, 2.72104464286 54.9726849772, 2.66472783552 54.9498410528, 2.61048618862 54.9249316988, 2.55834826660 54.8980215774, 2.50834263393 54.8691753511, 2.46049785505 54.8384576823, 2.41484249442 54.8059332334, 2.37140511649 54.7716666667, 2.33021428571 54.7357226446, 2.29129856655 54.6981658296, 2.25468652344 54.6590608840, 2.22040672084 54.6184724702, 2.18848772321 54.5764652507, 2.15895809501 54.5331038876, 2.13184640067 54.4884530436, 2.10718120466 54.4425773810, 2.08499107143 54.3955415620, 2.06530456543 54.3474102493, 2.04815025112 54.2982481050, 2.03355669294 54.2481197917, 2.02155245536 54.1970899716, 2.01216610282 54.1452233073, 2.00542619978 Z M 53.9274177827, 2.45681026786 53.9824703776, 2.44720842634 54.0392380952, 2.444 54.0962883185, 2.44720842634 54.1515505952, 2.45681026786 54.2047637649, 2.47277036830 54.2556666667, 2.49505357143 54.3039981399, 2.52362472098 54.3494970238, 2.55844866071 54.3919021577, 2.59949023437 54.4309523810, 2.64671428571 54.4663865327, 2.70008565848 54.4979434524, 2.75956919643 54.5253619792, 2.82512974330 54.5483809524, 2.89673214286 54.5667392113, 2.97434123884 54.5801755952, 3.057921875 54.5884289435, 3.14743889509 54.5912380952, 3.24285714286 54.5884289435, 3.33827539062 54.5801755952, 3.42779241071 54.5667392113, 3.51137304687 54.5483809524, 3.58898214286 54.5253619792, 3.66058454241 54.4979434524, 3.72614508929 54.4663865327, 3.78562862723 54.4309523810, 3.839 54.3919021577, 3.88622405134 54.3494970238, 3.927265625 54.3039981399, 3.96208956473 54.2556666667, 3.99066071429 54.2047637649, 4.01294391741 54.1515505952, 4.02890401786 54.0962883185, 4.03850585937 54.0392380952, 4.04171428571 53.9824703776, 4.03850585937 53.9274177827, 4.02890401786 53.8743490048, 4.01294391741 53.8235327381, 3.99066071429 53.7752376767, 3.96208956473 53.7297325149, 3.927265625 53.6872859468, 3.88622405134 53.6481666667, 3.839 53.6126433687, 3.78562862723 53.5809847470, 3.72614508929 53.5534594959, 3.66058454241 53.5303363095, 3.58898214286 53.5118838821, 3.51137304687 53.4983709077, 3.42779241071 53.4900660807, 3.33827539062 53.4872380952, 3.24285714286 53.4900660807, 3.14743889509 53.4983709077, 3.057921875 53.5118838821, 2.97434123884 53.5303363095, 2.89673214286 53.5534594959, 2.82512974330 53.5809847470, 2.75956919643 53.6126433687, 2.70008565848 53.6481666667, 2.64671428571 53.6872859468, 2.59949023437 53.7297325149, 2.55844866071 53.7752376767, 2.52362472098 53.8235327381, 2.49505357143 53.8743490048, 2.47277036830 Z"  />
<path d="M 57.5927180060, 2.74018261719 57.5209523810, 2.73714285714 57.4394836310, 2.74072209821 57.3990757068, 2.74533551897 57.3590595238, 2.75195535714 57.3195656622, 2.76067452567 57.2807247024, 2.7715859375 57.2426672247, 2.78478250558 57.2055238095, 2.80035714286 57.1694250372, 2.81840276228 57.1345014881, 2.83901227679 57.1008837426, 2.86227859933 57.0687023810, 2.88829464286 57.0380879836, 2.91715332031 57.0091711310, 2.94894754464 56.9820824033, 2.98377022879 56.9569523810, 3.02171428571 56.9350655227, 2.98942034040 56.9112325149, 2.95879129464 56.8855161365, 2.92988490513 56.8579791667, 2.90275892857 56.8286843843, 2.87747112165 56.7976945685, 2.85407924107 56.7650724981, 2.83264104353 56.7308809524, 2.81321428571 56.6951827102, 2.79585672433 56.6580405506, 2.78062611607 56.6195172526, 2.76758021763 56.5796755952, 2.75677678571 56.5385783575, 2.74827357701 56.4962883185, 2.74212834821 56.4528682571, 2.73839885603 56.4083809524, 2.73714285714 56.3380985863, 2.74021316964 56.2691220238, 2.7498125 56.2021142113, 2.7665234375 56.1695557571, 2.77772781808 56.1377380952, 2.79092857143 56.1067440941, 2.80619852121 56.0766566220, 2.82361049107 56.0475585472, 2.84323730469 56.0195327381, 2.86515178571 55.9926620629, 2.88942675781 55.9670293899, 2.91613504464 55.9427175874, 2.94534946987 55.9198095238, 2.97714285714 55.9198095238, 2.78171428571 55.4843809524, 2.78171428571 55.4843809524, 4.44285714286 55.9318095238, 4.44285714286 55.9318095238, 3.53257142857 55.9336468564, 3.487109375 55.9390349702, 3.44458035714 55.9477880394, 3.404984375 55.9597202381, 3.36832142857 55.9746457403, 3.33459151786 55.9923787202, 3.30379464286 56.0127333519, 3.27593080357 56.0355238095, 3.251 56.0605642671, 3.22900223214 56.0876688988, 3.2099375 56.1166518787, 3.19380580357 56.1473273810, 3.18060714286 56.1795095796, 3.17034151786 56.2130126488, 3.16300892857 56.2476507626, 3.158609375 56.2832380952, 3.15714285714 56.3204949312, 3.15868387277 56.3557302827, 3.16328348214 56.3888914156, 3.17090652902 56.4199255952, 3.18151785714 56.4487800874, 3.19508231027 56.4754021577, 3.21156473214 56.4997390718, 3.23092996652 56.5217380952, 3.25314285714 56.5413464937, 3.27816824777 56.5585115327, 3.30597098214 56.5731804781, 3.33651590402 56.5853005952, 3.36976785714 56.5948191499, 3.40569168527 56.6016834077, 3.44425223214 56.6058406343, 3.48541434152 56.6072380952, 3.52914285714 56.6072380952, 4.44285714286 57.0546666667, 4.44285714286 57.0546666667, 3.53257142857 57.0565039993, 3.487109375 57.0618921131, 3.44458035714 57.0706451823, 3.404984375 57.0825773810, 3.36832142857 57.0975028832, 3.33459151786 57.1152358631, 3.30379464286 57.1355904948, 3.27593080357 57.1583809524, 3.251 57.1834214100, 3.22900223214 57.2105260417, 3.2099375 57.2395090216, 3.19380580357 57.2701845238, 3.18060714286 57.3023667225, 3.17034151786 57.3358697917, 3.16300892857 57.3705079055, 3.158609375 57.4060952381, 3.15714285714 57.4430695685, 3.15868387277 57.4780952381, 3.16328348214 57.5111119792, 3.17090652902 57.5420595238, 3.18151785714 57.5708776042, 3.19508231027 57.5975059524, 3.21156473214 57.6218843006, 3.23092996652 57.6439523810, 3.25314285714 57.6636499256, 3.27816824777 57.6809166667, 3.30597098214 57.6956923363, 3.33651590402 57.7079166667, 3.36976785714 57.7175293899, 3.40569168527 57.7244702381, 3.44425223214 57.7286789435, 3.48541434152 57.7300952381, 3.52914285714 57.7300952381, 4.44285714286 58.1758095238, 4.44285714286 58.1758095238, 3.38514285714 58.1727492560, 3.31430175781 58.1637023810, 3.24655691964 58.1488697917, 3.18211174665 58.1284523810, 3.12116964286 58.1026510417, 3.06393401228 58.0716666667, 3.01060825893 58.0357001488, 2.96139578683 57.9949523810, 2.9165 57.9496242560, 2.87612430246 57.8999166667, 2.84047209821 57.8460305060, 2.80974679129 57.7881666667, 2.78415178571 57.7265260417, 2.76389048549 57.6613095238, 2.74916629464 Z"  />
<path d="M 100.580190476, 4.44285714286 101.043047619, 4.44285714286 101.043047619, 2.00514285714 100.005904762, 2.42342857143 100.005904762, 2.88971428571 100.580190476, 2.65657142857 Z"  />
<path d="M 102.587822556, 2.00136131069 102.534476190, 2.0 102.480983916, 2.00136131069 102.428227725, 2.00542619978 102.376270711, 2.01216610282 102.325175967, 2.02155245536 102.275006586, 2.03355669294 102.225825660, 2.04815025112 102.177696283, 2.06530456543 102.130681548, 2.08499107143 102.084844546, 2.10718120466 102.040248372, 2.13184640067 101.996956119, 2.15895809501 101.955030878, 2.18848772321 101.914535743, 2.22040672084 101.875533808, 2.25468652344 101.838088164, 2.29129856655 101.802261905, 2.33021428571 101.768118123, 2.37140511649 101.735719913, 2.41484249442 101.705130365, 2.46049785505 101.676412574, 2.50834263393 101.649629633, 2.55834826660 101.624844634, 2.61048618862 101.602120669, 2.66472783552 101.581520833, 2.72104464286 101.563108218, 2.77940804618 101.546945917, 2.83978948103 101.533097023, 2.90216038295 101.521624628, 2.9664921875 101.512591826, 3.03275633022 101.506061709, 3.10092424665 101.502097371, 3.17096737235 101.500761905, 3.24285714286 101.502097371, 3.31474691336 101.506061709, 3.38479003906 101.512591826, 3.45295795550 101.521624628, 3.51922209821 101.533097023, 3.58355390276 101.546945917, 3.64592480469 101.563108218, 3.70630623954 101.581520833, 3.76466964286 101.602120669, 3.82098645020 101.624844634, 3.87522809710 101.649629633, 3.92736601911 101.676412574, 3.97737165179 101.705130365, 4.02521643066 101.735719913, 4.07087179129 101.768118123, 4.11430916922 101.802261905, 4.1555 101.838088164, 4.19441571917 101.875533808, 4.23102776228 101.914535743, 4.26530756487 101.955030878, 4.2972265625 101.996956119, 4.32675619071 102.040248372, 4.35386788504 102.084844546, 4.37853308105 102.130681548, 4.40072321429 102.177696283, 4.42040972028 102.225825660, 4.43756403460 102.275006586, 4.45215759277 102.325175967, 4.46416183036 102.376270711, 4.47354818290 102.428227725, 4.48028808594 102.480983916, 4.48435297503 102.534476190, 4.48571428571 102.587822556, 4.48435297503 102.640461403, 4.48028808594 102.692328067, 4.47354818290 102.743357887, 4.46416183036 102.793486200, 4.45215759277 102.842648344, 4.43756403460 102.890779657, 4.42040972028 102.937815476, 4.40072321429 102.983691139, 4.37853308105 103.028341983, 4.35386788504 103.071703346, 4.32675619071 103.113710565, 4.2972265625 103.154298979, 4.26530756487 103.193403925, 4.23102776228 103.230960740, 4.19441571917 103.266904762, 4.1555 103.301171329, 4.11430916922 103.333695778, 4.07087179129 103.364413446, 4.02521643066 103.393259673, 3.97737165179 103.420169794, 3.92736601911 103.445079148, 3.87522809710 103.467923072, 3.82098645020 103.488636905, 3.76466964286 103.507155983, 3.70630623954 103.523415644, 3.64592480469 103.537351225, 3.58355390276 103.548898065, 3.51922209821 103.557991502, 3.45295795550 103.564566871, 3.38479003906 103.568559512, 3.31474691336 103.569904762, 3.24285714286 103.568559512, 3.17096737235 103.564566871, 3.10092424665 103.557991502, 3.03275633022 103.548898065, 2.9664921875 103.537351225, 2.90216038295 103.523415644, 2.83978948103 103.507155983, 2.77940804618 103.488636905, 2.72104464286 103.467923072, 2.66472783552 103.445079148, 2.61048618862 103.420169794, 2.55834826660 103.393259673, 2.50834263393 103.364413446, 2.46049785505 103.333695778, 2.41484249442 103.301171329, 2.37140511649 103.266904762, 2.33021428571 103.230960740, 2.29129856655 103.193403925, 2.25468652344 103.154298979, 2.22040672084 103.113710565, 2.18848772321 103.071703346, 2.15895809501 103.028341983, 2.13184640067 102.983691139, 2.10718120466 102.937815476, 2.08499107143 102.890779657, 2.06530456543 102.842648344, 2.04815025112 102.793486200, 2.03355669294 102.743357887, 2.02155245536 102.692328067, 2.01216610282 102.640461403, 2.00542619978 Z M 102.422655878, 2.45681026786 102.477708473, 2.44720842634 102.534476190, 2.444 102.591526414, 2.44720842634 102.646788690, 2.45681026786 102.700001860, 2.47277036830 102.750904762, 2.49505357143 102.799236235, 2.52362472098 102.844735119, 2.55844866071 102.887140253, 2.59949023437 102.926190476, 2.64671428571 102.961624628, 2.70008565848 102.993181548, 2.75956919643 103.020600074, 2.82512974330 103.043619048, 2.89673214286 103.061977307, 2.97434123884 103.075413690, 3.057921875 103.083667039, 3.14743889509 103.086476190, 3.24285714286 103.083667039, 3.33827539062 103.075413690, 3.42779241071 103.061977307, 3.51137304687 103.043619048, 3.58898214286 103.020600074, 3.66058454241 102.993181548, 3.72614508929 102.961624628, 3.78562862723 102.926190476, 3.839 102.887140253, 3.88622405134 102.844735119, 3.927265625 102.799236235, 3.96208956473 102.750904762, 3.99066071429 102.700001860, 4.01294391741 102.646788690, 4.02890401786 102.591526414, 4.03850585937 102.534476190, 4.04171428571 102.477708473, 4.03850585937 102.422655878, 4.02890401786 102.369587100, 4.01294391741 102.318770833, 3.99066071429 102.270475772, 3.96208956473 102.224970610, 3.927265625 102.182524042, 3.88622405134 102.143404762, 3.839 102.107881464, 3.78562862723 102.076222842, 3.72614508929 102.048697591, 3.66058454241 102.025574405, 3.58898214286 102.007121977, 3.51137304687 101.993609003, 3.42779241071 101.985304176, 3.33827539062 101.982476190, 3.24285714286 101.985304176, 3.14743889509 101.993609003, 3.057921875 102.007121977, 2.97434123884 102.025574405, 2.89673214286 102.048697591, 2.82512974330 102.076222842, 2.75956919643 102.107881464, 2.70008565848 102.143404762, 2.64671428571 102.182524042, 2.59949023437 102.224970610, 2.55844866071 102.270475772, 2.52362472098 102.318770833, 2.49505357143 102.369587100, 2.47277036830 Z"  />
<path d="M 105.008393985, 2.00136131069 104.955047619, 2.0 104.901555344, 2.00136131069 104.848799154, 2.00542619978 104.796842140, 2.01216610282 104.745747396, 2.02155245536 104.695578015, 2.03355669294 104.646397089, 2.04815025112 104.598267712, 2.06530456543 104.551252976, 2.08499107143 104.505415975, 2.10718120466 104.460819801, 2.13184640067 104.417527547, 2.15895809501 104.375602307, 2.18848772321 104.335107172, 2.22040672084 104.296105236, 2.25468652344 104.258659592, 2.29129856655 104.222833333, 2.33021428571 104.188689552, 2.37140511649 104.156291341, 2.41484249442 104.125701794, 2.46049785505 104.096984003, 2.50834263393 104.070201061, 2.55834826660 104.045416062, 2.61048618862 104.022692098, 2.66472783552 104.002092262, 2.72104464286 103.983679647, 2.77940804618 103.967517346, 2.83978948103 103.953668451, 2.90216038295 103.942196057, 2.9664921875 103.933163255, 3.03275633022 103.926633138, 3.10092424665 103.922668800, 3.17096737235 103.921333333, 3.24285714286 103.922668800, 3.31474691336 103.926633138, 3.38479003906 103.933163255, 3.45295795550 103.942196057, 3.51922209821 103.953668451, 3.58355390276 103.967517346, 3.64592480469 103.983679647, 3.70630623954 104.002092262, 3.76466964286 104.022692098, 3.82098645020 104.045416062, 3.87522809710 104.070201061, 3.92736601911 104.096984003, 3.97737165179 104.125701794, 4.02521643066 104.156291341, 4.07087179129 104.188689552, 4.11430916922 104.222833333, 4.1555 104.258659592, 4.19441571917 104.296105236, 4.23102776228 104.335107172, 4.26530756487 104.375602307, 4.2972265625 104.417527547, 4.32675619071 104.460819801, 4.35386788504 104.505415975, 4.37853308105 104.551252976, 4.40072321429 104.598267712, 4.42040972028 104.646397089, 4.43756403460 104.695578015, 4.45215759277 104.745747396, 4.46416183036 104.796842140, 4.47354818290 104.848799154, 4.48028808594 104.901555344, 4.48435297503 104.955047619, 4.48571428571 105.008393985, 4.48435297503 105.061032831, 4.48028808594 105.112899495, 4.47354818290 105.163929315, 4.46416183036 105.214057629, 4.45215759277 105.263219773, 4.43756403460 105.311351086, 4.42040972028 105.358386905, 4.40072321429 105.404262567, 4.37853308105 105.448913411, 4.35386788504 105.492274774, 4.32675619071 105.534281994, 4.2972265625 105.574870408, 4.26530756487 105.613975353, 4.23102776228 105.651532168, 4.19441571917 105.687476190, 4.1555 105.721742757, 4.11430916922 105.754267206, 4.07087179129 105.784984875, 4.02521643066 105.813831101, 3.97737165179 105.840741223, 3.92736601911 105.865650577, 3.87522809710 105.888494501, 3.82098645020 105.909208333, 3.76466964286 105.927727411, 3.70630623954 105.943987072, 3.64592480469 105.957922654, 3.58355390276 105.969469494, 3.51922209821 105.978562930, 3.45295795550 105.985138300, 3.38479003906 105.989130941, 3.31474691336 105.990476190, 3.24285714286 105.989130941, 3.17096737235 105.985138300, 3.10092424665 105.978562930, 3.03275633022 105.969469494, 2.9664921875 105.957922654, 2.90216038295 105.943987072, 2.83978948103 105.927727411, 2.77940804618 105.909208333, 2.72104464286 105.888494501, 2.66472783552 105.865650577, 2.61048618862 105.840741223, 2.55834826660 105.813831101, 2.50834263393 105.784984875, 2.46049785505 105.754267206, 2.41484249442 105.721742757, 2.37140511649 105.687476190, 2.33021428571 105.651532168, 2.29129856655 105.613975353, 2.25468652344 105.574870408, 2.22040672084 105.534281994, 2.18848772321 105.492274774, 2.15895809501 105.448913411, 2.13184640067 105.404262567, 2.10718120466 105.358386905, 2.08499107143 105.311351086, 2.06530456543 105.263219773, 2.04815025112 105.214057629, 2.03355669294 105.163929315, 2.02155245536 105.112899495, 2.01216610282 105.061032831, 2.00542619978 Z M 104.843227307, 2.45681026786 104.898279901, 2.44720842634 104.955047619, 2.444 105.012097842, 2.44720842634 105.067360119, 2.45681026786 105.120573289, 2.47277036830 105.171476190, 2.49505357143 105.219807664, 2.52362472098 105.265306548, 2.55844866071 105.307711682, 2.59949023437 105.346761905, 2.64671428571 105.382196057, 2.70008565848 105.413752976, 2.75956919643 105.441171503, 2.82512974330 105.464190476, 2.89673214286 105.482548735, 2.97434123884 105.495985119, 3.057921875 105.504238467, 3.14743889509 105.507047619, 3.24285714286 105.504238467, 3.33827539062 105.495985119, 3.42779241071 105.482548735, 3.51137304687 105.464190476, 3.58898214286 105.441171503, 3.66058454241 105.413752976, 3.72614508929 105.382196057, 3.78562862723 105.346761905, 3.839 105.307711682, 3.88622405134 105.265306548, 3.927265625 105.219807664, 3.96208956473 105.171476190, 3.99066071429 105.120573289, 4.01294391741 105.067360119, 4.02890401786 105.012097842, 4.03850585937 104.955047619, 4.04171428571 104.898279901, 4.03850585937 104.843227307, 4.02890401786 104.790158529, 4.01294391741 104.739342262, 3.99066071429 104.691047201, 3.96208956473 104.645542039, 3.927265625 104.603095471, 3.88622405134 104.563976190, 3.839 104.528452892, 3.78562862723 104.496794271, 3.72614508929 104.469269020, 3.66058454241 104.446145833, 3.58898214286 104.427693406, 3.51137304687 104.414180432, 3.42779241071 104.405875605, 3.33827539062 104.403047619, 3.24285714286 104.405875605, 3.14743889509 104.414180432, 3.057921875 104.427693406, 2.97434123884 104.446145833, 2.89673214286 104.469269020, 2.82512974330 104.496794271, 2.75956919643 104.528452892, 2.70008565848 104.563976190, 2.64671428571 104.603095471, 2.59949023437 104.645542039, 2.55844866071 104.691047201, 2.52362472098 104.739342262, 2.49505357143 104.790158529, 2.47277036830 Z"  />
<path d="M 108.508527530, 2.74018261719 108.436761905, 2.73714285714 108.355293155, 2.74072209821 108.314885231, 2.74533551897 108.274869048, 2.75195535714 108.235375186, 2.76067452567 108.196534226, 2.7715859375 108.158476749, 2.78478250558 108.121333333, 2.80035714286 108.085234561, 2.81840276228 108.050311012, 2.83901227679 108.016693266, 2.86227859933 107.984511905, 2.88829464286 107.953897507, 2.91715332031 107.924980655, 2.94894754464 107.897891927, 2.98377022879 107.872761905, 3.02171428571 107.850875047, 2.98942034040 107.827042039, 2.95879129464 107.801325660, 2.92988490513 107.773788690, 2.90275892857 107.744493908, 2.87747112165 107.713504092, 2.85407924107 107.680882022, 2.83264104353 107.646690476, 2.81321428571 107.610992234, 2.79585672433 107.573850074, 2.78062611607 107.535326776, 2.76758021763 107.495485119, 2.75677678571 107.454387881, 2.74827357701 107.412097842, 2.74212834821 107.368677781, 2.73839885603 107.324190476, 2.73714285714 107.253908110, 2.74021316964 107.184931548, 2.7498125 107.117923735, 2.7665234375 107.085365281, 2.77772781808 107.053547619, 2.79092857143 107.022553618, 2.80619852121 106.992466146, 2.82361049107 106.963368071, 2.84323730469 106.935342262, 2.86515178571 106.908471587, 2.88942675781 106.882838914, 2.91613504464 106.858527111, 2.94534946987 106.835619048, 2.97714285714 106.835619048, 2.78171428571 106.400190476, 2.78171428571 106.400190476, 4.44285714286 106.847619048, 4.44285714286 106.847619048, 3.53257142857 106.849456380, 3.487109375 106.854844494, 3.44458035714 106.863597563, 3.404984375 106.875529762, 3.36832142857 106.890455264, 3.33459151786 106.908188244, 3.30379464286 106.928542876, 3.27593080357 106.951333333, 3.251 106.976373791, 3.22900223214 107.003478423, 3.2099375 107.032461403, 3.19380580357 107.063136905, 3.18060714286 107.095319103, 3.17034151786 107.128822173, 3.16300892857 107.163460286, 3.158609375 107.199047619, 3.15714285714 107.236304455, 3.15868387277 107.271539807, 3.16328348214 107.304700939, 3.17090652902 107.335735119, 3.18151785714 107.364589611, 3.19508231027 107.391211682, 3.21156473214 107.415548596, 3.23092996652 107.437547619, 3.25314285714 107.457156017, 3.27816824777 107.474321057, 3.30597098214 107.488990002, 3.33651590402 107.501110119, 3.36976785714 107.510628674, 3.40569168527 107.517492932, 3.44425223214 107.521650158, 3.48541434152 107.523047619, 3.52914285714 107.523047619, 4.44285714286 107.970476190, 4.44285714286 107.970476190, 3.53257142857 107.972313523, 3.487109375 107.977701637, 3.44458035714 107.986454706, 3.404984375 107.998386905, 3.36832142857 108.013312407, 3.33459151786 108.031045387, 3.30379464286 108.051400019, 3.27593080357 108.074190476, 3.251 108.099230934, 3.22900223214 108.126335565, 3.2099375 108.155318545, 3.19380580357 108.185994048, 3.18060714286 108.218176246, 3.17034151786 108.251679315, 3.16300892857 108.286317429, 3.158609375 108.321904762, 3.15714285714 108.358879092, 3.15868387277 108.393904762, 3.16328348214 108.426921503, 3.17090652902 108.457869048, 3.18151785714 108.486687128, 3.19508231027 108.513315476, 3.21156473214 108.537693824, 3.23092996652 108.559761905, 3.25314285714 108.579459449, 3.27816824777 108.596726190, 3.30597098214 108.611501860, 3.33651590402 108.623726190, 3.36976785714 108.633338914, 3.40569168527 108.640279762, 3.44425223214 108.644488467, 3.48541434152 108.645904762, 3.52914285714 108.645904762, 4.44285714286 109.091619048, 4.44285714286 109.091619048, 3.38514285714 109.088558780, 3.31430175781 109.079511905, 3.24655691964 109.064679315, 3.18211174665 109.044261905, 3.12116964286 109.018460565, 3.06393401228 108.987476190, 3.01060825893 108.951509673, 2.96139578683 108.910761905, 2.9165 108.865433780, 2.87612430246 108.815726190, 2.84047209821 108.761840030, 2.80974679129 108.703976190, 2.78415178571 108.642335565, 2.76389048549 108.577119048, 2.74916629464 Z"  />
</svg>