<?xml version="1.0" encoding="utf-8"?>
<!-- Generator: Grasshopper 1.0.0, Redback Plugin. SVG Version: 6.00 Build 0) Made by Andrew Butler at Cox Architecture -->
<!DOCTYPE svg PUBLIC "-//W3C//DTD SVG 1.1//EN" "http://www.w3.org/Graphics/SVG/1.1/DTD/svg11.dtd">
<svg version="1.1" xmlns="http://www.w3.org/2000/svg" xmlns:xlink="http://www.w3.org/1999/xlink" x="0px" y="0px"
width="110.175809524mm" height="11.2428571429mm" viewBox="0 0 110.175809524 11.2428571429" xml:space="preserve">
<style type="text/css">
polyline{
fill:none;
stroke:black;
stroke-width:0.2mm;
}
polygon{
fill:white;
}
</style>
<polygon points="0.0, 11.2428571429 110.175809524, 11.2428571429 110.175809524, -0.0 0.0, -0.0" />
<polyline points="4.59676190476, 9.24285714286 24.5967619048, 9.24285714286 24.5967619048, 6.84285714286 44.5967619048, 6.84285714286 44.5967619048, 9.24285714286 104.596761905, 9.24285714286" />
<path d="M 3.13969949777, 2.00542619978 3.03371428571, 2.0 2.92746582031, 2.00542619978 2.8244140625, 2.02155245536 2.72506375558, 2.04815025112 2.62991964286, 2.08499107143 2.53948646763, 2.13184640067 2.45426897321, 2.18848772321 2.37477190290, 2.25468652344 2.3015, 2.33021428571 2.23495800781, 2.41484249442 2.17565066964, 2.50834263393 2.12408272879, 2.61048618862 2.08075892857, 2.72104464286 2.04618401228, 2.83978948103 2.02086272321, 2.9664921875 2.00529980469, 3.10092424665 2.0, 3.24285714286 2.00529980469, 3.38479003906 2.02086272321, 3.51922209821 2.04618401228, 3.64592480469 2.08075892857, 3.76466964286 2.12408272879, 3.87522809710 2.17565066964, 3.97737165179 2.23495800781, 4.07087179129 2.3015, 4.1555 2.37477190290, 4.23102776228 2.45426897321, 4.2972265625 2.53948646763, 4.35386788504 2.62991964286, 4.40072321429 2.72506375558, 4.43756403460 2.8244140625, 4.46416183036 2.92746582031, 4.48028808594 3.03371428571, 4.48571428571 3.13969949777, 4.48028808594 3.24259598214, 4.46416183036 3.34188643973, 4.43756403460 3.43705357143, 4.40072321429 3.52758007813, 4.35386788504 3.61294866071, 4.2972265625 3.69264202009, 4.23102776228 3.76614285714, 4.1555 3.83293387277, 4.07087179129 3.89249776786, 3.97737165179 3.94431724330, 3.87522809710 3.987875, 3.76466964286 4.02265373884, 3.64592480469 4.04813616071, 3.51922209821 4.06380496652, 3.38479003906 4.06914285714, 3.24285714286 4.06380496652, 3.10092424665 4.04813616071, 2.9664921875 4.02265373884, 2.83978948103 3.987875, 2.72104464286 3.94431724330, 2.61048618862 3.89249776786, 2.50834263393 3.83293387277, 2.41484249442 3.76614285714, 2.33021428571 3.69264202009, 2.25468652344 3.61294866071, 2.18848772321 3.52758007813, 2.13184640067 3.43705357143, 2.08499107143 3.34188643973, 2.04815025112 3.24259598214, 2.02155245536 Z M 2.92189397321, 2.45681026786 2.97694656808, 2.44720842634 3.03371428571, 2.444 3.09076450893, 2.44720842634 3.14602678571, 2.45681026786 3.19923995536, 2.47277036830 3.25014285714, 2.49505357143 3.29847433036, 2.52362472098 3.34397321429, 2.55844866071 3.38637834821, 2.59949023437 3.42542857143, 2.64671428571 3.46086272321, 2.70008565848 3.49241964286, 2.75956919643 3.51983816964, 2.82512974330 3.54285714286, 2.89673214286 3.56121540179, 2.97434123884 3.57465178571, 3.057921875 3.58290513393, 3.14743889509 3.58571428571, 3.24285714286 3.58290513393, 3.33827539062 3.57465178571, 3.42779241071 3.56121540179, 3.51137304687 3.54285714286, 3.58898214286 3.51983816964, 3.66058454241 3.49241964286, 3.72614508929 3.46086272321, 3.78562862723 3.42542857143, 3.839 3.38637834821, 3.88622405134 3.34397321429, 3.927265625 3.29847433036, 3.96208956473 3.25014285714, 3.99066071429 3.19923995536, 4.01294391741 3.14602678571, 4.02890401786 3.09076450893, 4.03850585937 3.03371428571, 4.04171428571 2.97694656808, 4.03850585937 2.92189397321, 4.02890401786 2.86882519531, 4.01294391741 2.81800892857, 3.99066071429 2.76971386719, 3.96208956473 2.72420870536, 3.927265625 2.68176213728, 3.88622405134 2.64264285714, 3.839 2.60711955915, 3.78562862723 2.5754609375, 3.72614508929 2.54793568638, 3.66058454241 2.5248125, 3.58898214286 2.50636007254, 3.51137304687 2.49284709821, 3.42779241071 2.48454227121, 3.33827539062 2.48171428571, 3.24285714286 2.48454227121, 3.14743889509 2.49284709821, 3.057921875 2.50636007254, 2.97434123884 2.5248125, 2.89673214286 2.54793568638, 2.82512974330 2.5754609375, 2.75956919643 2.60711955915, 2.70008565848 2.64264285714, 2.64671428571 2.68176213728, 2.59949023437 2.72420870536, 2.55844866071 2.76971386719, 2.52362472098 2.81800892857, 2.49505357143 2.86882519531, 2.47277036830 Z"  />
<path d="M 6.58719419643, 2.74018261719 6.51542857143, 2.73714285714 6.43395982143, 2.74072209821 6.35353571429, 2.75195535714 6.27520089286, 2.7715859375 6.2, 2.80035714286 6.12897767857, 2.83901227679 6.06317857143, 2.88829464286 6.00364732143, 2.94894754464 5.95142857143, 3.02171428571 5.90570870536, 2.95879129464 5.85245535714, 2.90275892857 5.79217075893, 2.85407924107 5.72535714286, 2.81321428571 5.65251674107, 2.78062611607 5.57415178571, 2.75677678571 5.49076450893, 2.74212834821 5.40285714286, 2.73714285714 5.33257477679, 2.74021316964 5.26359821429, 2.7498125 5.19659040179, 2.7665234375 5.13221428571, 2.79092857143 5.0711328125, 2.82361049107 5.01400892857, 2.86515178571 4.96150558036, 2.91613504464 4.91428571429, 2.97714285714 4.91428571429, 2.78171428571 4.47885714286, 2.78171428571 4.47885714286, 4.44285714286 4.92628571429, 4.44285714286 4.92628571429, 3.53257142857 4.93351116071, 3.44458035714 4.95419642857, 3.36832142857 4.98685491071, 3.30379464286 5.03, 3.251 5.08214508929, 3.2099375 5.14180357143, 3.18060714286 5.20748883929, 3.16300892857 5.27771428571, 3.15714285714 5.35020647321, 3.16328348214 5.41440178571, 3.18151785714 5.46987834821, 3.21156473214 5.51621428571, 3.25314285714 5.55298772321, 3.30597098214 5.57977678571, 3.36976785714 5.59615959821, 3.44425223214 5.60171428571, 3.52914285714 5.60171428571, 4.44285714286 6.04914285714, 4.44285714286 6.04914285714, 3.53257142857 6.05636830357, 3.44458035714 6.07705357143, 3.36832142857 6.10971205357, 3.30379464286 6.15285714286, 3.251 6.20500223214, 3.2099375 6.26466071429, 3.18060714286 6.33034598214, 3.16300892857 6.40057142857, 3.15714285714 6.47257142857, 3.16328348214 6.53653571429, 3.18151785714 6.59198214286, 3.21156473214 6.63842857143, 3.25314285714 6.67539285714, 3.30597098214 6.70239285714, 3.36976785714 6.71894642857, 3.44425223214 6.72457142857, 3.52914285714 6.72457142857, 4.44285714286 7.17028571429, 4.44285714286 7.17028571429, 3.38514285714 7.16722544643, 3.31430175781 7.15817857143, 3.24655691964 7.14334598214, 3.18211174665 7.12292857143, 3.12116964286 7.09712723214, 3.06393401228 7.06614285714, 3.01060825893 7.03017633929, 2.96139578683 6.98942857143, 2.9165 6.94410044643, 2.87612430246 6.89439285714, 2.84047209821 6.84050669643, 2.80974679129 6.78264285714, 2.78415178571 6.72100223214, 2.76389048549 6.65578571429, 2.74916629464 Z"  />
<path d="M 21.7868571429, 4.44285714286 22.2497142857, 4.44285714286 22.2497142857, 2.00514285714 21.2125714286, 2.42342857143 21.2125714286, 2.88971428571 21.7868571429, 2.65657142857 Z"  />
<path d="M 23.8471280692, 2.00542619978 23.7411428571, 2.0 23.6348943917, 2.00542619978 23.5318426339, 2.02155245536 23.4324923270, 2.04815025112 23.3373482143, 2.08499107143 23.2469150391, 2.13184640067 23.1616975446, 2.18848772321 23.0822004743, 2.25468652344 23.0089285714, 2.33021428571 22.9423865792, 2.41484249442 22.8830792411, 2.50834263393 22.8315113002, 2.61048618862 22.7881875, 2.72104464286 22.7536125837, 2.83978948103 22.7282912946, 2.9664921875 22.7127283761, 3.10092424665 22.7074285714, 3.24285714286 22.7127283761, 3.38479003906 22.7282912946, 3.51922209821 22.7536125837, 3.64592480469 22.7881875, 3.76466964286 22.8315113002, 3.87522809710 22.8830792411, 3.97737165179 22.9423865792, 4.07087179129 23.0089285714, 4.1555 23.0822004743, 4.23102776228 23.1616975446, 4.2972265625 23.2469150391, 4.35386788504 23.3373482143, 4.40072321429 23.4324923270, 4.43756403460 23.5318426339, 4.46416183036 23.6348943917, 4.48028808594 23.7411428571, 4.48571428571 23.8471280692, 4.48028808594 23.9500245536, 4.46416183036 24.0493150112, 4.43756403460 24.1444821429, 4.40072321429 24.2350086496, 4.35386788504 24.3203772321, 4.2972265625 24.4000705915, 4.23102776228 24.4735714286, 4.1555 24.5403624442, 4.07087179129 24.5999263393, 3.97737165179 24.6517458147, 3.87522809710 24.6953035714, 3.76466964286 24.7300823103, 3.64592480469 24.7555647321, 3.51922209821 24.7712335379, 3.38479003906 24.7765714286, 3.24285714286 24.7712335379, 3.10092424665 24.7555647321, 2.9664921875 24.7300823103, 2.83978948103 24.6953035714, 2.72104464286 24.6517458147, 2.61048618862 24.5999263393, 2.50834263393 24.5403624442, 2.41484249442 24.4735714286, 2.33021428571 24.4000705915, 2.25468652344 24.3203772321, 2.18848772321 24.2350086496, 2.13184640067 24.1444821429, 2.08499107143 24.0493150112, 2.04815025112 23.9500245536, 2.02155245536 Z M 23.6293225446, 2.45681026786 23.6843751395, 2.44720842634 23.7411428571, 2.444 23.7981930804, 2.44720842634 23.8534553571, 2.45681026786 23.9066685268, 2.47277036830 23.9575714286, 2.49505357143 24.0059029018, 2.52362472098 24.0514017857, 2.55844866071 24.0938069196, 2.59949023437 24.1328571429, 2.64671428571 24.1682912946, 2.70008565848 24.1998482143, 2.75956919643 24.2272667411, 2.82512974330 24.2502857143, 2.89673214286 24.2686439732, 2.97434123884 24.2820803571, 3.057921875 24.2903337054, 3.14743889509 24.2931428571, 3.24285714286 24.2903337054, 3.33827539062 24.2820803571, 3.42779241071 24.2686439732, 3.51137304687 24.2502857143, 3.58898214286 24.2272667411, 3.66058454241 24.1998482143, 3.72614508929 24.1682912946, 3.78562862723 24.1328571429, 3.839 24.0938069196, 3.88622405134 24.0514017857, 3.927265625 24.0059029018, 3.96208956473 23.9575714286, 3.99066071429 23.9066685268, 4.01294391741 23.8534553571, 4.02890401786 23.7981930804, 4.03850585937 23.7411428571, 4.04171428571 23.6843751395, 4.03850585937 23.6293225446, 4.02890401786 23.5762537667, 4.01294391741 23.5254375, 3.99066071429 23.4771424386, 3.96208956473 23.4316372768, 3.927265625 23.3891907087, 3.88622405134 23.3500714286, 3.839 23.3145481306, 3.78562862723 23.2828895089, 3.72614508929 23.2553642578, 3.66058454241 23.2322410714, 3.58898214286 23.2137886440, 3.51137304687 23.2002756696, 3.42779241071 23.1919708426, 3.33827539062 23.1891428571, 3.24285714286 23.1919708426, 3.14743889509 23.2002756696, 3.057921875 23.2137886440, 2.97434123884 23.2322410714, 2.89673214286 23.2553642578, 2.82512974330 23.2828895089, 2.75956919643 23.3145481306, 2.70008565848 23.3500714286, 2.64671428571 23.3891907087, 2.59949023437 23.4316372768, 2.55844866071 23.4771424386, 2.52362472098 23.5254375, 2.49505357143 23.5762537667, 2.47277036830 Z"  />
<path d="M 27.2946227679, 2.74018261719 27.2228571429, 2.73714285714 27.1413883929, 2.74072209821 27.0609642857, 2.75195535714 26.9826294643, 2.7715859375 26.9074285714, 2.80035714286 26.83640625, 2.83901227679 26.7706071429, 2.88829464286 26.7110758929, 2.94894754464 26.6588571429, 3.02171428571 26.6131372768, 2.95879129464 26.5598839286, 2.90275892857 26.4995993304, 2.85407924107 26.4327857143, 2.81321428571 26.3599453125, 2.78062611607 26.2815803571, 2.75677678571 26.1981930804, 2.74212834821 26.1102857143, 2.73714285714 26.0400033482, 2.74021316964 25.9710267857, 2.7498125 25.9040189732, 2.7665234375 25.8396428571, 2.79092857143 25.7785613839, 2.82361049107 25.7214375, 2.86515178571 25.6689341518, 2.91613504464 25.6217142857, 2.97714285714 25.6217142857, 2.78171428571 25.1862857143, 2.78171428571 25.1862857143, 4.44285714286 25.6337142857, 4.44285714286 25.6337142857, 3.53257142857 25.6409397321, 3.44458035714 25.661625, 3.36832142857 25.6942834821, 3.30379464286 25.7374285714, 3.251 25.7895736607, 3.2099375 25.8492321429, 3.18060714286 25.9149174107, 3.16300892857 25.9851428571, 3.15714285714 26.0576350446, 3.16328348214 26.1218303571, 3.18151785714 26.1773069196, 3.21156473214 26.2236428571, 3.25314285714 26.2604162946, 3.30597098214 26.2872053571, 3.36976785714 26.3035881696, 3.44425223214 26.3091428571, 3.52914285714 26.3091428571, 4.44285714286 26.7565714286, 4.44285714286 26.7565714286, 3.53257142857 26.763796875, 3.44458035714 26.7844821429, 3.36832142857 26.817140625, 3.30379464286 26.8602857143, 3.251 26.9124308036, 3.2099375 26.9720892857, 3.18060714286 27.0377745536, 3.16300892857 27.108, 3.15714285714 27.18, 3.16328348214 27.2439642857, 3.18151785714 27.2994107143, 3.21156473214 27.3458571429, 3.25314285714 27.3828214286, 3.30597098214 27.4098214286, 3.36976785714 27.426375, 3.44425223214 27.432, 3.52914285714 27.432, 4.44285714286 27.8777142857, 4.44285714286 27.8777142857, 3.38514285714 27.8746540179, 3.31430175781 27.8656071429, 3.24655691964 27.8507745536, 3.18211174665 27.8303571429, 3.12116964286 27.8045558036, 3.06393401228 27.7735714286, 3.01060825893 27.7376049107, 2.96139578683 27.6968571429, 2.9165 27.6515290179, 2.87612430246 27.6018214286, 2.84047209821 27.5479352679, 2.80974679129 27.4900714286, 2.78415178571 27.4284308036, 2.76389048549 27.3632142857, 2.74916629464 Z"  />
<path d="M 41.0326205357, 2.3466640625 40.9782857143, 2.41314285714 41.2765714286, 2.70628571429 41.3726517857, 2.60573214286 41.4247399554, 2.56097991071 41.4807857143, 2.52157142857 41.5417332589, 2.48875223214 41.6085267857, 2.46376785714 41.6821104911, 2.44786383929 41.7634285714, 2.44228571429 41.8426841518, 2.44910267857 41.9140446429, 2.46885714286 41.9766863839, 2.50050446429 42.0297857143, 2.543 42.0725189732, 2.59529910714 42.1040625, 2.65635714286 42.1235926339, 2.72512946429 42.1302857143, 2.80057142857 42.1270178571, 2.8562890625 42.1173214286, 2.91041964286 42.1013571429, 2.96314397321 42.0792857143, 3.01464285714 42.0512678571, 3.06509709821 42.0174642857, 3.1146875 41.9780357143, 3.16359486607 41.9331428571, 3.212 41.0845714286, 4.08114285714 41.0845714286, 4.44285714286 42.6702857143, 4.44285714286 42.6702857143, 4.00914285714 41.7531428571, 4.00914285714 42.2657142857, 3.476 42.3371953125, 3.39932589286 42.4029910714, 3.32160714286 42.4619162946, 3.24179910714 42.5127857143, 3.15885714286 42.5544140625, 3.07173660714 42.5856160714, 2.97939285714 42.6052064732, 2.88078125 42.612, 2.77485714286 42.6083734654, 2.69044363839 42.5976127232, 2.60965625 42.5798960658, 2.53274609375 42.5554017857, 2.45996428571 42.5243081752, 2.39156194196 42.4867935268, 2.32779017857 42.4430361328, 2.26890011161 42.3932142857, 2.21514285714 42.3375062779, 2.16676953125 42.2760904018, 2.12403125 42.2091449498, 2.08717912946 42.1368482143, 2.05646428571 42.0593784877, 2.03213783482 41.9769140625, 2.01445089286 41.8896332310, 2.00365457589 41.7977142857, 2.0 41.7164916295, 2.00277525112 41.6398794643, 2.01079129464 41.5677472098, 2.02358356585 41.4999642857, 2.0406875 41.4364001116, 2.06163853237 41.3769241071, 2.08597209821 41.2697142857, 2.14292857143 41.1772901786, 2.20784040179 41.0986071429, 2.27699107143 Z"  />
<path d="M 44.1099852121, 2.00542619978 44.004, 2.0 43.8977515346, 2.00542619978 43.7946997768, 2.02155245536 43.6953494699, 2.04815025112 43.6002053571, 2.08499107143 43.5097721819, 2.13184640067 43.4245546875, 2.18848772321 43.3450576172, 2.25468652344 43.2717857143, 2.33021428571 43.2052437221, 2.41484249442 43.1459363839, 2.50834263393 43.0943684431, 2.61048618862 43.0510446429, 2.72104464286 43.0164697266, 2.83978948103 42.9911484375, 2.9664921875 42.9755855190, 3.10092424665 42.9702857143, 3.24285714286 42.9755855190, 3.38479003906 42.9911484375, 3.51922209821 43.0164697266, 3.64592480469 43.0510446429, 3.76466964286 43.0943684431, 3.87522809710 43.1459363839, 3.97737165179 43.2052437221, 4.07087179129 43.2717857143, 4.1555 43.3450576172, 4.23102776228 43.4245546875, 4.2972265625 43.5097721819, 4.35386788504 43.6002053571, 4.40072321429 43.6953494699, 4.43756403460 43.7946997768, 4.46416183036 43.8977515346, 4.48028808594 44.004, 4.48571428571 44.1099852121, 4.48028808594 44.2128816964, 4.46416183036 44.3121721540, 4.43756403460 44.4073392857, 4.40072321429 44.4978657924, 4.35386788504 44.583234375, 4.2972265625 44.6629277344, 4.23102776228 44.7364285714, 4.1555 44.8032195871, 4.07087179129 44.8627834821, 3.97737165179 44.9146029576, 3.87522809710 44.9581607143, 3.76466964286 44.9929394531, 3.64592480469 45.018421875, 3.51922209821 45.0340906808, 3.38479003906 45.0394285714, 3.24285714286 45.0340906808, 3.10092424665 45.018421875, 2.9664921875 44.9929394531, 2.83978948103 44.9581607143, 2.72104464286 44.9146029576, 2.61048618862 44.8627834821, 2.50834263393 44.8032195871, 2.41484249442 44.7364285714, 2.33021428571 44.6629277344, 2.25468652344 44.583234375, 2.18848772321 44.4978657924, 2.13184640067 44.4073392857, 2.08499107143 44.3121721540, 2.04815025112 44.2128816964, 2.02155245536 Z M 43.8921796875, 2.45681026786 43.9472322824, 2.44720842634 44.004, 2.444 44.0610502232, 2.44720842634 44.1163125, 2.45681026786 44.1695256696, 2.47277036830 44.2204285714, 2.49505357143 44.2687600446, 2.52362472098 44.3142589286, 2.55844866071 44.3566640625, 2.59949023437 44.3957142857, 2.64671428571 44.4311484375, 2.70008565848 44.4627053571, 2.75956919643 44.4901238839, 2.82512974330 44.5131428571, 2.89673214286 44.5315011161, 2.97434123884 44.5449375, 3.057921875 44.5531908482, 3.14743889509 44.556, 3.24285714286 44.5531908482, 3.33827539062 44.5449375, 3.42779241071 44.5315011161, 3.51137304687 44.5131428571, 3.58898214286 44.4901238839, 3.66058454241 44.4627053571, 3.72614508929 44.4311484375, 3.78562862723 44.3957142857, 3.839 44.3566640625, 3.88622405134 44.3142589286, 3.927265625 44.2687600446, 3.96208956473 44.2204285714, 3.99066071429 44.1695256696, 4.01294391741 44.1163125, 4.02890401786 44.0610502232, 4.03850585937 44.004, 4.04171428571 43.9472322824, 4.03850585937 43.8921796875, 4.02890401786 43.8391109096, 4.01294391741 43.7882946429, 3.99066071429 43.7399995815, 3.96208956473 43.6944944196, 3.927265625 43.6520478516, 3.88622405134 43.6129285714, 3.839 43.5774052734, 3.78562862723 43.5457466518, 3.72614508929 43.5182214007, 3.66058454241 43.4950982143, 3.58898214286 43.4766457868, 3.51137304687 43.4631328125, 3.42779241071 43.4548279855, 3.33827539062 43.452, 3.24285714286 43.4548279855, 3.14743889509 43.4631328125, 3.057921875 43.4766457868, 2.97434123884 43.4950982143, 2.89673214286 43.5182214007, 2.82512974330 43.5457466518, 2.75956919643 43.5774052734, 2.70008565848 43.6129285714, 2.64671428571 43.6520478516, 2.59949023437 43.6944944196, 2.55844866071 43.7399995815, 2.52362472098 43.7882946429, 2.49505357143 43.8391109096, 2.47277036830 Z"  />
<path d="M 47.5574799107, 2.74018261719 47.4857142857, 2.73714285714 47.4042455357, 2.74072209821 47.3238214286, 2.75195535714 47.2454866071, 2.7715859375 47.1702857143, 2.80035714286 47.0992633929, 2.83901227679 47.0334642857, 2.88829464286 46.9739330357, 2.94894754464 46.9217142857, 3.02171428571 46.8759944196, 2.95879129464 46.8227410714, 2.90275892857 46.7624564732, 2.85407924107 46.6956428571, 2.81321428571 46.6228024554, 2.78062611607 46.5444375, 2.75677678571 46.4610502232, 2.74212834821 46.3731428571, 2.73714285714 46.3028604911, 2.74021316964 46.2338839286, 2.7498125 46.1668761161, 2.7665234375 46.1025, 2.79092857143 46.0414185268, 2.82361049107 45.9842946429, 2.86515178571 45.9317912946, 2.91613504464 45.8845714286, 2.97714285714 45.8845714286, 2.78171428571 45.4491428571, 2.78171428571 45.4491428571, 4.44285714286 45.8965714286, 4.44285714286 45.8965714286, 3.53257142857 45.903796875, 3.44458035714 45.9244821429, 3.36832142857 45.957140625, 3.30379464286 46.0002857143, 3.251 46.0524308036, 3.2099375 46.1120892857, 3.18060714286 46.1777745536, 3.16300892857 46.248, 3.15714285714 46.3204921875, 3.16328348214 46.3846875, 3.18151785714 46.4401640625, 3.21156473214 46.4865, 3.25314285714 46.5232734375, 3.30597098214 46.5500625, 3.36976785714 46.5664453125, 3.44425223214 46.572, 3.52914285714 46.572, 4.44285714286 47.0194285714, 4.44285714286 47.0194285714, 3.53257142857 47.0266540179, 3.44458035714 47.0473392857, 3.36832142857 47.0799977679, 3.30379464286 47.1231428571, 3.251 47.1752879464, 3.2099375 47.2349464286, 3.18060714286 47.3006316964, 3.16300892857 47.3708571429, 3.15714285714 47.4428571429, 3.16328348214 47.5068214286, 3.18151785714 47.5622678571, 3.21156473214 47.6087142857, 3.25314285714 47.6456785714, 3.30597098214 47.6726785714, 3.36976785714 47.6892321429, 3.44425223214 47.6948571429, 3.52914285714 47.6948571429, 4.44285714286 48.1405714286, 4.44285714286 48.1405714286, 3.38514285714 48.1375111607, 3.31430175781 48.1284642857, 3.24655691964 48.1136316964, 3.18211174665 48.0932142857, 3.12116964286 48.0674129464, 3.06393401228 48.0364285714, 3.01060825893 48.0004620536, 2.96139578683 47.9597142857, 2.9165 47.9143861607, 2.87612430246 47.8646785714, 2.84047209821 47.8107924107, 2.80974679129 47.7529285714, 2.78415178571 47.6912879464, 2.76389048549 47.6260714286, 2.74916629464 Z"  />
<path d="M 101.932768508, 2.95684095982 101.831238095, 2.95314285714 101.555238095, 2.95314285714 101.565523810, 2.47314285714 102.537523810, 2.47314285714 102.537523810, 2.04285714286 101.157523810, 2.04285714286 101.131809524, 3.37142857143 101.702666667, 3.37142857143 101.831449033, 3.37855691964 101.887165411, 3.38716978237 101.937389881, 3.39888392857 101.982340913, 3.41350097656 102.022236979, 3.43082254464 102.057296549, 3.45065025112 102.087738095, 3.47278571429 102.113780087, 3.49703055246 102.135640997, 3.52318638393 102.153539295, 3.55105482701 102.167693452, 3.5804375 102.185643229, 3.64295200893 102.191238095, 3.70914285714 102.185043899, 3.77872879464 102.166434524, 3.84379464286 102.135369792, 3.90287388393 102.091809524, 3.9545 102.035713542, 3.99720647321 101.967041667, 4.02952678571 101.885753720, 4.04999441964 101.791809524, 4.05714285714 101.708469122, 4.05207700893 101.625229167, 4.03750892857 101.543475818, 4.0143828125 101.464595238, 3.98364285714 101.389973586, 3.94623325893 101.320997024, 3.90309821429 101.259051711, 3.85518191964 101.205523810, 3.80342857143 100.944952381, 4.12742857143 101.023886533, 4.20730022321 101.111318452, 4.27815178571 101.206906622, 4.33948102679 101.310309524, 4.39078571429 101.421185640, 4.43156361607 101.539193452, 4.4613125 101.663991443, 4.47953013393 101.795238095, 4.48571428571 101.885025065, 4.48227692522 101.972167783, 4.47203683036 102.056231817, 4.45510198103 102.136782738, 4.43158035714 102.213386114, 4.40157993862 102.285607515, 4.36520870536 102.353012509, 4.32257463728 102.415166667, 4.27378571429 102.471635556, 4.21894991629 102.521984747, 4.15817522321 102.565779808, 4.09156961496 102.602586310, 4.01924107143 102.631969820, 3.94129757254 102.653495908, 3.85784709821 102.666730143, 3.76899762835 102.671238095, 3.67485714286 102.667944289, 3.60064564732 102.658066220, 3.52867410714 102.641608910, 3.45929408482 102.618577381, 3.39285714286 102.588976656, 3.32971484375 102.552811756, 3.27021875 102.510087705, 3.21472042411 102.460809524, 3.16357142857 102.404982236, 3.11712332589 102.342610863, 3.07572767857 102.273700428, 3.03973604911 102.198255952, 3.0095 102.116282459, 2.98537109375 102.027784970, 2.96770089286 Z"  />
<path d="M 104.145223307, 2.00542619978 104.039238095, 2.0 103.932989630, 2.00542619978 103.829937872, 2.02155245536 103.730587565, 2.04815025112 103.635443452, 2.08499107143 103.545010277, 2.13184640067 103.459792783, 2.18848772321 103.380295712, 2.25468652344 103.307023810, 2.33021428571 103.240481817, 2.41484249442 103.181174479, 2.50834263393 103.129606538, 2.61048618862 103.086282738, 2.72104464286 103.051707822, 2.83978948103 103.026386533, 2.9664921875 103.010823614, 3.10092424665 103.005523810, 3.24285714286 103.010823614, 3.38479003906 103.026386533, 3.51922209821 103.051707822, 3.64592480469 103.086282738, 3.76466964286 103.129606538, 3.87522809710 103.181174479, 3.97737165179 103.240481817, 4.07087179129 103.307023810, 4.1555 103.380295712, 4.23102776228 103.459792783, 4.2972265625 103.545010277, 4.35386788504 103.635443452, 4.40072321429 103.730587565, 4.43756403460 103.829937872, 4.46416183036 103.932989630, 4.48028808594 104.039238095, 4.48571428571 104.145223307, 4.48028808594 104.248119792, 4.46416183036 104.347410249, 4.43756403460 104.442577381, 4.40072321429 104.533103888, 4.35386788504 104.618472470, 4.2972265625 104.698165830, 4.23102776228 104.771666667, 4.1555 104.838457682, 4.07087179129 104.898021577, 3.97737165179 104.949841053, 3.87522809710 104.993398810, 3.76466964286 105.028177548, 3.64592480469 105.053659970, 3.51922209821 105.069328776, 3.38479003906 105.074666667, 3.24285714286 105.069328776, 3.10092424665 105.053659970, 2.9664921875 105.028177548, 2.83978948103 104.993398810, 2.72104464286 104.949841053, 2.61048618862 104.898021577, 2.50834263393 104.838457682, 2.41484249442 104.771666667, 2.33021428571 104.698165830, 2.25468652344 104.618472470, 2.18848772321 104.533103888, 2.13184640067 104.442577381, 2.08499107143 104.347410249, 2.04815025112 104.248119792, 2.02155245536 Z M 103.927417783, 2.45681026786 103.982470378, 2.44720842634 104.039238095, 2.444 104.096288318, 2.44720842634 104.151550595, 2.45681026786 104.204763765, 2.47277036830 104.255666667, 2.49505357143 104.303998140, 2.52362472098 104.349497024, 2.55844866071 104.391902158, 2.59949023437 104.430952381, 2.64671428571 104.466386533, 2.70008565848 104.497943452, 2.75956919643 104.525361979, 2.82512974330 104.548380952, 2.89673214286 104.566739211, 2.97434123884 104.580175595, 3.057921875 104.588428943, 3.14743889509 104.591238095, 3.24285714286 104.588428943, 3.33827539062 104.580175595, 3.42779241071 104.566739211, 3.51137304687 104.548380952, 3.58898214286 104.525361979, 3.66058454241 104.497943452, 3.72614508929 104.466386533, 3.78562862723 104.430952381, 3.839 104.391902158, 3.88622405134 104.349497024, 3.927265625 104.303998140, 3.96208956473 104.255666667, 3.99066071429 104.204763765, 4.01294391741 104.151550595, 4.02890401786 104.096288318, 4.03850585937 104.039238095, 4.04171428571 103.982470378, 4.03850585937 103.927417783, 4.02890401786 103.874349005, 4.01294391741 103.823532738, 3.99066071429 103.775237677, 3.96208956473 103.729732515, 3.927265625 103.687285947, 3.88622405134 103.648166667, 3.839 103.612643369, 3.78562862723 103.580984747, 3.72614508929 103.553459496, 3.66058454241 103.530336310, 3.58898214286 103.511883882, 3.51137304687 103.498370908, 3.42779241071 103.490066081, 3.33827539062 103.487238095, 3.24285714286 103.490066081, 3.14743889509 103.498370908, 3.057921875 103.511883882, 2.97434123884 103.530336310, 2.89673214286 103.553459496, 2.82512974330 103.580984747, 2.75956919643 103.612643369, 2.70008565848 103.648166667, 2.64671428571 103.687285947, 2.59949023437 103.729732515, 2.55844866071 103.775237677, 2.52362472098 103.823532738, 2.49505357143 103.874349005, 2.47277036830 Z"  />
<path d="M 107.592718006, 2.74018261719 107.520952381, 2.73714285714 107.439483631, 2.74072209821 107.359059524, 2.75195535714 107.280724702, 2.7715859375 107.205523810, 2.80035714286 107.134501488, 2.83901227679 107.068702381, 2.88829464286 107.009171131, 2.94894754464 106.956952381, 3.02171428571 106.911232515, 2.95879129464 106.857979167, 2.90275892857 106.797694568, 2.85407924107 106.730880952, 2.81321428571 106.658040551, 2.78062611607 106.579675595, 2.75677678571 106.496288318, 2.74212834821 106.408380952, 2.73714285714 106.338098586, 2.74021316964 106.269122024, 2.7498125 106.202114211, 2.7665234375 106.137738095, 2.79092857143 106.076656622, 2.82361049107 106.019532738, 2.86515178571 105.967029390, 2.91613504464 105.919809524, 2.97714285714 105.919809524, 2.78171428571 105.484380952, 2.78171428571 105.484380952, 4.44285714286 105.931809524, 4.44285714286 105.931809524, 3.53257142857 105.939034970, 3.44458035714 105.959720238, 3.36832142857 105.992378720, 3.30379464286 106.035523810, 3.251 106.087668899, 3.2099375 106.147327381, 3.18060714286 106.213012649, 3.16300892857 106.283238095, 3.15714285714 106.355730283, 3.16328348214 106.419925595, 3.18151785714 106.475402158, 3.21156473214 106.521738095, 3.25314285714 106.558511533, 3.30597098214 106.585300595, 3.36976785714 106.601683408, 3.44425223214 106.607238095, 3.52914285714 106.607238095, 4.44285714286 107.054666667, 4.44285714286 107.054666667, 3.53257142857 107.061892113, 3.44458035714 107.082577381, 3.36832142857 107.115235863, 3.30379464286 107.158380952, 3.251 107.210526042, 3.2099375 107.270184524, 3.18060714286 107.335869792, 3.16300892857 107.406095238, 3.15714285714 107.478095238, 3.16328348214 107.542059524, 3.18151785714 107.597505952, 3.21156473214 107.643952381, 3.25314285714 107.680916667, 3.30597098214 107.707916667, 3.36976785714 107.724470238, 3.44425223214 107.730095238, 3.52914285714 107.730095238, 4.44285714286 108.175809524, 4.44285714286 108.175809524, 3.38514285714 108.172749256, 3.31430175781 108.163702381, 3.24655691964 108.148869792, 3.18211174665 108.128452381, 3.12116964286 108.102651042, 3.06393401228 108.071666667, 3.01060825893 108.035700149, 2.96139578683 107.994952381, 2.9165 107.949624256, 2.87612430246 107.899916667, 2.84047209821 107.846030506, 2.80974679129 107.788166667, 2.78415178571 107.726526042, 2.76389048549 107.661309524, 2.74916629464 Z"  />
</svg>