<?xml version="1.0" encoding="utf-8"?>
<!-- Generator: Grasshopper 1.0.0, Redback Plugin. SVG Version: 6.00 Build 0) Made by Andrew Butler at Cox Architecture -->
<!DOCTYPE svg PUBLIC "-//W3C//DTD SVG 1.1//EN" "http://www.w3.org/Graphics/SVG/1.1/DTD/svg11.dtd">
<svg version="1.1" xmlns="http://www.w3.org/2000/svg" xmlns:xlink="http://www.w3.org/1999/xlink" x="0px" y="0px"
width="109.923047619mm" height="11.2428571429mm" viewBox="0 0 109.923047619 11.2428571429" xml:space="preserve">
<style type="text/css">
polyline{
fill:none;
stroke:black;
stroke-width:0.2mm;
}
polygon{
fill:white;
}
</style>
<polygon points="0.0, 11.2428571429 109.923047619, 11.2428571429 109.923047619, -0.0 0.0, -0.0" />
<polyline points="4.50247619048, 9.24285714286 24.5024761905, 9.24285714286 24.5024761905, 6.84285714286 44.5024761905, 6.84285714286 44.5024761905, 9.24285714286 104.502476190, 9.24285714286" />
<path d="M 3.038375, 2.00460714286 2.94457142857, 2.0 2.84910714286, 2.00428571429 2.75642857143, 2.01714285714 2.66653571429, 2.03857142857 2.57942857143, 2.06857142857 2.49639285714, 2.10794650705 2.41871428571, 2.15750010463 2.34639285714, 2.21723222133 2.27942857143, 2.28714285714 2.21846428571, 2.3675 2.16414285714, 2.45857142857 2.11646428571, 2.56035714286 2.07542857143, 2.67285714286 2.04242857143, 2.796875 2.01885714286, 2.93321428571 2.00471428571, 3.081875 2.0, 3.24285714286 2.00471428571, 3.40383928571 2.01885714286, 3.5525 2.04242857143, 3.68883928571 2.07542857143, 3.81285714286 2.11646428571, 3.92530357143 2.16414285714, 4.02692857143 2.21846428571, 4.11773214286 2.27942857143, 4.19771428571 2.34639285714, 4.26730357143 2.41871428571, 4.32692857143 2.49639285714, 4.37658928571 2.57942857143, 4.41628571429 2.66653571429, 4.44666071429 2.75642857143, 4.46835714286 2.84910714286, 4.481375 2.94457142857, 4.48571428571 3.038375, 4.481375 3.1295, 4.46835714286 3.21794642857, 4.44666071429 3.30371428571, 4.41628571429 3.38551785714, 4.37658928571 3.46207142857, 4.32692857143 3.533375, 4.26730357143 3.59942857143, 4.19771428571 3.65953563581, 4.11773214286 3.71299989537, 4.02692857143 3.75982135010, 3.92530357143 3.8, 3.81285714286 3.83225, 3.68883928571 3.85528571429, 3.5525 3.86910714286, 3.40383928571 3.87371428571, 3.24285714286 3.86910714286, 3.08792857143 3.85528571429, 2.94371428571 3.83225, 2.81021428571 3.8, 2.68742857143 3.75982135010, 2.57514285714 3.71299989537, 2.47314285714 3.65953563581, 2.38142857143 3.59942857143, 2.3 3.533375, 2.22864293562 3.46207142857, 2.16714296177 3.38551785714, 2.11550007847 3.30371428571, 2.07371428571 3.21794642857, 2.04146428571 3.1295, 2.01842857143 Z M 2.85392857143, 2.45407142857 2.89876785714, 2.44651785714 2.94457142857, 2.444 2.98871428571, 2.44678571429 3.032, 2.45514285714 3.07442857143, 2.46907142857 3.116, 2.48857142857 3.15591071429, 2.514125 3.19335714286, 2.54621428571 3.22833928571, 2.58483928571 3.26085714286, 2.63 3.29053571429, 2.68185714286 3.317, 2.74057142857 3.34025, 2.80614285714 3.36028571429, 2.87857142857 3.37641071429, 2.95823214286 3.38792857143, 3.0455 3.39483928571, 3.140375 3.39714285714, 3.24285714286 3.39483928571, 3.35144642857 3.38792857143, 3.45092857143 3.37641071429, 3.54130357143 3.36028571429, 3.62257142857 3.34025, 3.69548214286 3.317, 3.76078571429 3.29053571429, 3.81848214286 3.26085714286, 3.86857142857 3.22833928571, 3.91158928571 3.19335714286, 3.94807142857 3.15591071429, 3.97801785714 3.116, 4.00142857143 3.07442857143, 4.01905357143 3.032, 4.03164285714 2.98871428571, 4.03919642857 2.94457142857, 4.04171428571 2.89876785714, 4.03919642857 2.85392857143, 4.03164285714 2.81005357143, 4.01905357143 2.76714285714, 4.00142857143 2.726, 3.97801785714 2.68742857143, 3.94807142857 2.65142857143, 3.91158928571 2.618, 3.86857142857 2.58751785714, 3.81848214286 2.56035714286, 3.76078571429 2.53651785714, 3.69548214286 2.516, 3.62257142857 2.4995, 3.54130357143 2.48771428571, 3.45092857143 2.48064285714, 3.35144642857 2.47828571429, 3.24285714286 2.48064285714, 3.13426785714 2.48771428571, 3.03478571429 2.4995, 2.94441071429 2.516, 2.86314285714 2.53651785714, 2.79023214286 2.56035714286, 2.72492857143 2.58751785714, 2.66723214286 2.618, 2.61714285714 2.65142857143, 2.574125 2.68742857143, 2.53764285714 2.726, 2.50769642857 2.76714285714, 2.48428571429 2.81005357143, 2.46666071429 Z"  />
<path d="M 6.30901785714, 2.74008928571 6.23771428571, 2.73714285714 6.15607142857, 2.74078571429 6.07571428571, 2.75171428571 5.9975, 2.771 5.92228571429, 2.79971428571 5.85114285714, 2.8385 5.78514285714, 2.888 5.72557142857, 2.94885714286 5.67371428571, 3.02171428571 5.628125, 2.9585 5.57535714286, 2.90257142857 5.51541071429, 2.85392857143 5.44828571429, 2.81257142857 5.37505357143, 2.77957142857 5.29678571429, 2.756 5.21348214286, 2.74185714286 5.12514285714, 2.73714285714 5.05485714286, 2.74051785714 4.98628571429, 2.75064285714 4.91942857143, 2.76751785714 4.85428571429, 2.79114285714 4.79246428571, 2.82301785714 4.73557142857, 2.86464285714 4.68360714286, 2.91601785714 4.63657142857, 2.97714285714 4.63657142857, 2.78171428571 4.20114285714, 2.78171428571 4.20114285714, 4.44285714286 4.64857142857, 4.44285714286 4.64857142857, 3.53257142857 4.65564285714, 3.44428571429 4.66448214286, 3.40464285714 4.67685714286, 3.368 4.70985714286, 3.3035 4.75228571429, 3.25057142857 4.80371428571, 3.20942857143 4.86371428571, 3.18028571429 4.92992857143, 3.16292857143 5.0, 3.15714285714 5.07280357143, 3.16308928571 5.13692857143, 3.18092857143 5.192375, 3.21066071429 5.23914285714, 3.25228571429 5.27626785714, 3.30526785714 5.30278571429, 3.36907142857 5.31869642857, 3.44369642857 5.324, 3.52914285714 5.324, 4.44285714286 5.77142857143, 4.44285714286 5.77142857143, 3.53257142857 5.7785, 3.44428571429 5.78733928571, 3.40464285714 5.79971428571, 3.368 5.83271428571, 3.3035 5.87514285714, 3.25057142857 5.92657142857, 3.20942857143 5.98657142857, 3.18028571429 6.05278571429, 3.16292857143 6.12285714286, 3.15714285714 6.19496428571, 3.16308928571 6.25871428571, 3.18092857143 6.31410714286, 3.21066071429 6.36114285714, 3.25228571429 6.39864285714, 3.30526785714 6.42542857143, 3.36907142857 6.4415, 3.44369642857 6.44685714286, 3.52914285714 6.44685714286, 4.44285714286 6.89257142857, 4.44285714286 6.89257142857, 3.38514285714 6.88962492153, 3.31464285714 6.88078560965, 3.24714285714 6.86605349296, 3.18264285714 6.84542857143, 3.12114285714 6.81939285714, 3.06333928571 6.78842857143, 3.00992857143 6.75253571429, 2.96091071429 6.71171428571, 2.91628571429 6.66628563581, 2.87621428571 6.61657132394, 2.84085714286 6.56257135010, 2.81021428571 6.50428571429, 2.78428571429 6.44230357143, 2.76366071429 6.37721428571, 2.74892857143 Z"  />
<path d="M 21.7893333333, 2.62742857143 21.7893333333, 4.004 21.2201904762, 4.004 21.2201904762, 4.44285714286 22.7939047619, 4.44285714286 22.7939047619, 4.004 22.2504761905, 4.004 22.2504761905, 2.00514285714 21.1927619048, 2.37885714286 21.1927619048, 2.84 Z"  />
<path d="M 24.0688511905, 2.00460714286 23.9750476190, 2.0 23.8795833333, 2.00428571429 23.7869047619, 2.01714285714 23.6970119048, 2.03857142857 23.6099047619, 2.06857142857 23.5268690476, 2.10794650705 23.4491904762, 2.15750010463 23.3768690476, 2.21723222133 23.3099047619, 2.28714285714 23.2489404762, 2.3675 23.1946190476, 2.45857142857 23.1469404762, 2.56035714286 23.1059047619, 2.67285714286 23.0729047619, 2.796875 23.0493333333, 2.93321428571 23.0351904762, 3.081875 23.0304761905, 3.24285714286 23.0351904762, 3.40383928571 23.0493333333, 3.5525 23.0729047619, 3.68883928571 23.1059047619, 3.81285714286 23.1469404762, 3.92530357143 23.1946190476, 4.02692857143 23.2489404762, 4.11773214286 23.3099047619, 4.19771428571 23.3768690476, 4.26730357143 23.4491904762, 4.32692857143 23.5268690476, 4.37658928571 23.6099047619, 4.41628571429 23.6970119048, 4.44666071429 23.7869047619, 4.46835714286 23.8795833333, 4.481375 23.9750476190, 4.48571428571 24.0688511905, 4.481375 24.1599761905, 4.46835714286 24.2484226190, 4.44666071429 24.3341904762, 4.41628571429 24.4159940476, 4.37658928571 24.4925476190, 4.32692857143 24.5638511905, 4.26730357143 24.6299047619, 4.19771428571 24.6900118263, 4.11773214286 24.7434760858, 4.02692857143 24.7902975406, 3.92530357143 24.8304761905, 3.81285714286 24.8627261905, 3.68883928571 24.8857619048, 3.5525 24.8995833333, 3.40383928571 24.9041904762, 3.24285714286 24.8995833333, 3.08792857143 24.8857619048, 2.94371428571 24.8627261905, 2.81021428571 24.8304761905, 2.68742857143 24.7902975406, 2.57514285714 24.7434760858, 2.47314285714 24.6900118263, 2.38142857143 24.6299047619, 2.3 24.5638511905, 2.22864293562 24.4925476190, 2.16714296177 24.4159940476, 2.11550007847 24.3341904762, 2.07371428571 24.2484226190, 2.04146428571 24.1599761905, 2.01842857143 Z M 23.8844047619, 2.45407142857 23.9292440476, 2.44651785714 23.9750476190, 2.444 24.0191904762, 2.44678571429 24.0624761905, 2.45514285714 24.1049047619, 2.46907142857 24.1464761905, 2.48857142857 24.1863869048, 2.514125 24.2238333333, 2.54621428571 24.2588154762, 2.58483928571 24.2913333333, 2.63 24.3210119048, 2.68185714286 24.3474761905, 2.74057142857 24.3707261905, 2.80614285714 24.3907619048, 2.87857142857 24.4068869048, 2.95823214286 24.4184047619, 3.0455 24.4253154762, 3.140375 24.4276190476, 3.24285714286 24.4253154762, 3.35144642857 24.4184047619, 3.45092857143 24.4068869048, 3.54130357143 24.3907619048, 3.62257142857 24.3707261905, 3.69548214286 24.3474761905, 3.76078571429 24.3210119048, 3.81848214286 24.2913333333, 3.86857142857 24.2588154762, 3.91158928571 24.2238333333, 3.94807142857 24.1863869048, 3.97801785714 24.1464761905, 4.00142857143 24.1049047619, 4.01905357143 24.0624761905, 4.03164285714 24.0191904762, 4.03919642857 23.9750476190, 4.04171428571 23.9292440476, 4.03919642857 23.8844047619, 4.03164285714 23.8405297619, 4.01905357143 23.7976190476, 4.00142857143 23.7564761905, 3.97801785714 23.7179047619, 3.94807142857 23.6819047619, 3.91158928571 23.6484761905, 3.86857142857 23.6179940476, 3.81848214286 23.5908333333, 3.76078571429 23.5669940476, 3.69548214286 23.5464761905, 3.62257142857 23.5299761905, 3.54130357143 23.5181904762, 3.45092857143 23.5111190476, 3.35144642857 23.5087619048, 3.24285714286 23.5111190476, 3.13426785714 23.5181904762, 3.03478571429 23.5299761905, 2.94441071429 23.5464761905, 2.86314285714 23.5669940476, 2.79023214286 23.5908333333, 2.72492857143 23.6179940476, 2.66723214286 23.6484761905, 2.61714285714 23.6819047619, 2.574125 23.7179047619, 2.53764285714 23.7564761905, 2.50769642857 23.7976190476, 2.48428571429 23.8405297619, 2.46666071429 Z"  />
<path d="M 27.3394940476, 2.74008928571 27.2681904762, 2.73714285714 27.1865476190, 2.74078571429 27.1061904762, 2.75171428571 27.0279761905, 2.771 26.9527619048, 2.79971428571 26.8816190476, 2.8385 26.8156190476, 2.888 26.7560476190, 2.94885714286 26.7041904762, 3.02171428571 26.6586011905, 2.9585 26.6058333333, 2.90257142857 26.5458869048, 2.85392857143 26.4787619048, 2.81257142857 26.4055297619, 2.77957142857 26.3272619048, 2.756 26.2439583333, 2.74185714286 26.1556190476, 2.73714285714 26.0853333333, 2.74051785714 26.0167619048, 2.75064285714 25.9499047619, 2.76751785714 25.8847619048, 2.79114285714 25.8229404762, 2.82301785714 25.7660476190, 2.86464285714 25.7140833333, 2.91601785714 25.6670476190, 2.97714285714 25.6670476190, 2.78171428571 25.2316190476, 2.78171428571 25.2316190476, 4.44285714286 25.6790476190, 4.44285714286 25.6790476190, 3.53257142857 25.6861190476, 3.44428571429 25.6949583333, 3.40464285714 25.7073333333, 3.368 25.7403333333, 3.3035 25.7827619048, 3.25057142857 25.8341904762, 3.20942857143 25.8941904762, 3.18028571429 25.9604047619, 3.16292857143 26.0304761905, 3.15714285714 26.1032797619, 3.16308928571 26.1674047619, 3.18092857143 26.2228511905, 3.21066071429 26.2696190476, 3.25228571429 26.3067440476, 3.30526785714 26.3332619048, 3.36907142857 26.3491726190, 3.44369642857 26.3544761905, 3.52914285714 26.3544761905, 4.44285714286 26.8019047619, 4.44285714286 26.8019047619, 3.53257142857 26.8089761905, 3.44428571429 26.8178154762, 3.40464285714 26.8301904762, 3.368 26.8631904762, 3.3035 26.9056190476, 3.25057142857 26.9570476190, 3.20942857143 27.0170476190, 3.18028571429 27.0832619048, 3.16292857143 27.1533333333, 3.15714285714 27.2254404762, 3.16308928571 27.2891904762, 3.18092857143 27.3445833333, 3.21066071429 27.3916190476, 3.25228571429 27.4291190476, 3.30526785714 27.4559047619, 3.36907142857 27.4719761905, 3.44369642857 27.4773333333, 3.52914285714 27.4773333333, 4.44285714286 27.9230476190, 4.44285714286 27.9230476190, 3.38514285714 27.9201011120, 3.31464285714 27.9112618001, 3.24714285714 27.8965296834, 3.18264285714 27.8759047619, 3.12114285714 27.8498690476, 3.06333928571 27.8189047619, 3.00992857143 27.7830119048, 2.96091071429 27.7421904762, 2.91628571429 27.6967618263, 2.87621428571 27.6470475144, 2.84085714286 27.5930475406, 2.81021428571 27.5347619048, 2.78428571429 27.4727797619, 2.76366071429 27.4076904762, 2.74892857143 Z"  />
<path d="M 41.1010476190, 2.34735714286 41.0470476190, 2.41314285714 41.3453333333, 2.70628571429 41.4413333333, 2.60514285714 41.4931904762, 2.56014285714 41.5493333333, 2.52114285714 41.6104047619, 2.48878571429 41.6770476190, 2.46371428571 41.7505476190, 2.44764285714 41.8321904762, 2.44228571429 41.9108333333, 2.44892857143 41.9821904762, 2.46885714286 42.0449761905, 2.50078571429 42.0979047619, 2.54342857143 42.1405476190, 2.59571439035 42.1724761905, 2.65657142857 42.1924047619, 2.72514285714 42.1990476190, 2.80057142857 42.1958869048, 2.85633928571 42.1864047619, 2.9105 42.1706011905, 2.96305357143 42.1484761905, 3.014 42.1203511905, 3.06398214286 42.0865476190, 3.11364285714 42.0470654762, 3.16298214286 42.0019047619, 3.212 41.1533333333, 4.08114285714 41.1533333333, 4.44285714286 42.7390476190, 4.44285714286 42.7390476190, 4.00914285714 41.8219047619, 4.00914285714 42.3344761905, 3.476 42.4716190476, 3.32171428571 42.5307619048, 3.24264285714 42.5813333333, 3.15971428571 42.6226904762, 3.07228571429 42.6541904762, 2.97971428571 42.6741190476, 2.88092857143 42.6807619048, 2.77485714286 42.6772261905, 2.69091071429 42.6666190476, 2.6105 42.6489404762, 2.533625 42.6241904762, 2.46028571429 42.5928511905, 2.39128571429 42.5554047619, 2.32742857143 42.5118511905, 2.26871428571 42.4621904762, 2.21514285714 42.4066369048, 2.16698214286 42.3454047619, 2.1245 42.2784940476, 2.08769642857 42.2059047619, 2.05657142857 42.1281190476, 2.03182142857 42.0456190476, 2.01414285714 41.9584047619, 2.00353571429 41.8664761905, 2.0 41.7848333333, 2.00251785714 41.7079047619, 2.01007142857 41.6356904762, 2.02266071429 41.5681904762, 2.04028571429 41.4456190476, 2.08592857143 41.3901190476, 2.11276785714 41.3384761905, 2.14228571429 41.2459047619, 2.20678571429 41.1670476190, 2.27685714286 Z"  />
<path d="M 44.0688511905, 2.00460714286 43.9750476190, 2.0 43.8795833333, 2.00428571429 43.7869047619, 2.01714285714 43.6970119048, 2.03857142857 43.6099047619, 2.06857142857 43.5268690476, 2.10794650705 43.4491904762, 2.15750010463 43.3768690476, 2.21723222133 43.3099047619, 2.28714285714 43.2489404762, 2.3675 43.1946190476, 2.45857142857 43.1469404762, 2.56035714286 43.1059047619, 2.67285714286 43.0729047619, 2.796875 43.0493333333, 2.93321428571 43.0351904762, 3.081875 43.0304761905, 3.24285714286 43.0351904762, 3.40383928571 43.0493333333, 3.5525 43.0729047619, 3.68883928571 43.1059047619, 3.81285714286 43.1469404762, 3.92530357143 43.1946190476, 4.02692857143 43.2489404762, 4.11773214286 43.3099047619, 4.19771428571 43.3768690476, 4.26730357143 43.4491904762, 4.32692857143 43.5268690476, 4.37658928571 43.6099047619, 4.41628571429 43.6970119048, 4.44666071429 43.7869047619, 4.46835714286 43.8795833333, 4.481375 43.9750476190, 4.48571428571 44.0688511905, 4.481375 44.1599761905, 4.46835714286 44.2484226190, 4.44666071429 44.3341904762, 4.41628571429 44.4159940476, 4.37658928571 44.4925476190, 4.32692857143 44.5638511905, 4.26730357143 44.6299047619, 4.19771428571 44.6900118263, 4.11773214286 44.7434760858, 4.02692857143 44.7902975406, 3.92530357143 44.8304761905, 3.81285714286 44.8627261905, 3.68883928571 44.8857619048, 3.5525 44.8995833333, 3.40383928571 44.9041904762, 3.24285714286 44.8995833333, 3.08792857143 44.8857619048, 2.94371428571 44.8627261905, 2.81021428571 44.8304761905, 2.68742857143 44.7902975406, 2.57514285714 44.7434760858, 2.47314285714 44.6900118263, 2.38142857143 44.6299047619, 2.3 44.5638511905, 2.22864293562 44.4925476190, 2.16714296177 44.4159940476, 2.11550007847 44.3341904762, 2.07371428571 44.2484226190, 2.04146428571 44.1599761905, 2.01842857143 Z M 43.8844047619, 2.45407142857 43.9292440476, 2.44651785714 43.9750476190, 2.444 44.0191904762, 2.44678571429 44.0624761905, 2.45514285714 44.1049047619, 2.46907142857 44.1464761905, 2.48857142857 44.1863869048, 2.514125 44.2238333333, 2.54621428571 44.2588154762, 2.58483928571 44.2913333333, 2.63 44.3210119048, 2.68185714286 44.3474761905, 2.74057142857 44.3707261905, 2.80614285714 44.3907619048, 2.87857142857 44.4068869048, 2.95823214286 44.4184047619, 3.0455 44.4253154762, 3.140375 44.4276190476, 3.24285714286 44.4253154762, 3.35144642857 44.4184047619, 3.45092857143 44.4068869048, 3.54130357143 44.3907619048, 3.62257142857 44.3707261905, 3.69548214286 44.3474761905, 3.76078571429 44.3210119048, 3.81848214286 44.2913333333, 3.86857142857 44.2588154762, 3.91158928571 44.2238333333, 3.94807142857 44.1863869048, 3.97801785714 44.1464761905, 4.00142857143 44.1049047619, 4.01905357143 44.0624761905, 4.03164285714 44.0191904762, 4.03919642857 43.9750476190, 4.04171428571 43.9292440476, 4.03919642857 43.8844047619, 4.03164285714 43.8405297619, 4.01905357143 43.7976190476, 4.00142857143 43.7564761905, 3.97801785714 43.7179047619, 3.94807142857 43.6819047619, 3.91158928571 43.6484761905, 3.86857142857 43.6179940476, 3.81848214286 43.5908333333, 3.76078571429 43.5669940476, 3.69548214286 43.5464761905, 3.62257142857 43.5299761905, 3.54130357143 43.5181904762, 3.45092857143 43.5111190476, 3.35144642857 43.5087619048, 3.24285714286 43.5111190476, 3.13426785714 43.5181904762, 3.03478571429 43.5299761905, 2.94441071429 43.5464761905, 2.86314285714 43.5669940476, 2.79023214286 43.5908333333, 2.72492857143 43.6179940476, 2.66723214286 43.6484761905, 2.61714285714 43.6819047619, 2.574125 43.7179047619, 2.53764285714 43.7564761905, 2.50769642857 43.7976190476, 2.48428571429 43.8405297619, 2.46666071429 Z"  />
<path d="M 47.3394940476, 2.74008928571 47.2681904762, 2.73714285714 47.1865476190, 2.74078571429 47.1061904762, 2.75171428571 47.0279761905, 2.771 46.9527619048, 2.79971428571 46.8816190476, 2.8385 46.8156190476, 2.888 46.7560476190, 2.94885714286 46.7041904762, 3.02171428571 46.6586011905, 2.9585 46.6058333333, 2.90257142857 46.5458869048, 2.85392857143 46.4787619048, 2.81257142857 46.4055297619, 2.77957142857 46.3272619048, 2.756 46.2439583333, 2.74185714286 46.1556190476, 2.73714285714 46.0853333333, 2.74051785714 46.0167619048, 2.75064285714 45.9499047619, 2.76751785714 45.8847619048, 2.79114285714 45.8229404762, 2.82301785714 45.7660476190, 2.86464285714 45.7140833333, 2.91601785714 45.6670476190, 2.97714285714 45.6670476190, 2.78171428571 45.2316190476, 2.78171428571 45.2316190476, 4.44285714286 45.6790476190, 4.44285714286 45.6790476190, 3.53257142857 45.6861190476, 3.44428571429 45.6949583333, 3.40464285714 45.7073333333, 3.368 45.7403333333, 3.3035 45.7827619048, 3.25057142857 45.8341904762, 3.20942857143 45.8941904762, 3.18028571429 45.9604047619, 3.16292857143 46.0304761905, 3.15714285714 46.1032797619, 3.16308928571 46.1674047619, 3.18092857143 46.2228511905, 3.21066071429 46.2696190476, 3.25228571429 46.3067440476, 3.30526785714 46.3332619048, 3.36907142857 46.3491726190, 3.44369642857 46.3544761905, 3.52914285714 46.3544761905, 4.44285714286 46.8019047619, 4.44285714286 46.8019047619, 3.53257142857 46.8089761905, 3.44428571429 46.8178154762, 3.40464285714 46.8301904762, 3.368 46.8631904762, 3.3035 46.9056190476, 3.25057142857 46.9570476190, 3.20942857143 47.0170476190, 3.18028571429 47.0832619048, 3.16292857143 47.1533333333, 3.15714285714 47.2254404762, 3.16308928571 47.2891904762, 3.18092857143 47.3445833333, 3.21066071429 47.3916190476, 3.25228571429 47.4291190476, 3.30526785714 47.4559047619, 3.36907142857 47.4719761905, 3.44369642857 47.4773333333, 3.52914285714 47.4773333333, 4.44285714286 47.9230476190, 4.44285714286 47.9230476190, 3.38514285714 47.9201011120, 3.31464285714 47.9112618001, 3.24714285714 47.8965296834, 3.18264285714 47.8759047619, 3.12114285714 47.8498690476, 3.06333928571 47.8189047619, 3.00992857143 47.7830119048, 2.96091071429 47.7421904762, 2.91628571429 47.6967618263, 2.87621428571 47.6470475144, 2.84085714286 47.5930475406, 2.81021428571 47.5347619048, 2.78428571429 47.4727797619, 2.76366071429 47.4076904762, 2.74892857143 Z"  />
<path d="M 102.010690476, 2.95667857143 101.909333333, 2.95314285714 101.633333333, 2.95314285714 101.643619048, 2.47314285714 102.615619048, 2.47314285714 102.615619048, 2.04285714286 101.235619048, 2.04285714286 101.209904762, 3.37142857143 101.780761905, 3.37142857143 101.909761905, 3.37828571429 101.965583333, 3.38685714286 102.015619048, 3.39885714286 102.100476190, 3.431 102.135833333, 3.45060714286 102.166476190, 3.47257142857 102.192672619, 3.49667857143 102.214690476, 3.52271428571 102.232529762, 3.55067857143 102.246190476, 3.58057142857 102.263547619, 3.64357142857 102.269333333, 3.70914285714 102.263119048, 3.77878571429 102.244476190, 3.84371428571 102.213404657, 3.90264285714 102.169904762, 3.95428571429 102.113761905, 3.99714285714 102.044761905, 4.02971428571 102.005547619, 4.04171428571 101.963333333, 4.05028571429 101.869904762, 4.05714285714 101.787190476, 4.05221428571 101.703619048, 4.03742857143 101.621333333, 4.01407142857 101.542476190, 3.98342857143 101.467904762, 3.94614285714 101.398476190, 3.90285714286 101.336333333, 3.85485714286 101.283619048, 3.80342857143 101.023047619, 4.12742857143 101.102440476, 4.20757142857 101.189761905, 4.27828571429 101.285011905, 4.33957142857 101.388190476, 4.39142857143 101.498869048, 4.43267857143 101.616619048, 4.46214285714 101.741440476, 4.47982142857 101.873333333, 4.48571428571 101.962797619, 4.48233928571 102.049476190, 4.47221428571 102.133369048, 4.45533928571 102.214476190, 4.43171428571 102.291672619, 4.40160714286 102.363833333, 4.36528571429 102.430958333, 4.32275 102.493047619, 4.274 102.549458333, 4.21919642857 102.599547619, 4.1585 102.643315476, 4.09191071429 102.680761905, 4.01942857143 102.710761905, 3.94132142857 102.732190476, 3.85785714286 102.745047619, 3.76903571429 102.749333333, 3.67485714286 102.746065476, 3.60066071429 102.736261905, 3.52892857143 102.719922619, 3.45966071429 102.697047619, 3.39285714286 102.667583333, 3.329375 102.631476190, 3.27007142857 102.588726190, 3.21494642857 102.539333333, 3.164 102.483351190, 3.11771428571 102.420833333, 3.07657142857 102.351779762, 3.04057142857 102.276190476, 3.00971428571 102.194119048, 2.98496428571 102.105619048, 2.96728571429 Z"  />
<path d="M 104.068851190, 2.00460714286 103.975047619, 2.0 103.879583333, 2.00428571429 103.786904762, 2.01714285714 103.697011905, 2.03857142857 103.609904762, 2.06857142857 103.526869048, 2.10794650705 103.449190476, 2.15750010463 103.376869048, 2.21723222133 103.309904762, 2.28714285714 103.248940476, 2.3675 103.194619048, 2.45857142857 103.146940476, 2.56035714286 103.105904762, 2.67285714286 103.072904762, 2.796875 103.049333333, 2.93321428571 103.035190476, 3.081875 103.030476190, 3.24285714286 103.035190476, 3.40383928571 103.049333333, 3.5525 103.072904762, 3.68883928571 103.105904762, 3.81285714286 103.146940476, 3.92530357143 103.194619048, 4.02692857143 103.248940476, 4.11773214286 103.309904762, 4.19771428571 103.376869048, 4.26730357143 103.449190476, 4.32692857143 103.526869048, 4.37658928571 103.609904762, 4.41628571429 103.697011905, 4.44666071429 103.786904762, 4.46835714286 103.879583333, 4.481375 103.975047619, 4.48571428571 104.068851190, 4.481375 104.159976190, 4.46835714286 104.248422619, 4.44666071429 104.334190476, 4.41628571429 104.415994048, 4.37658928571 104.492547619, 4.32692857143 104.563851190, 4.26730357143 104.629904762, 4.19771428571 104.690011826, 4.11773214286 104.743476086, 4.02692857143 104.790297541, 3.92530357143 104.830476190, 3.81285714286 104.862726190, 3.68883928571 104.885761905, 3.5525 104.899583333, 3.40383928571 104.904190476, 3.24285714286 104.899583333, 3.08792857143 104.885761905, 2.94371428571 104.862726190, 2.81021428571 104.830476190, 2.68742857143 104.790297541, 2.57514285714 104.743476086, 2.47314285714 104.690011826, 2.38142857143 104.629904762, 2.3 104.563851190, 2.22864293562 104.492547619, 2.16714296177 104.415994048, 2.11550007847 104.334190476, 2.07371428571 104.248422619, 2.04146428571 104.159976190, 2.01842857143 Z M 103.884404762, 2.45407142857 103.929244048, 2.44651785714 103.975047619, 2.444 104.019190476, 2.44678571429 104.062476190, 2.45514285714 104.104904762, 2.46907142857 104.146476190, 2.48857142857 104.186386905, 2.514125 104.223833333, 2.54621428571 104.258815476, 2.58483928571 104.291333333, 2.63 104.321011905, 2.68185714286 104.347476190, 2.74057142857 104.370726190, 2.80614285714 104.390761905, 2.87857142857 104.406886905, 2.95823214286 104.418404762, 3.0455 104.425315476, 3.140375 104.427619048, 3.24285714286 104.425315476, 3.35144642857 104.418404762, 3.45092857143 104.406886905, 3.54130357143 104.390761905, 3.62257142857 104.370726190, 3.69548214286 104.347476190, 3.76078571429 104.321011905, 3.81848214286 104.291333333, 3.86857142857 104.258815476, 3.91158928571 104.223833333, 3.94807142857 104.186386905, 3.97801785714 104.146476190, 4.00142857143 104.104904762, 4.01905357143 104.062476190, 4.03164285714 104.019190476, 4.03919642857 103.975047619, 4.04171428571 103.929244048, 4.03919642857 103.884404762, 4.03164285714 103.840529762, 4.01905357143 103.797619048, 4.00142857143 103.756476190, 3.97801785714 103.717904762, 3.94807142857 103.681904762, 3.91158928571 103.648476190, 3.86857142857 103.617994048, 3.81848214286 103.590833333, 3.76078571429 103.566994048, 3.69548214286 103.546476190, 3.62257142857 103.529976190, 3.54130357143 103.518190476, 3.45092857143 103.511119048, 3.35144642857 103.508761905, 3.24285714286 103.511119048, 3.13426785714 103.518190476, 3.03478571429 103.529976190, 2.94441071429 103.546476190, 2.86314285714 103.566994048, 2.79023214286 103.590833333, 2.72492857143 103.617994048, 2.66723214286 103.648476190, 2.61714285714 103.681904762, 2.574125 103.717904762, 2.53764285714 103.756476190, 2.50769642857 103.797619048, 2.48428571429 103.840529762, 2.46666071429 Z"  />
<path d="M 107.339494048, 2.74008928571 107.268190476, 2.73714285714 107.186547619, 2.74078571429 107.106190476, 2.75171428571 107.027976190, 2.771 106.952761905, 2.79971428571 106.881619048, 2.8385 106.815619048, 2.888 106.756047619, 2.94885714286 106.704190476, 3.02171428571 106.658601190, 2.9585 106.605833333, 2.90257142857 106.545886905, 2.85392857143 106.478761905, 2.81257142857 106.405529762, 2.77957142857 106.327261905, 2.756 106.243958333, 2.74185714286 106.155619048, 2.73714285714 106.085333333, 2.74051785714 106.016761905, 2.75064285714 105.949904762, 2.76751785714 105.884761905, 2.79114285714 105.822940476, 2.82301785714 105.766047619, 2.86464285714 105.714083333, 2.91601785714 105.667047619, 2.97714285714 105.667047619, 2.78171428571 105.231619048, 2.78171428571 105.231619048, 4.44285714286 105.679047619, 4.44285714286 105.679047619, 3.53257142857 105.686119048, 3.44428571429 105.694958333, 3.40464285714 105.707333333, 3.368 105.740333333, 3.3035 105.782761905, 3.25057142857 105.834190476, 3.20942857143 105.894190476, 3.18028571429 105.960404762, 3.16292857143 106.030476190, 3.15714285714 106.103279762, 3.16308928571 106.167404762, 3.18092857143 106.222851190, 3.21066071429 106.269619048, 3.25228571429 106.306744048, 3.30526785714 106.333261905, 3.36907142857 106.349172619, 3.44369642857 106.354476190, 3.52914285714 106.354476190, 4.44285714286 106.801904762, 4.44285714286 106.801904762, 3.53257142857 106.808976190, 3.44428571429 106.817815476, 3.40464285714 106.830190476, 3.368 106.863190476, 3.3035 106.905619048, 3.25057142857 106.957047619, 3.20942857143 107.017047619, 3.18028571429 107.083261905, 3.16292857143 107.153333333, 3.15714285714 107.225440476, 3.16308928571 107.289190476, 3.18092857143 107.344583333, 3.21066071429 107.391619048, 3.25228571429 107.429119048, 3.30526785714 107.455904762, 3.36907142857 107.471976190, 3.44369642857 107.477333333, 3.52914285714 107.477333333, 4.44285714286 107.923047619, 4.44285714286 107.923047619, 3.38514285714 107.920101112, 3.31464285714 107.911261800, 3.24714285714 107.896529683, 3.18264285714 107.875904762, 3.12114285714 107.849869048, 3.06333928571 107.818904762, 3.00992857143 107.783011905, 2.96091071429 107.742190476, 2.91628571429 107.696761826, 2.87621428571 107.647047514, 2.84085714286 107.593047541, 2.81021428571 107.534761905, 2.78428571429 107.472779762, 2.76366071429 107.407690476, 2.74892857143 Z"  />
</svg>