<?xml version="1.0" encoding="utf-8"?>
<!-- Generator: Grasshopper 1.0.0, Redback Plugin. SVG Version: 6.00 Build 0) Made by Andrew Butler at Cox Architecture -->
<!DOCTYPE svg PUBLIC "-//W3C//DTD SVG 1.1//EN" "http://www.w3.org/Graphics/SVG/1.1/DTD/svg11.dtd">
<svg version="1.1" xmlns="http://www.w3.org/2000/svg" xmlns:xlink="http://www.w3.org/1999/xlink" x="0px" y="0px"
width="90.9535238095mm" height="11.2428571429mm" viewBox="0 0 90.9535238095 11.2428571429" xml:space="preserve">
<style type="text/css">
polyline{
fill:none;
stroke:black;
stroke-width:0.2mm;
}
polygon{
fill:white;
}
</style>
<polygon points="0.0, 11.2428571429 90.9535238095, 11.2428571429 90.9535238095, -0.0 0.0, -0.0" />
<polyline points="4.50247619048, 9.24285714286 24.5024761905, 9.24285714286 24.5024761905, 6.84285714286 44.5024761905, 6.84285714286 44.5024761905, 9.24285714286 84.5024761905, 9.24285714286" />
<path d="M 2.99180803571, 2.00115178571 2.94457142857, 2.0 2.89649107143, 2.00107142857 2.84910714286, 2.00428571429 2.80241964286, 2.00964285714 2.75642857143, 2.01714285714 2.71113392857, 2.02678571429 2.66653571429, 2.03857142857 2.62263392857, 2.0525 2.57942857143, 2.06857142857 2.53724107143, 2.08698665292 2.49639285714, 2.10794650705 2.45688392857, 2.13145099095 2.41871428571, 2.15750010463 2.38188392857, 2.18609384809 2.34639285714, 2.21723222133 2.31224107143, 2.25091522435 2.27942857143, 2.28714285714 2.24811607143, 2.32598214286 2.21846428571, 2.3675 2.19047321429, 2.41169642857 2.16414285714, 2.45857142857 2.13947321429, 2.508125 2.11646428571, 2.56035714286 2.09511607143, 2.61526785714 2.07542857143, 2.67285714286 2.05775, 2.73332589286 2.04242857143, 2.796875 2.02946428571, 2.86350446429 2.01885714286, 2.93321428571 2.01060714286, 3.00600446429 2.00471428571, 3.081875 2.00117857143, 3.16082589286 2.0, 3.24285714286 2.00117857143, 3.32488839286 2.00471428571, 3.40383928571 2.01060714286, 3.47970982143 2.01885714286, 3.5525 2.02946428571, 3.62220982143 2.04242857143, 3.68883928571 2.05775, 3.75238839286 2.07542857143, 3.81285714286 2.09511607143, 3.87043303571 2.11646428571, 3.92530357143 2.13947321429, 3.97746875 2.16414285714, 4.02692857143 2.19047321429, 4.07368303571 2.21846428571, 4.11773214286 2.24811607143, 4.15907589286 2.27942857143, 4.19771428571 2.31224107143, 4.23375446429 2.34639285714, 4.26730357143 2.38188392857, 4.29836160714 2.41871428571, 4.32692857143 2.45688392857, 4.35300446429 2.49639285714, 4.37658928571 2.53724107143, 4.39768303571 2.57942857143, 4.41628571429 2.62263392857, 4.43255803571 2.66653571429, 4.44666071429 2.71113392857, 4.45859375 2.75642857143, 4.46835714286 2.80241964286, 4.47595089286 2.84910714286, 4.481375 2.89649107143, 4.48462946429 2.94457142857, 4.48571428571 2.99180803571, 4.48462946429 3.038375, 4.481375 3.08427232143, 4.47595089286 3.1295, 4.46835714286 3.17405803571, 4.45859375 3.21794642857, 4.44666071429 3.26116517857, 4.43255803571 3.30371428571, 4.41628571429 3.34527232143, 4.39768303571 3.38551785714, 4.37658928571 3.42445089286, 4.35300446429 3.46207142857, 4.32692857143 3.49837946429, 4.29836160714 3.533375, 4.26730357143 3.56705803571, 4.23375446429 3.59942857143, 4.19771428571 3.63031245422, 4.15907589286 3.65953563581, 4.11773214286 3.68709811619, 4.07368303571 3.71299989537, 4.02692857143 3.73724097334, 3.97746875 3.75982135010, 3.92530357143 3.78074102565, 3.87043303571 3.8, 3.81285714286 3.81727678571, 3.75238839286 3.83225, 3.68883928571 3.84491964286, 3.62220982143 3.85528571429, 3.5525 3.86334821429, 3.47970982143 3.86910714286, 3.40383928571 3.8725625, 3.32488839286 3.87371428571, 3.24285714286 3.8725625, 3.16405357143 3.86910714286, 3.08792857143 3.86334821429, 3.01448214286 3.85528571429, 2.94371428571 3.84491964286, 2.875625 3.83225, 2.81021428571 3.81727678571, 2.74748214286 3.8, 2.68742857143 3.78074102565, 2.63 3.75982135010, 2.57514285714 3.73724097334, 2.52285714286 3.71299989537, 2.47314285714 3.68709811619, 2.426 3.65953563581, 2.38142857143 3.63031245422, 2.33942857143 3.59942857143, 2.3 3.56705803571, 2.26308933149 3.533375, 2.22864293562 3.49837946429, 2.19666081238 3.46207142857, 2.16714296177 3.42445089286, 2.14008938381 3.38551785714, 2.11550007847 3.34527232143, 2.09337504578 3.30371428571, 2.07371428571 3.26116517857, 2.0564375 3.21794642857, 2.04146428571 3.17405803571, 2.02879464286 3.1295, 2.01842857143 3.08427232143, 2.01036607143 3.038375, 2.00460714286 Z M 2.89876785714, 2.44651785714 2.92154910714, 2.44462946429 2.94457142857, 2.444 2.96675, 2.44469642857 2.98871428571, 2.44678571429 3.01046428571, 2.45026785714 3.032, 2.45514285714 3.05332142857, 2.46141071429 3.07442857143, 2.46907142857 3.09532142857, 2.478125 3.116, 2.48857142857 3.13626339286, 2.50053125 3.15591071429, 2.514125 3.17494196429, 2.52935267857 3.19335714286, 2.54621428571 3.21115625, 2.56470982143 3.22833928571, 2.58483928571 3.24490625, 2.60660267857 3.26085714286, 2.63 3.27609821429, 2.65507142857 3.29053571429, 2.68185714286 3.30416964286, 2.71035714286 3.317, 2.74057142857 3.32902678571, 2.7725 3.34025, 2.80614285714 3.35066964286, 2.8415 3.36028571429, 2.87857142857 3.36892410714, 2.91745089286 3.37641071429, 2.95823214286 3.38274553571, 3.00091517857 3.38792857143, 3.0455 3.39195982143, 3.09198660714 3.39483928571, 3.140375 3.39656696429, 3.19066517857 3.39714285714, 3.24285714286 3.39656696429, 3.29829017857 3.39483928571, 3.35144642857 3.39195982143, 3.40232589286 3.38792857143, 3.45092857143 3.38274553571, 3.49725446429 3.37641071429, 3.54130357143 3.36892410714, 3.58307589286 3.36028571429, 3.62257142857 3.35066964286, 3.65997767857 3.34025, 3.69548214286 3.32902678571, 3.72908482143 3.317, 3.76078571429 3.30416964286, 3.79058482143 3.29053571429, 3.81848214286 3.27609821429, 3.84447767857 3.26085714286, 3.86857142857 3.24490625, 3.89089732143 3.22833928571, 3.91158928571 3.21115625, 3.93064732143 3.19335714286, 3.94807142857 3.17494196429, 3.96386160714 3.15591071429, 3.97801785714 3.13626339286, 3.99054017857 3.116, 4.00142857143 3.09532142857, 4.01087053571 3.07442857143, 4.01905357143 3.05332142857, 4.02597767857 3.032, 4.03164285714 3.01046428571, 4.03604910714 2.98871428571, 4.03919642857 2.96675, 4.04108482143 2.94457142857, 4.04171428571 2.92154910714, 4.04108482143 2.89876785714, 4.03919642857 2.87622767857, 4.03604910714 2.85392857143, 4.03164285714 2.83187053571, 4.02597767857 2.81005357143, 4.01905357143 2.78847767857, 4.01087053571 2.76714285714, 4.00142857143 2.74625, 3.99054017857 2.726, 3.97801785714 2.70639285714, 3.96386160714 2.68742857143, 3.94807142857 2.66910714286, 3.93064732143 2.65142857143, 3.91158928571 2.63439285714, 3.89089732143 2.618, 3.86857142857 2.60234375, 3.84447767857 2.58751785714, 3.81848214286 2.57352232143, 3.79058482143 2.56035714286, 3.76078571429 2.54802232143, 3.72908482143 2.53651785714, 3.69548214286 2.52584375, 3.65997767857 2.516, 3.62257142857 2.50716071429, 3.58307589286 2.4995, 3.54130357143 2.49301785714, 3.49725446429 2.48771428571, 3.45092857143 2.48358928571, 3.40232589286 2.48064285714, 3.35144642857 2.478875, 3.29829017857 2.47828571429, 3.24285714286 2.478875, 3.18742410714 2.48064285714, 3.13426785714 2.48358928571, 3.08338839286 2.48771428571, 3.03478571429 2.49301785714, 2.98845982143 2.4995, 2.94441071429 2.50716071429, 2.90263839286 2.516, 2.86314285714 2.52584375, 2.82573660714 2.53651785714, 2.79023214286 2.54802232143, 2.75662946429 2.56035714286, 2.72492857143 2.57352232143, 2.69512946429 2.58751785714, 2.66723214286 2.60234375, 2.64123660714 2.618, 2.61714285714 2.63439285714, 2.59481696429 2.65142857143, 2.574125 2.66910714286, 2.55506696429 2.68742857143, 2.53764285714 2.70639285714, 2.52185267857 2.726, 2.50769642857 2.74625, 2.49517410714 2.76714285714, 2.48428571429 2.78847767857, 2.47484375 2.81005357143, 2.46666071429 2.83187053571, 2.45973660714 2.85392857143, 2.45407142857 2.87622767857, 2.44966517857 Z"  />
<path d="M 6.27375446429, 2.73787946429 6.23771428571, 2.73714285714 6.19673214286, 2.73805357143 6.15607142857, 2.74078571429 6.11573214286, 2.74533928571 6.07571428571, 2.75171428571 6.03623214286, 2.76017857143 5.9975, 2.771 5.95951785714, 2.78417857143 5.92228571429, 2.79971428571 5.88607142857, 2.81776785714 5.85114285714, 2.8385 5.8175, 2.86191071429 5.78514285714, 2.888 5.76952678571, 2.90208928571 5.75439285714, 2.91692857143 5.73974107143, 2.93251785714 5.72557142857, 2.94885714286 5.71188392857, 2.96594642857 5.69867857143, 2.98378571429 5.68595535714, 3.002375 5.67371428571, 3.02171428571 5.65181696429, 2.98919642857 5.628125, 2.9585 5.60263839286, 2.929625 5.57535714286, 2.90257142857 5.54628125, 2.87733928571 5.51541071429, 2.85392857143 5.48274553571, 2.83233928571 5.44828571429, 2.81257142857 5.41229910714, 2.79489285714 5.37505357143, 2.77957142857 5.33654910714, 2.76660714286 5.29678571429, 2.756 5.25576339286, 2.74775 5.21348214286, 2.74185714286 5.16994196429, 2.73832142857 5.12514285714, 2.73714285714 5.08978571429, 2.73798660714 5.05485714286, 2.74051785714 5.02035714286, 2.74473660714 4.98628571429, 2.75064285714 4.95264285714, 2.75823660714 4.91942857143, 2.76751785714 4.88664285714, 2.77848660714 4.85428571429, 2.79114285714 4.82275892857, 2.80586160714 4.79246428571, 2.82301785714 4.76340178571, 2.84261160714 4.73557142857, 2.86464285714 4.70897321429, 2.88911160714 4.68360714286, 2.91601785714 4.65947321429, 2.94536160714 4.63657142857, 2.97714285714 4.63657142857, 2.78171428571 4.20114285714, 2.78171428571 4.20114285714, 4.44285714286 4.64857142857, 4.44285714286 4.64857142857, 3.53257142857 4.64901339286, 3.509375 4.65033928571, 3.48692857143 4.65254910714, 3.46523214286 4.65564285714, 3.44428571429 4.65962053571, 3.42408928571 4.66448214286, 3.40464285714 4.67022767857, 3.38594642857 4.67685714286, 3.368 4.68422321429, 3.35079017857 4.69217857143, 3.33430357143 4.70072321429, 3.31854017857 4.70985714286, 3.3035 4.71958035714, 3.28918303571 4.72989285714, 3.27558928571 4.74079464286, 3.26271875 4.75228571429, 3.25057142857 4.76433928571, 3.23916071429 4.77692857143, 3.2285 4.79005357143, 3.21858928571 4.80371428571, 3.20942857143 4.81791071429, 3.20101785714 4.83264285714, 3.19335714286 4.84791071429, 3.18644642857 4.86371428571, 3.18028571429 4.89633928571, 3.17016071429 4.92992857143, 3.16292857143 4.96448214286, 3.15858928571 5.0, 3.15714285714 5.03748660714, 3.15862946429 5.05541629464, 3.16048772321 5.07280357143, 3.16308928571 5.0896484375, 3.16643415179 5.10595089286, 3.17052232143 5.1217109375, 3.17535379464 5.13692857143, 3.18092857143 5.15160379464, 3.18724665179 5.16573660714, 3.19430803571 5.17932700893, 3.20211272321 5.192375, 3.21066071429 5.20488058036, 3.21995200893 5.21684375, 3.22998660714 5.22826450893, 3.24076450893 5.23914285714, 3.25228571429 5.24941852679, 3.26451674107 5.25903125, 3.27742410714 5.26798102679, 3.2910078125 5.27626785714, 3.30526785714 5.28389174107, 3.32020424107 5.29085267857, 3.33581696429 5.29715066964, 3.35210602679 5.30278571429, 3.36907142857 5.3077578125, 3.38671316964 5.31206696429, 3.40503125 5.31869642857, 3.44369642857 5.32267410714, 3.48506696429 5.324, 3.52914285714 5.324, 4.44285714286 5.77142857143, 4.44285714286 5.77142857143, 3.53257142857 5.77187053571, 3.509375 5.77319642857, 3.48692857143 5.77540625, 3.46523214286 5.7785, 3.44428571429 5.78247767857, 3.42408928571 5.78733928571, 3.40464285714 5.79308482143, 3.38594642857 5.79971428571, 3.368 5.80708035714, 3.35079017857 5.81503571429, 3.33430357143 5.82358035714, 3.31854017857 5.83271428571, 3.3035 5.8424375, 3.28918303571 5.85275, 3.27558928571 5.86365178571, 3.26271875 5.87514285714, 3.25057142857 5.88719642857, 3.23916071429 5.89978571429, 3.2285 5.91291071429, 3.21858928571 5.92657142857, 3.20942857143 5.94076785714, 3.20101785714 5.9555, 3.19335714286 5.97076785714, 3.18644642857 5.98657142857, 3.18028571429 6.01919642857, 3.17016071429 6.05278571429, 3.16292857143 6.08733928571, 3.15858928571 6.12285714286, 3.15714285714 6.15995535714, 3.15862946429 6.17772098214, 3.16048772321 6.19496428571, 3.16308928571 6.21168526786, 3.16643415179 6.22788392857, 3.17052232143 6.24356026786, 3.17535379464 6.25871428571, 3.18092857143 6.27334598214, 3.18724665179 6.28745535714, 3.19430803571 6.30104241071, 3.20211272321 6.31410714286, 3.21066071429 6.32664955357, 3.21995200893 6.33866964286, 3.22998660714 6.35016741071, 3.24076450893 6.36114285714, 3.25228571429 6.37152232143, 3.26451674107 6.38123214286, 3.27742410714 6.39027232143, 3.2910078125 6.39864285714, 3.30526785714 6.40634375, 3.32020424107 6.413375, 3.33581696429 6.41973660714, 3.35210602679 6.42542857143, 3.36907142857 6.43045089286, 3.38671316964 6.43480357143, 3.40503125 6.4415, 3.44369642857 6.44551785714, 3.48506696429 6.44685714286, 3.52914285714 6.44685714286, 4.44285714286 6.89257142857, 4.44285714286 6.89257142857, 3.38514285714 6.89183477565, 3.34951785714 6.88962492153, 3.31464285714 6.88594186619, 3.28051785714 6.88078560965, 3.24714285714 6.87415615191, 3.21451785714 6.86605349295, 3.18264285714 6.85647763280, 3.15151785714 6.84542857143, 3.12114285714 6.83302678571, 3.09169196429 6.81939285714, 3.06333928571 6.80452678571, 3.03608482143 6.78842857143, 3.00992857143 6.77109821429, 2.98487053571 6.75253571429, 2.96091071429 6.73274107143, 2.93804910714 6.71171428571, 2.91628571429 6.68953566851, 2.89566071429 6.66628563581, 2.87621428571 6.64196418762, 2.85794642857 6.61657132394, 2.84085714286 6.59010704476, 2.82494642857 6.56257135010, 2.81021428571 6.53396423994, 2.79666071429 6.50428571429, 2.78428571429 6.47368303571, 2.77323660714 6.44230357143, 2.76366071429 6.41014732143, 2.75555803571 6.37721428571, 2.74892857143 6.34350446429, 2.74377232143 6.30901785714, 2.74008928571 Z"  />
<path d="M 21.9608154762, 2.95402678571 21.9093333333, 2.95314285714 21.6333333333, 2.95314285714 21.6436190476, 2.47314285714 22.6156190476, 2.47314285714 22.6156190476, 2.04285714286 21.2356190476, 2.04285714286 21.2099047619, 3.37142857143 21.7807619048, 3.37142857143 21.8151815476, 3.37185714286 21.8481547619, 3.37314285714 21.8796815476, 3.37528571429 21.9097619048, 3.37828571429 21.9383958333, 3.38214285714 21.9655833333, 3.38685714286 21.9913244048, 3.39242857143 22.0156190476, 3.39885714286 22.0386011905, 3.40600892857 22.0604047619, 3.41375 22.0810297619, 3.42208035714 22.1004761905, 3.431 22.1187440476, 3.44050892857 22.1358333333, 3.45060714286 22.1517440476, 3.46129464286 22.1664761905, 3.47257142857 22.1800967262, 3.48438392857 22.1926726190, 3.49667857143 22.2042038690, 3.50945535714 22.2146904762, 3.52271428571 22.2241324405, 3.53645535714 22.2325297619, 3.55067857143 22.2398824405, 3.56538392857 22.2461904762, 3.58057142857 22.2563154762, 3.61175 22.2635476190, 3.64357142857 22.2678869048, 3.67603571429 22.2693333333, 3.70914285714 22.2677797619, 3.74455357143 22.2658377976, 3.76181696429 22.2631190476, 3.77878571429 22.2596235119, 3.79545982143 22.2553511905, 3.81183928571 22.2503020833, 3.82792410714 22.2444761905, 3.84371428571 22.2378734661, 3.85912946429 22.2304939691, 3.87408928571 22.2223376995, 3.88859375 22.2134046573, 3.90264285714 22.2036948424, 3.91623660714 22.1932082549, 3.929375 22.1819448947, 3.94205803571 22.1699047619, 3.95428571429 22.1570744048, 3.96596428571 22.1434404762, 3.977 22.1290029762, 3.98739285714 22.1137619048, 3.99714285714 22.0977172619, 4.00625 22.0808690476, 4.01471428571 22.0632172619, 4.02253571429 22.0447619048, 4.02971428571 22.0255297619, 4.03614285714 22.0055476190, 4.04171428571 21.9848154762, 4.04642857143 21.9633333333, 4.05028571429 21.9411011905, 4.05328571429 21.9181190476, 4.05542857143 21.8943869048, 4.05671428571 21.8699047619, 4.05714285714 21.8286547619, 4.05591071429 21.7871904762, 4.05221428571 21.7455119048, 4.04605357143 21.7036190476, 4.03742857143 21.6620476190, 4.02666071429 21.6213333333, 4.01407142857 21.5814761905, 3.99966071429 21.5424761905, 3.98342857143 21.5045476190, 3.96553571429 21.4679047619, 3.94614285714 21.4325476190, 3.92525 21.3984761905, 3.90285714286 21.3662261905, 3.87928571429 21.3363333333, 3.85485714286 21.3087976190, 3.82957142857 21.2836190476, 3.80342857143 21.0230476190, 4.12742857143 21.0617529762, 4.16867857143 21.1024404762, 4.20757142857 21.1451101190, 4.24410714286 21.1897619048, 4.27828571429 21.2363958333, 4.31010714286 21.2850119048, 4.33957142857 21.3356101190, 4.36667857143 21.3881904762, 4.39142857143 21.4151971726, 4.40284598214 21.4426458333, 4.41352678571 21.4705364583, 4.42347098214 21.4988690476, 4.43267857143 21.5276436012, 4.44114955357 21.5568601190, 4.44888392857 21.5865186012, 4.45588169643 21.6166190476, 4.46214285714 21.6781458333, 4.47245535714 21.7414404762, 4.47982142857 21.8065029762, 4.48424107143 21.8733333333, 4.48571428571 21.9184136905, 4.48487053571 21.9627976190, 4.48233928571 22.0064851190, 4.47812053571 22.0494761905, 4.47221428571 22.0917708333, 4.46462053571 22.1333690476, 4.45533928571 22.1742708333, 4.44437053571 22.2144761905, 4.43171428571 22.2537038690, 4.4174375 22.2916726190, 4.40160714286 22.3283824405, 4.38422321429 22.3638333333, 4.36528571429 22.3980252976, 4.34479464286 22.4309583333, 4.32275 22.4626324405, 4.29915178571 22.4930476190, 4.274 22.5220431548, 4.24733482143 22.5494583333, 4.21919642857 22.5752931548, 4.18958482143 22.5995476190, 4.1585 22.6222217262, 4.12594196429 22.6433154762, 4.09191071429 22.6628288690, 4.05640625 22.6807619048, 4.01942857143 22.6968333333, 3.98104464286 22.7107619048, 3.94132142857 22.7225476190, 3.90025892857 22.7321904762, 3.85785714286 22.7396904762, 3.81411607143 22.7450476190, 3.76903571429 22.7482619048, 3.72261607143 22.7493333333, 3.67485714286 22.7485163690, 3.63745089286 22.7460654762, 3.60066071429 22.7419806548, 3.56448660714 22.7362619048, 3.52892857143 22.7289092262, 3.49398660714 22.7199226190, 3.45966071429 22.7093020833, 3.42595089286 22.6970476190, 3.39285714286 22.6831458333, 3.36059375 22.6675833333, 3.329375 22.6503601190, 3.29920089286 22.6314761905, 3.27007142857 22.6109315476, 3.24198660714 22.5887261905, 3.21494642857 22.5648601190, 3.18895089286 22.5393333333, 3.164 22.5121592262, 3.14021428571 22.4833511905, 3.11771428571 22.4529092262, 3.0965 22.4208333333, 3.07657142857 22.3871235119, 3.05792857143 22.3517797619, 3.04057142857 22.3148020833, 3.0245 22.2761904762, 3.00971428571 22.2359583333, 2.99645535714 22.1941190476, 2.98496428571 22.1506726190, 2.97524107143 22.1056190476, 2.96728571429 22.0589583333, 2.96109821429 22.0106904762, 2.95667857143 Z"  />
<path d="M 24.0222842262, 2.00115178571 23.9750476190, 2.0 23.9269672619, 2.00107142857 23.8795833333, 2.00428571429 23.8328958333, 2.00964285714 23.7869047619, 2.01714285714 23.7416101190, 2.02678571429 23.6970119048, 2.03857142857 23.6531101190, 2.0525 23.6099047619, 2.06857142857 23.5677172619, 2.08698665292 23.5268690476, 2.10794650705 23.4873601190, 2.13145099095 23.4491904762, 2.15750010463 23.4123601190, 2.18609384809 23.3768690476, 2.21723222133 23.3427172619, 2.25091522435 23.3099047619, 2.28714285714 23.2785922619, 2.32598214286 23.2489404762, 2.3675 23.2209494048, 2.41169642857 23.1946190476, 2.45857142857 23.1699494048, 2.508125 23.1469404762, 2.56035714286 23.1255922619, 2.61526785714 23.1059047619, 2.67285714286 23.0882261905, 2.73332589286 23.0729047619, 2.796875 23.0599404762, 2.86350446429 23.0493333333, 2.93321428571 23.0410833333, 3.00600446429 23.0351904762, 3.081875 23.0316547619, 3.16082589286 23.0304761905, 3.24285714286 23.0316547619, 3.32488839286 23.0351904762, 3.40383928571 23.0410833333, 3.47970982143 23.0493333333, 3.5525 23.0599404762, 3.62220982143 23.0729047619, 3.68883928571 23.0882261905, 3.75238839286 23.1059047619, 3.81285714286 23.1255922619, 3.87043303571 23.1469404762, 3.92530357143 23.1699494048, 3.97746875 23.1946190476, 4.02692857143 23.2209494048, 4.07368303571 23.2489404762, 4.11773214286 23.2785922619, 4.15907589286 23.3099047619, 4.19771428571 23.3427172619, 4.23375446429 23.3768690476, 4.26730357143 23.4123601190, 4.29836160714 23.4491904762, 4.32692857143 23.4873601190, 4.35300446429 23.5268690476, 4.37658928571 23.5677172619, 4.39768303571 23.6099047619, 4.41628571429 23.6531101190, 4.43255803571 23.6970119048, 4.44666071429 23.7416101190, 4.45859375 23.7869047619, 4.46835714286 23.8328958333, 4.47595089286 23.8795833333, 4.481375 23.9269672619, 4.48462946429 23.9750476190, 4.48571428571 24.0222842262, 4.48462946429 24.0688511905, 4.481375 24.1147485119, 4.47595089286 24.1599761905, 4.46835714286 24.2045342262, 4.45859375 24.2484226190, 4.44666071429 24.2916413690, 4.43255803571 24.3341904762, 4.41628571429 24.3757485119, 4.39768303571 24.4159940476, 4.37658928571 24.4549270833, 4.35300446429 24.4925476190, 4.32692857143 24.5288556548, 4.29836160714 24.5638511905, 4.26730357143 24.5975342262, 4.23375446429 24.6299047619, 4.19771428571 24.6607886447, 4.15907589286 24.6900118263, 4.11773214286 24.7175743067, 4.07368303571 24.7434760858, 4.02692857143 24.7677171638, 3.97746875 24.7902975406, 3.92530357143 24.8112172161, 3.87043303571 24.8304761905, 3.81285714286 24.8477529762, 3.75238839286 24.8627261905, 3.68883928571 24.8753958333, 3.62220982143 24.8857619048, 3.5525 24.8938244048, 3.47970982143 24.8995833333, 3.40383928571 24.9030386905, 3.32488839286 24.9041904762, 3.24285714286 24.9030386905, 3.16405357143 24.8995833333, 3.08792857143 24.8938244048, 3.01448214286 24.8857619048, 2.94371428571 24.8753958333, 2.875625 24.8627261905, 2.81021428571 24.8477529762, 2.74748214286 24.8304761905, 2.68742857143 24.8112172161, 2.63 24.7902975406, 2.57514285714 24.7677171638, 2.52285714286 24.7434760858, 2.47314285714 24.7175743067, 2.426 24.6900118263, 2.38142857143 24.6607886447, 2.33942857143 24.6299047619, 2.3 24.5975342262, 2.26308933149 24.5638511905, 2.22864293562 24.5288556548, 2.19666081238 24.4925476190, 2.16714296177 24.4549270833, 2.14008938381 24.4159940476, 2.11550007847 24.3757485119, 2.09337504578 24.3341904762, 2.07371428571 24.2916413690, 2.0564375 24.2484226190, 2.04146428571 24.2045342262, 2.02879464286 24.1599761905, 2.01842857143 24.1147485119, 2.01036607143 24.0688511905, 2.00460714286 Z M 23.9292440476, 2.44651785714 23.9520252976, 2.44462946429 23.9750476190, 2.444 23.9972261905, 2.44469642857 24.0191904762, 2.44678571429 24.0409404762, 2.45026785714 24.0624761905, 2.45514285714 24.0837976190, 2.46141071429 24.1049047619, 2.46907142857 24.1257976190, 2.478125 24.1464761905, 2.48857142857 24.1667395833, 2.50053125 24.1863869048, 2.514125 24.2054181548, 2.52935267857 24.2238333333, 2.54621428571 24.2416324405, 2.56470982143 24.2588154762, 2.58483928571 24.2753824405, 2.60660267857 24.2913333333, 2.63 24.3065744048, 2.65507142857 24.3210119048, 2.68185714286 24.3346458333, 2.71035714286 24.3474761905, 2.74057142857 24.3595029762, 2.7725 24.3707261905, 2.80614285714 24.3811458333, 2.8415 24.3907619048, 2.87857142857 24.3994002976, 2.91745089286 24.4068869048, 2.95823214286 24.4132217262, 3.00091517857 24.4184047619, 3.0455 24.4224360119, 3.09198660714 24.4253154762, 3.140375 24.4270431548, 3.19066517857 24.4276190476, 3.24285714286 24.4270431548, 3.29829017857 24.4253154762, 3.35144642857 24.4224360119, 3.40232589286 24.4184047619, 3.45092857143 24.4132217262, 3.49725446429 24.4068869048, 3.54130357143 24.3994002976, 3.58307589286 24.3907619048, 3.62257142857 24.3811458333, 3.65997767857 24.3707261905, 3.69548214286 24.3595029762, 3.72908482143 24.3474761905, 3.76078571429 24.3346458333, 3.79058482143 24.3210119048, 3.81848214286 24.3065744048, 3.84447767857 24.2913333333, 3.86857142857 24.2753824405, 3.89089732143 24.2588154762, 3.91158928571 24.2416324405, 3.93064732143 24.2238333333, 3.94807142857 24.2054181548, 3.96386160714 24.1863869048, 3.97801785714 24.1667395833, 3.99054017857 24.1464761905, 4.00142857143 24.1257976190, 4.01087053571 24.1049047619, 4.01905357143 24.0837976190, 4.02597767857 24.0624761905, 4.03164285714 24.0409404762, 4.03604910714 24.0191904762, 4.03919642857 23.9972261905, 4.04108482143 23.9750476190, 4.04171428571 23.9520252976, 4.04108482143 23.9292440476, 4.03919642857 23.9067038690, 4.03604910714 23.8844047619, 4.03164285714 23.8623467262, 4.02597767857 23.8405297619, 4.01905357143 23.8189538690, 4.01087053571 23.7976190476, 4.00142857143 23.7767261905, 3.99054017857 23.7564761905, 3.97801785714 23.7368690476, 3.96386160714 23.7179047619, 3.94807142857 23.6995833333, 3.93064732143 23.6819047619, 3.91158928571 23.6648690476, 3.89089732143 23.6484761905, 3.86857142857 23.6328199405, 3.84447767857 23.6179940476, 3.81848214286 23.6039985119, 3.79058482143 23.5908333333, 3.76078571429 23.5784985119, 3.72908482143 23.5669940476, 3.69548214286 23.5563199405, 3.65997767857 23.5464761905, 3.62257142857 23.5376369048, 3.58307589286 23.5299761905, 3.54130357143 23.5234940476, 3.49725446429 23.5181904762, 3.45092857143 23.5140654762, 3.40232589286 23.5111190476, 3.35144642857 23.5093511905, 3.29829017857 23.5087619048, 3.24285714286 23.5093511905, 3.18742410714 23.5111190476, 3.13426785714 23.5140654762, 3.08338839286 23.5181904762, 3.03478571429 23.5234940476, 2.98845982143 23.5299761905, 2.94441071429 23.5376369048, 2.90263839286 23.5464761905, 2.86314285714 23.5563199405, 2.82573660714 23.5669940476, 2.79023214286 23.5784985119, 2.75662946429 23.5908333333, 2.72492857143 23.6039985119, 2.69512946429 23.6179940476, 2.66723214286 23.6328199405, 2.64123660714 23.6484761905, 2.61714285714 23.6648690476, 2.59481696429 23.6819047619, 2.574125 23.6995833333, 2.55506696429 23.7179047619, 2.53764285714 23.7368690476, 2.52185267857 23.7564761905, 2.50769642857 23.7767261905, 2.49517410714 23.7976190476, 2.48428571429 23.8189538690, 2.47484375 23.8405297619, 2.46666071429 23.8623467262, 2.45973660714 23.8844047619, 2.45407142857 23.9067038690, 2.44966517857 Z"  />
<path d="M 27.3042306548, 2.73787946429 27.2681904762, 2.73714285714 27.2272083333, 2.73805357143 27.1865476190, 2.74078571429 27.1462083333, 2.74533928571 27.1061904762, 2.75171428571 27.0667083333, 2.76017857143 27.0279761905, 2.771 26.9899940476, 2.78417857143 26.9527619048, 2.79971428571 26.9165476190, 2.81776785714 26.8816190476, 2.8385 26.8479761905, 2.86191071429 26.8156190476, 2.888 26.8000029762, 2.90208928571 26.7848690476, 2.91692857143 26.7702172619, 2.93251785714 26.7560476190, 2.94885714286 26.7423601190, 2.96594642857 26.7291547619, 2.98378571429 26.7164315476, 3.002375 26.7041904762, 3.02171428571 26.6822931548, 2.98919642857 26.6586011905, 2.9585 26.6331145833, 2.929625 26.6058333333, 2.90257142857 26.5767574405, 2.87733928571 26.5458869048, 2.85392857143 26.5132217262, 2.83233928571 26.4787619048, 2.81257142857 26.4427752976, 2.79489285714 26.4055297619, 2.77957142857 26.3670252976, 2.76660714286 26.3272619048, 2.756 26.2862395833, 2.74775 26.2439583333, 2.74185714286 26.2004181548, 2.73832142857 26.1556190476, 2.73714285714 26.1202619048, 2.73798660714 26.0853333333, 2.74051785714 26.0508333333, 2.74473660714 26.0167619048, 2.75064285714 25.9831190476, 2.75823660714 25.9499047619, 2.76751785714 25.9171190476, 2.77848660714 25.8847619048, 2.79114285714 25.8532351190, 2.80586160714 25.8229404762, 2.82301785714 25.7938779762, 2.84261160714 25.7660476190, 2.86464285714 25.7394494048, 2.88911160714 25.7140833333, 2.91601785714 25.6899494048, 2.94536160714 25.6670476190, 2.97714285714 25.6670476190, 2.78171428571 25.2316190476, 2.78171428571 25.2316190476, 4.44285714286 25.6790476190, 4.44285714286 25.6790476190, 3.53257142857 25.6794895833, 3.509375 25.6808154762, 3.48692857143 25.6830252976, 3.46523214286 25.6861190476, 3.44428571429 25.6900967262, 3.42408928571 25.6949583333, 3.40464285714 25.7007038690, 3.38594642857 25.7073333333, 3.368 25.7146994048, 3.35079017857 25.7226547619, 3.33430357143 25.7311994048, 3.31854017857 25.7403333333, 3.3035 25.7500565476, 3.28918303571 25.7603690476, 3.27558928571 25.7712708333, 3.26271875 25.7827619048, 3.25057142857 25.7948154762, 3.23916071429 25.8074047619, 3.2285 25.8205297619, 3.21858928571 25.8341904762, 3.20942857143 25.8483869048, 3.20101785714 25.8631190476, 3.19335714286 25.8783869048, 3.18644642857 25.8941904762, 3.18028571429 25.9268154762, 3.17016071429 25.9604047619, 3.16292857143 25.9949583333, 3.15858928571 26.0304761905, 3.15714285714 26.0679627976, 3.15862946429 26.0858924851, 3.16048772321 26.1032797619, 3.16308928571 26.1201246280, 3.16643415179 26.1364270833, 3.17052232143 26.1521871280, 3.17535379464 26.1674047619, 3.18092857143 26.1820799851, 3.18724665179 26.1962127976, 3.19430803571 26.2098031994, 3.20211272321 26.2228511905, 3.21066071429 26.2353567708, 3.21995200893 26.2473199405, 3.22998660714 26.2587406994, 3.24076450893 26.2696190476, 3.25228571429 26.2798947173, 3.26451674107 26.2895074405, 3.27742410714 26.2984572173, 3.2910078125 26.3067440476, 3.30526785714 26.3143679315, 3.32020424107 26.3213288690, 3.33581696429 26.3276268601, 3.35210602679 26.3332619048, 3.36907142857 26.3382340030, 3.38671316964 26.3425431548, 3.40503125 26.3491726190, 3.44369642857 26.3531502976, 3.48506696429 26.3544761905, 3.52914285714 26.3544761905, 4.44285714286 26.8019047619, 4.44285714286 26.8019047619, 3.53257142857 26.8023467262, 3.509375 26.8036726190, 3.48692857143 26.8058824405, 3.46523214286 26.8089761905, 3.44428571429 26.8129538690, 3.42408928571 26.8178154762, 3.40464285714 26.8235610119, 3.38594642857 26.8301904762, 3.368 26.8375565476, 3.35079017857 26.8455119048, 3.33430357143 26.8540565476, 3.31854017857 26.8631904762, 3.3035 26.8729136905, 3.28918303571 26.8832261905, 3.27558928571 26.8941279762, 3.26271875 26.9056190476, 3.25057142857 26.9176726190, 3.23916071429 26.9302619048, 3.2285 26.9433869048, 3.21858928571 26.9570476190, 3.20942857143 26.9712440476, 3.20101785714 26.9859761905, 3.19335714286 27.0012440476, 3.18644642857 27.0170476190, 3.18028571429 27.0496726190, 3.17016071429 27.0832619048, 3.16292857143 27.1178154762, 3.15858928571 27.1533333333, 3.15714285714 27.1904315476, 3.15862946429 27.2081971726, 3.16048772321 27.2254404762, 3.16308928571 27.2421614583, 3.16643415179 27.2583601190, 3.17052232143 27.2740364583, 3.17535379464 27.2891904762, 3.18092857143 27.3038221726, 3.18724665179 27.3179315476, 3.19430803571 27.3315186012, 3.20211272321 27.3445833333, 3.21066071429 27.3571257440, 3.21995200893 27.3691458333, 3.22998660714 27.3806436012, 3.24076450893 27.3916190476, 3.25228571429 27.4019985119, 3.26451674107 27.4117083333, 3.27742410714 27.4207485119, 3.2910078125 27.4291190476, 3.30526785714 27.4368199405, 3.32020424107 27.4438511905, 3.33581696429 27.4502127976, 3.35210602679 27.4559047619, 3.36907142857 27.4609270833, 3.38671316964 27.4652797619, 3.40503125 27.4719761905, 3.44369642857 27.4759940476, 3.48506696429 27.4773333333, 3.52914285714 27.4773333333, 4.44285714286 27.9230476190, 4.44285714286 27.9230476190, 3.38514285714 27.9223109661, 3.34951785714 27.9201011120, 3.31464285714 27.9164180567, 3.28051785714 27.9112618001, 3.24714285714 27.9046323424, 3.21451785714 27.8965296834, 3.18264285714 27.8869538233, 3.15151785714 27.8759047619, 3.12114285714 27.8635029762, 3.09169196429 27.8498690476, 3.06333928571 27.8350029762, 3.03608482143 27.8189047619, 3.00992857143 27.8015744048, 2.98487053571 27.7830119048, 2.96091071429 27.7632172619, 2.93804910714 27.7421904762, 2.91628571429 27.7200118590, 2.89566071429 27.6967618263, 2.87621428571 27.6724403781, 2.85794642857 27.6470475144, 2.84085714286 27.6205832352, 2.82494642857 27.5930475406, 2.81021428571 27.5644404304, 2.79666071429 27.5347619048, 2.78428571429 27.5041592262, 2.77323660714 27.4727797619, 2.76366071429 27.4406235119, 2.75555803571 27.4076904762, 2.74892857143 27.3739806548, 2.74377232143 27.3394940476, 2.74008928571 Z"  />
<path d="M 40.7626666667, 2.62742857143 40.7626666667, 4.004 40.1935238095, 4.004 40.1935238095, 4.44285714286 41.7672380952, 4.44285714286 41.7672380952, 4.004 41.2238095238, 4.004 41.2238095238, 2.00514285714 40.1660952381, 2.37885714286 40.1660952381, 2.84 Z"  />
<path d="M 42.9956175595, 2.00115178571 42.9483809524, 2.0 42.9003005952, 2.00107142857 42.8529166667, 2.00428571429 42.8062291667, 2.00964285714 42.7602380952, 2.01714285714 42.7149434524, 2.02678571429 42.6703452381, 2.03857142857 42.6264434524, 2.0525 42.5832380952, 2.06857142857 42.5410505952, 2.08698665292 42.5002023810, 2.10794650705 42.4606934524, 2.13145099095 42.4225238095, 2.15750010463 42.3856934524, 2.18609384809 42.3502023810, 2.21723222133 42.3160505952, 2.25091522435 42.2832380952, 2.28714285714 42.2519255952, 2.32598214286 42.2222738095, 2.3675 42.1942827381, 2.41169642857 42.1679523810, 2.45857142857 42.1432827381, 2.508125 42.1202738095, 2.56035714286 42.0989255952, 2.61526785714 42.0792380952, 2.67285714286 42.0615595238, 2.73332589286 42.0462380952, 2.796875 42.0332738095, 2.86350446429 42.0226666667, 2.93321428571 42.0144166667, 3.00600446429 42.0085238095, 3.081875 42.0049880952, 3.16082589286 42.0038095238, 3.24285714286 42.0049880952, 3.32488839286 42.0085238095, 3.40383928571 42.0144166667, 3.47970982143 42.0226666667, 3.5525 42.0332738095, 3.62220982143 42.0462380952, 3.68883928571 42.0615595238, 3.75238839286 42.0792380952, 3.81285714286 42.0989255952, 3.87043303571 42.1202738095, 3.92530357143 42.1432827381, 3.97746875 42.1679523810, 4.02692857143 42.1942827381, 4.07368303571 42.2222738095, 4.11773214286 42.2519255952, 4.15907589286 42.2832380952, 4.19771428571 42.3160505952, 4.23375446429 42.3502023810, 4.26730357143 42.3856934524, 4.29836160714 42.4225238095, 4.32692857143 42.4606934524, 4.35300446429 42.5002023810, 4.37658928571 42.5410505952, 4.39768303571 42.5832380952, 4.41628571429 42.6264434524, 4.43255803571 42.6703452381, 4.44666071429 42.7149434524, 4.45859375 42.7602380952, 4.46835714286 42.8062291667, 4.47595089286 42.8529166667, 4.481375 42.9003005952, 4.48462946429 42.9483809524, 4.48571428571 42.9956175595, 4.48462946429 43.0421845238, 4.481375 43.0880818452, 4.47595089286 43.1333095238, 4.46835714286 43.1778675595, 4.45859375 43.2217559524, 4.44666071429 43.2649747024, 4.43255803571 43.3075238095, 4.41628571429 43.3490818452, 4.39768303571 43.3893273810, 4.37658928571 43.4282604167, 4.35300446429 43.4658809524, 4.32692857143 43.5021889881, 4.29836160714 43.5371845238, 4.26730357143 43.5708675595, 4.23375446429 43.6032380952, 4.19771428571 43.6341219780, 4.15907589286 43.6633451596, 4.11773214286 43.6909076400, 4.07368303571 43.7168094192, 4.02692857143 43.7410504971, 3.97746875 43.7636308739, 3.92530357143 43.7845505495, 3.87043303571 43.8038095238, 3.81285714286 43.8210863095, 3.75238839286 43.8360595238, 3.68883928571 43.8487291667, 3.62220982143 43.8590952381, 3.5525 43.8671577381, 3.47970982143 43.8729166667, 3.40383928571 43.8763720238, 3.32488839286 43.8775238095, 3.24285714286 43.8763720238, 3.16405357143 43.8729166667, 3.08792857143 43.8671577381, 3.01448214286 43.8590952381, 2.94371428571 43.8487291667, 2.875625 43.8360595238, 2.81021428571 43.8210863095, 2.74748214286 43.8038095238, 2.68742857143 43.7845505495, 2.63 43.7636308739, 2.57514285714 43.7410504971, 2.52285714286 43.7168094192, 2.47314285714 43.6909076400, 2.426 43.6633451596, 2.38142857143 43.6341219780, 2.33942857143 43.6032380952, 2.3 43.5708675595, 2.26308933149 43.5371845238, 2.22864293562 43.5021889881, 2.19666081238 43.4658809524, 2.16714296177 43.4282604167, 2.14008938381 43.3893273810, 2.11550007847 43.3490818452, 2.09337504578 43.3075238095, 2.07371428571 43.2649747024, 2.0564375 43.2217559524, 2.04146428571 43.1778675595, 2.02879464286 43.1333095238, 2.01842857143 43.0880818452, 2.01036607143 43.0421845238, 2.00460714286 Z M 42.9025773810, 2.44651785714 42.9253586310, 2.44462946429 42.9483809524, 2.444 42.9705595238, 2.44469642857 42.9925238095, 2.44678571429 43.0142738095, 2.45026785714 43.0358095238, 2.45514285714 43.0571309524, 2.46141071429 43.0782380952, 2.46907142857 43.0991309524, 2.478125 43.1198095238, 2.48857142857 43.1400729167, 2.50053125 43.1597202381, 2.514125 43.1787514881, 2.52935267857 43.1971666667, 2.54621428571 43.2149657738, 2.56470982143 43.2321488095, 2.58483928571 43.2487157738, 2.60660267857 43.2646666667, 2.63 43.2799077381, 2.65507142857 43.2943452381, 2.68185714286 43.3079791667, 2.71035714286 43.3208095238, 2.74057142857 43.3328363095, 2.7725 43.3440595238, 2.80614285714 43.3544791667, 2.8415 43.3640952381, 2.87857142857 43.3727336310, 2.91745089286 43.3802202381, 2.95823214286 43.3865550595, 3.00091517857 43.3917380952, 3.0455 43.3957693452, 3.09198660714 43.3986488095, 3.140375 43.4003764881, 3.19066517857 43.4009523810, 3.24285714286 43.4003764881, 3.29829017857 43.3986488095, 3.35144642857 43.3957693452, 3.40232589286 43.3917380952, 3.45092857143 43.3865550595, 3.49725446429 43.3802202381, 3.54130357143 43.3727336310, 3.58307589286 43.3640952381, 3.62257142857 43.3544791667, 3.65997767857 43.3440595238, 3.69548214286 43.3328363095, 3.72908482143 43.3208095238, 3.76078571429 43.3079791667, 3.79058482143 43.2943452381, 3.81848214286 43.2799077381, 3.84447767857 43.2646666667, 3.86857142857 43.2487157738, 3.89089732143 43.2321488095, 3.91158928571 43.2149657738, 3.93064732143 43.1971666667, 3.94807142857 43.1787514881, 3.96386160714 43.1597202381, 3.97801785714 43.1400729167, 3.99054017857 43.1198095238, 4.00142857143 43.0991309524, 4.01087053571 43.0782380952, 4.01905357143 43.0571309524, 4.02597767857 43.0358095238, 4.03164285714 43.0142738095, 4.03604910714 42.9925238095, 4.03919642857 42.9705595238, 4.04108482143 42.9483809524, 4.04171428571 42.9253586310, 4.04108482143 42.9025773810, 4.03919642857 42.8800372024, 4.03604910714 42.8577380952, 4.03164285714 42.8356800595, 4.02597767857 42.8138630952, 4.01905357143 42.7922872024, 4.01087053571 42.7709523810, 4.00142857143 42.7500595238, 3.99054017857 42.7298095238, 3.97801785714 42.7102023810, 3.96386160714 42.6912380952, 3.94807142857 42.6729166667, 3.93064732143 42.6552380952, 3.91158928571 42.6382023810, 3.89089732143 42.6218095238, 3.86857142857 42.6061532738, 3.84447767857 42.5913273810, 3.81848214286 42.5773318452, 3.79058482143 42.5641666667, 3.76078571429 42.5518318452, 3.72908482143 42.5403273810, 3.69548214286 42.5296532738, 3.65997767857 42.5198095238, 3.62257142857 42.5109702381, 3.58307589286 42.5033095238, 3.54130357143 42.4968273810, 3.49725446429 42.4915238095, 3.45092857143 42.4873988095, 3.40232589286 42.4844523810, 3.35144642857 42.4826845238, 3.29829017857 42.4820952381, 3.24285714286 42.4826845238, 3.18742410714 42.4844523810, 3.13426785714 42.4873988095, 3.08338839286 42.4915238095, 3.03478571429 42.4968273810, 2.98845982143 42.5033095238, 2.94441071429 42.5109702381, 2.90263839286 42.5198095238, 2.86314285714 42.5296532738, 2.82573660714 42.5403273810, 2.79023214286 42.5518318452, 2.75662946429 42.5641666667, 2.72492857143 42.5773318452, 2.69512946429 42.5913273810, 2.66723214286 42.6061532738, 2.64123660714 42.6218095238, 2.61714285714 42.6382023810, 2.59481696429 42.6552380952, 2.574125 42.6729166667, 2.55506696429 42.6912380952, 2.53764285714 42.7102023810, 2.52185267857 42.7298095238, 2.50769642857 42.7500595238, 2.49517410714 42.7709523810, 2.48428571429 42.7922872024, 2.47484375 42.8138630952, 2.46666071429 42.8356800595, 2.45973660714 42.8577380952, 2.45407142857 42.8800372024, 2.44966517857 Z"  />
<path d="M 45.0527604167, 2.00115178571 45.0055238095, 2.0 44.9574434524, 2.00107142857 44.9100595238, 2.00428571429 44.8633720238, 2.00964285714 44.8173809524, 2.01714285714 44.7720863095, 2.02678571429 44.7274880952, 2.03857142857 44.6835863095, 2.0525 44.6403809524, 2.06857142857 44.5981934524, 2.08698665292 44.5573452381, 2.10794650705 44.5178363095, 2.13145099095 44.4796666667, 2.15750010463 44.4428363095, 2.18609384809 44.4073452381, 2.21723222133 44.3731934524, 2.25091522435 44.3403809524, 2.28714285714 44.3090684524, 2.32598214286 44.2794166667, 2.3675 44.2514255952, 2.41169642857 44.2250952381, 2.45857142857 44.2004255952, 2.508125 44.1774166667, 2.56035714286 44.1560684524, 2.61526785714 44.1363809524, 2.67285714286 44.1187023810, 2.73332589286 44.1033809524, 2.796875 44.0904166667, 2.86350446429 44.0798095238, 2.93321428571 44.0715595238, 3.00600446429 44.0656666667, 3.081875 44.0621309524, 3.16082589286 44.0609523810, 3.24285714286 44.0621309524, 3.32488839286 44.0656666667, 3.40383928571 44.0715595238, 3.47970982143 44.0798095238, 3.5525 44.0904166667, 3.62220982143 44.1033809524, 3.68883928571 44.1187023810, 3.75238839286 44.1363809524, 3.81285714286 44.1560684524, 3.87043303571 44.1774166667, 3.92530357143 44.2004255952, 3.97746875 44.2250952381, 4.02692857143 44.2514255952, 4.07368303571 44.2794166667, 4.11773214286 44.3090684524, 4.15907589286 44.3403809524, 4.19771428571 44.3731934524, 4.23375446429 44.4073452381, 4.26730357143 44.4428363095, 4.29836160714 44.4796666667, 4.32692857143 44.5178363095, 4.35300446429 44.5573452381, 4.37658928571 44.5981934524, 4.39768303571 44.6403809524, 4.41628571429 44.6835863095, 4.43255803571 44.7274880952, 4.44666071429 44.7720863095, 4.45859375 44.8173809524, 4.46835714286 44.8633720238, 4.47595089286 44.9100595238, 4.481375 44.9574434524, 4.48462946429 45.0055238095, 4.48571428571 45.0527604167, 4.48462946429 45.0993273810, 4.481375 45.1452247024, 4.47595089286 45.1904523810, 4.46835714286 45.2350104167, 4.45859375 45.2788988095, 4.44666071429 45.3221175595, 4.43255803571 45.3646666667, 4.41628571429 45.4062247024, 4.39768303571 45.4464702381, 4.37658928571 45.4854032738, 4.35300446429 45.5230238095, 4.32692857143 45.5593318452, 4.29836160714 45.5943273810, 4.26730357143 45.6280104167, 4.23375446429 45.6603809524, 4.19771428571 45.6912648352, 4.15907589286 45.7204880168, 4.11773214286 45.7480504971, 4.07368303571 45.7739522763, 4.02692857143 45.7981933543, 3.97746875 45.8207737311, 3.92530357143 45.8416934066, 3.87043303571 45.8609523810, 3.81285714286 45.8782291667, 3.75238839286 45.8932023810, 3.68883928571 45.9058720238, 3.62220982143 45.9162380952, 3.5525 45.9243005952, 3.47970982143 45.9300595238, 3.40383928571 45.9335148810, 3.32488839286 45.9346666667, 3.24285714286 45.9335148810, 3.16405357143 45.9300595238, 3.08792857143 45.9243005952, 3.01448214286 45.9162380952, 2.94371428571 45.9058720238, 2.875625 45.8932023810, 2.81021428571 45.8782291667, 2.74748214286 45.8609523810, 2.68742857143 45.8416934066, 2.63 45.8207737311, 2.57514285714 45.7981933543, 2.52285714286 45.7739522763, 2.47314285714 45.7480504971, 2.426 45.7204880168, 2.38142857143 45.6912648352, 2.33942857143 45.6603809524, 2.3 45.6280104167, 2.26308933149 45.5943273810, 2.22864293562 45.5593318452, 2.19666081238 45.5230238095, 2.16714296177 45.4854032738, 2.14008938381 45.4464702381, 2.11550007847 45.4062247024, 2.09337504578 45.3646666667, 2.07371428571 45.3221175595, 2.0564375 45.2788988095, 2.04146428571 45.2350104167, 2.02879464286 45.1904523810, 2.01842857143 45.1452247024, 2.01036607143 45.0993273810, 2.00460714286 Z M 44.9597202381, 2.44651785714 44.9825014881, 2.44462946429 45.0055238095, 2.444 45.0277023810, 2.44469642857 45.0496666667, 2.44678571429 45.0714166667, 2.45026785714 45.0929523810, 2.45514285714 45.1142738095, 2.46141071429 45.1353809524, 2.46907142857 45.1562738095, 2.478125 45.1769523810, 2.48857142857 45.1972157738, 2.50053125 45.2168630952, 2.514125 45.2358943452, 2.52935267857 45.2543095238, 2.54621428571 45.2721086310, 2.56470982143 45.2892916667, 2.58483928571 45.3058586310, 2.60660267857 45.3218095238, 2.63 45.3370505952, 2.65507142857 45.3514880952, 2.68185714286 45.3651220238, 2.71035714286 45.3779523810, 2.74057142857 45.3899791667, 2.7725 45.4012023810, 2.80614285714 45.4116220238, 2.8415 45.4212380952, 2.87857142857 45.4298764881, 2.91745089286 45.4373630952, 2.95823214286 45.4436979167, 3.00091517857 45.4488809524, 3.0455 45.4529122024, 3.09198660714 45.4557916667, 3.140375 45.4575193452, 3.19066517857 45.4580952381, 3.24285714286 45.4575193452, 3.29829017857 45.4557916667, 3.35144642857 45.4529122024, 3.40232589286 45.4488809524, 3.45092857143 45.4436979167, 3.49725446429 45.4373630952, 3.54130357143 45.4298764881, 3.58307589286 45.4212380952, 3.62257142857 45.4116220238, 3.65997767857 45.4012023810, 3.69548214286 45.3899791667, 3.72908482143 45.3779523810, 3.76078571429 45.3651220238, 3.79058482143 45.3514880952, 3.81848214286 45.3370505952, 3.84447767857 45.3218095238, 3.86857142857 45.3058586310, 3.89089732143 45.2892916667, 3.91158928571 45.2721086310, 3.93064732143 45.2543095238, 3.94807142857 45.2358943452, 3.96386160714 45.2168630952, 3.97801785714 45.1972157738, 3.99054017857 45.1769523810, 4.00142857143 45.1562738095, 4.01087053571 45.1353809524, 4.01905357143 45.1142738095, 4.02597767857 45.0929523810, 4.03164285714 45.0714166667, 4.03604910714 45.0496666667, 4.03919642857 45.0277023810, 4.04108482143 45.0055238095, 4.04171428571 44.9825014881, 4.04108482143 44.9597202381, 4.03919642857 44.9371800595, 4.03604910714 44.9148809524, 4.03164285714 44.8928229167, 4.02597767857 44.8710059524, 4.01905357143 44.8494300595, 4.01087053571 44.8280952381, 4.00142857143 44.8072023810, 3.99054017857 44.7869523810, 3.97801785714 44.7673452381, 3.96386160714 44.7483809524, 3.94807142857 44.7300595238, 3.93064732143 44.7123809524, 3.91158928571 44.6953452381, 3.89089732143 44.6789523810, 3.86857142857 44.6632961310, 3.84447767857 44.6484702381, 3.81848214286 44.6344747024, 3.79058482143 44.6213095238, 3.76078571429 44.6089747024, 3.72908482143 44.5974702381, 3.69548214286 44.5867961310, 3.65997767857 44.5769523810, 3.62257142857 44.5681130952, 3.58307589286 44.5604523810, 3.54130357143 44.5539702381, 3.49725446429 44.5486666667, 3.45092857143 44.5445416667, 3.40232589286 44.5415952381, 3.35144642857 44.5398273810, 3.29829017857 44.5392380952, 3.24285714286 44.5398273810, 3.18742410714 44.5415952381, 3.13426785714 44.5445416667, 3.08338839286 44.5486666667, 3.03478571429 44.5539702381, 2.98845982143 44.5604523810, 2.94441071429 44.5681130952, 2.90263839286 44.5769523810, 2.86314285714 44.5867961310, 2.82573660714 44.5974702381, 2.79023214286 44.6089747024, 2.75662946429 44.6213095238, 2.72492857143 44.6344747024, 2.69512946429 44.6484702381, 2.66723214286 44.6632961310, 2.64123660714 44.6789523810, 2.61714285714 44.6953452381, 2.59481696429 44.7123809524, 2.574125 44.7300595238, 2.55506696429 44.7483809524, 2.53764285714 44.7673452381, 2.52185267857 44.7869523810, 2.50769642857 44.8072023810, 2.49517410714 44.8280952381, 2.48428571429 44.8494300595, 2.47484375 44.8710059524, 2.46666071429 44.8928229167, 2.45973660714 44.9148809524, 2.45407142857 44.9371800595, 2.44966517857 Z"  />
<path d="M 48.3347068452, 2.73787946429 48.2986666667, 2.73714285714 48.2576845238, 2.73805357143 48.2170238095, 2.74078571429 48.1766845238, 2.74533928571 48.1366666667, 2.75171428571 48.0971845238, 2.76017857143 48.0584523810, 2.771 48.0204702381, 2.78417857143 47.9832380952, 2.79971428571 47.9470238095, 2.81776785714 47.9120952381, 2.8385 47.8784523810, 2.86191071429 47.8460952381, 2.888 47.8304791667, 2.90208928571 47.8153452381, 2.91692857143 47.8006934524, 2.93251785714 47.7865238095, 2.94885714286 47.7728363095, 2.96594642857 47.7596309524, 2.98378571429 47.7469077381, 3.002375 47.7346666667, 3.02171428571 47.7127693452, 2.98919642857 47.6890773810, 2.9585 47.6635907738, 2.929625 47.6363095238, 2.90257142857 47.6072336310, 2.87733928571 47.5763630952, 2.85392857143 47.5436979167, 2.83233928571 47.5092380952, 2.81257142857 47.4732514881, 2.79489285714 47.4360059524, 2.77957142857 47.3975014881, 2.76660714286 47.3577380952, 2.756 47.3167157738, 2.74775 47.2744345238, 2.74185714286 47.2308943452, 2.73832142857 47.1860952381, 2.73714285714 47.1507380952, 2.73798660714 47.1158095238, 2.74051785714 47.0813095238, 2.74473660714 47.0472380952, 2.75064285714 47.0135952381, 2.75823660714 46.9803809524, 2.76751785714 46.9475952381, 2.77848660714 46.9152380952, 2.79114285714 46.8837113095, 2.80586160714 46.8534166667, 2.82301785714 46.8243541667, 2.84261160714 46.7965238095, 2.86464285714 46.7699255952, 2.88911160714 46.7445595238, 2.91601785714 46.7204255952, 2.94536160714 46.6975238095, 2.97714285714 46.6975238095, 2.78171428571 46.2620952381, 2.78171428571 46.2620952381, 4.44285714286 46.7095238095, 4.44285714286 46.7095238095, 3.53257142857 46.7099657738, 3.509375 46.7112916667, 3.48692857143 46.7135014881, 3.46523214286 46.7165952381, 3.44428571429 46.7205729167, 3.42408928571 46.7254345238, 3.40464285714 46.7311800595, 3.38594642857 46.7378095238, 3.368 46.7451755952, 3.35079017857 46.7531309524, 3.33430357143 46.7616755952, 3.31854017857 46.7708095238, 3.3035 46.7805327381, 3.28918303571 46.7908452381, 3.27558928571 46.8017470238, 3.26271875 46.8132380952, 3.25057142857 46.8252916667, 3.23916071429 46.8378809524, 3.2285 46.8510059524, 3.21858928571 46.8646666667, 3.20942857143 46.8788630952, 3.20101785714 46.8935952381, 3.19335714286 46.9088630952, 3.18644642857 46.9246666667, 3.18028571429 46.9572916667, 3.17016071429 46.9908809524, 3.16292857143 47.0254345238, 3.15858928571 47.0609523810, 3.15714285714 47.0984389881, 3.15862946429 47.1163686756, 3.16048772321 47.1337559524, 3.16308928571 47.1506008185, 3.16643415179 47.1669032738, 3.17052232143 47.1826633185, 3.17535379464 47.1978809524, 3.18092857143 47.2125561756, 3.18724665179 47.2266889881, 3.19430803571 47.2402793899, 3.20211272321 47.2533273810, 3.21066071429 47.2658329613, 3.21995200893 47.2777961310, 3.22998660714 47.2892168899, 3.24076450893 47.3000952381, 3.25228571429 47.3103709077, 3.26451674107 47.3199836310, 3.27742410714 47.3289334077, 3.2910078125 47.3372202381, 3.30526785714 47.3448441220, 3.32020424107 47.3518050595, 3.33581696429 47.3581030506, 3.35210602679 47.3637380952, 3.36907142857 47.3687101935, 3.38671316964 47.3730193452, 3.40503125 47.3796488095, 3.44369642857 47.3836264881, 3.48506696429 47.3849523810, 3.52914285714 47.3849523810, 4.44285714286 47.8323809524, 4.44285714286 47.8323809524, 3.53257142857 47.8328229167, 3.509375 47.8341488095, 3.48692857143 47.8363586310, 3.46523214286 47.8394523810, 3.44428571429 47.8434300595, 3.42408928571 47.8482916667, 3.40464285714 47.8540372024, 3.38594642857 47.8606666667, 3.368 47.8680327381, 3.35079017857 47.8759880952, 3.33430357143 47.8845327381, 3.31854017857 47.8936666667, 3.3035 47.9033898810, 3.28918303571 47.9137023810, 3.27558928571 47.9246041667, 3.26271875 47.9360952381, 3.25057142857 47.9481488095, 3.23916071429 47.9607380952, 3.2285 47.9738630952, 3.21858928571 47.9875238095, 3.20942857143 48.0017202381, 3.20101785714 48.0164523810, 3.19335714286 48.0317202381, 3.18644642857 48.0475238095, 3.18028571429 48.0801488095, 3.17016071429 48.1137380952, 3.16292857143 48.1482916667, 3.15858928571 48.1838095238, 3.15714285714 48.2209077381, 3.15862946429 48.2386733631, 3.16048772321 48.2559166667, 3.16308928571 48.2726376488, 3.16643415179 48.2888363095, 3.17052232143 48.3045126488, 3.17535379464 48.3196666667, 3.18092857143 48.3342983631, 3.18724665179 48.3484077381, 3.19430803571 48.3619947917, 3.20211272321 48.3750595238, 3.21066071429 48.3876019345, 3.21995200893 48.3996220238, 3.22998660714 48.4111197917, 3.24076450893 48.4220952381, 3.25228571429 48.4324747024, 3.26451674107 48.4421845238, 3.27742410714 48.4512247024, 3.2910078125 48.4595952381, 3.30526785714 48.4672961310, 3.32020424107 48.4743273810, 3.33581696429 48.4806889881, 3.35210602679 48.4863809524, 3.36907142857 48.4914032738, 3.38671316964 48.4957559524, 3.40503125 48.5024523810, 3.44369642857 48.5064702381, 3.48506696429 48.5078095238, 3.52914285714 48.5078095238, 4.44285714286 48.9535238095, 4.44285714286 48.9535238095, 3.38514285714 48.9527871566, 3.34951785714 48.9505773025, 3.31464285714 48.9468942471, 3.28051785714 48.9417379906, 3.24714285714 48.9351085329, 3.21451785714 48.9270058739, 3.18264285714 48.9174300137, 3.15151785714 48.9063809524, 3.12114285714 48.8939791667, 3.09169196429 48.8803452381, 3.06333928571 48.8654791667, 3.03608482143 48.8493809524, 3.00992857143 48.8320505952, 2.98487053571 48.8134880952, 2.96091071429 48.7936934524, 2.93804910714 48.7726666667, 2.91628571429 48.7504880495, 2.89566071429 48.7272380168, 2.87621428571 48.7029165686, 2.85794642857 48.6775237049, 2.84085714286 48.6510594257, 2.82494642857 48.6235237311, 2.81021428571 48.5949166209, 2.79666071429 48.5652380952, 2.78428571429 48.5346354167, 2.77323660714 48.5032559524, 2.76366071429 48.4710997024, 2.75555803571 48.4381666667, 2.74892857143 48.4044568452, 2.74377232143 48.3699702381, 2.74008928571 Z"  />
<path d="M 80.0458809524, 2.38083928571 80.0203809524, 2.41314285714 80.3186666667, 2.70628571429 80.3658095238, 2.65442857143 80.4146666667, 2.60514285714 80.4400595238, 2.58189285714 80.4665238095, 2.56014285714 80.4940595238, 2.53989285714 80.5226666667, 2.52114285714 80.5525059524, 2.50405357143 80.5837380952, 2.48878571429 80.6163630952, 2.47533928571 80.6503809524, 2.46371428571 80.6861130952, 2.45433928571 80.7238809524, 2.44764285714 80.7636845238, 2.443625 80.8055238095, 2.44228571429 80.8258675595, 2.44270089286 80.8457559524, 2.44394642857 80.8651889881, 2.44602232143 80.8841666667, 2.44892857143 80.9026889881, 2.45266517857 80.9207559524, 2.45723214286 80.9383675595, 2.46262946429 80.9555238095, 2.46885714286 80.9721443452, 2.47583482143 80.9881488095, 2.48348214286 81.0035372024, 2.49179910714 81.0183095238, 2.50078571429 81.0324657738, 2.51044196429 81.0460059524, 2.52076785714 81.0589300595, 2.53176339286 81.0712380952, 2.54342857143 81.0829032738, 2.55569647435 81.0938988095, 2.56850007847 81.1042247024, 2.58183938381 81.1138809524, 2.59571439035 81.1228675595, 2.61012509809 81.1311845238, 2.62507150705 81.1388318452, 2.64055361720 81.1458095238, 2.65657142857 81.1520372024, 2.67307142857 81.1574345238, 2.69 81.1620014881, 2.70735714286 81.1657380952, 2.72514285714 81.1686443452, 2.74335714286 81.1707202381, 2.762 81.1719657738, 2.78107142857 81.1723809524, 2.80057142857 81.1715907738, 2.82865625 81.1692202381, 2.85633928571 81.1652693452, 2.88362053571 81.1597380952, 2.9105 81.1526264881, 2.93697767857 81.1439345238, 2.96305357143 81.1336622024, 2.98872767857 81.1218095238, 3.014 81.1084568452, 3.03903125 81.0936845238, 3.06398214286 81.0774925595, 3.08885267857 81.0598809524, 3.11364285714 81.0408497024, 3.13835267857 81.0203988095, 3.16298214286 80.9985282738, 3.18753125 80.9752380952, 3.212 80.1266666667, 4.08114285714 80.1266666667, 4.44285714286 81.7123809524, 4.44285714286 81.7123809524, 4.00914285714 80.7952380952, 4.00914285714 81.3078095238, 3.476 81.3440238095, 3.43742857143 81.3789523810, 3.39885714286 81.4125952381, 3.36028571429 81.4449523810, 3.32171428571 81.4755952381, 3.28266071429 81.5040952381, 3.24264285714 81.5304523810, 3.20166071429 81.5546666667, 3.15971428571 81.5765773810, 3.11664285714 81.5960238095, 3.07228571429 81.6130059524, 3.02664285714 81.6275238095, 2.97971428571 81.6337514881, 2.95570089286 81.6391488095, 2.93123214286 81.6437157738, 2.90630803571 81.6474523810, 2.88092857143 81.6503586310, 2.85509375 81.6524345238, 2.82880357143 81.6536800595, 2.80205803571 81.6540952381, 2.77485714286 81.6532113095, 2.73244196429 81.6505595238, 2.69091071429 81.6461398810, 2.65026339286 81.6399523810, 2.6105 81.6319970238, 2.57162053571 81.6222738095, 2.533625 81.6107827381, 2.49651339286 81.5975238095, 2.46028571429 81.5826175595, 2.42514285714 81.5661845238, 2.39128571429 81.5482247024, 2.35871428571 81.5287380952, 2.32742857143 81.5077247024, 2.29742857143 81.4851845238, 2.26871428571 81.4611175595, 2.24128571429 81.4355238095, 2.21514285714 81.4084568452, 2.19035267857 81.3799702381, 2.16698214286 81.3500639881, 2.14503125 81.3187380952, 2.1245 81.2859925595, 2.10538839286 81.2518273810, 2.08769642857 81.2162425595, 2.07142410714 81.1792380952, 2.05657142857 81.1409345238, 2.0433125 81.1014523810, 2.03182142857 81.0607916667, 2.02209821429 81.0189523810, 2.01414285714 80.9759345238, 2.00795535714 80.9317380952, 2.00353571429 80.8863630952, 2.00088392857 80.8398095238, 2.0 80.7983988095, 2.00062946429 80.7581666667, 2.00251785714 80.7191130952, 2.00566517857 80.6812380952, 2.01007142857 80.6445416667, 2.01573660714 80.6090238095, 2.02266071429 80.5746845238, 2.03084375 80.5415238095, 2.04028571429 80.5094345238, 2.05069196429 80.4783095238, 2.06176785714 80.4481488095, 2.07351339286 80.4189523810, 2.08592857143 80.3907202381, 2.09901339286 80.3634523810, 2.11276785714 80.3371488095, 2.12719196429 80.3118095238, 2.14228571429 80.2638095238, 2.17383928571 80.2192380952, 2.20678571429 80.1982380952, 2.22378125 80.1780952381, 2.241125 80.1588095238, 2.25881696429 80.1403809524, 2.27685714286 80.1058809524, 2.31269642857 80.0743809524, 2.34735714286 Z"  />
<path d="M 82.9956175595, 2.00115178571 82.9483809524, 2.0 82.9003005952, 2.00107142857 82.8529166667, 2.00428571429 82.8062291667, 2.00964285714 82.7602380952, 2.01714285714 82.7149434524, 2.02678571429 82.6703452381, 2.03857142857 82.6264434524, 2.0525 82.5832380952, 2.06857142857 82.5410505952, 2.08698665292 82.5002023810, 2.10794650705 82.4606934524, 2.13145099095 82.4225238095, 2.15750010463 82.3856934524, 2.18609384809 82.3502023810, 2.21723222133 82.3160505952, 2.25091522435 82.2832380952, 2.28714285714 82.2519255952, 2.32598214286 82.2222738095, 2.3675 82.1942827381, 2.41169642857 82.1679523810, 2.45857142857 82.1432827381, 2.508125 82.1202738095, 2.56035714286 82.0989255952, 2.61526785714 82.0792380952, 2.67285714286 82.0615595238, 2.73332589286 82.0462380952, 2.796875 82.0332738095, 2.86350446429 82.0226666667, 2.93321428571 82.0144166667, 3.00600446429 82.0085238095, 3.081875 82.0049880952, 3.16082589286 82.0038095238, 3.24285714286 82.0049880952, 3.32488839286 82.0085238095, 3.40383928571 82.0144166667, 3.47970982143 82.0226666667, 3.5525 82.0332738095, 3.62220982143 82.0462380952, 3.68883928571 82.0615595238, 3.75238839286 82.0792380952, 3.81285714286 82.0989255952, 3.87043303571 82.1202738095, 3.92530357143 82.1432827381, 3.97746875 82.1679523810, 4.02692857143 82.1942827381, 4.07368303571 82.2222738095, 4.11773214286 82.2519255952, 4.15907589286 82.2832380952, 4.19771428571 82.3160505952, 4.23375446429 82.3502023810, 4.26730357143 82.3856934524, 4.29836160714 82.4225238095, 4.32692857143 82.4606934524, 4.35300446429 82.5002023810, 4.37658928571 82.5410505952, 4.39768303571 82.5832380952, 4.41628571429 82.6264434524, 4.43255803571 82.6703452381, 4.44666071429 82.7149434524, 4.45859375 82.7602380952, 4.46835714286 82.8062291667, 4.47595089286 82.8529166667, 4.481375 82.9003005952, 4.48462946429 82.9483809524, 4.48571428571 82.9956175595, 4.48462946429 83.0421845238, 4.481375 83.0880818452, 4.47595089286 83.1333095238, 4.46835714286 83.1778675595, 4.45859375 83.2217559524, 4.44666071429 83.2649747024, 4.43255803571 83.3075238095, 4.41628571429 83.3490818452, 4.39768303571 83.3893273810, 4.37658928571 83.4282604167, 4.35300446429 83.4658809524, 4.32692857143 83.5021889881, 4.29836160714 83.5371845238, 4.26730357143 83.5708675595, 4.23375446429 83.6032380952, 4.19771428571 83.6341219780, 4.15907589286 83.6633451596, 4.11773214286 83.6909076400, 4.07368303571 83.7168094192, 4.02692857143 83.7410504971, 3.97746875 83.7636308739, 3.92530357143 83.7845505495, 3.87043303571 83.8038095238, 3.81285714286 83.8210863095, 3.75238839286 83.8360595238, 3.68883928571 83.8487291667, 3.62220982143 83.8590952381, 3.5525 83.8671577381, 3.47970982143 83.8729166667, 3.40383928571 83.8763720238, 3.32488839286 83.8775238095, 3.24285714286 83.8763720238, 3.16405357143 83.8729166667, 3.08792857143 83.8671577381, 3.01448214286 83.8590952381, 2.94371428571 83.8487291667, 2.875625 83.8360595238, 2.81021428571 83.8210863095, 2.74748214286 83.8038095238, 2.68742857143 83.7845505495, 2.63 83.7636308739, 2.57514285714 83.7410504971, 2.52285714286 83.7168094192, 2.47314285714 83.6909076400, 2.426 83.6633451596, 2.38142857143 83.6341219780, 2.33942857143 83.6032380952, 2.3 83.5708675595, 2.26308933149 83.5371845238, 2.22864293562 83.5021889881, 2.19666081238 83.4658809524, 2.16714296177 83.4282604167, 2.14008938381 83.3893273810, 2.11550007847 83.3490818452, 2.09337504578 83.3075238095, 2.07371428571 83.2649747024, 2.0564375 83.2217559524, 2.04146428571 83.1778675595, 2.02879464286 83.1333095238, 2.01842857143 83.0880818452, 2.01036607143 83.0421845238, 2.00460714286 Z M 82.9025773810, 2.44651785714 82.9253586310, 2.44462946429 82.9483809524, 2.444 82.9705595238, 2.44469642857 82.9925238095, 2.44678571429 83.0142738095, 2.45026785714 83.0358095238, 2.45514285714 83.0571309524, 2.46141071429 83.0782380952, 2.46907142857 83.0991309524, 2.478125 83.1198095238, 2.48857142857 83.1400729167, 2.50053125 83.1597202381, 2.514125 83.1787514881, 2.52935267857 83.1971666667, 2.54621428571 83.2149657738, 2.56470982143 83.2321488095, 2.58483928571 83.2487157738, 2.60660267857 83.2646666667, 2.63 83.2799077381, 2.65507142857 83.2943452381, 2.68185714286 83.3079791667, 2.71035714286 83.3208095238, 2.74057142857 83.3328363095, 2.7725 83.3440595238, 2.80614285714 83.3544791667, 2.8415 83.3640952381, 2.87857142857 83.3727336310, 2.91745089286 83.3802202381, 2.95823214286 83.3865550595, 3.00091517857 83.3917380952, 3.0455 83.3957693452, 3.09198660714 83.3986488095, 3.140375 83.4003764881, 3.19066517857 83.4009523810, 3.24285714286 83.4003764881, 3.29829017857 83.3986488095, 3.35144642857 83.3957693452, 3.40232589286 83.3917380952, 3.45092857143 83.3865550595, 3.49725446429 83.3802202381, 3.54130357143 83.3727336310, 3.58307589286 83.3640952381, 3.62257142857 83.3544791667, 3.65997767857 83.3440595238, 3.69548214286 83.3328363095, 3.72908482143 83.3208095238, 3.76078571429 83.3079791667, 3.79058482143 83.2943452381, 3.81848214286 83.2799077381, 3.84447767857 83.2646666667, 3.86857142857 83.2487157738, 3.89089732143 83.2321488095, 3.91158928571 83.2149657738, 3.93064732143 83.1971666667, 3.94807142857 83.1787514881, 3.96386160714 83.1597202381, 3.97801785714 83.1400729167, 3.99054017857 83.1198095238, 4.00142857143 83.0991309524, 4.01087053571 83.0782380952, 4.01905357143 83.0571309524, 4.02597767857 83.0358095238, 4.03164285714 83.0142738095, 4.03604910714 82.9925238095, 4.03919642857 82.9705595238, 4.04108482143 82.9483809524, 4.04171428571 82.9253586310, 4.04108482143 82.9025773810, 4.03919642857 82.8800372024, 4.03604910714 82.8577380952, 4.03164285714 82.8356800595, 4.02597767857 82.8138630952, 4.01905357143 82.7922872024, 4.01087053571 82.7709523810, 4.00142857143 82.7500595238, 3.99054017857 82.7298095238, 3.97801785714 82.7102023810, 3.96386160714 82.6912380952, 3.94807142857 82.6729166667, 3.93064732143 82.6552380952, 3.91158928571 82.6382023810, 3.89089732143 82.6218095238, 3.86857142857 82.6061532738, 3.84447767857 82.5913273810, 3.81848214286 82.5773318452, 3.79058482143 82.5641666667, 3.76078571429 82.5518318452, 3.72908482143 82.5403273810, 3.69548214286 82.5296532738, 3.65997767857 82.5198095238, 3.62257142857 82.5109702381, 3.58307589286 82.5033095238, 3.54130357143 82.4968273810, 3.49725446429 82.4915238095, 3.45092857143 82.4873988095, 3.40232589286 82.4844523810, 3.35144642857 82.4826845238, 3.29829017857 82.4820952381, 3.24285714286 82.4826845238, 3.18742410714 82.4844523810, 3.13426785714 82.4873988095, 3.08338839286 82.4915238095, 3.03478571429 82.4968273810, 2.98845982143 82.5033095238, 2.94441071429 82.5109702381, 2.90263839286 82.5198095238, 2.86314285714 82.5296532738, 2.82573660714 82.5403273810, 2.79023214286 82.5518318452, 2.75662946429 82.5641666667, 2.72492857143 82.5773318452, 2.69512946429 82.5913273810, 2.66723214286 82.6061532738, 2.64123660714 82.6218095238, 2.61714285714 82.6382023810, 2.59481696429 82.6552380952, 2.574125 82.6729166667, 2.55506696429 82.6912380952, 2.53764285714 82.7102023810, 2.52185267857 82.7298095238, 2.50769642857 82.7500595238, 2.49517410714 82.7709523810, 2.48428571429 82.7922872024, 2.47484375 82.8138630952, 2.46666071429 82.8356800595, 2.45973660714 82.8577380952, 2.45407142857 82.8800372024, 2.44966517857 Z"  />
<path d="M 85.0527604167, 2.00115178571 85.0055238095, 2.0 84.9574434524, 2.00107142857 84.9100595238, 2.00428571429 84.8633720238, 2.00964285714 84.8173809524, 2.01714285714 84.7720863095, 2.02678571429 84.7274880952, 2.03857142857 84.6835863095, 2.0525 84.6403809524, 2.06857142857 84.5981934524, 2.08698665292 84.5573452381, 2.10794650705 84.5178363095, 2.13145099095 84.4796666667, 2.15750010463 84.4428363095, 2.18609384809 84.4073452381, 2.21723222133 84.3731934524, 2.25091522435 84.3403809524, 2.28714285714 84.3090684524, 2.32598214286 84.2794166667, 2.3675 84.2514255952, 2.41169642857 84.2250952381, 2.45857142857 84.2004255952, 2.508125 84.1774166667, 2.56035714286 84.1560684524, 2.61526785714 84.1363809524, 2.67285714286 84.1187023810, 2.73332589286 84.1033809524, 2.796875 84.0904166667, 2.86350446429 84.0798095238, 2.93321428571 84.0715595238, 3.00600446429 84.0656666667, 3.081875 84.0621309524, 3.16082589286 84.0609523810, 3.24285714286 84.0621309524, 3.32488839286 84.0656666667, 3.40383928571 84.0715595238, 3.47970982143 84.0798095238, 3.5525 84.0904166667, 3.62220982143 84.1033809524, 3.68883928571 84.1187023810, 3.75238839286 84.1363809524, 3.81285714286 84.1560684524, 3.87043303571 84.1774166667, 3.92530357143 84.2004255952, 3.97746875 84.2250952381, 4.02692857143 84.2514255952, 4.07368303571 84.2794166667, 4.11773214286 84.3090684524, 4.15907589286 84.3403809524, 4.19771428571 84.3731934524, 4.23375446429 84.4073452381, 4.26730357143 84.4428363095, 4.29836160714 84.4796666667, 4.32692857143 84.5178363095, 4.35300446429 84.5573452381, 4.37658928571 84.5981934524, 4.39768303571 84.6403809524, 4.41628571429 84.6835863095, 4.43255803571 84.7274880952, 4.44666071429 84.7720863095, 4.45859375 84.8173809524, 4.46835714286 84.8633720238, 4.47595089286 84.9100595238, 4.481375 84.9574434524, 4.48462946429 85.0055238095, 4.48571428571 85.0527604167, 4.48462946429 85.0993273810, 4.481375 85.1452247024, 4.47595089286 85.1904523810, 4.46835714286 85.2350104167, 4.45859375 85.2788988095, 4.44666071429 85.3221175595, 4.43255803571 85.3646666667, 4.41628571429 85.4062247024, 4.39768303571 85.4464702381, 4.37658928571 85.4854032738, 4.35300446429 85.5230238095, 4.32692857143 85.5593318452, 4.29836160714 85.5943273810, 4.26730357143 85.6280104167, 4.23375446429 85.6603809524, 4.19771428571 85.6912648352, 4.15907589286 85.7204880168, 4.11773214286 85.7480504971, 4.07368303571 85.7739522763, 4.02692857143 85.7981933543, 3.97746875 85.8207737311, 3.92530357143 85.8416934066, 3.87043303571 85.8609523810, 3.81285714286 85.8782291667, 3.75238839286 85.8932023810, 3.68883928571 85.9058720238, 3.62220982143 85.9162380952, 3.5525 85.9243005952, 3.47970982143 85.9300595238, 3.40383928571 85.9335148810, 3.32488839286 85.9346666667, 3.24285714286 85.9335148810, 3.16405357143 85.9300595238, 3.08792857143 85.9243005952, 3.01448214286 85.9162380952, 2.94371428571 85.9058720238, 2.875625 85.8932023810, 2.81021428571 85.8782291667, 2.74748214286 85.8609523810, 2.68742857143 85.8416934066, 2.63 85.8207737311, 2.57514285714 85.7981933543, 2.52285714286 85.7739522763, 2.47314285714 85.7480504971, 2.426 85.7204880168, 2.38142857143 85.6912648352, 2.33942857143 85.6603809524, 2.3 85.6280104167, 2.26308933149 85.5943273810, 2.22864293562 85.5593318452, 2.19666081238 85.5230238095, 2.16714296177 85.4854032738, 2.14008938381 85.4464702381, 2.11550007847 85.4062247024, 2.09337504578 85.3646666667, 2.07371428571 85.3221175595, 2.0564375 85.2788988095, 2.04146428571 85.2350104167, 2.02879464286 85.1904523810, 2.01842857143 85.1452247024, 2.01036607143 85.0993273810, 2.00460714286 Z M 84.9597202381, 2.44651785714 84.9825014881, 2.44462946429 85.0055238095, 2.444 85.0277023810, 2.44469642857 85.0496666667, 2.44678571429 85.0714166667, 2.45026785714 85.0929523810, 2.45514285714 85.1142738095, 2.46141071429 85.1353809524, 2.46907142857 85.1562738095, 2.478125 85.1769523810, 2.48857142857 85.1972157738, 2.50053125 85.2168630952, 2.514125 85.2358943452, 2.52935267857 85.2543095238, 2.54621428571 85.2721086310, 2.56470982143 85.2892916667, 2.58483928571 85.3058586310, 2.60660267857 85.3218095238, 2.63 85.3370505952, 2.65507142857 85.3514880952, 2.68185714286 85.3651220238, 2.71035714286 85.3779523810, 2.74057142857 85.3899791667, 2.7725 85.4012023810, 2.80614285714 85.4116220238, 2.8415 85.4212380952, 2.87857142857 85.4298764881, 2.91745089286 85.4373630952, 2.95823214286 85.4436979167, 3.00091517857 85.4488809524, 3.0455 85.4529122024, 3.09198660714 85.4557916667, 3.140375 85.4575193452, 3.19066517857 85.4580952381, 3.24285714286 85.4575193452, 3.29829017857 85.4557916667, 3.35144642857 85.4529122024, 3.40232589286 85.4488809524, 3.45092857143 85.4436979167, 3.49725446429 85.4373630952, 3.54130357143 85.4298764881, 3.58307589286 85.4212380952, 3.62257142857 85.4116220238, 3.65997767857 85.4012023810, 3.69548214286 85.3899791667, 3.72908482143 85.3779523810, 3.76078571429 85.3651220238, 3.79058482143 85.3514880952, 3.81848214286 85.3370505952, 3.84447767857 85.3218095238, 3.86857142857 85.3058586310, 3.89089732143 85.2892916667, 3.91158928571 85.2721086310, 3.93064732143 85.2543095238, 3.94807142857 85.2358943452, 3.96386160714 85.2168630952, 3.97801785714 85.1972157738, 3.99054017857 85.1769523810, 4.00142857143 85.1562738095, 4.01087053571 85.1353809524, 4.01905357143 85.1142738095, 4.02597767857 85.0929523810, 4.03164285714 85.0714166667, 4.03604910714 85.0496666667, 4.03919642857 85.0277023810, 4.04108482143 85.0055238095, 4.04171428571 84.9825014881, 4.04108482143 84.9597202381, 4.03919642857 84.9371800595, 4.03604910714 84.9148809524, 4.03164285714 84.8928229167, 4.02597767857 84.8710059524, 4.01905357143 84.8494300595, 4.01087053571 84.8280952381, 4.00142857143 84.8072023810, 3.99054017857 84.7869523810, 3.97801785714 84.7673452381, 3.96386160714 84.7483809524, 3.94807142857 84.7300595238, 3.93064732143 84.7123809524, 3.91158928571 84.6953452381, 3.89089732143 84.6789523810, 3.86857142857 84.6632961310, 3.84447767857 84.6484702381, 3.81848214286 84.6344747024, 3.79058482143 84.6213095238, 3.76078571429 84.6089747024, 3.72908482143 84.5974702381, 3.69548214286 84.5867961310, 3.65997767857 84.5769523810, 3.62257142857 84.5681130952, 3.58307589286 84.5604523810, 3.54130357143 84.5539702381, 3.49725446429 84.5486666667, 3.45092857143 84.5445416667, 3.40232589286 84.5415952381, 3.35144642857 84.5398273810, 3.29829017857 84.5392380952, 3.24285714286 84.5398273810, 3.18742410714 84.5415952381, 3.13426785714 84.5445416667, 3.08338839286 84.5486666667, 3.03478571429 84.5539702381, 2.98845982143 84.5604523810, 2.94441071429 84.5681130952, 2.90263839286 84.5769523810, 2.86314285714 84.5867961310, 2.82573660714 84.5974702381, 2.79023214286 84.6089747024, 2.75662946429 84.6213095238, 2.72492857143 84.6344747024, 2.69512946429 84.6484702381, 2.66723214286 84.6632961310, 2.64123660714 84.6789523810, 2.61714285714 84.6953452381, 2.59481696429 84.7123809524, 2.574125 84.7300595238, 2.55506696429 84.7483809524, 2.53764285714 84.7673452381, 2.52185267857 84.7869523810, 2.50769642857 84.8072023810, 2.49517410714 84.8280952381, 2.48428571429 84.8494300595, 2.47484375 84.8710059524, 2.46666071429 84.8928229167, 2.45973660714 84.9148809524, 2.45407142857 84.9371800595, 2.44966517857 Z"  />
<path d="M 88.3347068452, 2.73787946429 88.2986666667, 2.73714285714 88.2576845238, 2.73805357143 88.2170238095, 2.74078571429 88.1766845238, 2.74533928571 88.1366666667, 2.75171428571 88.0971845238, 2.76017857143 88.0584523810, 2.771 88.0204702381, 2.78417857143 87.9832380952, 2.79971428571 87.9470238095, 2.81776785714 87.9120952381, 2.8385 87.8784523810, 2.86191071429 87.8460952381, 2.888 87.8304791667, 2.90208928571 87.8153452381, 2.91692857143 87.8006934524, 2.93251785714 87.7865238095, 2.94885714286 87.7728363095, 2.96594642857 87.7596309524, 2.98378571429 87.7469077381, 3.002375 87.7346666667, 3.02171428571 87.7127693452, 2.98919642857 87.6890773810, 2.9585 87.6635907738, 2.929625 87.6363095238, 2.90257142857 87.6072336310, 2.87733928571 87.5763630952, 2.85392857143 87.5436979167, 2.83233928571 87.5092380952, 2.81257142857 87.4732514881, 2.79489285714 87.4360059524, 2.77957142857 87.3975014881, 2.76660714286 87.3577380952, 2.756 87.3167157738, 2.74775 87.2744345238, 2.74185714286 87.2308943452, 2.73832142857 87.1860952381, 2.73714285714 87.1507380952, 2.73798660714 87.1158095238, 2.74051785714 87.0813095238, 2.74473660714 87.0472380952, 2.75064285714 87.0135952381, 2.75823660714 86.9803809524, 2.76751785714 86.9475952381, 2.77848660714 86.9152380952, 2.79114285714 86.8837113095, 2.80586160714 86.8534166667, 2.82301785714 86.8243541667, 2.84261160714 86.7965238095, 2.86464285714 86.7699255952, 2.88911160714 86.7445595238, 2.91601785714 86.7204255952, 2.94536160714 86.6975238095, 2.97714285714 86.6975238095, 2.78171428571 86.2620952381, 2.78171428571 86.2620952381, 4.44285714286 86.7095238095, 4.44285714286 86.7095238095, 3.53257142857 86.7099657738, 3.509375 86.7112916667, 3.48692857143 86.7135014881, 3.46523214286 86.7165952381, 3.44428571429 86.7205729167, 3.42408928571 86.7254345238, 3.40464285714 86.7311800595, 3.38594642857 86.7378095238, 3.368 86.7451755952, 3.35079017857 86.7531309524, 3.33430357143 86.7616755952, 3.31854017857 86.7708095238, 3.3035 86.7805327381, 3.28918303571 86.7908452381, 3.27558928571 86.8017470238, 3.26271875 86.8132380952, 3.25057142857 86.8252916667, 3.23916071429 86.8378809524, 3.2285 86.8510059524, 3.21858928571 86.8646666667, 3.20942857143 86.8788630952, 3.20101785714 86.8935952381, 3.19335714286 86.9088630952, 3.18644642857 86.9246666667, 3.18028571429 86.9572916667, 3.17016071429 86.9908809524, 3.16292857143 87.0254345238, 3.15858928571 87.0609523810, 3.15714285714 87.0984389881, 3.15862946429 87.1163686756, 3.16048772321 87.1337559524, 3.16308928571 87.1506008185, 3.16643415179 87.1669032738, 3.17052232143 87.1826633185, 3.17535379464 87.1978809524, 3.18092857143 87.2125561756, 3.18724665179 87.2266889881, 3.19430803571 87.2402793899, 3.20211272321 87.2533273810, 3.21066071429 87.2658329613, 3.21995200893 87.2777961310, 3.22998660714 87.2892168899, 3.24076450893 87.3000952381, 3.25228571429 87.3103709077, 3.26451674107 87.3199836310, 3.27742410714 87.3289334077, 3.2910078125 87.3372202381, 3.30526785714 87.3448441220, 3.32020424107 87.3518050595, 3.33581696429 87.3581030506, 3.35210602679 87.3637380952, 3.36907142857 87.3687101935, 3.38671316964 87.3730193452, 3.40503125 87.3796488095, 3.44369642857 87.3836264881, 3.48506696429 87.3849523810, 3.52914285714 87.3849523810, 4.44285714286 87.8323809524, 4.44285714286 87.8323809524, 3.53257142857 87.8328229167, 3.509375 87.8341488095, 3.48692857143 87.8363586310, 3.46523214286 87.8394523810, 3.44428571429 87.8434300595, 3.42408928571 87.8482916667, 3.40464285714 87.8540372024, 3.38594642857 87.8606666667, 3.368 87.8680327381, 3.35079017857 87.8759880952, 3.33430357143 87.8845327381, 3.31854017857 87.8936666667, 3.3035 87.9033898810, 3.28918303571 87.9137023810, 3.27558928571 87.9246041667, 3.26271875 87.9360952381, 3.25057142857 87.9481488095, 3.23916071429 87.9607380952, 3.2285 87.9738630952, 3.21858928571 87.9875238095, 3.20942857143 88.0017202381, 3.20101785714 88.0164523810, 3.19335714286 88.0317202381, 3.18644642857 88.0475238095, 3.18028571429 88.0801488095, 3.17016071429 88.1137380952, 3.16292857143 88.1482916667, 3.15858928571 88.1838095238, 3.15714285714 88.2209077381, 3.15862946429 88.2386733631, 3.16048772321 88.2559166667, 3.16308928571 88.2726376488, 3.16643415179 88.2888363095, 3.17052232143 88.3045126488, 3.17535379464 88.3196666667, 3.18092857143 88.3342983631, 3.18724665179 88.3484077381, 3.19430803571 88.3619947917, 3.20211272321 88.3750595238, 3.21066071429 88.3876019345, 3.21995200893 88.3996220238, 3.22998660714 88.4111197917, 3.24076450893 88.4220952381, 3.25228571429 88.4324747024, 3.26451674107 88.4421845238, 3.27742410714 88.4512247024, 3.2910078125 88.4595952381, 3.30526785714 88.4672961310, 3.32020424107 88.4743273810, 3.33581696429 88.4806889881, 3.35210602679 88.4863809524, 3.36907142857 88.4914032738, 3.38671316964 88.4957559524, 3.40503125 88.5024523810, 3.44369642857 88.5064702381, 3.48506696429 88.5078095238, 3.52914285714 88.5078095238, 4.44285714286 88.9535238095, 4.44285714286 88.9535238095, 3.38514285714 88.9527871566, 3.34951785714 88.9505773025, 3.31464285714 88.9468942471, 3.28051785714 88.9417379906, 3.24714285714 88.9351085329, 3.21451785714 88.9270058739, 3.18264285714 88.9174300137, 3.15151785714 88.9063809524, 3.12114285714 88.8939791667, 3.09169196429 88.8803452381, 3.06333928571 88.8654791667, 3.03608482143 88.8493809524, 3.00992857143 88.8320505952, 2.98487053571 88.8134880952, 2.96091071429 88.7936934524, 2.93804910714 88.7726666667, 2.91628571429 88.7504880495, 2.89566071429 88.7272380168, 2.87621428571 88.7029165686, 2.85794642857 88.6775237049, 2.84085714286 88.6510594257, 2.82494642857 88.6235237311, 2.81021428571 88.5949166209, 2.79666071429 88.5652380952, 2.78428571429 88.5346354167, 2.77323660714 88.5032559524, 2.76366071429 88.4710997024, 2.75555803571 88.4381666667, 2.74892857143 88.4044568452, 2.74377232143 88.3699702381, 2.74008928571 Z"  />
</svg>