<?xml version="1.0" encoding="utf-8"?>
<!-- Generator: Grasshopper 1.0.0, Redback Plugin. SVG Version: 6.00 Build 0) Made by Andrew Butler at Cox Architecture -->
<!DOCTYPE svg PUBLIC "-//W3C//DTD SVG 1.1//EN" "http://www.w3.org/Graphics/SVG/1.1/DTD/svg11.dtd">
<svg version="1.1" xmlns="http://www.w3.org/2000/svg" xmlns:xlink="http://www.w3.org/1999/xlink" x="0px" y="0px"
width="109.923047619mm" height="11.2428571429mm" viewBox="0 0 109.923047619 11.2428571429" xml:space="preserve">
<style type="text/css">
polyline{
fill:none;
stroke:black;
stroke-width:0.2mm;
}
polygon{
fill:white;
}
</style>
<polygon points="0.0, 11.2428571429 109.923047619, 11.2428571429 109.923047619, -0.0 0.0, -0.0" />
<polyline points="4.50247619048, 9.24285714286 37.8358095238, 9.24285714286 37.8358095238, 6.84285714286 71.1691428571, 6.84285714286 71.1691428571, 9.24285714286 104.502476190, 9.24285714286" />
<path d="M 3.038375, 2.00460714286 2.94457142857, 2.0 2.84910714286, 2.00428571429 2.75642857143, 2.01714285714 2.66653571429, 2.03857142857 2.57942857143, 2.06857142857 2.49639285714, 2.10794650705 2.41871428571, 2.15750010463 2.34639285714, 2.21723222133 2.27942857143, 2.28714285714 2.21846428571, 2.3675 2.16414285714, 2.45857142857 2.11646428571, 2.56035714286 2.07542857143, 2.67285714286 2.04242857143, 2.796875 2.01885714286, 2.93321428571 2.00471428571, 3.081875 2.0, 3.24285714286 2.00471428571, 3.40383928571 2.01885714286, 3.5525 2.04242857143, 3.68883928571 2.07542857143, 3.81285714286 2.11646428571, 3.92530357143 2.16414285714, 4.02692857143 2.21846428571, 4.11773214286 2.27942857143, 4.19771428571 2.34639285714, 4.26730357143 2.41871428571, 4.32692857143 2.49639285714, 4.37658928571 2.57942857143, 4.41628571429 2.66653571429, 4.44666071429 2.75642857143, 4.46835714286 2.84910714286, 4.481375 2.94457142857, 4.48571428571 3.038375, 4.481375 3.1295, 4.46835714286 3.21794642857, 4.44666071429 3.30371428571, 4.41628571429 3.38551785714, 4.37658928571 3.46207142857, 4.32692857143 3.533375, 4.26730357143 3.59942857143, 4.19771428571 3.65953563581, 4.11773214286 3.71299989537, 4.02692857143 3.75982135010, 3.92530357143 3.8, 3.81285714286 3.83225, 3.68883928571 3.85528571429, 3.5525 3.86910714286, 3.40383928571 3.87371428571, 3.24285714286 3.86910714286, 3.08792857143 3.85528571429, 2.94371428571 3.83225, 2.81021428571 3.8, 2.68742857143 3.75982135010, 2.57514285714 3.71299989537, 2.47314285714 3.65953563581, 2.38142857143 3.59942857143, 2.3 3.533375, 2.22864293562 3.46207142857, 2.16714296177 3.38551785714, 2.11550007847 3.30371428571, 2.07371428571 3.21794642857, 2.04146428571 3.1295, 2.01842857143 Z M 2.76714285714, 2.48428571429 2.85392857143, 2.45407142857 2.94457142857, 2.444 3.032, 2.45514285714 3.116, 2.48857142857 3.15591071429, 2.514125 3.19335714286, 2.54621428571 3.26085714286, 2.63 3.317, 2.74057142857 3.36028571429, 2.87857142857 3.38792857143, 3.0455 3.39714285714, 3.24285714286 3.38792857143, 3.45092857143 3.36028571429, 3.62257142857 3.317, 3.76078571429 3.26085714286, 3.86857142857 3.19335714286, 3.94807142857 3.15591071429, 3.97801785714 3.116, 4.00142857143 3.032, 4.03164285714 2.94457142857, 4.04171428571 2.85392857143, 4.03164285714 2.76714285714, 4.00142857143 2.726, 3.97801785714 2.68742857143, 3.94807142857 2.618, 3.86857142857 2.56035714286, 3.76078571429 2.516, 3.62257142857 2.48771428571, 3.45092857143 2.47828571429, 3.24285714286 2.48771428571, 3.03478571429 2.516, 2.86314285714 2.56035714286, 2.72492857143 2.618, 2.61714285714 2.68742857143, 2.53764285714 2.726, 2.50769642857 Z"  />
<path d="M 6.37721428571, 2.74892857143 6.23771428571, 2.73714285714 6.15607142857, 2.74078571429 6.07571428571, 2.75171428571 5.9975, 2.771 5.92228571429, 2.79971428571 5.85114285714, 2.8385 5.78514285714, 2.888 5.72557142857, 2.94885714286 5.67371428571, 3.02171428571 5.628125, 2.9585 5.57535714286, 2.90257142857 5.51541071429, 2.85392857143 5.44828571429, 2.81257142857 5.37505357143, 2.77957142857 5.29678571429, 2.756 5.21348214286, 2.74185714286 5.12514285714, 2.73714285714 5.05485714286, 2.74051785714 4.98628571429, 2.75064285714 4.91942857143, 2.76751785714 4.85428571429, 2.79114285714 4.79246428571, 2.82301785714 4.73557142857, 2.86464285714 4.68360714286, 2.91601785714 4.63657142857, 2.97714285714 4.63657142857, 2.78171428571 4.20114285714, 2.78171428571 4.20114285714, 4.44285714286 4.64857142857, 4.44285714286 4.64857142857, 3.53257142857 4.65564285714, 3.44428571429 4.67685714286, 3.368 4.70985714286, 3.3035 4.75228571429, 3.25057142857 4.80371428571, 3.20942857143 4.86371428571, 3.18028571429 4.92992857143, 3.16292857143 5.0, 3.15714285714 5.07280357143, 3.16308928571 5.13692857143, 3.18092857143 5.192375, 3.21066071429 5.23914285714, 3.25228571429 5.27626785714, 3.30526785714 5.30278571429, 3.36907142857 5.31869642857, 3.44369642857 5.324, 3.52914285714 5.324, 4.44285714286 5.77142857143, 4.44285714286 5.77142857143, 3.53257142857 5.7785, 3.44428571429 5.79971428571, 3.368 5.83271428571, 3.3035 5.87514285714, 3.25057142857 5.92657142857, 3.20942857143 5.98657142857, 3.18028571429 6.05278571429, 3.16292857143 6.12285714286, 3.15714285714 6.19496428571, 3.16308928571 6.25871428571, 3.18092857143 6.31410714286, 3.21066071429 6.36114285714, 3.25228571429 6.39864285714, 3.30526785714 6.42542857143, 3.36907142857 6.4415, 3.44369642857 6.44685714286, 3.52914285714 6.44685714286, 4.44285714286 6.89257142857, 4.44285714286 6.89257142857, 3.38514285714 6.88078560965, 3.24714285714 6.84542857143, 3.12114285714 6.78842857143, 3.00992857143 6.71171428571, 2.91628571429 6.61657132394, 2.84085714286 6.50428571429, 2.78428571429 Z"  />
<path d="M 35.1226666667, 2.62742857143 35.1226666667, 4.004 34.5535238095, 4.004 34.5535238095, 4.44285714286 36.1272380952, 4.44285714286 36.1272380952, 4.004 35.5838095238, 4.004 35.5838095238, 2.00514285714 34.5260952381, 2.37885714286 34.5260952381, 2.84 Z"  />
<path d="M 37.4021845238, 2.00460714286 37.3083809524, 2.0 37.2129166667, 2.00428571429 37.1202380952, 2.01714285714 37.0303452381, 2.03857142857 36.9432380952, 2.06857142857 36.8602023810, 2.10794650705 36.7825238095, 2.15750010463 36.7102023810, 2.21723222133 36.6432380952, 2.28714285714 36.5822738095, 2.3675 36.5279523810, 2.45857142857 36.4802738095, 2.56035714286 36.4392380952, 2.67285714286 36.4062380952, 2.796875 36.3826666667, 2.93321428571 36.3685238095, 3.081875 36.3638095238, 3.24285714286 36.3685238095, 3.40383928571 36.3826666667, 3.5525 36.4062380952, 3.68883928571 36.4392380952, 3.81285714286 36.4802738095, 3.92530357143 36.5279523810, 4.02692857143 36.5822738095, 4.11773214286 36.6432380952, 4.19771428571 36.7102023810, 4.26730357143 36.7825238095, 4.32692857143 36.8602023810, 4.37658928571 36.9432380952, 4.41628571429 37.0303452381, 4.44666071429 37.1202380952, 4.46835714286 37.2129166667, 4.481375 37.3083809524, 4.48571428571 37.4021845238, 4.481375 37.4933095238, 4.46835714286 37.5817559524, 4.44666071429 37.6675238095, 4.41628571429 37.7493273810, 4.37658928571 37.8258809524, 4.32692857143 37.8971845238, 4.26730357143 37.9632380952, 4.19771428571 38.0233451596, 4.11773214286 38.0768094192, 4.02692857143 38.1236308739, 3.92530357143 38.1638095238, 3.81285714286 38.1960595238, 3.68883928571 38.2190952381, 3.5525 38.2329166667, 3.40383928571 38.2375238095, 3.24285714286 38.2329166667, 3.08792857143 38.2190952381, 2.94371428571 38.1960595238, 2.81021428571 38.1638095238, 2.68742857143 38.1236308739, 2.57514285714 38.0768094192, 2.47314285714 38.0233451596, 2.38142857143 37.9632380952, 2.3 37.8971845238, 2.22864293562 37.8258809524, 2.16714296177 37.7493273810, 2.11550007847 37.6675238095, 2.07371428571 37.5817559524, 2.04146428571 37.4933095238, 2.01842857143 Z M 37.1309523810, 2.48428571429 37.2177380952, 2.45407142857 37.3083809524, 2.444 37.3958095238, 2.45514285714 37.4798095238, 2.48857142857 37.5197202381, 2.514125 37.5571666667, 2.54621428571 37.6246666667, 2.63 37.6808095238, 2.74057142857 37.7240952381, 2.87857142857 37.7517380952, 3.0455 37.7609523810, 3.24285714286 37.7517380952, 3.45092857143 37.7240952381, 3.62257142857 37.6808095238, 3.76078571429 37.6246666667, 3.86857142857 37.5571666667, 3.94807142857 37.5197202381, 3.97801785714 37.4798095238, 4.00142857143 37.3958095238, 4.03164285714 37.3083809524, 4.04171428571 37.2177380952, 4.03164285714 37.1309523810, 4.00142857143 37.0898095238, 3.97801785714 37.0512380952, 3.94807142857 36.9818095238, 3.86857142857 36.9241666667, 3.76078571429 36.8798095238, 3.62257142857 36.8515238095, 3.45092857143 36.8420952381, 3.24285714286 36.8515238095, 3.03478571429 36.8798095238, 2.86314285714 36.9241666667, 2.72492857143 36.9818095238, 2.61714285714 37.0512380952, 2.53764285714 37.0898095238, 2.50769642857 Z"  />
<path d="M 40.7410238095, 2.74892857143 40.6015238095, 2.73714285714 40.5198809524, 2.74078571429 40.4395238095, 2.75171428571 40.3613095238, 2.771 40.2860952381, 2.79971428571 40.2149523810, 2.8385 40.1489523810, 2.888 40.0893809524, 2.94885714286 40.0375238095, 3.02171428571 39.9919345238, 2.9585 39.9391666667, 2.90257142857 39.8792202381, 2.85392857143 39.8120952381, 2.81257142857 39.7388630952, 2.77957142857 39.6605952381, 2.756 39.5772916667, 2.74185714286 39.4889523810, 2.73714285714 39.4186666667, 2.74051785714 39.3500952381, 2.75064285714 39.2832380952, 2.76751785714 39.2180952381, 2.79114285714 39.1562738095, 2.82301785714 39.0993809524, 2.86464285714 39.0474166667, 2.91601785714 39.0003809524, 2.97714285714 39.0003809524, 2.78171428571 38.5649523810, 2.78171428571 38.5649523810, 4.44285714286 39.0123809524, 4.44285714286 39.0123809524, 3.53257142857 39.0194523810, 3.44428571429 39.0406666667, 3.368 39.0736666667, 3.3035 39.1160952381, 3.25057142857 39.1675238095, 3.20942857143 39.2275238095, 3.18028571429 39.2937380952, 3.16292857143 39.3638095238, 3.15714285714 39.4366130952, 3.16308928571 39.5007380952, 3.18092857143 39.5561845238, 3.21066071429 39.6029523810, 3.25228571429 39.6400773810, 3.30526785714 39.6665952381, 3.36907142857 39.6825059524, 3.44369642857 39.6878095238, 3.52914285714 39.6878095238, 4.44285714286 40.1352380952, 4.44285714286 40.1352380952, 3.53257142857 40.1423095238, 3.44428571429 40.1635238095, 3.368 40.1965238095, 3.3035 40.2389523810, 3.25057142857 40.2903809524, 3.20942857143 40.3503809524, 3.18028571429 40.4165952381, 3.16292857143 40.4866666667, 3.15714285714 40.5587738095, 3.16308928571 40.6225238095, 3.18092857143 40.6779166667, 3.21066071429 40.7249523810, 3.25228571429 40.7624523810, 3.30526785714 40.7892380952, 3.36907142857 40.8053095238, 3.44369642857 40.8106666667, 3.52914285714 40.8106666667, 4.44285714286 41.2563809524, 4.44285714286 41.2563809524, 3.38514285714 41.2445951335, 3.24714285714 41.2092380952, 3.12114285714 41.1522380952, 3.00992857143 41.0755238095, 2.91628571429 40.9803808477, 2.84085714286 40.8680952381, 2.78428571429 Z"  />
<path d="M 67.8337142857, 2.27685714286 67.7137142857, 2.41314285714 68.012, 2.70628571429 68.108, 2.60514285714 68.1598571429, 2.56014285714 68.216, 2.52114285714 68.2770714286, 2.48878571429 68.3437142857, 2.46371428571 68.4172142857, 2.44764285714 68.4988571429, 2.44228571429 68.5775, 2.44892857143 68.6488571429, 2.46885714286 68.7116428571, 2.50078571429 68.7645714286, 2.54342857143 68.8072142857, 2.59571439035 68.8391428571, 2.65657142857 68.8590714286, 2.72514285714 68.8657142857, 2.80057142857 68.8530714286, 2.9105 68.8151428571, 3.014 68.7532142857, 3.11364285714 68.6685714286, 3.212 67.82, 4.08114285714 67.82, 4.44285714286 69.4057142857, 4.44285714286 69.4057142857, 4.00914285714 68.4885714286, 4.00914285714 69.0011428571, 3.476 69.1382857143, 3.32171428571 69.1974285714, 3.24264285714 69.248, 3.15971428571 69.2893571429, 3.07228571429 69.3208571429, 2.97971428571 69.3407857143, 2.88092857143 69.3474285714, 2.77485714286 69.3438928571, 2.69091071429 69.3332857143, 2.6105 69.3156071429, 2.533625 69.2908571429, 2.46028571429 69.2595178571, 2.39128571429 69.2220714286, 2.32742857143 69.1785178571, 2.26871428571 69.1288571429, 2.21514285714 69.0733035714, 2.16698214286 69.0120714286, 2.1245 68.9451607143, 2.08769642857 68.8725714286, 2.05657142857 68.7947857143, 2.03182142857 68.7122857143, 2.01414285714 68.6250714286, 2.00353571429 68.5331428571, 2.0 68.3745714286, 2.01007142857 68.2348571429, 2.04028571429 68.1122857143, 2.08592857143 68.0051428571, 2.14228571429 67.9125714286, 2.20678571429 Z"  />
<path d="M 70.7355178571, 2.00460714286 70.6417142857, 2.0 70.54625, 2.00428571429 70.4535714286, 2.01714285714 70.3636785714, 2.03857142857 70.2765714286, 2.06857142857 70.1935357143, 2.10794650705 70.1158571429, 2.15750010463 70.0435357143, 2.21723222133 69.9765714286, 2.28714285714 69.9156071429, 2.3675 69.8612857143, 2.45857142857 69.8136071429, 2.56035714286 69.7725714286, 2.67285714286 69.7395714286, 2.796875 69.716, 2.93321428571 69.7018571429, 3.081875 69.6971428571, 3.24285714286 69.7018571429, 3.40383928571 69.716, 3.5525 69.7395714286, 3.68883928571 69.7725714286, 3.81285714286 69.8136071429, 3.92530357143 69.8612857143, 4.02692857143 69.9156071429, 4.11773214286 69.9765714286, 4.19771428571 70.0435357143, 4.26730357143 70.1158571429, 4.32692857143 70.1935357143, 4.37658928571 70.2765714286, 4.41628571429 70.3636785714, 4.44666071429 70.4535714286, 4.46835714286 70.54625, 4.481375 70.6417142857, 4.48571428571 70.7355178571, 4.481375 70.8266428571, 4.46835714286 70.9150892857, 4.44666071429 71.0008571429, 4.41628571429 71.0826607143, 4.37658928571 71.1592142857, 4.32692857143 71.2305178571, 4.26730357143 71.2965714286, 4.19771428571 71.3566784930, 4.11773214286 71.4101427525, 4.02692857143 71.4569642072, 3.92530357143 71.4971428571, 3.81285714286 71.5293928571, 3.68883928571 71.5524285714, 3.5525 71.56625, 3.40383928571 71.5708571429, 3.24285714286 71.56625, 3.08792857143 71.5524285714, 2.94371428571 71.5293928571, 2.81021428571 71.4971428571, 2.68742857143 71.4569642072, 2.57514285714 71.4101427525, 2.47314285714 71.3566784930, 2.38142857143 71.2965714286, 2.3 71.2305178571, 2.22864293562 71.1592142857, 2.16714296177 71.0826607143, 2.11550007847 71.0008571429, 2.07371428571 70.9150892857, 2.04146428571 70.8266428571, 2.01842857143 Z M 70.4642857143, 2.48428571429 70.5510714286, 2.45407142857 70.6417142857, 2.444 70.7291428571, 2.45514285714 70.8131428571, 2.48857142857 70.8530535714, 2.514125 70.8905, 2.54621428571 70.958, 2.63 71.0141428571, 2.74057142857 71.0574285714, 2.87857142857 71.0850714286, 3.0455 71.0942857143, 3.24285714286 71.0850714286, 3.45092857143 71.0574285714, 3.62257142857 71.0141428571, 3.76078571429 70.958, 3.86857142857 70.8905, 3.94807142857 70.8530535714, 3.97801785714 70.8131428571, 4.00142857143 70.7291428571, 4.03164285714 70.6417142857, 4.04171428571 70.5510714286, 4.03164285714 70.4642857143, 4.00142857143 70.4231428571, 3.97801785714 70.3845714286, 3.94807142857 70.3151428571, 3.86857142857 70.2575, 3.76078571429 70.2131428571, 3.62257142857 70.1848571429, 3.45092857143 70.1754285714, 3.24285714286 70.1848571429, 3.03478571429 70.2131428571, 2.86314285714 70.2575, 2.72492857143 70.3151428571, 2.61714285714 70.3845714286, 2.53764285714 70.4231428571, 2.50769642857 Z"  />
<path d="M 74.0743571429, 2.74892857143 73.9348571429, 2.73714285714 73.8532142857, 2.74078571429 73.7728571429, 2.75171428571 73.6946428571, 2.771 73.6194285714, 2.79971428571 73.5482857143, 2.8385 73.4822857143, 2.888 73.4227142857, 2.94885714286 73.3708571429, 3.02171428571 73.3252678571, 2.9585 73.2725, 2.90257142857 73.2125535714, 2.85392857143 73.1454285714, 2.81257142857 73.0721964286, 2.77957142857 72.9939285714, 2.756 72.910625, 2.74185714286 72.8222857143, 2.73714285714 72.752, 2.74051785714 72.6834285714, 2.75064285714 72.6165714286, 2.76751785714 72.5514285714, 2.79114285714 72.4896071429, 2.82301785714 72.4327142857, 2.86464285714 72.38075, 2.91601785714 72.3337142857, 2.97714285714 72.3337142857, 2.78171428571 71.8982857143, 2.78171428571 71.8982857143, 4.44285714286 72.3457142857, 4.44285714286 72.3457142857, 3.53257142857 72.3527857143, 3.44428571429 72.374, 3.368 72.407, 3.3035 72.4494285714, 3.25057142857 72.5008571429, 3.20942857143 72.5608571429, 3.18028571429 72.6270714286, 3.16292857143 72.6971428571, 3.15714285714 72.7699464286, 3.16308928571 72.8340714286, 3.18092857143 72.8895178571, 3.21066071429 72.9362857143, 3.25228571429 72.9734107143, 3.30526785714 72.9999285714, 3.36907142857 73.0158392857, 3.44369642857 73.0211428571, 3.52914285714 73.0211428571, 4.44285714286 73.4685714286, 4.44285714286 73.4685714286, 3.53257142857 73.4756428571, 3.44428571429 73.4968571429, 3.368 73.5298571429, 3.3035 73.5722857143, 3.25057142857 73.6237142857, 3.20942857143 73.6837142857, 3.18028571429 73.7499285714, 3.16292857143 73.82, 3.15714285714 73.8921071429, 3.16308928571 73.9558571429, 3.18092857143 74.01125, 3.21066071429 74.0582857143, 3.25228571429 74.0957857143, 3.30526785714 74.1225714286, 3.36907142857 74.1386428571, 3.44369642857 74.144, 3.52914285714 74.144, 4.44285714286 74.5897142857, 4.44285714286 74.5897142857, 3.38514285714 74.5779284668, 3.24714285714 74.5425714286, 3.12114285714 74.4855714286, 3.00992857143 74.4088571429, 2.91628571429 74.3137141811, 2.84085714286 74.2014285714, 2.78428571429 Z"  />
<path d="M 102.020761905, 2.01242857143 101.839047619, 2.0 101.700833333, 2.00707142857 101.574190476, 2.02828571429 101.458690476, 2.06192857143 101.353904762, 2.10628571429 101.259619048, 2.16071428571 101.175619048, 2.22457142857 101.101904762, 2.29571428571 101.038476190, 2.372 101.329904762, 2.66514285714 101.415619048, 2.57257142857 101.468119048, 2.53078571429 101.526190476, 2.49457142857 101.589833333, 2.46457142857 101.659047619, 2.44142857143 101.734047619, 2.42664285714 101.815047619, 2.42171428571 101.896047619, 2.42664285714 101.971047619, 2.44142857143 102.038547619, 2.46564285714 102.097047619, 2.49885714286 102.145261905, 2.54128571429 102.181904762, 2.59314285714 102.205047619, 2.65357142857 102.212761905, 2.72171428571 102.204619048, 2.79264285714 102.180190476, 2.85457142857 102.141404762, 2.90728571429 102.090190476, 2.95057142857 102.028047619, 2.98421428571 101.956476190, 3.008 101.877404762, 3.02214285714 101.792761905, 3.02685714286 101.511619048, 3.02685714286 101.511619048, 3.43828571429 101.791047619, 3.43828571429 101.885547619, 3.44321428571 101.973619048, 3.458 102.053333333, 3.48285714286 102.122761905, 3.518 102.180190476, 3.56278571429 102.223904762, 3.61657142857 102.251547619, 3.67957142857 102.260761905, 3.752 102.252619048, 3.82592857143 102.228190476, 3.89 102.189404762, 3.944 102.138190476, 3.98771428571 102.076047619, 4.02135714286 102.004476190, 4.04514285714 101.925404762, 4.05928571429 101.840761905, 4.064 101.763619048, 4.06025 101.688190476, 4.049 101.614476190, 4.03025 101.542476190, 4.004 101.473690476, 3.97089285714 101.409619048, 3.93157142857 101.350261905, 3.88603571429 101.295619048, 3.83428571429 101.019619048, 4.13771428571 101.093065476, 4.21614285714 101.176261905, 4.28514285714 101.269208333, 4.34471428571 101.371904762, 4.39485714286 101.482958333, 4.43460714286 101.600976190, 4.463 101.725958333, 4.48003571429 101.857904762, 4.48571428571 102.025047619, 4.475 102.187047619, 4.44285714286 102.264511905, 4.41864285714 102.337476190, 4.38885714286 102.405940476, 4.3535 102.469904762, 4.31257142857 102.528565476, 4.266125 102.581119048, 4.21421428571 102.627565476, 4.15683928571 102.667904762, 4.094 102.700529762, 4.02548214286 102.723833333, 3.95107142857 102.737815476, 3.87076785714 102.742476190, 3.78457142857 102.735565476, 3.69033928571 102.714833333, 3.60307142857 102.680279762, 3.52276785714 102.631904762, 3.44942857143 102.571636905, 3.38358928571 102.501404762, 3.32578571429 102.421208333, 3.27601785714 102.331047619, 3.23428571429 102.410494048, 3.19121428571 102.480833333, 3.14085714286 102.542065476, 3.08321428571 102.594190476, 3.01828571429 102.635815476, 2.94628571429 102.665547619, 2.86742857143 102.683386905, 2.78171428571 102.689333333, 2.68914285714 102.685476190, 2.61296428571 102.673904762, 2.54042857143 102.654619048, 2.47153571429 102.627619048, 2.40628571429 102.593601190, 2.34516071429 102.553261905, 2.28864285714 102.506601190, 2.23673214286 102.453619048, 2.18942857143 102.394744048, 2.14694642857 102.330404762, 2.1095 102.260601190, 2.07708928571 102.185333333, 2.04971428571 102.105190476, 2.02796428571 Z"  />
<path d="M 104.068851190, 2.00460714286 103.975047619, 2.0 103.879583333, 2.00428571429 103.786904762, 2.01714285714 103.697011905, 2.03857142857 103.609904762, 2.06857142857 103.526869048, 2.10794650705 103.449190476, 2.15750010463 103.376869048, 2.21723222133 103.309904762, 2.28714285714 103.248940476, 2.3675 103.194619048, 2.45857142857 103.146940476, 2.56035714286 103.105904762, 2.67285714286 103.072904762, 2.796875 103.049333333, 2.93321428571 103.035190476, 3.081875 103.030476190, 3.24285714286 103.035190476, 3.40383928571 103.049333333, 3.5525 103.072904762, 3.68883928571 103.105904762, 3.81285714286 103.146940476, 3.92530357143 103.194619048, 4.02692857143 103.248940476, 4.11773214286 103.309904762, 4.19771428571 103.376869048, 4.26730357143 103.449190476, 4.32692857143 103.526869048, 4.37658928571 103.609904762, 4.41628571429 103.697011905, 4.44666071429 103.786904762, 4.46835714286 103.879583333, 4.481375 103.975047619, 4.48571428571 104.068851190, 4.481375 104.159976190, 4.46835714286 104.248422619, 4.44666071429 104.334190476, 4.41628571429 104.415994048, 4.37658928571 104.492547619, 4.32692857143 104.563851190, 4.26730357143 104.629904762, 4.19771428571 104.690011826, 4.11773214286 104.743476086, 4.02692857143 104.790297541, 3.92530357143 104.830476190, 3.81285714286 104.862726190, 3.68883928571 104.885761905, 3.5525 104.899583333, 3.40383928571 104.904190476, 3.24285714286 104.899583333, 3.08792857143 104.885761905, 2.94371428571 104.862726190, 2.81021428571 104.830476190, 2.68742857143 104.790297541, 2.57514285714 104.743476086, 2.47314285714 104.690011826, 2.38142857143 104.629904762, 2.3 104.563851190, 2.22864293562 104.492547619, 2.16714296177 104.415994048, 2.11550007847 104.334190476, 2.07371428571 104.248422619, 2.04146428571 104.159976190, 2.01842857143 Z M 103.797619048, 2.48428571429 103.884404762, 2.45407142857 103.975047619, 2.444 104.062476190, 2.45514285714 104.146476190, 2.48857142857 104.186386905, 2.514125 104.223833333, 2.54621428571 104.291333333, 2.63 104.347476190, 2.74057142857 104.390761905, 2.87857142857 104.418404762, 3.0455 104.427619048, 3.24285714286 104.418404762, 3.45092857143 104.390761905, 3.62257142857 104.347476190, 3.76078571429 104.291333333, 3.86857142857 104.223833333, 3.94807142857 104.186386905, 3.97801785714 104.146476190, 4.00142857143 104.062476190, 4.03164285714 103.975047619, 4.04171428571 103.884404762, 4.03164285714 103.797619048, 4.00142857143 103.756476190, 3.97801785714 103.717904762, 3.94807142857 103.648476190, 3.86857142857 103.590833333, 3.76078571429 103.546476190, 3.62257142857 103.518190476, 3.45092857143 103.508761905, 3.24285714286 103.518190476, 3.03478571429 103.546476190, 2.86314285714 103.590833333, 2.72492857143 103.648476190, 2.61714285714 103.717904762, 2.53764285714 103.756476190, 2.50769642857 Z"  />
<path d="M 107.407690476, 2.74892857143 107.268190476, 2.73714285714 107.186547619, 2.74078571429 107.106190476, 2.75171428571 107.027976190, 2.771 106.952761905, 2.79971428571 106.881619048, 2.8385 106.815619048, 2.888 106.756047619, 2.94885714286 106.704190476, 3.02171428571 106.658601190, 2.9585 106.605833333, 2.90257142857 106.545886905, 2.85392857143 106.478761905, 2.81257142857 106.405529762, 2.77957142857 106.327261905, 2.756 106.243958333, 2.74185714286 106.155619048, 2.73714285714 106.085333333, 2.74051785714 106.016761905, 2.75064285714 105.949904762, 2.76751785714 105.884761905, 2.79114285714 105.822940476, 2.82301785714 105.766047619, 2.86464285714 105.714083333, 2.91601785714 105.667047619, 2.97714285714 105.667047619, 2.78171428571 105.231619048, 2.78171428571 105.231619048, 4.44285714286 105.679047619, 4.44285714286 105.679047619, 3.53257142857 105.686119048, 3.44428571429 105.707333333, 3.368 105.740333333, 3.3035 105.782761905, 3.25057142857 105.834190476, 3.20942857143 105.894190476, 3.18028571429 105.960404762, 3.16292857143 106.030476190, 3.15714285714 106.103279762, 3.16308928571 106.167404762, 3.18092857143 106.222851190, 3.21066071429 106.269619048, 3.25228571429 106.306744048, 3.30526785714 106.333261905, 3.36907142857 106.349172619, 3.44369642857 106.354476190, 3.52914285714 106.354476190, 4.44285714286 106.801904762, 4.44285714286 106.801904762, 3.53257142857 106.808976190, 3.44428571429 106.830190476, 3.368 106.863190476, 3.3035 106.905619048, 3.25057142857 106.957047619, 3.20942857143 107.017047619, 3.18028571429 107.083261905, 3.16292857143 107.153333333, 3.15714285714 107.225440476, 3.16308928571 107.289190476, 3.18092857143 107.344583333, 3.21066071429 107.391619048, 3.25228571429 107.429119048, 3.30526785714 107.455904762, 3.36907142857 107.471976190, 3.44369642857 107.477333333, 3.52914285714 107.477333333, 4.44285714286 107.923047619, 4.44285714286 107.923047619, 3.38514285714 107.911261800, 3.24714285714 107.875904762, 3.12114285714 107.818904762, 3.00992857143 107.742190476, 2.91628571429 107.647047514, 2.84085714286 107.534761905, 2.78428571429 Z"  />
</svg>