<?xml version="1.0" encoding="utf-8"?>
<!-- Generator: Grasshopper 1.0.0, Redback Plugin. SVG Version: 6.00 Build 0) Made by Andrew Butler at Cox Architecture -->
<!DOCTYPE svg PUBLIC "-//W3C//DTD SVG 1.1//EN" "http://www.w3.org/Graphics/SVG/1.1/DTD/svg11.dtd">
<svg version="1.1" xmlns="http://www.w3.org/2000/svg" xmlns:xlink="http://www.w3.org/1999/xlink" x="0px" y="0px"
width="110.953523810mm" height="11.2428571429mm" viewBox="0 0 110.953523810 11.2428571429" xml:space="preserve">
<style type="text/css">
polyline{
fill:none;
stroke:black;
stroke-width:0.2mm;
}
polygon{
fill:white;
}
</style>
<polygon points="0.0, 11.2428571429 110.953523810, 11.2428571429 110.953523810, -0.0 0.0, -0.0" />
<polyline points="4.50247619048, 9.24285714286 29.5024761905, 9.24285714286 29.5024761905, 6.84285714286 54.5024761905, 6.84285714286 54.5024761905, 9.24285714286 104.502476190, 9.24285714286" />
<path d="M 2.99180803571, 2.00115178571 2.94457142857, 2.0 2.89649107143, 2.00107142857 2.84910714286, 2.00428571429 2.80241964286, 2.00964285714 2.75642857143, 2.01714285714 2.71113392857, 2.02678571429 2.66653571429, 2.03857142857 2.62263392857, 2.0525 2.57942857143, 2.06857142857 2.53724107143, 2.08698665292 2.49639285714, 2.10794650705 2.45688392857, 2.13145099095 2.41871428571, 2.15750010463 2.38188392857, 2.18609384809 2.34639285714, 2.21723222133 2.31224107143, 2.25091522435 2.27942857143, 2.28714285714 2.24811607143, 2.32598214286 2.21846428571, 2.3675 2.19047321429, 2.41169642857 2.16414285714, 2.45857142857 2.13947321429, 2.508125 2.11646428571, 2.56035714286 2.09511607143, 2.61526785714 2.07542857143, 2.67285714286 2.05775, 2.73332589286 2.04242857143, 2.796875 2.02946428571, 2.86350446429 2.01885714286, 2.93321428571 2.01060714286, 3.00600446429 2.00471428571, 3.081875 2.00117857143, 3.16082589286 2.0, 3.24285714286 2.00117857143, 3.32488839286 2.00471428571, 3.40383928571 2.01060714286, 3.47970982143 2.01885714286, 3.5525 2.02946428571, 3.62220982143 2.04242857143, 3.68883928571 2.05775, 3.75238839286 2.07542857143, 3.81285714286 2.09511607143, 3.87043303571 2.11646428571, 3.92530357143 2.13947321429, 3.97746875 2.16414285714, 4.02692857143 2.19047321429, 4.07368303571 2.21846428571, 4.11773214286 2.24811607143, 4.15907589286 2.27942857143, 4.19771428571 2.31224107143, 4.23375446429 2.34639285714, 4.26730357143 2.38188392857, 4.29836160714 2.41871428571, 4.32692857143 2.45688392857, 4.35300446429 2.49639285714, 4.37658928571 2.53724107143, 4.39768303571 2.57942857143, 4.41628571429 2.62263392857, 4.43255803571 2.66653571429, 4.44666071429 2.71113392857, 4.45859375 2.75642857143, 4.46835714286 2.80241964286, 4.47595089286 2.84910714286, 4.481375 2.89649107143, 4.48462946429 2.94457142857, 4.48571428571 2.99180803571, 4.48462946429 3.038375, 4.481375 3.08427232143, 4.47595089286 3.1295, 4.46835714286 3.17405803571, 4.45859375 3.21794642857, 4.44666071429 3.26116517857, 4.43255803571 3.30371428571, 4.41628571429 3.34527232143, 4.39768303571 3.38551785714, 4.37658928571 3.42445089286, 4.35300446429 3.46207142857, 4.32692857143 3.49837946429, 4.29836160714 3.533375, 4.26730357143 3.56705803571, 4.23375446429 3.59942857143, 4.19771428571 3.63031245422, 4.15907589286 3.65953563581, 4.11773214286 3.68709811619, 4.07368303571 3.71299989537, 4.02692857143 3.73724097334, 3.97746875 3.75982135010, 3.92530357143 3.78074102565, 3.87043303571 3.8, 3.81285714286 3.81727678571, 3.75238839286 3.83225, 3.68883928571 3.84491964286, 3.62220982143 3.85528571429, 3.5525 3.86334821429, 3.47970982143 3.86910714286, 3.40383928571 3.8725625, 3.32488839286 3.87371428571, 3.24285714286 3.8725625, 3.16405357143 3.86910714286, 3.08792857143 3.86334821429, 3.01448214286 3.85528571429, 2.94371428571 3.84491964286, 2.875625 3.83225, 2.81021428571 3.81727678571, 2.74748214286 3.8, 2.68742857143 3.78074102565, 2.63 3.75982135010, 2.57514285714 3.73724097334, 2.52285714286 3.71299989537, 2.47314285714 3.68709811619, 2.426 3.65953563581, 2.38142857143 3.63031245422, 2.33942857143 3.59942857143, 2.3 3.56705803571, 2.26308933149 3.533375, 2.22864293562 3.49837946429, 2.19666081238 3.46207142857, 2.16714296177 3.42445089286, 2.14008938381 3.38551785714, 2.11550007847 3.34527232143, 2.09337504578 3.30371428571, 2.07371428571 3.26116517857, 2.0564375 3.21794642857, 2.04146428571 3.17405803571, 2.02879464286 3.1295, 2.01842857143 3.08427232143, 2.01036607143 3.038375, 2.00460714286 Z M 2.89876785714, 2.44651785714 2.92154910714, 2.44462946429 2.94457142857, 2.444 2.96675, 2.44469642857 2.98871428571, 2.44678571429 3.01046428571, 2.45026785714 3.032, 2.45514285714 3.05332142857, 2.46141071429 3.07442857143, 2.46907142857 3.09532142857, 2.478125 3.116, 2.48857142857 3.13626339286, 2.50053125 3.15591071429, 2.514125 3.17494196429, 2.52935267857 3.19335714286, 2.54621428571 3.21115625, 2.56470982143 3.22833928571, 2.58483928571 3.24490625, 2.60660267857 3.26085714286, 2.63 3.27609821429, 2.65507142857 3.29053571429, 2.68185714286 3.30416964286, 2.71035714286 3.317, 2.74057142857 3.32902678571, 2.7725 3.34025, 2.80614285714 3.35066964286, 2.8415 3.36028571429, 2.87857142857 3.36892410714, 2.91745089286 3.37641071429, 2.95823214286 3.38274553571, 3.00091517857 3.38792857143, 3.0455 3.39195982143, 3.09198660714 3.39483928571, 3.140375 3.39656696429, 3.19066517857 3.39714285714, 3.24285714286 3.39656696429, 3.29829017857 3.39483928571, 3.35144642857 3.39195982143, 3.40232589286 3.38792857143, 3.45092857143 3.38274553571, 3.49725446429 3.37641071429, 3.54130357143 3.36892410714, 3.58307589286 3.36028571429, 3.62257142857 3.35066964286, 3.65997767857 3.34025, 3.69548214286 3.32902678571, 3.72908482143 3.317, 3.76078571429 3.30416964286, 3.79058482143 3.29053571429, 3.81848214286 3.27609821429, 3.84447767857 3.26085714286, 3.86857142857 3.24490625, 3.89089732143 3.22833928571, 3.91158928571 3.21115625, 3.93064732143 3.19335714286, 3.94807142857 3.17494196429, 3.96386160714 3.15591071429, 3.97801785714 3.13626339286, 3.99054017857 3.116, 4.00142857143 3.09532142857, 4.01087053571 3.07442857143, 4.01905357143 3.05332142857, 4.02597767857 3.032, 4.03164285714 3.01046428571, 4.03604910714 2.98871428571, 4.03919642857 2.96675, 4.04108482143 2.94457142857, 4.04171428571 2.92154910714, 4.04108482143 2.89876785714, 4.03919642857 2.87622767857, 4.03604910714 2.85392857143, 4.03164285714 2.83187053571, 4.02597767857 2.81005357143, 4.01905357143 2.78847767857, 4.01087053571 2.76714285714, 4.00142857143 2.74625, 3.99054017857 2.726, 3.97801785714 2.70639285714, 3.96386160714 2.68742857143, 3.94807142857 2.66910714286, 3.93064732143 2.65142857143, 3.91158928571 2.63439285714, 3.89089732143 2.618, 3.86857142857 2.60234375, 3.84447767857 2.58751785714, 3.81848214286 2.57352232143, 3.79058482143 2.56035714286, 3.76078571429 2.54802232143, 3.72908482143 2.53651785714, 3.69548214286 2.52584375, 3.65997767857 2.516, 3.62257142857 2.50716071429, 3.58307589286 2.4995, 3.54130357143 2.49301785714, 3.49725446429 2.48771428571, 3.45092857143 2.48358928571, 3.40232589286 2.48064285714, 3.35144642857 2.478875, 3.29829017857 2.47828571429, 3.24285714286 2.478875, 3.18742410714 2.48064285714, 3.13426785714 2.48358928571, 3.08338839286 2.48771428571, 3.03478571429 2.49301785714, 2.98845982143 2.4995, 2.94441071429 2.50716071429, 2.90263839286 2.516, 2.86314285714 2.52584375, 2.82573660714 2.53651785714, 2.79023214286 2.54802232143, 2.75662946429 2.56035714286, 2.72492857143 2.57352232143, 2.69512946429 2.58751785714, 2.66723214286 2.60234375, 2.64123660714 2.618, 2.61714285714 2.63439285714, 2.59481696429 2.65142857143, 2.574125 2.66910714286, 2.55506696429 2.68742857143, 2.53764285714 2.70639285714, 2.52185267857 2.726, 2.50769642857 2.74625, 2.49517410714 2.76714285714, 2.48428571429 2.78847767857, 2.47484375 2.81005357143, 2.46666071429 2.83187053571, 2.45973660714 2.85392857143, 2.45407142857 2.87622767857, 2.44966517857 Z"  />
<path d="M 6.27375446429, 2.73787946429 6.23771428571, 2.73714285714 6.19673214286, 2.73805357143 6.15607142857, 2.74078571429 6.11573214286, 2.74533928571 6.07571428571, 2.75171428571 6.03623214286, 2.76017857143 5.9975, 2.771 5.95951785714, 2.78417857143 5.92228571429, 2.79971428571 5.88607142857, 2.81776785714 5.85114285714, 2.8385 5.8175, 2.86191071429 5.78514285714, 2.888 5.75439285714, 2.91692857143 5.72557142857, 2.94885714286 5.69867857143, 2.98378571429 5.67371428571, 3.02171428571 5.65181696429, 2.98919642857 5.628125, 2.9585 5.60263839286, 2.929625 5.57535714286, 2.90257142857 5.54628125, 2.87733928571 5.51541071429, 2.85392857143 5.48274553571, 2.83233928571 5.44828571429, 2.81257142857 5.41229910714, 2.79489285714 5.37505357143, 2.77957142857 5.33654910714, 2.76660714286 5.29678571429, 2.756 5.25576339286, 2.74775 5.21348214286, 2.74185714286 5.16994196429, 2.73832142857 5.12514285714, 2.73714285714 5.08978571429, 2.73798660714 5.05485714286, 2.74051785714 5.02035714286, 2.74473660714 4.98628571429, 2.75064285714 4.95264285714, 2.75823660714 4.91942857143, 2.76751785714 4.88664285714, 2.77848660714 4.85428571429, 2.79114285714 4.82275892857, 2.80586160714 4.79246428571, 2.82301785714 4.76340178571, 2.84261160714 4.73557142857, 2.86464285714 4.70897321429, 2.88911160714 4.68360714286, 2.91601785714 4.65947321429, 2.94536160714 4.63657142857, 2.97714285714 4.63657142857, 2.78171428571 4.20114285714, 2.78171428571 4.20114285714, 4.44285714286 4.64857142857, 4.44285714286 4.64857142857, 3.53257142857 4.65033928571, 3.48692857143 4.65564285714, 3.44428571429 4.65962053571, 3.42408928571 4.66448214286, 3.40464285714 4.67022767857, 3.38594642857 4.67685714286, 3.368 4.69217857143, 3.33430357143 4.70985714286, 3.3035 4.72989285714, 3.27558928571 4.75228571429, 3.25057142857 4.77692857143, 3.2285 4.80371428571, 3.20942857143 4.83264285714, 3.19335714286 4.86371428571, 3.18028571429 4.89633928571, 3.17016071429 4.92992857143, 3.16292857143 4.96448214286, 3.15858928571 5.0, 3.15714285714 5.03748660714, 3.15862946429 5.07280357143, 3.16308928571 5.10595089286, 3.17052232143 5.13692857143, 3.18092857143 5.16573660714, 3.19430803571 5.192375, 3.21066071429 5.21684375, 3.22998660714 5.23914285714, 3.25228571429 5.25903125, 3.27742410714 5.27626785714, 3.30526785714 5.29085267857, 3.33581696429 5.30278571429, 3.36907142857 5.31206696429, 3.40503125 5.31869642857, 3.44369642857 5.32267410714, 3.48506696429 5.324, 3.52914285714 5.324, 4.44285714286 5.77142857143, 4.44285714286 5.77142857143, 3.53257142857 5.77319642857, 3.48692857143 5.7785, 3.44428571429 5.78247767857, 3.42408928571 5.78733928571, 3.40464285714 5.79308482143, 3.38594642857 5.79971428571, 3.368 5.81503571429, 3.33430357143 5.83271428571, 3.3035 5.85275, 3.27558928571 5.87514285714, 3.25057142857 5.89978571429, 3.2285 5.92657142857, 3.20942857143 5.9555, 3.19335714286 5.98657142857, 3.18028571429 6.01919642857, 3.17016071429 6.05278571429, 3.16292857143 6.08733928571, 3.15858928571 6.12285714286, 3.15714285714 6.15995535714, 3.15862946429 6.19496428571, 3.16308928571 6.22788392857, 3.17052232143 6.25871428571, 3.18092857143 6.28745535714, 3.19430803571 6.31410714286, 3.21066071429 6.33866964286, 3.22998660714 6.36114285714, 3.25228571429 6.38123214286, 3.27742410714 6.39864285714, 3.30526785714 6.413375, 3.33581696429 6.42542857143, 3.36907142857 6.43480357143, 3.40503125 6.4415, 3.44369642857 6.44551785714, 3.48506696429 6.44685714286, 3.52914285714 6.44685714286, 4.44285714286 6.89257142857, 4.44285714286 6.89257142857, 3.38514285714 6.89183477565, 3.34951785714 6.88962492153, 3.31464285714 6.88594186619, 3.28051785714 6.88078560965, 3.24714285714 6.87415615191, 3.21451785714 6.86605349295, 3.18264285714 6.85647763280, 3.15151785714 6.84542857143, 3.12114285714 6.83302678571, 3.09169196429 6.81939285714, 3.06333928571 6.80452678571, 3.03608482143 6.78842857143, 3.00992857143 6.77109821429, 2.98487053571 6.75253571429, 2.96091071429 6.73274107143, 2.93804910714 6.71171428571, 2.91628571429 6.68953566851, 2.89566071429 6.66628563581, 2.87621428571 6.64196418762, 2.85794642857 6.61657132394, 2.84085714286 6.59010704477, 2.82494642857 6.56257135010, 2.81021428571 6.53396423994, 2.79666071429 6.50428571429, 2.78428571429 6.47368303571, 2.77323660714 6.44230357143, 2.76366071429 6.41014732143, 2.75555803571 6.37721428571, 2.74892857143 6.34350446429, 2.74377232143 6.30901785714, 2.74008928571 Z"  />
<path d="M 26.9608154762, 2.95402678571 26.9093333333, 2.95314285714 26.6333333333, 2.95314285714 26.6436190476, 2.47314285714 27.6156190476, 2.47314285714 27.6156190476, 2.04285714286 26.2356190476, 2.04285714286 26.2099047619, 3.37142857143 26.7807619048, 3.37142857143 26.8481547619, 3.37314285714 26.9097619048, 3.37828571429 26.9383958333, 3.38214285714 26.9655833333, 3.38685714286 26.9913244048, 3.39242857143 27.0156190476, 3.39885714286 27.0604047619, 3.41375 27.0810297619, 3.42208035714 27.1004761905, 3.431 27.1187440476, 3.44050892857 27.1358333333, 3.45060714286 27.1517440476, 3.46129464286 27.1664761905, 3.47257142857 27.1800967262, 3.48438392857 27.1926726190, 3.49667857143 27.2042038690, 3.50945535714 27.2146904762, 3.52271428571 27.2241324405, 3.53645535714 27.2325297619, 3.55067857143 27.2398824405, 3.56538392857 27.2461904762, 3.58057142857 27.2563154762, 3.61175 27.2635476190, 3.64357142857 27.2678869048, 3.67603571429 27.2693333333, 3.70914285714 27.2677797619, 3.74455357143 27.2631190476, 3.77878571429 27.2553511905, 3.81183928571 27.2444761905, 3.84371428571 27.2304939691, 3.87408928571 27.2134046573, 3.90264285714 27.1932082549, 3.929375 27.1699047619, 3.95428571429 27.1570744048, 3.96596428571 27.1434404762, 3.977 27.1137619048, 3.99714285714 27.0808690476, 4.01471428571 27.0447619048, 4.02971428571 27.0255297619, 4.03614285714 27.0055476190, 4.04171428571 26.9633333333, 4.05028571429 26.9181190476, 4.05542857143 26.8699047619, 4.05714285714 26.8286547619, 4.05591071429 26.7871904762, 4.05221428571 26.7455119048, 4.04605357143 26.7036190476, 4.03742857143 26.6620476190, 4.02666071429 26.6213333333, 4.01407142857 26.5814761905, 3.99966071429 26.5424761905, 3.98342857143 26.5045476190, 3.96553571429 26.4679047619, 3.94614285714 26.4325476190, 3.92525 26.3984761905, 3.90285714286 26.3662261905, 3.87928571429 26.3363333333, 3.85485714286 26.3087976190, 3.82957142857 26.2836190476, 3.80342857143 26.0230476190, 4.12742857143 26.0617529762, 4.16867857143 26.1024404762, 4.20757142857 26.1451101190, 4.24410714286 26.1897619048, 4.27828571429 26.2363958333, 4.31010714286 26.2850119048, 4.33957142857 26.3356101190, 4.36667857143 26.3881904762, 4.39142857143 26.4426458333, 4.41352678571 26.4988690476, 4.43267857143 26.5568601190, 4.44888392857 26.6166190476, 4.46214285714 26.6781458333, 4.47245535714 26.7414404762, 4.47982142857 26.8065029762, 4.48424107143 26.8733333333, 4.48571428571 26.9184136905, 4.48487053571 26.9627976190, 4.48233928571 27.0064851190, 4.47812053571 27.0494761905, 4.47221428571 27.0917708333, 4.46462053571 27.1333690476, 4.45533928571 27.1742708333, 4.44437053571 27.2144761905, 4.43171428571 27.2537038690, 4.4174375 27.2916726190, 4.40160714286 27.3283824405, 4.38422321429 27.3638333333, 4.36528571429 27.3980252976, 4.34479464286 27.4309583333, 4.32275 27.4626324405, 4.29915178571 27.4930476190, 4.274 27.5220431548, 4.24733482143 27.5494583333, 4.21919642857 27.5752931548, 4.18958482143 27.5995476190, 4.1585 27.6222217262, 4.12594196429 27.6433154762, 4.09191071429 27.6628288690, 4.05640625 27.6807619048, 4.01942857143 27.6968333333, 3.98104464286 27.7107619048, 3.94132142857 27.7225476190, 3.90025892857 27.7321904762, 3.85785714286 27.7396904762, 3.81411607143 27.7450476190, 3.76903571429 27.7482619048, 3.72261607143 27.7493333333, 3.67485714286 27.7485163690, 3.63745089286 27.7460654762, 3.60066071429 27.7419806548, 3.56448660714 27.7362619048, 3.52892857143 27.7289092262, 3.49398660714 27.7199226190, 3.45966071429 27.7093020833, 3.42595089286 27.6970476190, 3.39285714286 27.6831458333, 3.36059375 27.6675833333, 3.329375 27.6503601190, 3.29920089286 27.6314761905, 3.27007142857 27.6109315476, 3.24198660714 27.5887261905, 3.21494642857 27.5648601190, 3.18895089286 27.5393333333, 3.164 27.5121592262, 3.14021428571 27.4833511905, 3.11771428571 27.4529092262, 3.0965 27.4208333333, 3.07657142857 27.3871235119, 3.05792857143 27.3517797619, 3.04057142857 27.3148020833, 3.0245 27.2761904762, 3.00971428571 27.2359583333, 2.99645535714 27.1941190476, 2.98496428571 27.1506726190, 2.97524107143 27.1056190476, 2.96728571429 27.0589583333, 2.96109821429 27.0106904762, 2.95667857143 Z"  />
<path d="M 29.0222842262, 2.00115178571 28.9750476190, 2.0 28.9269672619, 2.00107142857 28.8795833333, 2.00428571429 28.8328958333, 2.00964285714 28.7869047619, 2.01714285714 28.7416101190, 2.02678571429 28.6970119048, 2.03857142857 28.6531101190, 2.0525 28.6099047619, 2.06857142857 28.5677172619, 2.08698665292 28.5268690476, 2.10794650705 28.4873601190, 2.13145099095 28.4491904762, 2.15750010463 28.4123601190, 2.18609384809 28.3768690476, 2.21723222133 28.3427172619, 2.25091522435 28.3099047619, 2.28714285714 28.2785922619, 2.32598214286 28.2489404762, 2.3675 28.2209494048, 2.41169642857 28.1946190476, 2.45857142857 28.1699494048, 2.508125 28.1469404762, 2.56035714286 28.1255922619, 2.61526785714 28.1059047619, 2.67285714286 28.0882261905, 2.73332589286 28.0729047619, 2.796875 28.0599404762, 2.86350446429 28.0493333333, 2.93321428571 28.0410833333, 3.00600446429 28.0351904762, 3.081875 28.0316547619, 3.16082589286 28.0304761905, 3.24285714286 28.0316547619, 3.32488839286 28.0351904762, 3.40383928571 28.0410833333, 3.47970982143 28.0493333333, 3.5525 28.0599404762, 3.62220982143 28.0729047619, 3.68883928571 28.0882261905, 3.75238839286 28.1059047619, 3.81285714286 28.1255922619, 3.87043303571 28.1469404762, 3.92530357143 28.1699494048, 3.97746875 28.1946190476, 4.02692857143 28.2209494048, 4.07368303571 28.2489404762, 4.11773214286 28.2785922619, 4.15907589286 28.3099047619, 4.19771428571 28.3427172619, 4.23375446429 28.3768690476, 4.26730357143 28.4123601190, 4.29836160714 28.4491904762, 4.32692857143 28.4873601190, 4.35300446429 28.5268690476, 4.37658928571 28.5677172619, 4.39768303571 28.6099047619, 4.41628571429 28.6531101190, 4.43255803571 28.6970119048, 4.44666071429 28.7416101190, 4.45859375 28.7869047619, 4.46835714286 28.8328958333, 4.47595089286 28.8795833333, 4.481375 28.9269672619, 4.48462946429 28.9750476190, 4.48571428571 29.0222842262, 4.48462946429 29.0688511905, 4.481375 29.1147485119, 4.47595089286 29.1599761905, 4.46835714286 29.2045342262, 4.45859375 29.2484226190, 4.44666071429 29.2916413690, 4.43255803571 29.3341904762, 4.41628571429 29.3757485119, 4.39768303571 29.4159940476, 4.37658928571 29.4549270833, 4.35300446429 29.4925476190, 4.32692857143 29.5288556548, 4.29836160714 29.5638511905, 4.26730357143 29.5975342262, 4.23375446429 29.6299047619, 4.19771428571 29.6607886447, 4.15907589286 29.6900118263, 4.11773214286 29.7175743067, 4.07368303571 29.7434760858, 4.02692857143 29.7677171638, 3.97746875 29.7902975406, 3.92530357143 29.8112172161, 3.87043303571 29.8304761905, 3.81285714286 29.8477529762, 3.75238839286 29.8627261905, 3.68883928571 29.8753958333, 3.62220982143 29.8857619048, 3.5525 29.8938244048, 3.47970982143 29.8995833333, 3.40383928571 29.9030386905, 3.32488839286 29.9041904762, 3.24285714286 29.9030386905, 3.16405357143 29.8995833333, 3.08792857143 29.8938244048, 3.01448214286 29.8857619048, 2.94371428571 29.8753958333, 2.875625 29.8627261905, 2.81021428571 29.8477529762, 2.74748214286 29.8304761905, 2.68742857143 29.8112172161, 2.63 29.7902975406, 2.57514285714 29.7677171638, 2.52285714286 29.7434760858, 2.47314285714 29.7175743067, 2.426 29.6900118263, 2.38142857143 29.6607886447, 2.33942857143 29.6299047619, 2.3 29.5975342262, 2.26308933149 29.5638511905, 2.22864293562 29.5288556548, 2.19666081238 29.4925476190, 2.16714296177 29.4549270833, 2.14008938381 29.4159940476, 2.11550007847 29.3757485119, 2.09337504578 29.3341904762, 2.07371428571 29.2916413690, 2.0564375 29.2484226190, 2.04146428571 29.2045342262, 2.02879464286 29.1599761905, 2.01842857143 29.1147485119, 2.01036607143 29.0688511905, 2.00460714286 Z M 28.9292440476, 2.44651785714 28.9520252976, 2.44462946429 28.9750476190, 2.444 28.9972261905, 2.44469642857 29.0191904762, 2.44678571429 29.0409404762, 2.45026785714 29.0624761905, 2.45514285714 29.0837976190, 2.46141071429 29.1049047619, 2.46907142857 29.1257976190, 2.478125 29.1464761905, 2.48857142857 29.1667395833, 2.50053125 29.1863869048, 2.514125 29.2054181548, 2.52935267857 29.2238333333, 2.54621428571 29.2416324405, 2.56470982143 29.2588154762, 2.58483928571 29.2753824405, 2.60660267857 29.2913333333, 2.63 29.3065744048, 2.65507142857 29.3210119048, 2.68185714286 29.3346458333, 2.71035714286 29.3474761905, 2.74057142857 29.3595029762, 2.7725 29.3707261905, 2.80614285714 29.3811458333, 2.8415 29.3907619048, 2.87857142857 29.3994002976, 2.91745089286 29.4068869048, 2.95823214286 29.4132217262, 3.00091517857 29.4184047619, 3.0455 29.4224360119, 3.09198660714 29.4253154762, 3.140375 29.4270431548, 3.19066517857 29.4276190476, 3.24285714286 29.4270431548, 3.29829017857 29.4253154762, 3.35144642857 29.4224360119, 3.40232589286 29.4184047619, 3.45092857143 29.4132217262, 3.49725446429 29.4068869048, 3.54130357143 29.3994002976, 3.58307589286 29.3907619048, 3.62257142857 29.3811458333, 3.65997767857 29.3707261905, 3.69548214286 29.3595029762, 3.72908482143 29.3474761905, 3.76078571429 29.3346458333, 3.79058482143 29.3210119048, 3.81848214286 29.3065744048, 3.84447767857 29.2913333333, 3.86857142857 29.2753824405, 3.89089732143 29.2588154762, 3.91158928571 29.2416324405, 3.93064732143 29.2238333333, 3.94807142857 29.2054181548, 3.96386160714 29.1863869048, 3.97801785714 29.1667395833, 3.99054017857 29.1464761905, 4.00142857143 29.1257976190, 4.01087053571 29.1049047619, 4.01905357143 29.0837976190, 4.02597767857 29.0624761905, 4.03164285714 29.0409404762, 4.03604910714 29.0191904762, 4.03919642857 28.9972261905, 4.04108482143 28.9750476190, 4.04171428571 28.9520252976, 4.04108482143 28.9292440476, 4.03919642857 28.9067038690, 4.03604910714 28.8844047619, 4.03164285714 28.8623467262, 4.02597767857 28.8405297619, 4.01905357143 28.8189538690, 4.01087053571 28.7976190476, 4.00142857143 28.7767261905, 3.99054017857 28.7564761905, 3.97801785714 28.7368690476, 3.96386160714 28.7179047619, 3.94807142857 28.6995833333, 3.93064732143 28.6819047619, 3.91158928571 28.6648690476, 3.89089732143 28.6484761905, 3.86857142857 28.6328199405, 3.84447767857 28.6179940476, 3.81848214286 28.6039985119, 3.79058482143 28.5908333333, 3.76078571429 28.5784985119, 3.72908482143 28.5669940476, 3.69548214286 28.5563199405, 3.65997767857 28.5464761905, 3.62257142857 28.5376369048, 3.58307589286 28.5299761905, 3.54130357143 28.5234940476, 3.49725446429 28.5181904762, 3.45092857143 28.5140654762, 3.40232589286 28.5111190476, 3.35144642857 28.5093511905, 3.29829017857 28.5087619048, 3.24285714286 28.5093511905, 3.18742410714 28.5111190476, 3.13426785714 28.5140654762, 3.08338839286 28.5181904762, 3.03478571429 28.5234940476, 2.98845982143 28.5299761905, 2.94441071429 28.5376369048, 2.90263839286 28.5464761905, 2.86314285714 28.5563199405, 2.82573660714 28.5669940476, 2.79023214286 28.5784985119, 2.75662946429 28.5908333333, 2.72492857143 28.6039985119, 2.69512946429 28.6179940476, 2.66723214286 28.6328199405, 2.64123660714 28.6484761905, 2.61714285714 28.6648690476, 2.59481696429 28.6819047619, 2.574125 28.6995833333, 2.55506696429 28.7179047619, 2.53764285714 28.7368690476, 2.52185267857 28.7564761905, 2.50769642857 28.7767261905, 2.49517410714 28.7976190476, 2.48428571429 28.8189538690, 2.47484375 28.8405297619, 2.46666071429 28.8623467262, 2.45973660714 28.8844047619, 2.45407142857 28.9067038690, 2.44966517857 Z"  />
<path d="M 32.3042306548, 2.73787946429 32.2681904762, 2.73714285714 32.2272083333, 2.73805357143 32.1865476190, 2.74078571429 32.1462083333, 2.74533928571 32.1061904762, 2.75171428571 32.0667083333, 2.76017857143 32.0279761905, 2.771 31.9899940476, 2.78417857143 31.9527619048, 2.79971428571 31.9165476190, 2.81776785714 31.8816190476, 2.8385 31.8479761905, 2.86191071429 31.8156190476, 2.888 31.7848690476, 2.91692857143 31.7560476190, 2.94885714286 31.7291547619, 2.98378571429 31.7041904762, 3.02171428571 31.6822931548, 2.98919642857 31.6586011905, 2.9585 31.6331145833, 2.929625 31.6058333333, 2.90257142857 31.5767574405, 2.87733928571 31.5458869048, 2.85392857143 31.5132217262, 2.83233928571 31.4787619048, 2.81257142857 31.4427752976, 2.79489285714 31.4055297619, 2.77957142857 31.3670252976, 2.76660714286 31.3272619048, 2.756 31.2862395833, 2.74775 31.2439583333, 2.74185714286 31.2004181548, 2.73832142857 31.1556190476, 2.73714285714 31.1202619048, 2.73798660714 31.0853333333, 2.74051785714 31.0508333333, 2.74473660714 31.0167619048, 2.75064285714 30.9831190476, 2.75823660714 30.9499047619, 2.76751785714 30.9171190476, 2.77848660714 30.8847619048, 2.79114285714 30.8532351190, 2.80586160714 30.8229404762, 2.82301785714 30.7938779762, 2.84261160714 30.7660476190, 2.86464285714 30.7394494048, 2.88911160714 30.7140833333, 2.91601785714 30.6899494048, 2.94536160714 30.6670476190, 2.97714285714 30.6670476190, 2.78171428571 30.2316190476, 2.78171428571 30.2316190476, 4.44285714286 30.6790476190, 4.44285714286 30.6790476190, 3.53257142857 30.6808154762, 3.48692857143 30.6861190476, 3.44428571429 30.6900967262, 3.42408928571 30.6949583333, 3.40464285714 30.7007038690, 3.38594642857 30.7073333333, 3.368 30.7226547619, 3.33430357143 30.7403333333, 3.3035 30.7603690476, 3.27558928571 30.7827619048, 3.25057142857 30.8074047619, 3.2285 30.8341904762, 3.20942857143 30.8631190476, 3.19335714286 30.8941904762, 3.18028571429 30.9268154762, 3.17016071429 30.9604047619, 3.16292857143 30.9949583333, 3.15858928571 31.0304761905, 3.15714285714 31.0679627976, 3.15862946429 31.1032797619, 3.16308928571 31.1364270833, 3.17052232143 31.1674047619, 3.18092857143 31.1962127976, 3.19430803571 31.2228511905, 3.21066071429 31.2473199405, 3.22998660714 31.2696190476, 3.25228571429 31.2895074405, 3.27742410714 31.3067440476, 3.30526785714 31.3213288690, 3.33581696429 31.3332619048, 3.36907142857 31.3425431548, 3.40503125 31.3491726190, 3.44369642857 31.3531502976, 3.48506696429 31.3544761905, 3.52914285714 31.3544761905, 4.44285714286 31.8019047619, 4.44285714286 31.8019047619, 3.53257142857 31.8036726190, 3.48692857143 31.8089761905, 3.44428571429 31.8129538690, 3.42408928571 31.8178154762, 3.40464285714 31.8235610119, 3.38594642857 31.8301904762, 3.368 31.8455119048, 3.33430357143 31.8631904762, 3.3035 31.8832261905, 3.27558928571 31.9056190476, 3.25057142857 31.9302619048, 3.2285 31.9570476190, 3.20942857143 31.9859761905, 3.19335714286 32.0170476190, 3.18028571429 32.0496726190, 3.17016071429 32.0832619048, 3.16292857143 32.1178154762, 3.15858928571 32.1533333333, 3.15714285714 32.1904315476, 3.15862946429 32.2254404762, 3.16308928571 32.2583601190, 3.17052232143 32.2891904762, 3.18092857143 32.3179315476, 3.19430803571 32.3445833333, 3.21066071429 32.3691458333, 3.22998660714 32.3916190476, 3.25228571429 32.4117083333, 3.27742410714 32.4291190476, 3.30526785714 32.4438511905, 3.33581696429 32.4559047619, 3.36907142857 32.4652797619, 3.40503125 32.4719761905, 3.44369642857 32.4759940476, 3.48506696429 32.4773333333, 3.52914285714 32.4773333333, 4.44285714286 32.9230476190, 4.44285714286 32.9230476190, 3.38514285714 32.9223109661, 3.34951785714 32.9201011120, 3.31464285714 32.9164180567, 3.28051785714 32.9112618001, 3.24714285714 32.9046323424, 3.21451785714 32.8965296834, 3.18264285714 32.8869538233, 3.15151785714 32.8759047619, 3.12114285714 32.8635029762, 3.09169196429 32.8498690476, 3.06333928571 32.8350029762, 3.03608482143 32.8189047619, 3.00992857143 32.8015744048, 2.98487053571 32.7830119048, 2.96091071429 32.7632172619, 2.93804910714 32.7421904762, 2.91628571429 32.7200118590, 2.89566071429 32.6967618263, 2.87621428571 32.6724403781, 2.85794642857 32.6470475144, 2.84085714286 32.6205832352, 2.82494642857 32.5930475406, 2.81021428571 32.5644404304, 2.79666071429 32.5347619048, 2.78428571429 32.5041592262, 2.77323660714 32.4727797619, 2.76366071429 32.4406235119, 2.75555803571 32.4076904762, 2.74892857143 32.3739806548, 2.74377232143 32.3394940476, 2.74008928571 Z"  />
<path d="M 50.7626666667, 2.62742857143 50.7626666667, 4.004 50.1935238095, 4.004 50.1935238095, 4.44285714286 51.7672380952, 4.44285714286 51.7672380952, 4.004 51.2238095238, 4.004 51.2238095238, 2.00514285714 50.1660952381, 2.37885714286 50.1660952381, 2.84 Z"  />
<path d="M 52.9956175595, 2.00115178571 52.9483809524, 2.0 52.9003005952, 2.00107142857 52.8529166667, 2.00428571429 52.8062291667, 2.00964285714 52.7602380952, 2.01714285714 52.7149434524, 2.02678571429 52.6703452381, 2.03857142857 52.6264434524, 2.0525 52.5832380952, 2.06857142857 52.5410505952, 2.08698665292 52.5002023810, 2.10794650705 52.4606934524, 2.13145099095 52.4225238095, 2.15750010463 52.3856934524, 2.18609384809 52.3502023810, 2.21723222133 52.3160505952, 2.25091522435 52.2832380952, 2.28714285714 52.2519255952, 2.32598214286 52.2222738095, 2.3675 52.1942827381, 2.41169642857 52.1679523810, 2.45857142857 52.1432827381, 2.508125 52.1202738095, 2.56035714286 52.0989255952, 2.61526785714 52.0792380952, 2.67285714286 52.0615595238, 2.73332589286 52.0462380952, 2.796875 52.0332738095, 2.86350446429 52.0226666667, 2.93321428571 52.0144166667, 3.00600446429 52.0085238095, 3.081875 52.0049880952, 3.16082589286 52.0038095238, 3.24285714286 52.0049880952, 3.32488839286 52.0085238095, 3.40383928571 52.0144166667, 3.47970982143 52.0226666667, 3.5525 52.0332738095, 3.62220982143 52.0462380952, 3.68883928571 52.0615595238, 3.75238839286 52.0792380952, 3.81285714286 52.0989255952, 3.87043303571 52.1202738095, 3.92530357143 52.1432827381, 3.97746875 52.1679523810, 4.02692857143 52.1942827381, 4.07368303571 52.2222738095, 4.11773214286 52.2519255952, 4.15907589286 52.2832380952, 4.19771428571 52.3160505952, 4.23375446429 52.3502023810, 4.26730357143 52.3856934524, 4.29836160714 52.4225238095, 4.32692857143 52.4606934524, 4.35300446429 52.5002023810, 4.37658928571 52.5410505952, 4.39768303571 52.5832380952, 4.41628571429 52.6264434524, 4.43255803571 52.6703452381, 4.44666071429 52.7149434524, 4.45859375 52.7602380952, 4.46835714286 52.8062291667, 4.47595089286 52.8529166667, 4.481375 52.9003005952, 4.48462946429 52.9483809524, 4.48571428571 52.9956175595, 4.48462946429 53.0421845238, 4.481375 53.0880818452, 4.47595089286 53.1333095238, 4.46835714286 53.1778675595, 4.45859375 53.2217559524, 4.44666071429 53.2649747024, 4.43255803571 53.3075238095, 4.41628571429 53.3490818452, 4.39768303571 53.3893273810, 4.37658928571 53.4282604167, 4.35300446429 53.4658809524, 4.32692857143 53.5021889881, 4.29836160714 53.5371845238, 4.26730357143 53.5708675595, 4.23375446429 53.6032380952, 4.19771428571 53.6341219780, 4.15907589286 53.6633451596, 4.11773214286 53.6909076400, 4.07368303571 53.7168094192, 4.02692857143 53.7410504971, 3.97746875 53.7636308739, 3.92530357143 53.7845505495, 3.87043303571 53.8038095238, 3.81285714286 53.8210863095, 3.75238839286 53.8360595238, 3.68883928571 53.8487291667, 3.62220982143 53.8590952381, 3.5525 53.8671577381, 3.47970982143 53.8729166667, 3.40383928571 53.8763720238, 3.32488839286 53.8775238095, 3.24285714286 53.8763720238, 3.16405357143 53.8729166667, 3.08792857143 53.8671577381, 3.01448214286 53.8590952381, 2.94371428571 53.8487291667, 2.875625 53.8360595238, 2.81021428571 53.8210863095, 2.74748214286 53.8038095238, 2.68742857143 53.7845505495, 2.63 53.7636308739, 2.57514285714 53.7410504971, 2.52285714286 53.7168094192, 2.47314285714 53.6909076400, 2.426 53.6633451596, 2.38142857143 53.6341219780, 2.33942857143 53.6032380952, 2.3 53.5708675595, 2.26308933149 53.5371845238, 2.22864293562 53.5021889881, 2.19666081238 53.4658809524, 2.16714296177 53.4282604167, 2.14008938381 53.3893273810, 2.11550007847 53.3490818452, 2.09337504578 53.3075238095, 2.07371428571 53.2649747024, 2.0564375 53.2217559524, 2.04146428571 53.1778675595, 2.02879464286 53.1333095238, 2.01842857143 53.0880818452, 2.01036607143 53.0421845238, 2.00460714286 Z M 52.9025773810, 2.44651785714 52.9253586310, 2.44462946429 52.9483809524, 2.444 52.9705595238, 2.44469642857 52.9925238095, 2.44678571429 53.0142738095, 2.45026785714 53.0358095238, 2.45514285714 53.0571309524, 2.46141071429 53.0782380952, 2.46907142857 53.0991309524, 2.478125 53.1198095238, 2.48857142857 53.1400729167, 2.50053125 53.1597202381, 2.514125 53.1787514881, 2.52935267857 53.1971666667, 2.54621428571 53.2149657738, 2.56470982143 53.2321488095, 2.58483928571 53.2487157738, 2.60660267857 53.2646666667, 2.63 53.2799077381, 2.65507142857 53.2943452381, 2.68185714286 53.3079791667, 2.71035714286 53.3208095238, 2.74057142857 53.3328363095, 2.7725 53.3440595238, 2.80614285714 53.3544791667, 2.8415 53.3640952381, 2.87857142857 53.3727336310, 2.91745089286 53.3802202381, 2.95823214286 53.3865550595, 3.00091517857 53.3917380952, 3.0455 53.3957693452, 3.09198660714 53.3986488095, 3.140375 53.4003764881, 3.19066517857 53.4009523810, 3.24285714286 53.4003764881, 3.29829017857 53.3986488095, 3.35144642857 53.3957693452, 3.40232589286 53.3917380952, 3.45092857143 53.3865550595, 3.49725446429 53.3802202381, 3.54130357143 53.3727336310, 3.58307589286 53.3640952381, 3.62257142857 53.3544791667, 3.65997767857 53.3440595238, 3.69548214286 53.3328363095, 3.72908482143 53.3208095238, 3.76078571429 53.3079791667, 3.79058482143 53.2943452381, 3.81848214286 53.2799077381, 3.84447767857 53.2646666667, 3.86857142857 53.2487157738, 3.89089732143 53.2321488095, 3.91158928571 53.2149657738, 3.93064732143 53.1971666667, 3.94807142857 53.1787514881, 3.96386160714 53.1597202381, 3.97801785714 53.1400729167, 3.99054017857 53.1198095238, 4.00142857143 53.0991309524, 4.01087053571 53.0782380952, 4.01905357143 53.0571309524, 4.02597767857 53.0358095238, 4.03164285714 53.0142738095, 4.03604910714 52.9925238095, 4.03919642857 52.9705595238, 4.04108482143 52.9483809524, 4.04171428571 52.9253586310, 4.04108482143 52.9025773810, 4.03919642857 52.8800372024, 4.03604910714 52.8577380952, 4.03164285714 52.8356800595, 4.02597767857 52.8138630952, 4.01905357143 52.7922872024, 4.01087053571 52.7709523810, 4.00142857143 52.7500595238, 3.99054017857 52.7298095238, 3.97801785714 52.7102023810, 3.96386160714 52.6912380952, 3.94807142857 52.6729166667, 3.93064732143 52.6552380952, 3.91158928571 52.6382023810, 3.89089732143 52.6218095238, 3.86857142857 52.6061532738, 3.84447767857 52.5913273810, 3.81848214286 52.5773318452, 3.79058482143 52.5641666667, 3.76078571429 52.5518318452, 3.72908482143 52.5403273810, 3.69548214286 52.5296532738, 3.65997767857 52.5198095238, 3.62257142857 52.5109702381, 3.58307589286 52.5033095238, 3.54130357143 52.4968273810, 3.49725446429 52.4915238095, 3.45092857143 52.4873988095, 3.40232589286 52.4844523810, 3.35144642857 52.4826845238, 3.29829017857 52.4820952381, 3.24285714286 52.4826845238, 3.18742410714 52.4844523810, 3.13426785714 52.4873988095, 3.08338839286 52.4915238095, 3.03478571429 52.4968273810, 2.98845982143 52.5033095238, 2.94441071429 52.5109702381, 2.90263839286 52.5198095238, 2.86314285714 52.5296532738, 2.82573660714 52.5403273810, 2.79023214286 52.5518318452, 2.75662946429 52.5641666667, 2.72492857143 52.5773318452, 2.69512946429 52.5913273810, 2.66723214286 52.6061532738, 2.64123660714 52.6218095238, 2.61714285714 52.6382023810, 2.59481696429 52.6552380952, 2.574125 52.6729166667, 2.55506696429 52.6912380952, 2.53764285714 52.7102023810, 2.52185267857 52.7298095238, 2.50769642857 52.7500595238, 2.49517410714 52.7709523810, 2.48428571429 52.7922872024, 2.47484375 52.8138630952, 2.46666071429 52.8356800595, 2.45973660714 52.8577380952, 2.45407142857 52.8800372024, 2.44966517857 Z"  />
<path d="M 55.0527604167, 2.00115178571 55.0055238095, 2.0 54.9574434524, 2.00107142857 54.9100595238, 2.00428571429 54.8633720238, 2.00964285714 54.8173809524, 2.01714285714 54.7720863095, 2.02678571429 54.7274880952, 2.03857142857 54.6835863095, 2.0525 54.6403809524, 2.06857142857 54.5981934524, 2.08698665292 54.5573452381, 2.10794650705 54.5178363095, 2.13145099095 54.4796666667, 2.15750010463 54.4428363095, 2.18609384809 54.4073452381, 2.21723222133 54.3731934524, 2.25091522435 54.3403809524, 2.28714285714 54.3090684524, 2.32598214286 54.2794166667, 2.3675 54.2514255952, 2.41169642857 54.2250952381, 2.45857142857 54.2004255952, 2.508125 54.1774166667, 2.56035714286 54.1560684524, 2.61526785714 54.1363809524, 2.67285714286 54.1187023810, 2.73332589286 54.1033809524, 2.796875 54.0904166667, 2.86350446429 54.0798095238, 2.93321428571 54.0715595238, 3.00600446429 54.0656666667, 3.081875 54.0621309524, 3.16082589286 54.0609523810, 3.24285714286 54.0621309524, 3.32488839286 54.0656666667, 3.40383928571 54.0715595238, 3.47970982143 54.0798095238, 3.5525 54.0904166667, 3.62220982143 54.1033809524, 3.68883928571 54.1187023810, 3.75238839286 54.1363809524, 3.81285714286 54.1560684524, 3.87043303571 54.1774166667, 3.92530357143 54.2004255952, 3.97746875 54.2250952381, 4.02692857143 54.2514255952, 4.07368303571 54.2794166667, 4.11773214286 54.3090684524, 4.15907589286 54.3403809524, 4.19771428571 54.3731934524, 4.23375446429 54.4073452381, 4.26730357143 54.4428363095, 4.29836160714 54.4796666667, 4.32692857143 54.5178363095, 4.35300446429 54.5573452381, 4.37658928571 54.5981934524, 4.39768303571 54.6403809524, 4.41628571429 54.6835863095, 4.43255803571 54.7274880952, 4.44666071429 54.7720863095, 4.45859375 54.8173809524, 4.46835714286 54.8633720238, 4.47595089286 54.9100595238, 4.481375 54.9574434524, 4.48462946429 55.0055238095, 4.48571428571 55.0527604167, 4.48462946429 55.0993273810, 4.481375 55.1452247024, 4.47595089286 55.1904523810, 4.46835714286 55.2350104167, 4.45859375 55.2788988095, 4.44666071429 55.3221175595, 4.43255803571 55.3646666667, 4.41628571429 55.4062247024, 4.39768303571 55.4464702381, 4.37658928571 55.4854032738, 4.35300446429 55.5230238095, 4.32692857143 55.5593318452, 4.29836160714 55.5943273810, 4.26730357143 55.6280104167, 4.23375446429 55.6603809524, 4.19771428571 55.6912648352, 4.15907589286 55.7204880168, 4.11773214286 55.7480504971, 4.07368303571 55.7739522763, 4.02692857143 55.7981933543, 3.97746875 55.8207737311, 3.92530357143 55.8416934066, 3.87043303571 55.8609523810, 3.81285714286 55.8782291667, 3.75238839286 55.8932023810, 3.68883928571 55.9058720238, 3.62220982143 55.9162380952, 3.5525 55.9243005952, 3.47970982143 55.9300595238, 3.40383928571 55.9335148810, 3.32488839286 55.9346666667, 3.24285714286 55.9335148810, 3.16405357143 55.9300595238, 3.08792857143 55.9243005952, 3.01448214286 55.9162380952, 2.94371428571 55.9058720238, 2.875625 55.8932023810, 2.81021428571 55.8782291667, 2.74748214286 55.8609523810, 2.68742857143 55.8416934066, 2.63 55.8207737311, 2.57514285714 55.7981933543, 2.52285714286 55.7739522763, 2.47314285714 55.7480504971, 2.426 55.7204880168, 2.38142857143 55.6912648352, 2.33942857143 55.6603809524, 2.3 55.6280104167, 2.26308933149 55.5943273810, 2.22864293562 55.5593318452, 2.19666081238 55.5230238095, 2.16714296177 55.4854032738, 2.14008938381 55.4464702381, 2.11550007847 55.4062247024, 2.09337504578 55.3646666667, 2.07371428571 55.3221175595, 2.0564375 55.2788988095, 2.04146428571 55.2350104167, 2.02879464286 55.1904523810, 2.01842857143 55.1452247024, 2.01036607143 55.0993273810, 2.00460714286 Z M 54.9597202381, 2.44651785714 54.9825014881, 2.44462946429 55.0055238095, 2.444 55.0277023810, 2.44469642857 55.0496666667, 2.44678571429 55.0714166667, 2.45026785714 55.0929523810, 2.45514285714 55.1142738095, 2.46141071429 55.1353809524, 2.46907142857 55.1562738095, 2.478125 55.1769523810, 2.48857142857 55.1972157738, 2.50053125 55.2168630952, 2.514125 55.2358943452, 2.52935267857 55.2543095238, 2.54621428571 55.2721086310, 2.56470982143 55.2892916667, 2.58483928571 55.3058586310, 2.60660267857 55.3218095238, 2.63 55.3370505952, 2.65507142857 55.3514880952, 2.68185714286 55.3651220238, 2.71035714286 55.3779523810, 2.74057142857 55.3899791667, 2.7725 55.4012023810, 2.80614285714 55.4116220238, 2.8415 55.4212380952, 2.87857142857 55.4298764881, 2.91745089286 55.4373630952, 2.95823214286 55.4436979167, 3.00091517857 55.4488809524, 3.0455 55.4529122024, 3.09198660714 55.4557916667, 3.140375 55.4575193452, 3.19066517857 55.4580952381, 3.24285714286 55.4575193452, 3.29829017857 55.4557916667, 3.35144642857 55.4529122024, 3.40232589286 55.4488809524, 3.45092857143 55.4436979167, 3.49725446429 55.4373630952, 3.54130357143 55.4298764881, 3.58307589286 55.4212380952, 3.62257142857 55.4116220238, 3.65997767857 55.4012023810, 3.69548214286 55.3899791667, 3.72908482143 55.3779523810, 3.76078571429 55.3651220238, 3.79058482143 55.3514880952, 3.81848214286 55.3370505952, 3.84447767857 55.3218095238, 3.86857142857 55.3058586310, 3.89089732143 55.2892916667, 3.91158928571 55.2721086310, 3.93064732143 55.2543095238, 3.94807142857 55.2358943452, 3.96386160714 55.2168630952, 3.97801785714 55.1972157738, 3.99054017857 55.1769523810, 4.00142857143 55.1562738095, 4.01087053571 55.1353809524, 4.01905357143 55.1142738095, 4.02597767857 55.0929523810, 4.03164285714 55.0714166667, 4.03604910714 55.0496666667, 4.03919642857 55.0277023810, 4.04108482143 55.0055238095, 4.04171428571 54.9825014881, 4.04108482143 54.9597202381, 4.03919642857 54.9371800595, 4.03604910714 54.9148809524, 4.03164285714 54.8928229167, 4.02597767857 54.8710059524, 4.01905357143 54.8494300595, 4.01087053571 54.8280952381, 4.00142857143 54.8072023810, 3.99054017857 54.7869523810, 3.97801785714 54.7673452381, 3.96386160714 54.7483809524, 3.94807142857 54.7300595238, 3.93064732143 54.7123809524, 3.91158928571 54.6953452381, 3.89089732143 54.6789523810, 3.86857142857 54.6632961310, 3.84447767857 54.6484702381, 3.81848214286 54.6344747024, 3.79058482143 54.6213095238, 3.76078571429 54.6089747024, 3.72908482143 54.5974702381, 3.69548214286 54.5867961310, 3.65997767857 54.5769523810, 3.62257142857 54.5681130952, 3.58307589286 54.5604523810, 3.54130357143 54.5539702381, 3.49725446429 54.5486666667, 3.45092857143 54.5445416667, 3.40232589286 54.5415952381, 3.35144642857 54.5398273810, 3.29829017857 54.5392380952, 3.24285714286 54.5398273810, 3.18742410714 54.5415952381, 3.13426785714 54.5445416667, 3.08338839286 54.5486666667, 3.03478571429 54.5539702381, 2.98845982143 54.5604523810, 2.94441071429 54.5681130952, 2.90263839286 54.5769523810, 2.86314285714 54.5867961310, 2.82573660714 54.5974702381, 2.79023214286 54.6089747024, 2.75662946429 54.6213095238, 2.72492857143 54.6344747024, 2.69512946429 54.6484702381, 2.66723214286 54.6632961310, 2.64123660714 54.6789523810, 2.61714285714 54.6953452381, 2.59481696429 54.7123809524, 2.574125 54.7300595238, 2.55506696429 54.7483809524, 2.53764285714 54.7673452381, 2.52185267857 54.7869523810, 2.50769642857 54.8072023810, 2.49517410714 54.8280952381, 2.48428571429 54.8494300595, 2.47484375 54.8710059524, 2.46666071429 54.8928229167, 2.45973660714 54.9148809524, 2.45407142857 54.9371800595, 2.44966517857 Z"  />
<path d="M 58.3347068452, 2.73787946429 58.2986666667, 2.73714285714 58.2576845238, 2.73805357143 58.2170238095, 2.74078571429 58.1766845238, 2.74533928571 58.1366666667, 2.75171428571 58.0971845238, 2.76017857143 58.0584523810, 2.771 58.0204702381, 2.78417857143 57.9832380952, 2.79971428571 57.9470238095, 2.81776785714 57.9120952381, 2.8385 57.8784523810, 2.86191071429 57.8460952381, 2.888 57.8153452381, 2.91692857143 57.7865238095, 2.94885714286 57.7596309524, 2.98378571429 57.7346666667, 3.02171428571 57.7127693452, 2.98919642857 57.6890773810, 2.9585 57.6635907738, 2.929625 57.6363095238, 2.90257142857 57.6072336310, 2.87733928571 57.5763630952, 2.85392857143 57.5436979167, 2.83233928571 57.5092380952, 2.81257142857 57.4732514881, 2.79489285714 57.4360059524, 2.77957142857 57.3975014881, 2.76660714286 57.3577380952, 2.756 57.3167157738, 2.74775 57.2744345238, 2.74185714286 57.2308943452, 2.73832142857 57.1860952381, 2.73714285714 57.1507380952, 2.73798660714 57.1158095238, 2.74051785714 57.0813095238, 2.74473660714 57.0472380952, 2.75064285714 57.0135952381, 2.75823660714 56.9803809524, 2.76751785714 56.9475952381, 2.77848660714 56.9152380952, 2.79114285714 56.8837113095, 2.80586160714 56.8534166667, 2.82301785714 56.8243541667, 2.84261160714 56.7965238095, 2.86464285714 56.7699255952, 2.88911160714 56.7445595238, 2.91601785714 56.7204255952, 2.94536160714 56.6975238095, 2.97714285714 56.6975238095, 2.78171428571 56.2620952381, 2.78171428571 56.2620952381, 4.44285714286 56.7095238095, 4.44285714286 56.7095238095, 3.53257142857 56.7112916667, 3.48692857143 56.7165952381, 3.44428571429 56.7205729167, 3.42408928571 56.7254345238, 3.40464285714 56.7311800595, 3.38594642857 56.7378095238, 3.368 56.7531309524, 3.33430357143 56.7708095238, 3.3035 56.7908452381, 3.27558928571 56.8132380952, 3.25057142857 56.8378809524, 3.2285 56.8646666667, 3.20942857143 56.8935952381, 3.19335714286 56.9246666667, 3.18028571429 56.9572916667, 3.17016071429 56.9908809524, 3.16292857143 57.0254345238, 3.15858928571 57.0609523810, 3.15714285714 57.0984389881, 3.15862946429 57.1337559524, 3.16308928571 57.1669032738, 3.17052232143 57.1978809524, 3.18092857143 57.2266889881, 3.19430803571 57.2533273810, 3.21066071429 57.2777961310, 3.22998660714 57.3000952381, 3.25228571429 57.3199836310, 3.27742410714 57.3372202381, 3.30526785714 57.3518050595, 3.33581696429 57.3637380952, 3.36907142857 57.3730193452, 3.40503125 57.3796488095, 3.44369642857 57.3836264881, 3.48506696429 57.3849523810, 3.52914285714 57.3849523810, 4.44285714286 57.8323809524, 4.44285714286 57.8323809524, 3.53257142857 57.8341488095, 3.48692857143 57.8394523810, 3.44428571429 57.8434300595, 3.42408928571 57.8482916667, 3.40464285714 57.8540372024, 3.38594642857 57.8606666667, 3.368 57.8759880952, 3.33430357143 57.8936666667, 3.3035 57.9137023810, 3.27558928571 57.9360952381, 3.25057142857 57.9607380952, 3.2285 57.9875238095, 3.20942857143 58.0164523810, 3.19335714286 58.0475238095, 3.18028571429 58.0801488095, 3.17016071429 58.1137380952, 3.16292857143 58.1482916667, 3.15858928571 58.1838095238, 3.15714285714 58.2209077381, 3.15862946429 58.2559166667, 3.16308928571 58.2888363095, 3.17052232143 58.3196666667, 3.18092857143 58.3484077381, 3.19430803571 58.3750595238, 3.21066071429 58.3996220238, 3.22998660714 58.4220952381, 3.25228571429 58.4421845238, 3.27742410714 58.4595952381, 3.30526785714 58.4743273810, 3.33581696429 58.4863809524, 3.36907142857 58.4957559524, 3.40503125 58.5024523810, 3.44369642857 58.5064702381, 3.48506696429 58.5078095238, 3.52914285714 58.5078095238, 4.44285714286 58.9535238095, 4.44285714286 58.9535238095, 3.38514285714 58.9527871566, 3.34951785714 58.9505773025, 3.31464285714 58.9468942471, 3.28051785714 58.9417379906, 3.24714285714 58.9351085329, 3.21451785714 58.9270058739, 3.18264285714 58.9174300137, 3.15151785714 58.9063809524, 3.12114285714 58.8939791667, 3.09169196429 58.8803452381, 3.06333928571 58.8654791667, 3.03608482143 58.8493809524, 3.00992857143 58.8320505952, 2.98487053571 58.8134880952, 2.96091071429 58.7936934524, 2.93804910714 58.7726666667, 2.91628571429 58.7504880495, 2.89566071429 58.7272380168, 2.87621428571 58.7029165686, 2.85794642857 58.6775237049, 2.84085714286 58.6510594257, 2.82494642857 58.6235237311, 2.81021428571 58.5949166209, 2.79666071429 58.5652380952, 2.78428571429 58.5346354167, 2.77323660714 58.5032559524, 2.76366071429 58.4710997024, 2.75555803571 58.4381666667, 2.74892857143 58.4044568452, 2.74377232143 58.3699702381, 2.74008928571 Z"  />
<path d="M 100.045880952, 2.38083928571 100.020380952, 2.41314285714 100.318666667, 2.70628571429 100.365809524, 2.65442857143 100.414666667, 2.60514285714 100.440059524, 2.58189285714 100.466523810, 2.56014285714 100.494059524, 2.53989285714 100.522666667, 2.52114285714 100.552505952, 2.50405357143 100.583738095, 2.48878571429 100.616363095, 2.47533928571 100.650380952, 2.46371428571 100.686113095, 2.45433928571 100.723880952, 2.44764285714 100.763684524, 2.443625 100.805523810, 2.44228571429 100.845755952, 2.44394642857 100.884166667, 2.44892857143 100.920755952, 2.45723214286 100.955523810, 2.46885714286 100.988148810, 2.48348214286 101.018309524, 2.50078571429 101.046005952, 2.52076785714 101.071238095, 2.54342857143 101.093898810, 2.56850007847 101.113880952, 2.59571439035 101.131184524, 2.62507150705 101.145809524, 2.65657142857 101.157434524, 2.69 101.165738095, 2.72514285714 101.170720238, 2.762 101.172380952, 2.80057142857 101.171590774, 2.82865625 101.169220238, 2.85633928571 101.165269345, 2.88362053571 101.159738095, 2.9105 101.152626488, 2.93697767857 101.143934524, 2.96305357143 101.133662202, 2.98872767857 101.121809524, 3.014 101.108456845, 3.03903125 101.093684524, 3.06398214286 101.077492560, 3.08885267857 101.059880952, 3.11364285714 101.040849702, 3.13835267857 101.020398810, 3.16298214286 100.998528274, 3.18753125 100.975238095, 3.212 100.126666667, 4.08114285714 100.126666667, 4.44285714286 101.712380952, 4.44285714286 101.712380952, 4.00914285714 100.795238095, 4.00914285714 101.307809524, 3.476 101.378952381, 3.39885714286 101.444952381, 3.32171428571 101.475595238, 3.28266071429 101.504095238, 3.24264285714 101.530452381, 3.20166071429 101.554666667, 3.15971428571 101.576577381, 3.11664285714 101.596023810, 3.07228571429 101.613005952, 3.02664285714 101.627523810, 2.97971428571 101.639148810, 2.93123214286 101.647452381, 2.88092857143 101.652434524, 2.82880357143 101.654095238, 2.77485714286 101.653211310, 2.73244196429 101.650559524, 2.69091071429 101.646139881, 2.65026339286 101.639952381, 2.6105 101.631997024, 2.57162053571 101.622273810, 2.533625 101.610782738, 2.49651339286 101.597523810, 2.46028571429 101.582617560, 2.42514285714 101.566184524, 2.39128571429 101.548224702, 2.35871428571 101.528738095, 2.32742857143 101.507724702, 2.29742857143 101.485184524, 2.26871428571 101.461117560, 2.24128571429 101.435523810, 2.21514285714 101.408456845, 2.19035267857 101.379970238, 2.16698214286 101.350063988, 2.14503125 101.318738095, 2.1245 101.285992560, 2.10538839286 101.251827381, 2.08769642857 101.216242560, 2.07142410714 101.179238095, 2.05657142857 101.140934524, 2.0433125 101.101452381, 2.03182142857 101.060791667, 2.02209821429 101.018952381, 2.01414285714 100.975934524, 2.00795535714 100.931738095, 2.00353571429 100.886363095, 2.00088392857 100.839809524, 2.0 100.798398810, 2.00062946429 100.758166667, 2.00251785714 100.719113095, 2.00566517857 100.681238095, 2.01007142857 100.644541667, 2.01573660714 100.609023810, 2.02266071429 100.574684524, 2.03084375 100.541523810, 2.04028571429 100.478309524, 2.06176785714 100.418952381, 2.08592857143 100.390720238, 2.09901339286 100.363452381, 2.11276785714 100.337148810, 2.12719196429 100.311809524, 2.14228571429 100.263809524, 2.17383928571 100.219238095, 2.20678571429 100.178095238, 2.241125 100.140380952, 2.27685714286 100.105880952, 2.31269642857 100.074380952, 2.34735714286 Z"  />
<path d="M 102.995617560, 2.00115178571 102.948380952, 2.0 102.900300595, 2.00107142857 102.852916667, 2.00428571429 102.806229167, 2.00964285714 102.760238095, 2.01714285714 102.714943452, 2.02678571429 102.670345238, 2.03857142857 102.626443452, 2.0525 102.583238095, 2.06857142857 102.541050595, 2.08698665292 102.500202381, 2.10794650705 102.460693452, 2.13145099095 102.422523810, 2.15750010463 102.385693452, 2.18609384809 102.350202381, 2.21723222133 102.316050595, 2.25091522435 102.283238095, 2.28714285714 102.251925595, 2.32598214286 102.222273810, 2.3675 102.194282738, 2.41169642857 102.167952381, 2.45857142857 102.143282738, 2.508125 102.120273810, 2.56035714286 102.098925595, 2.61526785714 102.079238095, 2.67285714286 102.061559524, 2.73332589286 102.046238095, 2.796875 102.033273810, 2.86350446429 102.022666667, 2.93321428571 102.014416667, 3.00600446429 102.008523810, 3.081875 102.004988095, 3.16082589286 102.003809524, 3.24285714286 102.004988095, 3.32488839286 102.008523810, 3.40383928571 102.014416667, 3.47970982143 102.022666667, 3.5525 102.033273810, 3.62220982143 102.046238095, 3.68883928571 102.061559524, 3.75238839286 102.079238095, 3.81285714286 102.098925595, 3.87043303571 102.120273810, 3.92530357143 102.143282738, 3.97746875 102.167952381, 4.02692857143 102.194282738, 4.07368303571 102.222273810, 4.11773214286 102.251925595, 4.15907589286 102.283238095, 4.19771428571 102.316050595, 4.23375446429 102.350202381, 4.26730357143 102.385693452, 4.29836160714 102.422523810, 4.32692857143 102.460693452, 4.35300446429 102.500202381, 4.37658928571 102.541050595, 4.39768303571 102.583238095, 4.41628571429 102.626443452, 4.43255803571 102.670345238, 4.44666071429 102.714943452, 4.45859375 102.760238095, 4.46835714286 102.806229167, 4.47595089286 102.852916667, 4.481375 102.900300595, 4.48462946429 102.948380952, 4.48571428571 102.995617560, 4.48462946429 103.042184524, 4.481375 103.088081845, 4.47595089286 103.133309524, 4.46835714286 103.177867560, 4.45859375 103.221755952, 4.44666071429 103.264974702, 4.43255803571 103.307523810, 4.41628571429 103.349081845, 4.39768303571 103.389327381, 4.37658928571 103.428260417, 4.35300446429 103.465880952, 4.32692857143 103.502188988, 4.29836160714 103.537184524, 4.26730357143 103.570867560, 4.23375446429 103.603238095, 4.19771428571 103.634121978, 4.15907589286 103.663345160, 4.11773214286 103.690907640, 4.07368303571 103.716809419, 4.02692857143 103.741050497, 3.97746875 103.763630874, 3.92530357143 103.784550549, 3.87043303571 103.803809524, 3.81285714286 103.821086310, 3.75238839286 103.836059524, 3.68883928571 103.848729167, 3.62220982143 103.859095238, 3.5525 103.867157738, 3.47970982143 103.872916667, 3.40383928571 103.876372024, 3.32488839286 103.877523810, 3.24285714286 103.876372024, 3.16405357143 103.872916667, 3.08792857143 103.867157738, 3.01448214286 103.859095238, 2.94371428571 103.848729167, 2.875625 103.836059524, 2.81021428571 103.821086310, 2.74748214286 103.803809524, 2.68742857143 103.784550549, 2.63 103.763630874, 2.57514285714 103.741050497, 2.52285714286 103.716809419, 2.47314285714 103.690907640, 2.426 103.663345160, 2.38142857143 103.634121978, 2.33942857143 103.603238095, 2.3 103.570867560, 2.26308933149 103.537184524, 2.22864293562 103.502188988, 2.19666081238 103.465880952, 2.16714296177 103.428260417, 2.14008938381 103.389327381, 2.11550007847 103.349081845, 2.09337504578 103.307523810, 2.07371428571 103.264974702, 2.0564375 103.221755952, 2.04146428571 103.177867560, 2.02879464286 103.133309524, 2.01842857143 103.088081845, 2.01036607143 103.042184524, 2.00460714286 Z M 102.902577381, 2.44651785714 102.925358631, 2.44462946429 102.948380952, 2.444 102.970559524, 2.44469642857 102.992523810, 2.44678571429 103.014273810, 2.45026785714 103.035809524, 2.45514285714 103.057130952, 2.46141071429 103.078238095, 2.46907142857 103.099130952, 2.478125 103.119809524, 2.48857142857 103.140072917, 2.50053125 103.159720238, 2.514125 103.178751488, 2.52935267857 103.197166667, 2.54621428571 103.214965774, 2.56470982143 103.232148810, 2.58483928571 103.248715774, 2.60660267857 103.264666667, 2.63 103.279907738, 2.65507142857 103.294345238, 2.68185714286 103.307979167, 2.71035714286 103.320809524, 2.74057142857 103.332836310, 2.7725 103.344059524, 2.80614285714 103.354479167, 2.8415 103.364095238, 2.87857142857 103.372733631, 2.91745089286 103.380220238, 2.95823214286 103.386555060, 3.00091517857 103.391738095, 3.0455 103.395769345, 3.09198660714 103.398648810, 3.140375 103.400376488, 3.19066517857 103.400952381, 3.24285714286 103.400376488, 3.29829017857 103.398648810, 3.35144642857 103.395769345, 3.40232589286 103.391738095, 3.45092857143 103.386555060, 3.49725446429 103.380220238, 3.54130357143 103.372733631, 3.58307589286 103.364095238, 3.62257142857 103.354479167, 3.65997767857 103.344059524, 3.69548214286 103.332836310, 3.72908482143 103.320809524, 3.76078571429 103.307979167, 3.79058482143 103.294345238, 3.81848214286 103.279907738, 3.84447767857 103.264666667, 3.86857142857 103.248715774, 3.89089732143 103.232148810, 3.91158928571 103.214965774, 3.93064732143 103.197166667, 3.94807142857 103.178751488, 3.96386160714 103.159720238, 3.97801785714 103.140072917, 3.99054017857 103.119809524, 4.00142857143 103.099130952, 4.01087053571 103.078238095, 4.01905357143 103.057130952, 4.02597767857 103.035809524, 4.03164285714 103.014273810, 4.03604910714 102.992523810, 4.03919642857 102.970559524, 4.04108482143 102.948380952, 4.04171428571 102.925358631, 4.04108482143 102.902577381, 4.03919642857 102.880037202, 4.03604910714 102.857738095, 4.03164285714 102.835680060, 4.02597767857 102.813863095, 4.01905357143 102.792287202, 4.01087053571 102.770952381, 4.00142857143 102.750059524, 3.99054017857 102.729809524, 3.97801785714 102.710202381, 3.96386160714 102.691238095, 3.94807142857 102.672916667, 3.93064732143 102.655238095, 3.91158928571 102.638202381, 3.89089732143 102.621809524, 3.86857142857 102.606153274, 3.84447767857 102.591327381, 3.81848214286 102.577331845, 3.79058482143 102.564166667, 3.76078571429 102.551831845, 3.72908482143 102.540327381, 3.69548214286 102.529653274, 3.65997767857 102.519809524, 3.62257142857 102.510970238, 3.58307589286 102.503309524, 3.54130357143 102.496827381, 3.49725446429 102.491523810, 3.45092857143 102.487398810, 3.40232589286 102.484452381, 3.35144642857 102.482684524, 3.29829017857 102.482095238, 3.24285714286 102.482684524, 3.18742410714 102.484452381, 3.13426785714 102.487398810, 3.08338839286 102.491523810, 3.03478571429 102.496827381, 2.98845982143 102.503309524, 2.94441071429 102.510970238, 2.90263839286 102.519809524, 2.86314285714 102.529653274, 2.82573660714 102.540327381, 2.79023214286 102.551831845, 2.75662946429 102.564166667, 2.72492857143 102.577331845, 2.69512946429 102.591327381, 2.66723214286 102.606153274, 2.64123660714 102.621809524, 2.61714285714 102.638202381, 2.59481696429 102.655238095, 2.574125 102.672916667, 2.55506696429 102.691238095, 2.53764285714 102.710202381, 2.52185267857 102.729809524, 2.50769642857 102.750059524, 2.49517410714 102.770952381, 2.48428571429 102.792287202, 2.47484375 102.813863095, 2.46666071429 102.835680060, 2.45973660714 102.857738095, 2.45407142857 102.880037202, 2.44966517857 Z"  />
<path d="M 105.052760417, 2.00115178571 105.005523810, 2.0 104.957443452, 2.00107142857 104.910059524, 2.00428571429 104.863372024, 2.00964285714 104.817380952, 2.01714285714 104.772086310, 2.02678571429 104.727488095, 2.03857142857 104.683586310, 2.0525 104.640380952, 2.06857142857 104.598193452, 2.08698665292 104.557345238, 2.10794650705 104.517836310, 2.13145099095 104.479666667, 2.15750010463 104.442836310, 2.18609384809 104.407345238, 2.21723222133 104.373193452, 2.25091522435 104.340380952, 2.28714285714 104.309068452, 2.32598214286 104.279416667, 2.3675 104.251425595, 2.41169642857 104.225095238, 2.45857142857 104.200425595, 2.508125 104.177416667, 2.56035714286 104.156068452, 2.61526785714 104.136380952, 2.67285714286 104.118702381, 2.73332589286 104.103380952, 2.796875 104.090416667, 2.86350446429 104.079809524, 2.93321428571 104.071559524, 3.00600446429 104.065666667, 3.081875 104.062130952, 3.16082589286 104.060952381, 3.24285714286 104.062130952, 3.32488839286 104.065666667, 3.40383928571 104.071559524, 3.47970982143 104.079809524, 3.5525 104.090416667, 3.62220982143 104.103380952, 3.68883928571 104.118702381, 3.75238839286 104.136380952, 3.81285714286 104.156068452, 3.87043303571 104.177416667, 3.92530357143 104.200425595, 3.97746875 104.225095238, 4.02692857143 104.251425595, 4.07368303571 104.279416667, 4.11773214286 104.309068452, 4.15907589286 104.340380952, 4.19771428571 104.373193452, 4.23375446429 104.407345238, 4.26730357143 104.442836310, 4.29836160714 104.479666667, 4.32692857143 104.517836310, 4.35300446429 104.557345238, 4.37658928571 104.598193452, 4.39768303571 104.640380952, 4.41628571429 104.683586310, 4.43255803571 104.727488095, 4.44666071429 104.772086310, 4.45859375 104.817380952, 4.46835714286 104.863372024, 4.47595089286 104.910059524, 4.481375 104.957443452, 4.48462946429 105.005523810, 4.48571428571 105.052760417, 4.48462946429 105.099327381, 4.481375 105.145224702, 4.47595089286 105.190452381, 4.46835714286 105.235010417, 4.45859375 105.278898810, 4.44666071429 105.322117560, 4.43255803571 105.364666667, 4.41628571429 105.406224702, 4.39768303571 105.446470238, 4.37658928571 105.485403274, 4.35300446429 105.523023810, 4.32692857143 105.559331845, 4.29836160714 105.594327381, 4.26730357143 105.628010417, 4.23375446429 105.660380952, 4.19771428571 105.691264835, 4.15907589286 105.720488017, 4.11773214286 105.748050497, 4.07368303571 105.773952276, 4.02692857143 105.798193354, 3.97746875 105.820773731, 3.92530357143 105.841693407, 3.87043303571 105.860952381, 3.81285714286 105.878229167, 3.75238839286 105.893202381, 3.68883928571 105.905872024, 3.62220982143 105.916238095, 3.5525 105.924300595, 3.47970982143 105.930059524, 3.40383928571 105.933514881, 3.32488839286 105.934666667, 3.24285714286 105.933514881, 3.16405357143 105.930059524, 3.08792857143 105.924300595, 3.01448214286 105.916238095, 2.94371428571 105.905872024, 2.875625 105.893202381, 2.81021428571 105.878229167, 2.74748214286 105.860952381, 2.68742857143 105.841693407, 2.63 105.820773731, 2.57514285714 105.798193354, 2.52285714286 105.773952276, 2.47314285714 105.748050497, 2.426 105.720488017, 2.38142857143 105.691264835, 2.33942857143 105.660380952, 2.3 105.628010417, 2.26308933149 105.594327381, 2.22864293562 105.559331845, 2.19666081238 105.523023810, 2.16714296177 105.485403274, 2.14008938381 105.446470238, 2.11550007847 105.406224702, 2.09337504578 105.364666667, 2.07371428571 105.322117560, 2.0564375 105.278898810, 2.04146428571 105.235010417, 2.02879464286 105.190452381, 2.01842857143 105.145224702, 2.01036607143 105.099327381, 2.00460714286 Z M 104.959720238, 2.44651785714 104.982501488, 2.44462946429 105.005523810, 2.444 105.027702381, 2.44469642857 105.049666667, 2.44678571429 105.071416667, 2.45026785714 105.092952381, 2.45514285714 105.114273810, 2.46141071429 105.135380952, 2.46907142857 105.156273810, 2.478125 105.176952381, 2.48857142857 105.197215774, 2.50053125 105.216863095, 2.514125 105.235894345, 2.52935267857 105.254309524, 2.54621428571 105.272108631, 2.56470982143 105.289291667, 2.58483928571 105.305858631, 2.60660267857 105.321809524, 2.63 105.337050595, 2.65507142857 105.351488095, 2.68185714286 105.365122024, 2.71035714286 105.377952381, 2.74057142857 105.389979167, 2.7725 105.401202381, 2.80614285714 105.411622024, 2.8415 105.421238095, 2.87857142857 105.429876488, 2.91745089286 105.437363095, 2.95823214286 105.443697917, 3.00091517857 105.448880952, 3.0455 105.452912202, 3.09198660714 105.455791667, 3.140375 105.457519345, 3.19066517857 105.458095238, 3.24285714286 105.457519345, 3.29829017857 105.455791667, 3.35144642857 105.452912202, 3.40232589286 105.448880952, 3.45092857143 105.443697917, 3.49725446429 105.437363095, 3.54130357143 105.429876488, 3.58307589286 105.421238095, 3.62257142857 105.411622024, 3.65997767857 105.401202381, 3.69548214286 105.389979167, 3.72908482143 105.377952381, 3.76078571429 105.365122024, 3.79058482143 105.351488095, 3.81848214286 105.337050595, 3.84447767857 105.321809524, 3.86857142857 105.305858631, 3.89089732143 105.289291667, 3.91158928571 105.272108631, 3.93064732143 105.254309524, 3.94807142857 105.235894345, 3.96386160714 105.216863095, 3.97801785714 105.197215774, 3.99054017857 105.176952381, 4.00142857143 105.156273810, 4.01087053571 105.135380952, 4.01905357143 105.114273810, 4.02597767857 105.092952381, 4.03164285714 105.071416667, 4.03604910714 105.049666667, 4.03919642857 105.027702381, 4.04108482143 105.005523810, 4.04171428571 104.982501488, 4.04108482143 104.959720238, 4.03919642857 104.937180060, 4.03604910714 104.914880952, 4.03164285714 104.892822917, 4.02597767857 104.871005952, 4.01905357143 104.849430060, 4.01087053571 104.828095238, 4.00142857143 104.807202381, 3.99054017857 104.786952381, 3.97801785714 104.767345238, 3.96386160714 104.748380952, 3.94807142857 104.730059524, 3.93064732143 104.712380952, 3.91158928571 104.695345238, 3.89089732143 104.678952381, 3.86857142857 104.663296131, 3.84447767857 104.648470238, 3.81848214286 104.634474702, 3.79058482143 104.621309524, 3.76078571429 104.608974702, 3.72908482143 104.597470238, 3.69548214286 104.586796131, 3.65997767857 104.576952381, 3.62257142857 104.568113095, 3.58307589286 104.560452381, 3.54130357143 104.553970238, 3.49725446429 104.548666667, 3.45092857143 104.544541667, 3.40232589286 104.541595238, 3.35144642857 104.539827381, 3.29829017857 104.539238095, 3.24285714286 104.539827381, 3.18742410714 104.541595238, 3.13426785714 104.544541667, 3.08338839286 104.548666667, 3.03478571429 104.553970238, 2.98845982143 104.560452381, 2.94441071429 104.568113095, 2.90263839286 104.576952381, 2.86314285714 104.586796131, 2.82573660714 104.597470238, 2.79023214286 104.608974702, 2.75662946429 104.621309524, 2.72492857143 104.634474702, 2.69512946429 104.648470238, 2.66723214286 104.663296131, 2.64123660714 104.678952381, 2.61714285714 104.695345238, 2.59481696429 104.712380952, 2.574125 104.730059524, 2.55506696429 104.748380952, 2.53764285714 104.767345238, 2.52185267857 104.786952381, 2.50769642857 104.807202381, 2.49517410714 104.828095238, 2.48428571429 104.849430060, 2.47484375 104.871005952, 2.46666071429 104.892822917, 2.45973660714 104.914880952, 2.45407142857 104.937180060, 2.44966517857 Z"  />
<path d="M 108.334706845, 2.73787946429 108.298666667, 2.73714285714 108.257684524, 2.73805357143 108.217023810, 2.74078571429 108.176684524, 2.74533928571 108.136666667, 2.75171428571 108.097184524, 2.76017857143 108.058452381, 2.771 108.020470238, 2.78417857143 107.983238095, 2.79971428571 107.947023810, 2.81776785714 107.912095238, 2.8385 107.878452381, 2.86191071429 107.846095238, 2.888 107.815345238, 2.91692857143 107.786523810, 2.94885714286 107.759630952, 2.98378571429 107.734666667, 3.02171428571 107.712769345, 2.98919642857 107.689077381, 2.9585 107.663590774, 2.929625 107.636309524, 2.90257142857 107.607233631, 2.87733928571 107.576363095, 2.85392857143 107.543697917, 2.83233928571 107.509238095, 2.81257142857 107.473251488, 2.79489285714 107.436005952, 2.77957142857 107.397501488, 2.76660714286 107.357738095, 2.756 107.316715774, 2.74775 107.274434524, 2.74185714286 107.230894345, 2.73832142857 107.186095238, 2.73714285714 107.150738095, 2.73798660714 107.115809524, 2.74051785714 107.081309524, 2.74473660714 107.047238095, 2.75064285714 107.013595238, 2.75823660714 106.980380952, 2.76751785714 106.947595238, 2.77848660714 106.915238095, 2.79114285714 106.883711310, 2.80586160714 106.853416667, 2.82301785714 106.824354167, 2.84261160714 106.796523810, 2.86464285714 106.769925595, 2.88911160714 106.744559524, 2.91601785714 106.720425595, 2.94536160714 106.697523810, 2.97714285714 106.697523810, 2.78171428571 106.262095238, 2.78171428571 106.262095238, 4.44285714286 106.709523810, 4.44285714286 106.709523810, 3.53257142857 106.711291667, 3.48692857143 106.716595238, 3.44428571429 106.720572917, 3.42408928571 106.725434524, 3.40464285714 106.731180060, 3.38594642857 106.737809524, 3.368 106.753130952, 3.33430357143 106.770809524, 3.3035 106.790845238, 3.27558928571 106.813238095, 3.25057142857 106.837880952, 3.2285 106.864666667, 3.20942857143 106.893595238, 3.19335714286 106.924666667, 3.18028571429 106.957291667, 3.17016071429 106.990880952, 3.16292857143 107.025434524, 3.15858928571 107.060952381, 3.15714285714 107.098438988, 3.15862946429 107.133755952, 3.16308928571 107.166903274, 3.17052232143 107.197880952, 3.18092857143 107.226688988, 3.19430803571 107.253327381, 3.21066071429 107.277796131, 3.22998660714 107.300095238, 3.25228571429 107.319983631, 3.27742410714 107.337220238, 3.30526785714 107.351805060, 3.33581696429 107.363738095, 3.36907142857 107.373019345, 3.40503125 107.379648810, 3.44369642857 107.383626488, 3.48506696429 107.384952381, 3.52914285714 107.384952381, 4.44285714286 107.832380952, 4.44285714286 107.832380952, 3.53257142857 107.834148810, 3.48692857143 107.839452381, 3.44428571429 107.843430060, 3.42408928571 107.848291667, 3.40464285714 107.854037202, 3.38594642857 107.860666667, 3.368 107.875988095, 3.33430357143 107.893666667, 3.3035 107.913702381, 3.27558928571 107.936095238, 3.25057142857 107.960738095, 3.2285 107.987523810, 3.20942857143 108.016452381, 3.19335714286 108.047523810, 3.18028571429 108.080148810, 3.17016071429 108.113738095, 3.16292857143 108.148291667, 3.15858928571 108.183809524, 3.15714285714 108.220907738, 3.15862946429 108.255916667, 3.16308928571 108.288836310, 3.17052232143 108.319666667, 3.18092857143 108.348407738, 3.19430803571 108.375059524, 3.21066071429 108.399622024, 3.22998660714 108.422095238, 3.25228571429 108.442184524, 3.27742410714 108.459595238, 3.30526785714 108.474327381, 3.33581696429 108.486380952, 3.36907142857 108.495755952, 3.40503125 108.502452381, 3.44369642857 108.506470238, 3.48506696429 108.507809524, 3.52914285714 108.507809524, 4.44285714286 108.953523810, 4.44285714286 108.953523810, 3.38514285714 108.952787157, 3.34951785714 108.950577302, 3.31464285714 108.946894247, 3.28051785714 108.941737991, 3.24714285714 108.935108533, 3.21451785714 108.927005874, 3.18264285714 108.917430014, 3.15151785714 108.906380952, 3.12114285714 108.893979167, 3.09169196429 108.880345238, 3.06333928571 108.865479167, 3.03608482143 108.849380952, 3.00992857143 108.832050595, 2.98487053571 108.813488095, 2.96091071429 108.793693452, 2.93804910714 108.772666667, 2.91628571429 108.750488049, 2.89566071429 108.727238017, 2.87621428571 108.702916569, 2.85794642857 108.677523705, 2.84085714286 108.651059426, 2.82494642857 108.623523731, 2.81021428571 108.594916621, 2.79666071429 108.565238095, 2.78428571429 108.534635417, 2.77323660714 108.503255952, 2.76366071429 108.471099702, 2.75555803571 108.438166667, 2.74892857143 108.404456845, 2.74377232143 108.369970238, 2.74008928571 Z"  />
</svg>