<?xml version="1.0" encoding="utf-8"?>
<!-- Generator: Grasshopper 1.0.0, Redback Plugin. SVG Version: 6.00 Build 0) Made by Andrew Butler at Cox Architecture -->
<!DOCTYPE svg PUBLIC "-//W3C//DTD SVG 1.1//EN" "http://www.w3.org/Graphics/SVG/1.1/DTD/svg11.dtd">
<svg version="1.1" xmlns="http://www.w3.org/2000/svg" xmlns:xlink="http://www.w3.org/1999/xlink" x="0px" y="0px"
width="420mm" height="297mm" viewBox="0 0 420 297" xml:space="preserve">
<style type="text/css">
*{font-family:"Mark Offc Pro";}
.lines{fill:none;stroke:Black; stroke-width:0.05mm;}
text{font-size:1;}
.text500{font-size:0.5;}
.bold{font-weight:Bold;}
</style>
<text class="text500" transform="matrix(1.0 0.0 0.0 1.0 278.345134740 274.591503879)">COPYRIGHT COX ARCHITECTURE PTY LTD ACN 002 535 891</text>
<text class="text500" transform="matrix(1.0 0.0 0.0 1.0 278.344180998 276.408310079)">ANY FORM OF REPRODUCTION OF THIS DRAWING IN FULL OR IN PART WITHOUT THE WRITTEN</text>
<text class="text500" transform="matrix(1.0 0.0 0.0 1.0 278.345134740 277.401791997)">PERMISSION OF COX ARCHITECTURE PTY LTD CONSTITUTES AN INFRINGEMENT OF COPYRIGHT</text>
<line x1="5.29857022708" y1="5.22539949538" x2="5.29857022708" y2="10.5239697225" class="lines"/>
<line x1="5.29857022708" y1="5.22539949538" x2="10.5971404542" y2="5.22539949538" class="lines"/>
<line x1="414.701429773" y1="5.22539949538" x2="409.402859546" y2="5.22539949538" class="lines"/>
<line x1="414.701429773" y1="5.22539949538" x2="414.701429773" y2="10.5239697225" class="lines"/>
<line x1="349.486222828" y1="282.426374492" x2="380.324264643" y2="282.426374492" class="lines"/>
<line x1="235.385035513" y1="286.952236561" x2="266.192335765" y2="286.952236561" class="lines"/>
<line x1="235.385035513" y1="283.066618394" x2="266.192335765" y2="283.066618394" class="lines"/>
<line x1="235.385035513" y1="279.181000227" x2="266.192335765" y2="279.181000227" class="lines"/>
<line x1="235.385035513" y1="275.295382061" x2="266.192335765" y2="275.295382061" class="lines"/>
<line x1="203.341402207" y1="286.952236561" x2="234.148702460" y2="286.952236561" class="lines"/>
<line x1="203.341402207" y1="283.066618394" x2="234.148702460" y2="283.066618394" class="lines"/>
<line x1="203.341402207" y1="279.181000227" x2="234.148702460" y2="279.181000227" class="lines"/>
<line x1="203.341402207" y1="275.295382061" x2="234.148702460" y2="275.295382061" class="lines"/>
<line x1="315.998895900" y1="280.064095265" x2="346.836937715" y2="280.064095265" class="lines"/>
<line x1="349.486222828" y1="275.295382061" x2="380.324264643" y2="275.295382061" class="lines"/>
<line x1="315.998895900" y1="284.415208577" x2="346.836937715" y2="284.415208577" class="lines"/>
<line x1="382.973549757" y1="287.462573591" x2="404.109735720" y2="287.462573591" class="lines"/>
<line x1="382.973549757" y1="283.419856409" x2="404.109735720" y2="283.419856409" class="lines"/>
<line x1="382.973549757" y1="279.428266838" x2="404.109735720" y2="279.428266838" class="lines"/>
<line x1="382.973549757" y1="275.295382061" x2="404.109735720" y2="275.295382061" class="lines"/>
<line x1="405.346068773" y1="275.295382061" x2="414.701429773" y2="275.295382061" class="lines"/>
<line x1="405.346068773" y1="279.428266838" x2="414.701429773" y2="279.428266838" class="lines"/>
<line x1="405.346068773" y1="283.419856409" x2="414.701429773" y2="283.419856409" class="lines"/>
<line x1="405.346068773" y1="287.462573591" x2="414.701429773" y2="287.462573591" class="lines"/>
<line x1="315.998895900" y1="275.295382061" x2="346.836937715" y2="275.295382061" class="lines"/>
<line x1="349.486222828" y1="287.462573591" x2="380.324264643" y2="287.462573591" class="lines"/>
<line x1="278.025809272" y1="275.295382061" x2="313.349610786" y2="275.295382061" class="lines"/>
<line x1="313.259091605" y1="289.777612098" x2="278.025648376" y2="289.777612098" class="lines"/>
<line x1="313.259091605" y1="288.423496251" x2="278.025648376" y2="288.423496251" class="lines"/>
<line x1="313.259091605" y1="287.069380403" x2="278.025648376" y2="287.069380403" class="lines"/>
<line x1="313.259091605" y1="285.715264555" x2="278.025648376" y2="285.715264555" class="lines"/>
<line x1="313.259091605" y1="284.361148708" x2="278.025648376" y2="284.361148708" class="lines"/>
<line x1="313.259091605" y1="283.007032860" x2="278.025648376" y2="283.007032860" class="lines"/>
<line x1="313.259091605" y1="281.652917012" x2="278.025648376" y2="281.652917012" class="lines"/>
<line x1="313.259091605" y1="280.298801165" x2="307.600395222" y2="280.298801165" class="lines"/>
<line x1="307.600395222" y1="280.298801165" x2="301.439429704" y2="280.298801165" class="lines"/>
<line x1="301.439429704" y1="280.298801165" x2="280.344832564" y2="280.298801165" class="lines"/>
<line x1="280.344832564" y1="280.298801165" x2="278.025648376" y2="280.298801165" class="lines"/>
<line x1="307.600395222" y1="281.652917012" x2="307.600395222" y2="291.131727946" class="lines"/>
<line x1="307.600395222" y1="280.298801165" x2="307.600395222" y2="281.652917012" class="lines"/>
<line x1="307.600395222" y1="278.908425856" x2="307.600395222" y2="280.298801165" class="lines"/>
<line x1="301.439429704" y1="281.652917012" x2="301.439429704" y2="291.131727946" class="lines"/>
<line x1="301.439429704" y1="280.298801165" x2="301.439429704" y2="281.652917012" class="lines"/>
<line x1="301.439429704" y1="278.908425856" x2="301.439429704" y2="280.298801165" class="lines"/>
<line x1="280.344832564" y1="281.652917012" x2="280.344832564" y2="291.131727946" class="lines"/>
<line x1="280.344832564" y1="280.298801165" x2="280.344832564" y2="281.652917012" class="lines"/>
<line x1="280.344832564" y1="278.908425856" x2="280.344832564" y2="280.298801165" class="lines"/>
<polygon points="278.025648376,291.131727946 313.259091605,291.131727946 313.259091605,281.652917012 313.259091605,278.908425856 307.600395222,278.908425856 278.025648376,278.908425856 278.025648376,280.298801165" class="lines"/>
<polygon points="414.701429773,271.390243902 5.29857022708,271.390243902 5.29857022708,5.22539949538 414.701429773,5.22539949538" class="lines"/>
<polygon points="5.88234455940,277.414734754 5.90591720104,277.680218458 5.97181489661,277.929968560 6.07761770325,278.161565119 6.21928478674,278.370967300 6.45658300591,278.608265519 6.74072992602,278.789197053 7.06257649662,278.904612851 7.41276284770,278.945153042 7.72054643078,278.914187935 8.00759324636,278.825215731 8.26717778571,278.684656077 8.49481637637,278.496788738 8.91030132728,278.912273689 8.59484091344,279.172830374 8.23551217021,279.367737307 8.04102121530,279.439002206 7.83842913139,279.491084238 7.62907336337,279.522690534 7.41276284770,279.534005791 7.04475481109,279.501413420 6.69869634663,279.410270884 6.37791827605,279.263908998 6.08798242422,279.067889576 5.91471627767,278.912512292 5.75953608137,278.739443282 5.62388229511,278.550123002 5.50919537869,278.345991909 5.41704943209,278.128624102 5.34955311602,277.900128236 5.30845044227,277.662248320 5.29349226631,277.414735210 5.32608463703,277.046727042 5.41722717322,276.700668474 5.56358905939,276.379890324 5.75960848104,276.089954415 5.91498576522,275.916688241 6.08805477588,275.761508023 6.27737505592,275.625854222 6.48150614824,275.511167295 6.69887395579,275.419021343 6.92736982181,275.351525023 7.16524973775,275.310422348 7.41276284770,275.295464172 7.63005422115,275.306945027 7.84011060186,275.338806100 8.04312305339,275.391251194 8.23775413083,275.462853694 8.59652238391,275.657824458 8.91030132728,275.917196730 8.49481637637,276.332681225 8.26717786151,276.144813807 8.00759341740,276.004254004 7.72054662320,275.915281644 7.41276284770,275.884316465 7.14727914381,275.907889107 6.89752904094,275.973786803 6.66593248193,276.079589609 6.45653030102,276.221256693 6.21923208185,276.458554912 6.03830054829,276.742701832 5.92288475081,277.064548403" />
<polygon points="19.2764944284,277.815273524 19.6979572614,278.236737269 19.4080143520,278.529668547 18.4903607791,279.447322120 18.0688986348,279.022869783" />
<polygon points="20.5019982941,278.239753069 20.9264768885,277.818262584 22.1310840868,279.022869783 21.7096201181,279.444332839" />
<polygon points="22.1364838636,275.801063347 20.9253962496,277.012150961 20.5026779697,276.589432681 21.7137655837,275.378345067" />
<polygon points="19.2760835956,277.014372753 18.0649956591,275.803284817 18.4877139390,275.380566537 19.6988018755,276.591654473" />
<polygon points="11.4271225429,277.414735210 11.4420807111,277.662248237 11.4831833686,277.900128092 11.5506796596,278.128623920 11.6428255755,278.345991710 11.7575124594,278.550122800 11.8931662145,278.739443090 12.0483463834,278.912512121 12.2216125093,279.067889433 12.5115483497,279.263908902 12.8323264422,279.410270835 13.1783849722,279.501413405 13.5463931242,279.534005791 13.5463931242,278.945153042 13.1962066043,278.904612851 12.8743599127,278.789197053 12.5902129114,278.608265519 12.3529146431,278.370967300 12.2112475390,278.161565119 12.1054447216,277.929968560 12.0395470216,277.680218458 12.0159743798,277.414734754 12.0565145726,277.064548403 12.1719303794,276.742701832 12.3528619382,276.458554912 12.5901602066,276.221256693 12.7995624448,276.079589609 13.0311590826,275.973786803 13.2809092894,275.907889107 13.5463931242,275.884316465 13.5463931242,275.295464628 13.2988800143,275.310422804 13.0610000984,275.351525478 12.8325042323,275.419021794 12.6151364248,275.511167741 12.4110053325,275.625854657 12.2216850524,275.761508443 12.0486160418,275.916688640 11.8932387576,276.089954786 11.6972193359,276.379890638 11.5508574498,276.700668709 11.4597149136,277.046727173" />
<polygon points="13.5463931242,275.884316465 13.8965793091,275.924856657 14.2184257773,276.040272454 14.5025726669,276.221203988 14.7398709352,276.458502207 14.8815381126,276.667904388 14.9873410662,276.899500947 15.0532389651,277.149251050 15.0768118686,277.414734754 15.0362716759,277.764921105 14.9208558691,278.086767675 14.7399243102,278.370914595 14.5026260419,278.608212815 14.2932238037,278.749879898 14.0616271659,278.855682705 13.8118769591,278.921580400 13.5463931242,278.945153042 13.5463931242,279.534005791 13.7933621935,279.519047615 14.0308449189,279.477944941 14.2590934954,279.410448625 14.4763425580,279.318302679 14.6804576281,279.203615762 14.8698453327,279.067961976 15.0430475753,278.912781780 15.1986062596,278.739515633 15.3949406506,278.449579781 15.5416052505,278.128801711 15.6329701367,277.782743246 15.6656637056,277.414735210 15.6507055374,277.167222183 15.6096028799,276.929342327 15.5421065889,276.700846499 15.4499606730,276.483478710 15.3352737891,276.279347620 15.1996200340,276.090027330 15.0444398651,275.916958299 14.8711737392,275.761580987 14.5812378988,275.565561517 14.2604598063,275.419199585 13.9144012763,275.328057015 13.5463931242,275.295464628" />
<polygon points="15.6410176851,287.087467343 15.9141432862,287.087467343 15.9164579099,287.089781967 15.9187725336,287.093253903 15.9187725336,289.307191507 15.9245590930,289.314135379 15.9280310286,289.316450002 15.9315029642,289.316450002 15.9349748998,289.316450002 15.9430760829,289.316450002 15.9511772660,289.316450002 17.2751420439,289.316450002 17.2786139795,289.316450002 17.2820859151,289.316450002 17.2855578507,289.316450002 17.2936590338,289.321079250 17.2959736575,289.556013559 15.6398603733,289.560642807" />
<polygon points="17.6327514113,287.088624655 17.9139781954,287.088624655 17.9151355073,287.136074442 17.9151355073,288.538736427 17.9324951853,288.746473907 17.9915180906,288.947267516 18.0679910890,289.083016582 18.1684421426,289.190447673 18.2921117656,289.270320275 18.4382404720,289.323393874 18.6339708418,289.351458686 18.8305691955,289.339596240 18.9507668829,289.311513344 19.0604402655,289.264226304 19.1581788694,289.195890655 19.2425722208,289.104661930 19.3208354359,288.970413754 19.3687192145,288.822277834 19.4011239468,288.501702447 19.4011239468,287.138389065 19.4011239468,287.092096591 19.6811934191,287.088624655 19.6835080428,287.118714764 19.6835080428,288.550309545 19.6717902601,288.747197227 19.6349009443,288.941480957 19.5479578902,289.161804204 19.4045958824,289.350012047 19.2658631222,289.457497386 19.1071667322,289.532867322 18.9293746963,289.579449125 18.7472427410,289.599991410 18.4959614015,289.593915523 18.2507559493,289.540968505 18.0935785311,289.474169911 17.9576667185,289.382416779 17.8438884954,289.264624130 17.7531118457,289.119706985 17.6875790611,288.950594788 17.6489537775,288.773670736 17.6327514113,288.527163308 17.6327514113,287.139546377" />
<polygon points="15.6387030614,283.811117443 15.9187725336,283.811117443 15.9210871574,283.850466046 15.9210871574,285.285532763 15.8982302480,285.551280501 15.8215583367,285.807480416 15.7481232820,285.944314462 15.6541821076,286.061076380 15.5391923237,286.157223680 15.4026114402,286.232213872 15.2154162454,286.292828081 15.0195412116,286.321326886 14.6966512002,286.310911079 14.4510117561,286.251598846 14.2279398933,286.131527740 14.0709794711,285.976158621 13.9617581635,285.784334179 13.8949234031,285.564878916 13.8714878378,285.337611798 13.8691732140,283.995130030 13.8691732140,283.855095294 13.8691732140,283.816904002 14.1503999981,283.816904002 14.1527146219,283.858567229 14.1527146219,285.249656096 14.1681936681,285.460286856 14.2244679577,285.663973745 14.3054074566,285.810572609 14.4136884483,285.924513579 14.5480089571,286.006556141 14.7070670070,286.057459780 14.8634487733,286.077568074 15.0206985235,286.072504834 15.1468997662,286.049213933 15.2638786799,286.006827386 15.3697907989,285.942307249 15.4627916573,285.852615579 15.5537853030,285.705058316 15.6074556409,285.540141375 15.6352311258,285.270487709 15.6352311258,283.879398843" />
<polygon points="8.13469290418,283.811117443 8.41707700017,283.811117443 8.42054893577,283.867825724 8.42054893577,285.159385770 8.42170624764,285.307521689 8.44774576469,285.523071025 8.52239238023,285.726468585 8.59844946960,285.840319141 8.69251722494,285.930734130 8.80394465830,285.998581539 8.93208078178,286.044729349 9.15327201270,286.075976770 9.37533122752,286.055145156 9.53397336854,286.002614047 9.66451453073,285.917859036 9.76706321211,285.800771624 9.84172791064,285.651243314 9.88845437734,285.469834679 9.90306543969,285.283218140 9.90306543969,283.859724541 9.90306543969,283.811117443 10.1842922238,283.811117443 10.1877641594,283.859724541 10.1877641594,285.283218140 10.1679451937,285.530882880 10.1021230811,285.771603748 10.0161926749,285.940137289 9.89380694474,286.085235265 9.74046312212,286.196481868 9.56628768587,286.270405164 9.33930989561,286.317131630 9.10799218583,286.324798822 8.85888080607,286.293551401 8.62192120094,286.210224947 8.50731115993,286.141690384 8.40810783318,286.057749108 8.32409422471,285.958618113 8.25505333853,285.844514396 8.18662727429,285.668313664 8.14858064661,285.483433093 8.13353559231,285.224195234 8.13353559231,283.865511100" />
<polygon points="13.3356524425,286.284292906 13.0567402821,286.284292906 13.0567402821,286.129213116 13.0567402821,285.977605261 13.0567402821,284.591145642 13.0567402821,284.434908540 13.0567402821,284.283300685 13.0567402821,284.130535518 13.0474817872,284.129378207 13.0440098516,284.130535518 13.0405379160,284.132850142 13.0382232922,284.136322078 13.0347513566,284.143265949 13.0301221092,284.154839068 12.1899136924,286.280820971 12.1852844449,286.285450218 11.8797541116,286.285450218 11.0071409625,284.130535518 10.9990397794,284.130535518 10.9955678438,284.131692830 10.9932532201,284.135164766 10.9909385963,284.151367132 10.9909385963,286.281978282 10.7235995547,286.285450218 10.7212849309,283.816904002 11.1772658072,283.814589378 12.0313619664,285.972976014 12.0530615639,285.967623446 12.0591374512,285.950987088 12.1401492821,285.742670952 12.4433649917,284.961485440 12.7882439286,284.076141861 12.8889300612,283.816904002 13.3321805069,283.813432066" />
<polygon points="21.1070016414,289.612721841 21.0734395972,289.606935282 20.8772752355,289.588128964 20.6845828093,289.543283129 20.5370797950,289.484007061 20.4055259850,289.403248393 20.2902468730,289.300790126 20.1915679532,289.176415266 20.0966683800,289.000503862 20.3420184962,288.880143428 20.4045133371,288.997031927 20.4945847499,289.120773882 20.6042942984,289.217065846 20.7324485049,289.287535289 20.8778538914,289.333809680 21.0400222170,289.359270542 21.2030585265,289.363899789 21.3737620272,289.348999399 21.5409935922,289.307191507 21.6619326825,289.250917218 21.7655120948,289.165999459 21.8471025815,289.032185275 21.8696701630,288.876671492 21.8615689799,288.793345038 21.8332871711,288.708174117 21.7863437084,288.638843903 21.6451516604,288.539893738 21.5106141557,288.495626560 21.3708687475,288.470455026 21.0653384141,288.431106423 20.8431345353,288.405645562 20.6691037631,288.371938854 20.5028848459,288.309588677 20.3736818256,288.224363507 20.2790896633,288.116462258 20.2185658691,287.986210424 20.1915679532,287.833933499 20.1973545126,287.675092445 20.2413323636,287.521459294 20.3514216551,287.351189785 20.5075140934,287.221715520 20.7020871513,287.129709226 20.9114159356,287.079366160 21.2100023977,287.065478418 21.4701082403,287.103091053 21.7145903725,287.199726594 21.8806646257,287.320665685 22.0154914584,287.476324131 22.0918740418,287.596684565 21.8615689799,287.737876613 21.8256923119,287.678853708 21.7398523207,287.562236454 21.6380631252,287.466342316 21.5195652396,287.391930780 21.3835991781,287.339761331 21.2327146432,287.312853830 21.0792261566,287.308513910 20.9358641488,287.321533669 20.7968420606,287.357121009 20.6575306444,287.425257745 20.5433907613,287.530717789 20.4785812967,287.662217350 20.4693228017,287.808472637 20.5190872121,287.958923180 20.6126848095,288.053822754 20.7331899078,288.110531035 20.9877985189,288.157980822 21.2898569167,288.192700178 21.5155327311,288.222790286 21.7033065818,288.268504105 21.8789286579,288.348937280 21.9805008574,288.426368677 22.0578780056,288.519640781 22.1111686006,288.628536594 22.1404811402,288.752839122 22.1393238284,288.979527585 22.0687278044,289.194932256 21.9728155833,289.329325097 21.8465239256,289.436810437 21.6716251694,289.527804082 21.4819706869,289.581474420 21.2562948725,289.609249905 21.2354632589,289.616193776" />
<polygon points="5.29349226631,284.967272000 5.30853732060,284.853855436 5.33850084820,284.684508161 5.38766851963,284.522430250 5.45745080872,284.368381190 5.54925818931,284.223120468 5.74209527945,284.022037531 5.98093551637,283.878241531 6.20921528249,283.804462899 6.44617488762,283.774083463 6.67951789316,283.782039982 6.90678501140,283.830791744 7.05578891450,283.889507239 7.19177305909,283.967209881 7.31430345319,284.064659157 7.42294610488,284.182614553 7.56370416092,284.411906967 7.64977923116,284.666370914 7.65325116677,284.686045215 7.37665363013,284.753169304 7.35003545714,284.662898978 7.27726947339,284.481779671 7.17065211748,284.318020041 7.07517388831,284.218491220 6.96754388451,284.138926029 6.84776210609,284.079758460 6.71582855305,284.041422505 6.56810854280,284.021784369 6.42201600236,284.024062826 6.27787642570,284.048908866 6.13601530678,284.096973474 6.00751752335,284.165634617 5.89616242198,284.253065913 5.80173300668,284.358507874 5.72401228150,284.481201015 5.64430242653,284.674616761 5.60365184714,284.879316298 5.59092141659,285.086475122 5.61942022136,285.353814164 5.70780991533,285.607265463 5.79529545941,285.746540713 5.90339562116,285.862163402 6.03232739654,285.953916534 6.18230778154,286.021583112 6.36082313730,286.063680331 6.54454639647,286.073662146 6.78121667363,286.041836070 7.00052727277,285.947515152 7.14345528856,285.833085941 7.25513588390,285.688277294 7.34714217747,285.491534276 7.39748524376,285.280903516 7.40674373871,285.240397601 7.68912783470,285.273959645 7.68565589909,285.321409431 7.65059296607,285.488550581 7.59610889324,285.647337386 7.52014221886,285.796793364 7.42063148114,285.935942034 7.31030711065,286.049557510 7.18642049169,286.142666866 7.04973111019,286.216029589 6.90099845205,286.270405164 6.68168785292,286.314527679 6.45890531818,286.324798822 6.21905243337,286.299627288 5.98787938758,286.231056560 5.84408338788,286.159610635 5.71504311451,286.070045547 5.60119255942,285.962035800 5.50296571456,285.835255901 5.38289460817,285.601478904 5.31663850368,285.346870293 5.30043613752,285.216094051 5.29349226631,285.189475878" />
<text class="bold" transform="matrix(1.0 0.0 0.0 1.0 27.3849531533 276.096626857)">Cox Architecture</text>
<text  transform="matrix(1.0 0.0 0.0 1.0 27.3849531533 277.373365714)">70 George Street</text>
<text  transform="matrix(1.0 0.0 0.0 1.0 27.3849531533 278.509077446)">The Rocks (Tallawoladah)</text>
<text  transform="matrix(1.0 0.0 0.0 1.0 27.3835402013 279.665983460)">Sydney, NSW 2000, Australia</text>
<text  transform="matrix(1.0 0.0 0.0 1.0 27.3849531533 280.805227572)">T + 61 2 9267 9599</text>
<text  transform="matrix(1.0 0.0 0.0 1.0 27.3849531533 281.952949397)">F + 61 2 9264 5844</text>
<text  transform="matrix(1.0 0.0 0.0 1.0 27.3849531533 284.248393047)">coxarchitecture.com.au</text>
<text class="bold" transform="matrix(1.0 0.0 0.0 1.0 27.3849531533 285.496114872)">Nominated Architects</text>
<text  transform="matrix(1.0 0.0 0.0 1.0 27.3849531533 286.743836698)">Joe Agius no. 6491</text>
<text  transform="matrix(1.0 0.0 0.0 1.0 27.3849531533 287.891558523)">Russell Lee no. 6367</text>
<text class="text1000 bold" transform="matrix(1.0 0.0 0.0 1.0 316.369479859 276.595612659)">Client</text>
<text class="text1000 bold" transform="matrix(1.0 0.0 0.0 1.0 316.369479859 281.335495538)">Project No.</text>
<text class="text1000 bold" transform="matrix(1.0 0.0 0.0 1.0 316.336370179 285.678784192)">Document Control Status:</text>
<text class="text1000 bold" transform="matrix(1.0 0.0 0.0 1.0 349.836148448 276.578236784)">Project</text>
<text class="text1000 bold" transform="matrix(1.0 0.0 0.0 1.0 349.770204274 283.765017988)">Acknowledgement</text>
<text class="text1000 bold" transform="matrix(1.0 0.0 0.0 1.0 349.839460843 289.015818461)">Drawing Title:</text>
<text class="text1000 bold" transform="matrix(1.0 0.0 0.0 1.0 383.326787772 276.485382061)">Co-ordinated:</text>
<text class="text1000 bold" transform="matrix(1.0 0.0 0.0 1.0 383.326787772 280.629570455)">Project Architect:</text>
<text class="text1000 bold" transform="matrix(1.0 0.0 0.0 1.0 383.326787772 284.621160026)">Project Director:</text>
<text class="text1000 bold" transform="matrix(1.0 0.0 0.0 1.0 383.326787772 288.795044701)">Drawing Number:</text>
<text class="text1000 bold" transform="matrix(1.0 0.0 0.0 1.0 405.699306788 276.496685677)">Drawn:</text>
<text class="text1000 bold" transform="matrix(1.0 0.0 0.0 1.0 405.699306788 280.747683703)">Scale:</text>
<text class="text1000 bold" transform="matrix(1.0 0.0 0.0 1.0 405.699306788 284.676353465)">Date:</text>
<text class="text1000 bold" transform="matrix(1.0 0.0 0.0 1.0 405.699306788 288.774264087)">Revision:</text>
<text class="text500" transform="matrix(1.0 0.0 0.0 1.0 278.345134740 277.401791997)">PERMISSION OF COX ARCHITECTURE PTY LTD CONSTITUTES AN INFRINGEMENT OF COPYRIGHT</text>
<text class="text500" transform="matrix(1.0 0.0 0.0 1.0 278.344180998 276.408310079)">ANY FORM OF REPRODUCTION OF THIS DRAWING IN FULL OR IN PART WITHOUT THE WRITTEN</text>
<text class="text500" transform="matrix(1.0 0.0 0.0 1.0 278.345134740 274.591503879)">COPYRIGHT COX ARCHITECTURE PTY LTD ACN 002 535 891</text>
</svg>